<svg width="40" height="40" viewBox="0 0 40 40" fill="none" xmlns="http://www.w3.org/2000/svg">
<path d="M34.1668 10H5.83331" stroke="#FF6B00" stroke-width="3" stroke-linecap="round"/>
<path d="M31.3887 14.1667L30.622 25.6652C30.327 30.0901 30.1795 32.3026 28.7378 33.6512C27.2962 35.0001 25.0788 35.0001 20.6442 35.0001H19.3553C14.9206 35.0001 12.7033 35.0001 11.2616 33.6512C9.81991 32.3026 9.67241 30.0901 9.37741 25.6652L8.61084 14.1667" stroke="#FF6B00" stroke-width="3" stroke-linecap="round"/>
<path d="M15.8333 18.3333L16.6666 26.6666" stroke="#FF6B00" stroke-width="3" stroke-linecap="round"/>
<path d="M24.1666 18.3333L23.3333 26.6666" stroke="#FF6B00" stroke-width="3" stroke-linecap="round"/>
<path d="M10.8333 10C10.9264 10 10.973 10 11.0152 9.99893C12.3876 9.96415 13.5983 9.09152 14.0653 7.80053C14.0797 7.76082 14.0944 7.71665 14.1239 7.62828L14.2857 7.14285C14.4238 6.72847 14.4929 6.52127 14.5845 6.34533C14.95 5.64345 15.6262 5.15607 16.4077 5.03128C16.6035 5 16.822 5 17.2588 5H22.7411C23.178 5 23.3965 5 23.5923 5.03128C24.3738 5.15607 25.05 5.64345 25.4155 6.34533C25.5071 6.52127 25.5761 6.72847 25.7143 7.14285L25.8761 7.62828C25.9055 7.71653 25.9203 7.76085 25.9346 7.80053C26.4016 9.09152 27.6123 9.96415 28.9848 9.99893C29.027 10 29.0735 10 29.1666 10" stroke="#FF6B00" stroke-width="3"/>
</svg>
