<svg width="30" height="30" viewBox="0 0 30 30" fill="none" xmlns="http://www.w3.org/2000/svg">
<path d="M20.7869 17.3635L21.3562 16.7974L20.0341 15.4678L19.4649 16.0339L20.7869 17.3635ZM23.2682 16.5603L25.6564 17.8585L26.5519 16.2113L24.1637 14.913L23.2682 16.5603ZM26.1161 20.4388L24.3404 22.2044L25.6624 23.534L27.4381 21.7684L26.1161 20.4388ZM23.2584 22.7729C21.446 22.9418 16.757 22.7913 11.6802 17.7433L10.3582 19.0729C15.8982 24.5815 21.1711 24.8505 23.4324 24.6398L23.2584 22.7729ZM11.6802 17.7433C6.841 12.9315 6.03939 8.88446 5.9396 7.12871L4.06762 7.2351C4.1932 9.44488 5.18579 13.9299 10.3582 19.0729L11.6802 17.7433ZM13.3994 10.0179L13.7579 9.66142L12.4359 8.33183L12.0774 8.68831L13.3994 10.0179ZM14.0432 5.11741L12.4671 3.01191L10.9661 4.13558L12.5422 6.2411L14.0432 5.11741ZM7.16579 2.55363L5.20379 4.5045L6.52584 5.8341L8.48784 3.88323L7.16579 2.55363ZM12.7384 9.35311C12.0774 8.68831 12.0765 8.6892 12.0756 8.6901C12.0753 8.6904 12.0744 8.69131 12.0737 8.69192C12.0725 8.69316 12.0713 8.69441 12.07 8.6957C12.0675 8.69828 12.0648 8.70097 12.0621 8.70377C12.0567 8.70938 12.051 8.71546 12.045 8.72201C12.0329 8.7351 12.0197 8.75007 12.0055 8.76698C11.9772 8.8008 11.9451 8.84243 11.9113 8.89225C11.8436 8.99211 11.7699 9.12415 11.7074 9.2902C11.5797 9.62901 11.5113 10.0756 11.5971 10.6287C11.7649 11.7103 12.5097 13.139 14.4179 15.0363L15.7399 13.7066C13.9542 11.9311 13.5289 10.8506 13.4499 10.3413C13.4122 10.0988 13.4512 9.97953 13.462 9.95128C13.4685 9.93381 13.4716 9.93202 13.4636 9.94396C13.4596 9.9498 13.453 9.95893 13.4426 9.97125C13.4375 9.97741 13.4314 9.98438 13.4242 9.99216C13.4206 9.99605 13.4169 10.0001 13.4126 10.0044C13.4106 10.0066 13.4085 10.0088 13.4062 10.011C13.4051 10.0121 13.404 10.0133 13.4029 10.0144C13.4024 10.015 13.4015 10.0159 13.4011 10.0162C13.4002 10.017 13.3994 10.0179 12.7384 9.35311ZM14.4179 15.0363C16.3266 16.9341 17.762 17.6728 18.8454 17.839C19.399 17.9239 19.8454 17.8561 20.184 17.73C20.35 17.6681 20.4822 17.5953 20.5822 17.5283C20.6322 17.4948 20.674 17.4629 20.7079 17.4348C20.7249 17.4208 20.7399 17.4076 20.753 17.3956C20.7596 17.3896 20.7657 17.384 20.7714 17.3786C20.7742 17.3759 20.7769 17.3733 20.7795 17.3708C20.7807 17.3695 20.782 17.3683 20.7832 17.367C20.7839 17.3664 20.7849 17.3655 20.7851 17.3653C20.786 17.3644 20.7869 17.3635 20.1259 16.6986C19.4649 16.0339 19.4657 16.033 19.4666 16.0321C19.4669 16.0319 19.4677 16.031 19.4684 16.0304C19.4695 16.0293 19.4706 16.0281 19.4717 16.027C19.4741 16.0249 19.4762 16.0228 19.4784 16.0206C19.4827 16.0165 19.4869 16.0128 19.4907 16.0091C19.4985 16.0021 19.5055 15.996 19.5117 15.991C19.524 15.9808 19.5331 15.9743 19.5387 15.9704C19.5504 15.9626 19.548 15.9661 19.5295 15.973C19.4989 15.9844 19.3762 16.0235 19.1297 15.9856C18.6131 15.9065 17.525 15.4815 15.7399 13.7066L14.4179 15.0363ZM12.4671 3.01191C11.1929 1.30992 8.68745 1.04061 7.16579 2.55363L8.48784 3.88323C9.15244 3.2224 10.3328 3.28966 10.9661 4.13558L12.4671 3.01191ZM5.9396 7.12871C5.91501 6.69607 6.11344 6.24415 6.52584 5.8341L5.20379 4.5045C4.53214 5.17233 4.00411 6.11771 4.06762 7.2351L5.9396 7.12871ZM24.3404 22.2044C23.9969 22.546 23.6286 22.7384 23.2584 22.7729L23.4324 24.6398C24.3506 24.5541 25.103 24.0903 25.6624 23.534L24.3404 22.2044ZM13.7579 9.66142C14.9885 8.43777 15.08 6.50227 14.0432 5.11741L12.5422 6.2411C13.0466 6.91482 12.9716 7.79912 12.4359 8.33183L13.7579 9.66142ZM25.6564 17.8585C26.6786 18.4143 26.8379 19.721 26.1161 20.4388L27.4381 21.7684C29.1135 20.1025 28.5969 17.3229 26.5519 16.2113L25.6564 17.8585ZM21.3562 16.7974C21.8362 16.3201 22.6089 16.2019 23.2682 16.5603L24.1637 14.913C22.8092 14.1766 21.1282 14.38 20.0341 15.4678L21.3562 16.7974Z" fill="#1C274C"/>
</svg>
