<svg width="24" height="20" viewBox="0 0 24 20" fill="none" xmlns="http://www.w3.org/2000/svg">
<path d="M16.8889 15.8966H23M19.9444 12.7931V19M12 18.3793H4.91111C3.5421 18.3793 2.85758 18.3793 2.33469 18.1087C1.87473 17.8707 1.50078 17.4909 1.26643 17.0237C1 16.4927 1 15.7974 1 14.4069V4.97241C1 3.58194 1 2.8867 1.26643 2.35561C1.50078 1.88844 1.87473 1.50863 2.33469 1.27061C2.85758 1 3.5421 1 4.91111 1H19.0889C20.4579 1 21.1425 1 21.6653 1.27061C22.1253 1.50863 22.4993 1.88844 22.7336 2.35561C23 2.8867 23 3.58194 23 4.97241V8.44828M22.5193 5.04974L16.3388 9.23469C14.7707 10.2964 13.9866 10.8274 13.1391 11.0337C12.3901 11.2159 11.6094 11.2159 10.8605 11.0337C10.013 10.8274 9.22897 10.2964 7.66081 9.23469L1.18023 4.84657" stroke="black" stroke-width="2" stroke-linecap="round" stroke-linejoin="round"/>
</svg>
