<svg width="27" height="27" viewBox="0 0 27 27" fill="none" xmlns="http://www.w3.org/2000/svg">
<path d="M13.5 26.8072C13.3723 26.8075 13.2459 26.7824 13.1281 26.7334C13.0102 26.6844 12.9033 26.6125 12.8134 26.5218L5.55426 19.2858C4.1789 17.9387 3.1745 16.2594 2.63826 14.4104C2.38259 13.4516 2.25293 12.4635 2.25254 11.4712C2.24814 9.87106 2.58524 8.28836 3.24132 6.82885C3.89739 5.36935 4.85735 4.06664 6.05706 3.00773C7.25677 1.94882 8.66862 1.1581 10.1983 0.688373C11.728 0.218647 13.3403 0.0807336 14.9276 0.283843C16.5148 0.486953 18.0404 1.02641 19.4025 1.86618C20.7647 2.70595 21.9319 3.82671 22.8263 5.15359C23.7208 6.48047 24.3218 7.98292 24.5892 9.56061C24.8566 11.1383 24.7843 12.7549 24.3771 14.3024C23.8492 16.1933 22.8329 17.9121 21.4303 19.2858L20.3348 20.3658L14.1634 26.5372C14.076 26.6237 13.9725 26.6921 13.8586 26.7384C13.7448 26.7847 13.6229 26.8081 13.5 26.8072ZM13.5 2.12152C11.1999 2.11021 8.97889 2.96062 7.27455 4.50524C6.30217 5.38146 5.52494 6.45239 4.99333 7.64851C4.46173 8.84462 4.18763 10.1392 4.18883 11.4481C4.1845 12.2712 4.29088 13.0911 4.50512 13.8858C4.95955 15.4102 5.79911 16.7917 6.94283 17.8972L13.5154 24.4775L20.0571 17.9127C21.2229 16.784 22.0716 15.3687 22.518 13.8087C22.8573 12.5138 22.914 11.1612 22.6841 9.84249C22.4542 8.52383 21.9432 7.2701 21.1857 6.16649C20.4283 5.06287 19.4422 4.13523 18.2943 3.44658C17.1465 2.75794 15.8639 2.32444 14.5337 2.17552C14.1878 2.13851 13.8401 2.12048 13.4923 2.12152H13.5Z" fill="black"/>
<path d="M13.5 13.1142C14.5651 13.1142 15.4286 12.2508 15.4286 11.1857C15.4286 10.1205 14.5651 9.25708 13.5 9.25708C12.4349 9.25708 11.5714 10.1205 11.5714 11.1857C11.5714 12.2508 12.4349 13.1142 13.5 13.1142Z" fill="black"/>
</svg>
