<svg width="46" height="46" viewBox="0 0 46 46" fill="none" xmlns="http://www.w3.org/2000/svg">
<path fill-rule="evenodd" clip-rule="evenodd" d="M18.2083 17.25L15.3333 16.2917L18.2083 15.3333L19.1666 11.5L20.125 15.3333L23 16.2917L20.125 17.25L19.1666 21.0833L18.2083 17.25Z" fill="#FF6B00"/>
<path fill-rule="evenodd" clip-rule="evenodd" d="M29.3951 12.362L27.2858 13.4167L29.3589 14.4532L30.1875 16.9389L31.0161 14.4532L33.0892 13.4167L30.9799 12.362L30.1875 9.66767L29.3951 12.362ZM27.7917 11.0208L23 13.4167L27.7917 15.8125L30.1875 23L32.5833 15.8125L37.375 13.4167L32.5833 11.0208L30.1875 2.875L27.7917 11.0208Z" fill="#FF6B00"/>
<path fill-rule="evenodd" clip-rule="evenodd" d="M4.79169 24.9166C4.79169 24.3873 5.22075 23.9583 5.75002 23.9583H11.5C12.0293 23.9583 12.4584 24.3873 12.4584 24.9166V25.2563C13.629 24.839 14.8038 24.4096 15.2061 24.2297C15.6024 24.0525 16.0629 23.9913 16.4509 23.9694C16.858 23.9463 17.2812 23.9622 17.6529 23.9904C18.0276 24.0188 18.3679 24.0613 18.6137 24.0963C18.7372 24.114 18.8381 24.1299 18.9091 24.1417C18.9447 24.1475 18.9729 24.1523 18.9928 24.1559L19.0162 24.16L19.0231 24.1612L19.0264 24.1618C19.0266 24.1618 19.0267 24.1619 18.8542 25.1045L19.0264 24.1618C19.0377 24.1638 19.0491 24.1661 19.0602 24.1686L25.7841 25.6488C25.8113 25.6547 25.8382 25.6619 25.8649 25.6702C25.8647 25.6702 25.865 25.6703 25.8649 25.6702L25.8665 25.6708L25.8768 25.674L25.9243 25.6881C25.9674 25.7009 26.0328 25.7197 26.1168 25.7425C26.2854 25.7884 26.5275 25.8501 26.8162 25.9119C27.4017 26.0373 28.1422 26.1549 28.8349 26.1549C29.4463 26.1549 30.0787 26.3766 30.4197 26.9894C30.7156 27.521 30.6473 28.1079 30.5353 28.5169C30.3845 29.0671 30.0589 29.6474 29.6503 30.1218C30.2135 29.9179 30.8377 29.6669 31.5123 29.3953L31.5734 29.3707C33.2201 28.7078 35.1631 27.9255 36.876 27.6475C38.8143 27.3328 40.2197 28.0201 40.8602 29.2467C41.4348 30.3473 41.2981 31.7896 40.4409 32.6521C40.2268 32.8675 39.8986 33.0953 39.5649 33.3077C39.2096 33.5338 38.7713 33.7897 38.2836 34.0611C37.307 34.6047 36.0974 35.2298 34.8826 35.8344C32.4753 37.0324 29.9562 38.1953 29.159 38.4818C27.8015 38.9697 26.2198 38.8131 24.7521 38.6678C24.7092 38.6636 24.6663 38.6594 24.6235 38.6552C24.1866 38.612 23.7489 38.5689 23.3007 38.5356C21.3552 38.3909 19.8645 37.9261 18.482 37.4947L18.4586 37.4874C16.9714 37.0236 15.6064 36.6012 13.7735 36.5287C13.5287 36.519 13.0374 36.5259 12.4584 36.5413V37.8541C12.4584 38.3834 12.0293 38.8124 11.5 38.8124H5.75002C5.22075 38.8124 4.79169 38.3834 4.79169 37.8541V24.9166ZM21.1655 30.6022L20.9967 31.5455C20.506 31.4577 20.1644 31.0081 20.2115 30.5118C20.2585 30.0154 20.6783 29.638 21.1769 29.6439L26.6051 29.7083C26.6092 29.7083 26.6133 29.7084 26.6173 29.7085C26.622 29.7083 26.6316 29.7079 26.6458 29.7066C26.6861 29.7031 26.7638 29.6932 26.8725 29.6655C27.0879 29.6107 27.4361 29.4833 27.8646 29.183C28.017 29.0763 28.1983 28.8933 28.362 28.6599C28.508 28.4516 28.6126 28.2421 28.6688 28.0699C27.8413 28.0533 27.023 27.9163 26.4148 27.786C26.0862 27.7157 25.8098 27.6452 25.6138 27.592C25.5157 27.5653 25.4373 27.5428 25.3824 27.5266C25.3637 27.5211 25.3477 27.5164 25.3345 27.5123L18.6672 26.0446L18.6633 26.044C18.6488 26.0415 18.6265 26.0376 18.597 26.0328C18.5379 26.023 18.4509 26.0092 18.3429 25.9938C18.1257 25.9628 17.8291 25.9259 17.5078 25.9016C17.1835 25.8769 16.8516 25.8664 16.5594 25.883C16.2481 25.9006 16.065 25.9452 15.9886 25.9794C15.3422 26.2685 13.2239 27.022 11.8176 27.5161C11.5245 27.619 11.1995 27.5735 10.9459 27.3938C10.6923 27.2141 10.5417 26.9226 10.5417 26.6119V25.8749H6.70835V36.8958H10.5417V35.612C10.5417 35.0955 10.9509 34.6719 11.4671 34.6542C12.3832 34.6227 13.3933 34.5956 13.8492 34.6136C15.9475 34.6965 17.521 35.1873 19.0037 35.6497L19.0293 35.6578C20.4178 36.0908 21.7274 36.4967 23.4429 36.6242C23.9158 36.6593 24.3746 36.7046 24.8069 36.7472L24.8117 36.7477C26.4524 36.9096 27.6044 37.0038 28.5108 36.678C29.1844 36.4359 31.6031 35.3256 34.0286 34.1185C35.2302 33.5205 36.4108 32.9099 37.3514 32.3864C37.8225 32.1242 38.2247 31.8887 38.5359 31.6907C38.8686 31.479 39.0328 31.3499 39.0813 31.301C39.2749 31.1064 39.4007 30.5928 39.1612 30.1338C38.9874 29.8011 38.5017 29.3253 37.1832 29.5394C35.7032 29.7796 33.9476 30.4811 32.2281 31.1733L32.2078 31.1815C31.3559 31.5244 30.5109 31.8646 29.7637 32.111C29.04 32.3497 28.2733 32.5488 27.6226 32.5103C26.6734 32.4542 24.9965 32.2077 23.6014 31.9846C22.8941 31.8715 22.2435 31.7619 21.7699 31.6804C21.5329 31.6398 21.3401 31.606 21.2063 31.5826L21.0516 31.5552L20.9978 31.5457C20.9978 31.5457 20.9967 31.5455 21.1655 30.6022Z" fill="#FF6B00"/>
</svg>
