<svg width="40" height="40" viewBox="0 0 40 40" fill="none" xmlns="http://www.w3.org/2000/svg">
<path d="M25 14.7059C25 19.0917 21.6667 20 20 20C18.3333 20 15 19.0917 15 14.7059C15 10.3201 20 5 20 5C20 5 25 10.3201 25 14.7059Z" stroke="#FF6B00" stroke-width="3" stroke-linecap="round" stroke-linejoin="round"/>
<path d="M5 24.9999L6.45285 26.1623C7.99783 27.3983 10.2251 27.2748 11.6241 25.8758C13.0588 24.4411 15.3562 24.3529 16.8967 25.6733L17.196 25.9298C18.8095 27.3129 21.1905 27.3129 22.804 25.9298L23.1033 25.6733C24.6438 24.3529 26.9412 24.4411 28.3758 25.8758C29.7748 27.2748 32.0022 27.3983 33.5472 26.1623L35 24.9999" stroke="#FF6B00" stroke-width="3" stroke-linecap="round" stroke-linejoin="round"/>
<path d="M34.1666 31.6666L33.4293 32.404C31.9956 33.8376 29.671 33.8376 28.2373 32.404C26.8808 31.0475 24.7086 30.964 23.252 32.2125L22.804 32.5965C21.1905 33.9796 18.8095 33.9796 17.196 32.5965L16.748 32.2125C15.2914 30.964 13.1192 31.0475 11.7627 32.404C10.3289 33.8376 8.00438 33.8376 6.57063 32.404L5.83331 31.6666" stroke="#FF6B00" stroke-width="3" stroke-linecap="round" stroke-linejoin="round"/>
</svg>
