<svg width="169" height="49" viewBox="0 0 169 49" fill="none" xmlns="http://www.w3.org/2000/svg">
<path d="M5.8 10.5C4.55 10.3167 3.525 9.78333 2.725 8.9C1.925 8.01667 1.525 6.81667 1.525 5.3C1.525 3.6 2.01667 2.31667 3 1.45C4 0.583332 5.38333 0.149999 7.15 0.149999H14.8V18H12.45V10.65H8.475L2.95 18H0L5.8 10.5ZM12.45 8.65V2.15H7.95C6.65 2.15 5.65 2.4 4.95 2.9C4.25 3.4 3.9 4.2 3.9 5.3C3.9 6.4 4.24167 7.23333 4.925 7.8C5.625 8.36667 6.63333 8.65 7.95 8.65H12.45ZM18.3725 5.075H20.4975V11.25L26.4225 5.075H29.2475L23.5225 10.675L29.9225 18H27.1975L21.7975 11.85L20.4975 13.125V18H18.3725V5.075ZM33.7816 2.75H31.6566V0.149999H33.7816V2.75ZM31.6566 5.075H33.7816V18H31.6566V5.075ZM42.4236 18.275C41.4403 18.275 40.5653 18.1167 39.7986 17.8C39.0486 17.4833 38.4153 17.0333 37.8986 16.45C37.3986 15.8667 37.0153 15.175 36.7486 14.375C36.4986 13.575 36.3736 12.6833 36.3736 11.7C36.3736 10.7333 36.4986 9.83333 36.7486 9C36.9986 8.15 37.3736 7.41667 37.8736 6.8C38.3903 6.16667 39.0236 5.675 39.7736 5.325C40.5403 4.95833 41.4403 4.775 42.4736 4.775C43.207 4.775 43.8903 4.86667 44.5236 5.05C45.1736 5.21667 45.7403 5.48333 46.2236 5.85C46.7236 6.21667 47.132 6.68333 47.4486 7.25C47.7653 7.8 47.9653 8.45833 48.0486 9.225H45.8486C45.682 8.40833 45.332 7.775 44.7986 7.325C44.2653 6.875 43.5486 6.65 42.6486 6.65C41.882 6.65 41.2403 6.79167 40.7236 7.075C40.207 7.35833 39.7903 7.73333 39.4736 8.2C39.1736 8.66667 38.957 9.20833 38.8236 9.825C38.6903 10.425 38.6236 11.05 38.6236 11.7C38.6236 12.3 38.6903 12.8833 38.8236 13.45C38.9736 14.0167 39.1986 14.525 39.4986 14.975C39.7986 15.4083 40.182 15.7583 40.6486 16.025C41.132 16.2917 41.7153 16.425 42.3986 16.425C43.4486 16.425 44.2653 16.15 44.8486 15.6C45.4486 15.05 45.8153 14.275 45.9486 13.275H48.1236C47.8903 14.8917 47.2986 16.1333 46.3486 17C45.3986 17.85 44.0903 18.275 42.4236 18.275ZM50.5014 5.075H52.6264V10.225H59.1764V5.075H61.3014V18H59.1764V12.05H52.6264V18H50.5014V5.075ZM68.0656 18.275C67.4823 18.275 66.9323 18.2083 66.4156 18.075C65.899 17.9583 65.4406 17.7583 65.0406 17.475C64.6573 17.175 64.349 16.8 64.1156 16.35C63.899 15.8833 63.7906 15.325 63.7906 14.675C63.7906 13.9417 63.9156 13.3417 64.1656 12.875C64.4156 12.4083 64.7406 12.0333 65.1406 11.75C65.5573 11.45 66.024 11.225 66.5406 11.075C67.074 10.925 67.6156 10.8 68.1656 10.7C68.749 10.5833 69.299 10.5 69.8156 10.45C70.349 10.3833 70.8156 10.3 71.2156 10.2C71.6156 10.0833 71.9323 9.925 72.1656 9.725C72.399 9.50833 72.5156 9.2 72.5156 8.8C72.5156 8.33333 72.424 7.95833 72.2406 7.675C72.074 7.39167 71.849 7.175 71.5656 7.025C71.299 6.875 70.9906 6.775 70.6406 6.725C70.3073 6.675 69.974 6.65 69.6406 6.65C68.7406 6.65 67.9906 6.825 67.3906 7.175C66.7906 7.50833 66.4656 8.15 66.4156 9.1H64.2906C64.324 8.3 64.4906 7.625 64.7906 7.075C65.0906 6.525 65.4906 6.08333 65.9906 5.75C66.4906 5.4 67.0573 5.15 67.6906 5C68.3406 4.85 69.0323 4.775 69.7656 4.775C70.349 4.775 70.924 4.81667 71.4906 4.9C72.074 4.98333 72.599 5.15833 73.0656 5.425C73.5323 5.675 73.9073 6.03333 74.1906 6.5C74.474 6.96667 74.6156 7.575 74.6156 8.325V14.975C74.6156 15.475 74.6406 15.8417 74.6906 16.075C74.7573 16.3083 74.9573 16.425 75.2906 16.425C75.4406 16.425 75.6573 16.3833 75.9406 16.3V17.95C75.574 18.1667 75.0656 18.275 74.4156 18.275C73.8656 18.275 73.424 18.125 73.0906 17.825C72.774 17.5083 72.6156 17 72.6156 16.3C72.0323 17 71.349 17.5083 70.5656 17.825C69.799 18.125 68.9656 18.275 68.0656 18.275ZM68.5406 16.425C69.2406 16.425 69.8406 16.3333 70.3406 16.15C70.8406 15.95 71.249 15.7083 71.5656 15.425C71.8823 15.125 72.1156 14.8083 72.2656 14.475C72.4156 14.125 72.4906 13.8 72.4906 13.5V11.325C72.224 11.5417 71.874 11.6917 71.4406 11.775C71.0073 11.8583 70.549 11.9333 70.0656 12C69.599 12.0667 69.124 12.1333 68.6406 12.2C68.1573 12.2667 67.724 12.3833 67.3406 12.55C66.9573 12.7167 66.6406 12.9583 66.3906 13.275C66.1573 13.575 66.0406 13.9917 66.0406 14.525C66.0406 14.875 66.1073 15.175 66.2406 15.425C66.3906 15.6583 66.574 15.85 66.7906 16C67.024 16.15 67.2906 16.2583 67.5906 16.325C67.8906 16.3917 68.2073 16.425 68.5406 16.425ZM88.0014 6.95H83.3764V5.075H94.7514V6.95H90.1264V18H88.0014V6.95ZM100.024 18.275C99.4403 18.275 98.8903 18.2083 98.3736 18.075C97.857 17.9583 97.3986 17.7583 96.9986 17.475C96.6153 17.175 96.307 16.8 96.0736 16.35C95.857 15.8833 95.7486 15.325 95.7486 14.675C95.7486 13.9417 95.8736 13.3417 96.1236 12.875C96.3736 12.4083 96.6986 12.0333 97.0986 11.75C97.5153 11.45 97.982 11.225 98.4986 11.075C99.032 10.925 99.5736 10.8 100.124 10.7C100.707 10.5833 101.257 10.5 101.774 10.45C102.307 10.3833 102.774 10.3 103.174 10.2C103.574 10.0833 103.89 9.925 104.124 9.725C104.357 9.50833 104.474 9.2 104.474 8.8C104.474 8.33333 104.382 7.95833 104.199 7.675C104.032 7.39167 103.807 7.175 103.524 7.025C103.257 6.875 102.949 6.775 102.599 6.725C102.265 6.675 101.932 6.65 101.599 6.65C100.699 6.65 99.9486 6.825 99.3486 7.175C98.7486 7.50833 98.4236 8.15 98.3736 9.1H96.2486C96.282 8.3 96.4486 7.625 96.7486 7.075C97.0486 6.525 97.4486 6.08333 97.9486 5.75C98.4486 5.4 99.0153 5.15 99.6486 5C100.299 4.85 100.99 4.775 101.724 4.775C102.307 4.775 102.882 4.81667 103.449 4.9C104.032 4.98333 104.557 5.15833 105.024 5.425C105.49 5.675 105.865 6.03333 106.149 6.5C106.432 6.96667 106.574 7.575 106.574 8.325V14.975C106.574 15.475 106.599 15.8417 106.649 16.075C106.715 16.3083 106.915 16.425 107.249 16.425C107.399 16.425 107.615 16.3833 107.899 16.3V17.95C107.532 18.1667 107.024 18.275 106.374 18.275C105.824 18.275 105.382 18.125 105.049 17.825C104.732 17.5083 104.574 17 104.574 16.3C103.99 17 103.307 17.5083 102.524 17.825C101.757 18.125 100.924 18.275 100.024 18.275ZM100.499 16.425C101.199 16.425 101.799 16.3333 102.299 16.15C102.799 15.95 103.207 15.7083 103.524 15.425C103.84 15.125 104.074 14.8083 104.224 14.475C104.374 14.125 104.449 13.8 104.449 13.5V11.325C104.182 11.5417 103.832 11.6917 103.399 11.775C102.965 11.8583 102.507 11.9333 102.024 12C101.557 12.0667 101.082 12.1333 100.599 12.2C100.115 12.2667 99.682 12.3833 99.2986 12.55C98.9153 12.7167 98.5986 12.9583 98.3486 13.275C98.1153 13.575 97.9986 13.9917 97.9986 14.525C97.9986 14.875 98.0653 15.175 98.1986 15.425C98.3486 15.6583 98.532 15.85 98.7486 16C98.982 16.15 99.2486 16.2583 99.5486 16.325C99.8486 16.3917 100.165 16.425 100.499 16.425ZM7.375 48.275C5.70833 48.275 4.35833 47.85 3.325 47C2.30833 46.15 1.66667 44.8333 1.4 43.05C1.3 42.35 1.25 41.5667 1.25 40.7C1.25 40.0833 1.26667 39.4417 1.3 38.775C1.35 38.1083 1.425 37.45 1.525 36.8C1.64167 36.15 1.79167 35.525 1.975 34.925C2.175 34.325 2.43333 33.7833 2.75 33.3C3.31667 32.4167 4.00833 31.7667 4.825 31.35C5.64167 30.9167 6.66667 30.6583 7.9 30.575C8.71667 30.5083 9.4 30.4333 9.95 30.35C10.5 30.2667 10.8083 30.0583 10.875 29.725H13C12.9667 30.375 12.825 30.875 12.575 31.225C12.325 31.575 11.975 31.8417 11.525 32.025C11.075 32.1917 10.525 32.3083 9.875 32.375C9.225 32.425 8.46667 32.4833 7.6 32.55C6.88333 32.6 6.25833 32.7667 5.725 33.05C5.19167 33.3333 4.73333 33.7167 4.35 34.2C3.98333 34.6667 3.68333 35.225 3.45 35.875C3.21667 36.5083 3.05 37.2083 2.95 37.975H3.025C3.39167 37.125 3.95833 36.425 4.725 35.875C5.50833 35.325 6.45 35.05 7.55 35.05C9.36667 35.05 10.8 35.6167 11.85 36.75C12.9 37.8833 13.425 39.5167 13.425 41.65C13.425 42.7333 13.275 43.6917 12.975 44.525C12.6917 45.3417 12.2833 46.0333 11.75 46.6C11.2167 47.15 10.575 47.5667 9.825 47.85C9.09167 48.1333 8.275 48.275 7.375 48.275ZM7.4 46.475C7.9 46.475 8.38333 46.375 8.85 46.175C9.31667 45.9583 9.725 45.65 10.075 45.25C10.425 44.85 10.7083 44.3583 10.925 43.775C11.1417 43.175 11.25 42.4833 11.25 41.7C11.25 40.1833 10.9 38.9917 10.2 38.125C9.5 37.2583 8.55 36.825 7.35 36.825C6.15 36.825 5.19167 37.2667 4.475 38.15C3.775 39.0167 3.425 40.2083 3.425 41.725C3.425 43.1917 3.775 44.35 4.475 45.2C5.175 46.05 6.15 46.475 7.4 46.475ZM21.4311 48.275C20.3977 48.275 19.4894 48.1083 18.7061 47.775C17.9394 47.4417 17.2977 46.975 16.7811 46.375C16.2644 45.775 15.8727 45.0583 15.6061 44.225C15.3561 43.3917 15.2311 42.4833 15.2311 41.5C15.2311 40.5333 15.3811 39.6417 15.6811 38.825C15.9811 37.9917 16.3977 37.275 16.9311 36.675C17.4811 36.075 18.1227 35.6083 18.8561 35.275C19.6061 34.9417 20.4227 34.775 21.3061 34.775C22.4561 34.775 23.4061 35.0167 24.1561 35.5C24.9227 35.9667 25.5311 36.5667 25.9811 37.3C26.4477 38.0333 26.7644 38.8333 26.9311 39.7C27.1144 40.5667 27.1894 41.3917 27.1561 42.175H17.4811C17.4644 42.7417 17.5311 43.2833 17.6811 43.8C17.8311 44.3 18.0727 44.75 18.4061 45.15C18.7394 45.5333 19.1644 45.8417 19.6811 46.075C20.1977 46.3083 20.8061 46.425 21.5061 46.425C22.4061 46.425 23.1394 46.2167 23.7061 45.8C24.2894 45.3833 24.6727 44.75 24.8561 43.9H26.9561C26.6727 45.3667 26.0477 46.4667 25.0811 47.2C24.1144 47.9167 22.8977 48.275 21.4311 48.275ZM24.9061 40.3C24.8727 39.8 24.7561 39.325 24.5561 38.875C24.3727 38.425 24.1144 38.0417 23.7811 37.725C23.4644 37.3917 23.0811 37.1333 22.6311 36.95C22.1977 36.75 21.7144 36.65 21.1811 36.65C20.6311 36.65 20.1311 36.75 19.6811 36.95C19.2477 37.1333 18.8727 37.3917 18.5561 37.725C18.2394 38.0583 17.9894 38.45 17.8061 38.9C17.6227 39.3333 17.5144 39.8 17.4811 40.3H24.9061ZM34.1088 48.275C32.3921 48.275 31.0505 47.8917 30.0838 47.125C29.1171 46.3583 28.5921 45.2667 28.5088 43.85H30.6588C30.7255 44.8 31.0755 45.4833 31.7088 45.9C32.3421 46.3167 33.1338 46.525 34.0838 46.525C35.1005 46.525 35.8838 46.3083 36.4338 45.875C36.9838 45.4417 37.2588 44.8917 37.2588 44.225C37.2588 43.575 37.0505 43.0667 36.6338 42.7C36.2171 42.3333 35.5088 42.15 34.5088 42.15H32.7838V40.425H34.1588C34.9088 40.425 35.5505 40.275 36.0838 39.975C36.6171 39.6583 36.8838 39.1167 36.8838 38.35C36.8838 37.8667 36.6505 37.4417 36.1838 37.075C35.7338 36.7083 35.0588 36.525 34.1588 36.525C33.7755 36.525 33.3921 36.5667 33.0088 36.65C32.6421 36.7333 32.3088 36.8667 32.0088 37.05C31.7088 37.2333 31.4588 37.475 31.2588 37.775C31.0588 38.075 30.9338 38.4417 30.8838 38.875H28.7338C28.7838 38.075 28.9755 37.4167 29.3088 36.9C29.6421 36.3667 30.0588 35.95 30.5588 35.65C31.0588 35.3333 31.6255 35.1083 32.2588 34.975C32.8921 34.8417 33.5338 34.775 34.1838 34.775C34.8505 34.775 35.4755 34.8417 36.0588 34.975C36.6421 35.1083 37.1505 35.325 37.5838 35.625C38.0338 35.9083 38.3838 36.2667 38.6338 36.7C38.9005 37.1333 39.0338 37.65 39.0338 38.25C39.0338 39 38.8171 39.6083 38.3838 40.075C37.9671 40.5417 37.4921 40.8333 36.9588 40.95V41C37.2588 41.05 37.5588 41.15 37.8588 41.3C38.1588 41.45 38.4255 41.6583 38.6588 41.925C38.8921 42.175 39.0838 42.4917 39.2338 42.875C39.3838 43.2417 39.4588 43.675 39.4588 44.175C39.4588 44.875 39.3088 45.4833 39.0088 46C38.7088 46.5167 38.3088 46.9417 37.8088 47.275C37.3088 47.6083 36.7338 47.8583 36.0838 48.025C35.4505 48.1917 34.7921 48.275 34.1088 48.275ZM42.0053 35.075H52.5553V48H50.4303V36.95H44.1303V48H42.0053V35.075ZM61.2504 48.275C60.2171 48.275 59.3087 48.1083 58.5254 47.775C57.7587 47.4417 57.1171 46.975 56.6004 46.375C56.0837 45.775 55.6921 45.0583 55.4254 44.225C55.1754 43.3917 55.0504 42.4833 55.0504 41.5C55.0504 40.5333 55.2004 39.6417 55.5004 38.825C55.8004 37.9917 56.2171 37.275 56.7504 36.675C57.3004 36.075 57.9421 35.6083 58.6754 35.275C59.4254 34.9417 60.2421 34.775 61.1254 34.775C62.2754 34.775 63.2254 35.0167 63.9754 35.5C64.7421 35.9667 65.3504 36.5667 65.8004 37.3C66.2671 38.0333 66.5837 38.8333 66.7504 39.7C66.9337 40.5667 67.0087 41.3917 66.9754 42.175H57.3004C57.2837 42.7417 57.3504 43.2833 57.5004 43.8C57.6504 44.3 57.8921 44.75 58.2254 45.15C58.5587 45.5333 58.9837 45.8417 59.5004 46.075C60.0171 46.3083 60.6254 46.425 61.3254 46.425C62.2254 46.425 62.9587 46.2167 63.5254 45.8C64.1087 45.3833 64.4921 44.75 64.6754 43.9H66.7754C66.4921 45.3667 65.8671 46.4667 64.9004 47.2C63.9337 47.9167 62.7171 48.275 61.2504 48.275ZM64.7254 40.3C64.6921 39.8 64.5754 39.325 64.3754 38.875C64.1921 38.425 63.9337 38.0417 63.6004 37.725C63.2837 37.3917 62.9004 37.1333 62.4504 36.95C62.0171 36.75 61.5337 36.65 61.0004 36.65C60.4504 36.65 59.9504 36.75 59.5004 36.95C59.0671 37.1333 58.6921 37.3917 58.3754 37.725C58.0587 38.0583 57.8087 38.45 57.6254 38.9C57.4421 39.3333 57.3337 39.8 57.3004 40.3H64.7254ZM76.9281 42.75C76.5448 42.9167 76.0115 43.075 75.3281 43.225C74.6448 43.375 73.9281 43.45 73.1781 43.45C71.5781 43.45 70.4365 43.1083 69.7531 42.425C69.0698 41.725 68.7281 40.75 68.7281 39.5V35.075H70.8531V39.15C70.8531 40 71.0448 40.6333 71.4281 41.05C71.8281 41.45 72.5448 41.65 73.5781 41.65C74.2115 41.65 74.8365 41.5833 75.4531 41.45C76.0698 41.3167 76.5615 41.1667 76.9281 41V35.075H79.0531V48H76.9281V42.75ZM82.2641 35.075H84.3891V40.225H90.9391V35.075H93.0641V48H90.9391V42.05H84.3891V48H82.2641V35.075ZM99.8283 48.275C99.245 48.275 98.695 48.2083 98.1783 48.075C97.6617 47.9583 97.2033 47.7583 96.8033 47.475C96.42 47.175 96.1117 46.8 95.8783 46.35C95.6617 45.8833 95.5533 45.325 95.5533 44.675C95.5533 43.9417 95.6783 43.3417 95.9283 42.875C96.1783 42.4083 96.5033 42.0333 96.9033 41.75C97.32 41.45 97.7867 41.225 98.3033 41.075C98.8367 40.925 99.3783 40.8 99.9283 40.7C100.512 40.5833 101.062 40.5 101.578 40.45C102.112 40.3833 102.578 40.3 102.978 40.2C103.378 40.0833 103.695 39.925 103.928 39.725C104.162 39.5083 104.278 39.2 104.278 38.8C104.278 38.3333 104.187 37.9583 104.003 37.675C103.837 37.3917 103.612 37.175 103.328 37.025C103.062 36.875 102.753 36.775 102.403 36.725C102.07 36.675 101.737 36.65 101.403 36.65C100.503 36.65 99.7533 36.825 99.1533 37.175C98.5533 37.5083 98.2283 38.15 98.1783 39.1H96.0533C96.0867 38.3 96.2533 37.625 96.5533 37.075C96.8533 36.525 97.2533 36.0833 97.7533 35.75C98.2533 35.4 98.82 35.15 99.4533 35C100.103 34.85 100.795 34.775 101.528 34.775C102.112 34.775 102.687 34.8167 103.253 34.9C103.837 34.9833 104.362 35.1583 104.828 35.425C105.295 35.675 105.67 36.0333 105.953 36.5C106.237 36.9667 106.378 37.575 106.378 38.325V44.975C106.378 45.475 106.403 45.8417 106.453 46.075C106.52 46.3083 106.72 46.425 107.053 46.425C107.203 46.425 107.42 46.3833 107.703 46.3V47.95C107.337 48.1667 106.828 48.275 106.178 48.275C105.628 48.275 105.187 48.125 104.853 47.825C104.537 47.5083 104.378 47 104.378 46.3C103.795 47 103.112 47.5083 102.328 47.825C101.562 48.125 100.728 48.275 99.8283 48.275ZM100.303 46.425C101.003 46.425 101.603 46.3333 102.103 46.15C102.603 45.95 103.012 45.7083 103.328 45.425C103.645 45.125 103.878 44.8083 104.028 44.475C104.178 44.125 104.253 43.8 104.253 43.5V41.325C103.987 41.5417 103.637 41.6917 103.203 41.775C102.77 41.8583 102.312 41.9333 101.828 42C101.362 42.0667 100.887 42.1333 100.403 42.2C99.92 42.2667 99.4867 42.3833 99.1033 42.55C98.72 42.7167 98.4033 42.9583 98.1533 43.275C97.92 43.575 97.8033 43.9917 97.8033 44.525C97.8033 44.875 97.87 45.175 98.0033 45.425C98.1533 45.6583 98.3367 45.85 98.5533 46C98.7867 46.15 99.0533 46.2583 99.3533 46.325C99.6533 46.3917 99.97 46.425 100.303 46.425ZM120.114 41.2L115.614 35.075H118.339L121.439 39.6L124.664 35.075H127.214L122.764 41.025L127.764 48H125.039L121.439 42.65L117.839 48H115.264L120.114 41.2ZM131.829 32.75H129.704V30.15H131.829V32.75ZM129.704 35.075H131.829V48H129.704V35.075ZM135.121 35.075H138.171L142.096 45.55H142.146L146.071 35.075H149.121V48H146.996V37.75L143.096 48H141.146L137.246 37.75V48H135.121V35.075ZM154.582 32.75H152.457V30.15H154.582V32.75ZM152.457 35.075H154.582V48H152.457V35.075ZM160.599 42.95C159.683 42.8167 158.933 42.4 158.349 41.7C157.766 41 157.474 40.1167 157.474 39.05C157.474 37.8333 157.833 36.8667 158.549 36.15C159.283 35.4333 160.274 35.075 161.524 35.075H168.074V48H165.949V43.025H163.124L159.174 48H156.349L160.599 42.95ZM165.949 41.2V36.95H162.199C161.299 36.95 160.649 37.1417 160.249 37.525C159.849 37.9083 159.649 38.425 159.649 39.075C159.649 39.7417 159.849 40.2667 160.249 40.65C160.649 41.0167 161.299 41.2 162.199 41.2H165.949Z" fill="black"/>
<path d="M5.8 10.5C4.55 10.3167 3.525 9.78333 2.725 8.9C1.925 8.01667 1.525 6.81667 1.525 5.3C1.525 3.6 2.01667 2.31667 3 1.45C4 0.583332 5.38333 0.149999 7.15 0.149999H14.8V18H12.45V10.65H8.475L2.95 18H0L5.8 10.5ZM12.45 8.65V2.15H7.95C6.65 2.15 5.65 2.4 4.95 2.9C4.25 3.4 3.9 4.2 3.9 5.3C3.9 6.4 4.24167 7.23333 4.925 7.8C5.625 8.36667 6.63333 8.65 7.95 8.65H12.45ZM18.3725 5.075H20.4975V11.25L26.4225 5.075H29.2475L23.5225 10.675L29.9225 18H27.1975L21.7975 11.85L20.4975 13.125V18H18.3725V5.075ZM33.7816 2.75H31.6566V0.149999H33.7816V2.75ZM31.6566 5.075H33.7816V18H31.6566V5.075ZM42.4236 18.275C41.4403 18.275 40.5653 18.1167 39.7986 17.8C39.0486 17.4833 38.4153 17.0333 37.8986 16.45C37.3986 15.8667 37.0153 15.175 36.7486 14.375C36.4986 13.575 36.3736 12.6833 36.3736 11.7C36.3736 10.7333 36.4986 9.83333 36.7486 9C36.9986 8.15 37.3736 7.41667 37.8736 6.8C38.3903 6.16667 39.0236 5.675 39.7736 5.325C40.5403 4.95833 41.4403 4.775 42.4736 4.775C43.207 4.775 43.8903 4.86667 44.5236 5.05C45.1736 5.21667 45.7403 5.48333 46.2236 5.85C46.7236 6.21667 47.132 6.68333 47.4486 7.25C47.7653 7.8 47.9653 8.45833 48.0486 9.225H45.8486C45.682 8.40833 45.332 7.775 44.7986 7.325C44.2653 6.875 43.5486 6.65 42.6486 6.65C41.882 6.65 41.2403 6.79167 40.7236 7.075C40.207 7.35833 39.7903 7.73333 39.4736 8.2C39.1736 8.66667 38.957 9.20833 38.8236 9.825C38.6903 10.425 38.6236 11.05 38.6236 11.7C38.6236 12.3 38.6903 12.8833 38.8236 13.45C38.9736 14.0167 39.1986 14.525 39.4986 14.975C39.7986 15.4083 40.182 15.7583 40.6486 16.025C41.132 16.2917 41.7153 16.425 42.3986 16.425C43.4486 16.425 44.2653 16.15 44.8486 15.6C45.4486 15.05 45.8153 14.275 45.9486 13.275H48.1236C47.8903 14.8917 47.2986 16.1333 46.3486 17C45.3986 17.85 44.0903 18.275 42.4236 18.275ZM50.5014 5.075H52.6264V10.225H59.1764V5.075H61.3014V18H59.1764V12.05H52.6264V18H50.5014V5.075ZM68.0656 18.275C67.4823 18.275 66.9323 18.2083 66.4156 18.075C65.899 17.9583 65.4406 17.7583 65.0406 17.475C64.6573 17.175 64.349 16.8 64.1156 16.35C63.899 15.8833 63.7906 15.325 63.7906 14.675C63.7906 13.9417 63.9156 13.3417 64.1656 12.875C64.4156 12.4083 64.7406 12.0333 65.1406 11.75C65.5573 11.45 66.024 11.225 66.5406 11.075C67.074 10.925 67.6156 10.8 68.1656 10.7C68.749 10.5833 69.299 10.5 69.8156 10.45C70.349 10.3833 70.8156 10.3 71.2156 10.2C71.6156 10.0833 71.9323 9.925 72.1656 9.725C72.399 9.50833 72.5156 9.2 72.5156 8.8C72.5156 8.33333 72.424 7.95833 72.2406 7.675C72.074 7.39167 71.849 7.175 71.5656 7.025C71.299 6.875 70.9906 6.775 70.6406 6.725C70.3073 6.675 69.974 6.65 69.6406 6.65C68.7406 6.65 67.9906 6.825 67.3906 7.175C66.7906 7.50833 66.4656 8.15 66.4156 9.1H64.2906C64.324 8.3 64.4906 7.625 64.7906 7.075C65.0906 6.525 65.4906 6.08333 65.9906 5.75C66.4906 5.4 67.0573 5.15 67.6906 5C68.3406 4.85 69.0323 4.775 69.7656 4.775C70.349 4.775 70.924 4.81667 71.4906 4.9C72.074 4.98333 72.599 5.15833 73.0656 5.425C73.5323 5.675 73.9073 6.03333 74.1906 6.5C74.474 6.96667 74.6156 7.575 74.6156 8.325V14.975C74.6156 15.475 74.6406 15.8417 74.6906 16.075C74.7573 16.3083 74.9573 16.425 75.2906 16.425C75.4406 16.425 75.6573 16.3833 75.9406 16.3V17.95C75.574 18.1667 75.0656 18.275 74.4156 18.275C73.8656 18.275 73.424 18.125 73.0906 17.825C72.774 17.5083 72.6156 17 72.6156 16.3C72.0323 17 71.349 17.5083 70.5656 17.825C69.799 18.125 68.9656 18.275 68.0656 18.275ZM68.5406 16.425C69.2406 16.425 69.8406 16.3333 70.3406 16.15C70.8406 15.95 71.249 15.7083 71.5656 15.425C71.8823 15.125 72.1156 14.8083 72.2656 14.475C72.4156 14.125 72.4906 13.8 72.4906 13.5V11.325C72.224 11.5417 71.874 11.6917 71.4406 11.775C71.0073 11.8583 70.549 11.9333 70.0656 12C69.599 12.0667 69.124 12.1333 68.6406 12.2C68.1573 12.2667 67.724 12.3833 67.3406 12.55C66.9573 12.7167 66.6406 12.9583 66.3906 13.275C66.1573 13.575 66.0406 13.9917 66.0406 14.525C66.0406 14.875 66.1073 15.175 66.2406 15.425C66.3906 15.6583 66.574 15.85 66.7906 16C67.024 16.15 67.2906 16.2583 67.5906 16.325C67.8906 16.3917 68.2073 16.425 68.5406 16.425ZM88.0014 6.95H83.3764V5.075H94.7514V6.95H90.1264V18H88.0014V6.95ZM100.024 18.275C99.4403 18.275 98.8903 18.2083 98.3736 18.075C97.857 17.9583 97.3986 17.7583 96.9986 17.475C96.6153 17.175 96.307 16.8 96.0736 16.35C95.857 15.8833 95.7486 15.325 95.7486 14.675C95.7486 13.9417 95.8736 13.3417 96.1236 12.875C96.3736 12.4083 96.6986 12.0333 97.0986 11.75C97.5153 11.45 97.982 11.225 98.4986 11.075C99.032 10.925 99.5736 10.8 100.124 10.7C100.707 10.5833 101.257 10.5 101.774 10.45C102.307 10.3833 102.774 10.3 103.174 10.2C103.574 10.0833 103.89 9.925 104.124 9.725C104.357 9.50833 104.474 9.2 104.474 8.8C104.474 8.33333 104.382 7.95833 104.199 7.675C104.032 7.39167 103.807 7.175 103.524 7.025C103.257 6.875 102.949 6.775 102.599 6.725C102.265 6.675 101.932 6.65 101.599 6.65C100.699 6.65 99.9486 6.825 99.3486 7.175C98.7486 7.50833 98.4236 8.15 98.3736 9.1H96.2486C96.282 8.3 96.4486 7.625 96.7486 7.075C97.0486 6.525 97.4486 6.08333 97.9486 5.75C98.4486 5.4 99.0153 5.15 99.6486 5C100.299 4.85 100.99 4.775 101.724 4.775C102.307 4.775 102.882 4.81667 103.449 4.9C104.032 4.98333 104.557 5.15833 105.024 5.425C105.49 5.675 105.865 6.03333 106.149 6.5C106.432 6.96667 106.574 7.575 106.574 8.325V14.975C106.574 15.475 106.599 15.8417 106.649 16.075C106.715 16.3083 106.915 16.425 107.249 16.425C107.399 16.425 107.615 16.3833 107.899 16.3V17.95C107.532 18.1667 107.024 18.275 106.374 18.275C105.824 18.275 105.382 18.125 105.049 17.825C104.732 17.5083 104.574 17 104.574 16.3C103.99 17 103.307 17.5083 102.524 17.825C101.757 18.125 100.924 18.275 100.024 18.275ZM100.499 16.425C101.199 16.425 101.799 16.3333 102.299 16.15C102.799 15.95 103.207 15.7083 103.524 15.425C103.84 15.125 104.074 14.8083 104.224 14.475C104.374 14.125 104.449 13.8 104.449 13.5V11.325C104.182 11.5417 103.832 11.6917 103.399 11.775C102.965 11.8583 102.507 11.9333 102.024 12C101.557 12.0667 101.082 12.1333 100.599 12.2C100.115 12.2667 99.682 12.3833 99.2986 12.55C98.9153 12.7167 98.5986 12.9583 98.3486 13.275C98.1153 13.575 97.9986 13.9917 97.9986 14.525C97.9986 14.875 98.0653 15.175 98.1986 15.425C98.3486 15.6583 98.532 15.85 98.7486 16C98.982 16.15 99.2486 16.2583 99.5486 16.325C99.8486 16.3917 100.165 16.425 100.499 16.425ZM7.375 48.275C5.70833 48.275 4.35833 47.85 3.325 47C2.30833 46.15 1.66667 44.8333 1.4 43.05C1.3 42.35 1.25 41.5667 1.25 40.7C1.25 40.0833 1.26667 39.4417 1.3 38.775C1.35 38.1083 1.425 37.45 1.525 36.8C1.64167 36.15 1.79167 35.525 1.975 34.925C2.175 34.325 2.43333 33.7833 2.75 33.3C3.31667 32.4167 4.00833 31.7667 4.825 31.35C5.64167 30.9167 6.66667 30.6583 7.9 30.575C8.71667 30.5083 9.4 30.4333 9.95 30.35C10.5 30.2667 10.8083 30.0583 10.875 29.725H13C12.9667 30.375 12.825 30.875 12.575 31.225C12.325 31.575 11.975 31.8417 11.525 32.025C11.075 32.1917 10.525 32.3083 9.875 32.375C9.225 32.425 8.46667 32.4833 7.6 32.55C6.88333 32.6 6.25833 32.7667 5.725 33.05C5.19167 33.3333 4.73333 33.7167 4.35 34.2C3.98333 34.6667 3.68333 35.225 3.45 35.875C3.21667 36.5083 3.05 37.2083 2.95 37.975H3.025C3.39167 37.125 3.95833 36.425 4.725 35.875C5.50833 35.325 6.45 35.05 7.55 35.05C9.36667 35.05 10.8 35.6167 11.85 36.75C12.9 37.8833 13.425 39.5167 13.425 41.65C13.425 42.7333 13.275 43.6917 12.975 44.525C12.6917 45.3417 12.2833 46.0333 11.75 46.6C11.2167 47.15 10.575 47.5667 9.825 47.85C9.09167 48.1333 8.275 48.275 7.375 48.275ZM7.4 46.475C7.9 46.475 8.38333 46.375 8.85 46.175C9.31667 45.9583 9.725 45.65 10.075 45.25C10.425 44.85 10.7083 44.3583 10.925 43.775C11.1417 43.175 11.25 42.4833 11.25 41.7C11.25 40.1833 10.9 38.9917 10.2 38.125C9.5 37.2583 8.55 36.825 7.35 36.825C6.15 36.825 5.19167 37.2667 4.475 38.15C3.775 39.0167 3.425 40.2083 3.425 41.725C3.425 43.1917 3.775 44.35 4.475 45.2C5.175 46.05 6.15 46.475 7.4 46.475ZM21.4311 48.275C20.3977 48.275 19.4894 48.1083 18.7061 47.775C17.9394 47.4417 17.2977 46.975 16.7811 46.375C16.2644 45.775 15.8727 45.0583 15.6061 44.225C15.3561 43.3917 15.2311 42.4833 15.2311 41.5C15.2311 40.5333 15.3811 39.6417 15.6811 38.825C15.9811 37.9917 16.3977 37.275 16.9311 36.675C17.4811 36.075 18.1227 35.6083 18.8561 35.275C19.6061 34.9417 20.4227 34.775 21.3061 34.775C22.4561 34.775 23.4061 35.0167 24.1561 35.5C24.9227 35.9667 25.5311 36.5667 25.9811 37.3C26.4477 38.0333 26.7644 38.8333 26.9311 39.7C27.1144 40.5667 27.1894 41.3917 27.1561 42.175H17.4811C17.4644 42.7417 17.5311 43.2833 17.6811 43.8C17.8311 44.3 18.0727 44.75 18.4061 45.15C18.7394 45.5333 19.1644 45.8417 19.6811 46.075C20.1977 46.3083 20.8061 46.425 21.5061 46.425C22.4061 46.425 23.1394 46.2167 23.7061 45.8C24.2894 45.3833 24.6727 44.75 24.8561 43.9H26.9561C26.6727 45.3667 26.0477 46.4667 25.0811 47.2C24.1144 47.9167 22.8977 48.275 21.4311 48.275ZM24.9061 40.3C24.8727 39.8 24.7561 39.325 24.5561 38.875C24.3727 38.425 24.1144 38.0417 23.7811 37.725C23.4644 37.3917 23.0811 37.1333 22.6311 36.95C22.1977 36.75 21.7144 36.65 21.1811 36.65C20.6311 36.65 20.1311 36.75 19.6811 36.95C19.2477 37.1333 18.8727 37.3917 18.5561 37.725C18.2394 38.0583 17.9894 38.45 17.8061 38.9C17.6227 39.3333 17.5144 39.8 17.4811 40.3H24.9061ZM34.1088 48.275C32.3921 48.275 31.0505 47.8917 30.0838 47.125C29.1171 46.3583 28.5921 45.2667 28.5088 43.85H30.6588C30.7255 44.8 31.0755 45.4833 31.7088 45.9C32.3421 46.3167 33.1338 46.525 34.0838 46.525C35.1005 46.525 35.8838 46.3083 36.4338 45.875C36.9838 45.4417 37.2588 44.8917 37.2588 44.225C37.2588 43.575 37.0505 43.0667 36.6338 42.7C36.2171 42.3333 35.5088 42.15 34.5088 42.15H32.7838V40.425H34.1588C34.9088 40.425 35.5505 40.275 36.0838 39.975C36.6171 39.6583 36.8838 39.1167 36.8838 38.35C36.8838 37.8667 36.6505 37.4417 36.1838 37.075C35.7338 36.7083 35.0588 36.525 34.1588 36.525C33.7755 36.525 33.3921 36.5667 33.0088 36.65C32.6421 36.7333 32.3088 36.8667 32.0088 37.05C31.7088 37.2333 31.4588 37.475 31.2588 37.775C31.0588 38.075 30.9338 38.4417 30.8838 38.875H28.7338C28.7838 38.075 28.9755 37.4167 29.3088 36.9C29.6421 36.3667 30.0588 35.95 30.5588 35.65C31.0588 35.3333 31.6255 35.1083 32.2588 34.975C32.8921 34.8417 33.5338 34.775 34.1838 34.775C34.8505 34.775 35.4755 34.8417 36.0588 34.975C36.6421 35.1083 37.1505 35.325 37.5838 35.625C38.0338 35.9083 38.3838 36.2667 38.6338 36.7C38.9005 37.1333 39.0338 37.65 39.0338 38.25C39.0338 39 38.8171 39.6083 38.3838 40.075C37.9671 40.5417 37.4921 40.8333 36.9588 40.95V41C37.2588 41.05 37.5588 41.15 37.8588 41.3C38.1588 41.45 38.4255 41.6583 38.6588 41.925C38.8921 42.175 39.0838 42.4917 39.2338 42.875C39.3838 43.2417 39.4588 43.675 39.4588 44.175C39.4588 44.875 39.3088 45.4833 39.0088 46C38.7088 46.5167 38.3088 46.9417 37.8088 47.275C37.3088 47.6083 36.7338 47.8583 36.0838 48.025C35.4505 48.1917 34.7921 48.275 34.1088 48.275ZM42.0053 35.075H52.5553V48H50.4303V36.95H44.1303V48H42.0053V35.075ZM61.2504 48.275C60.2171 48.275 59.3087 48.1083 58.5254 47.775C57.7587 47.4417 57.1171 46.975 56.6004 46.375C56.0837 45.775 55.6921 45.0583 55.4254 44.225C55.1754 43.3917 55.0504 42.4833 55.0504 41.5C55.0504 40.5333 55.2004 39.6417 55.5004 38.825C55.8004 37.9917 56.2171 37.275 56.7504 36.675C57.3004 36.075 57.9421 35.6083 58.6754 35.275C59.4254 34.9417 60.2421 34.775 61.1254 34.775C62.2754 34.775 63.2254 35.0167 63.9754 35.5C64.7421 35.9667 65.3504 36.5667 65.8004 37.3C66.2671 38.0333 66.5837 38.8333 66.7504 39.7C66.9337 40.5667 67.0087 41.3917 66.9754 42.175H57.3004C57.2837 42.7417 57.3504 43.2833 57.5004 43.8C57.6504 44.3 57.8921 44.75 58.2254 45.15C58.5587 45.5333 58.9837 45.8417 59.5004 46.075C60.0171 46.3083 60.6254 46.425 61.3254 46.425C62.2254 46.425 62.9587 46.2167 63.5254 45.8C64.1087 45.3833 64.4921 44.75 64.6754 43.9H66.7754C66.4921 45.3667 65.8671 46.4667 64.9004 47.2C63.9337 47.9167 62.7171 48.275 61.2504 48.275ZM64.7254 40.3C64.6921 39.8 64.5754 39.325 64.3754 38.875C64.1921 38.425 63.9337 38.0417 63.6004 37.725C63.2837 37.3917 62.9004 37.1333 62.4504 36.95C62.0171 36.75 61.5337 36.65 61.0004 36.65C60.4504 36.65 59.9504 36.75 59.5004 36.95C59.0671 37.1333 58.6921 37.3917 58.3754 37.725C58.0587 38.0583 57.8087 38.45 57.6254 38.9C57.4421 39.3333 57.3337 39.8 57.3004 40.3H64.7254ZM76.9281 42.75C76.5448 42.9167 76.0115 43.075 75.3281 43.225C74.6448 43.375 73.9281 43.45 73.1781 43.45C71.5781 43.45 70.4365 43.1083 69.7531 42.425C69.0698 41.725 68.7281 40.75 68.7281 39.5V35.075H70.8531V39.15C70.8531 40 71.0448 40.6333 71.4281 41.05C71.8281 41.45 72.5448 41.65 73.5781 41.65C74.2115 41.65 74.8365 41.5833 75.4531 41.45C76.0698 41.3167 76.5615 41.1667 76.9281 41V35.075H79.0531V48H76.9281V42.75ZM82.2641 35.075H84.3891V40.225H90.9391V35.075H93.0641V48H90.9391V42.05H84.3891V48H82.2641V35.075ZM99.8283 48.275C99.245 48.275 98.695 48.2083 98.1783 48.075C97.6617 47.9583 97.2033 47.7583 96.8033 47.475C96.42 47.175 96.1117 46.8 95.8783 46.35C95.6617 45.8833 95.5533 45.325 95.5533 44.675C95.5533 43.9417 95.6783 43.3417 95.9283 42.875C96.1783 42.4083 96.5033 42.0333 96.9033 41.75C97.32 41.45 97.7867 41.225 98.3033 41.075C98.8367 40.925 99.3783 40.8 99.9283 40.7C100.512 40.5833 101.062 40.5 101.578 40.45C102.112 40.3833 102.578 40.3 102.978 40.2C103.378 40.0833 103.695 39.925 103.928 39.725C104.162 39.5083 104.278 39.2 104.278 38.8C104.278 38.3333 104.187 37.9583 104.003 37.675C103.837 37.3917 103.612 37.175 103.328 37.025C103.062 36.875 102.753 36.775 102.403 36.725C102.07 36.675 101.737 36.65 101.403 36.65C100.503 36.65 99.7533 36.825 99.1533 37.175C98.5533 37.5083 98.2283 38.15 98.1783 39.1H96.0533C96.0867 38.3 96.2533 37.625 96.5533 37.075C96.8533 36.525 97.2533 36.0833 97.7533 35.75C98.2533 35.4 98.82 35.15 99.4533 35C100.103 34.85 100.795 34.775 101.528 34.775C102.112 34.775 102.687 34.8167 103.253 34.9C103.837 34.9833 104.362 35.1583 104.828 35.425C105.295 35.675 105.67 36.0333 105.953 36.5C106.237 36.9667 106.378 37.575 106.378 38.325V44.975C106.378 45.475 106.403 45.8417 106.453 46.075C106.52 46.3083 106.72 46.425 107.053 46.425C107.203 46.425 107.42 46.3833 107.703 46.3V47.95C107.337 48.1667 106.828 48.275 106.178 48.275C105.628 48.275 105.187 48.125 104.853 47.825C104.537 47.5083 104.378 47 104.378 46.3C103.795 47 103.112 47.5083 102.328 47.825C101.562 48.125 100.728 48.275 99.8283 48.275ZM100.303 46.425C101.003 46.425 101.603 46.3333 102.103 46.15C102.603 45.95 103.012 45.7083 103.328 45.425C103.645 45.125 103.878 44.8083 104.028 44.475C104.178 44.125 104.253 43.8 104.253 43.5V41.325C103.987 41.5417 103.637 41.6917 103.203 41.775C102.77 41.8583 102.312 41.9333 101.828 42C101.362 42.0667 100.887 42.1333 100.403 42.2C99.92 42.2667 99.4867 42.3833 99.1033 42.55C98.72 42.7167 98.4033 42.9583 98.1533 43.275C97.92 43.575 97.8033 43.9917 97.8033 44.525C97.8033 44.875 97.87 45.175 98.0033 45.425C98.1533 45.6583 98.3367 45.85 98.5533 46C98.7867 46.15 99.0533 46.2583 99.3533 46.325C99.6533 46.3917 99.97 46.425 100.303 46.425ZM120.114 41.2L115.614 35.075H118.339L121.439 39.6L124.664 35.075H127.214L122.764 41.025L127.764 48H125.039L121.439 42.65L117.839 48H115.264L120.114 41.2ZM131.829 32.75H129.704V30.15H131.829V32.75ZM129.704 35.075H131.829V48H129.704V35.075ZM135.121 35.075H138.171L142.096 45.55H142.146L146.071 35.075H149.121V48H146.996V37.75L143.096 48H141.146L137.246 37.75V48H135.121V35.075ZM154.582 32.75H152.457V30.15H154.582V32.75ZM152.457 35.075H154.582V48H152.457V35.075ZM160.599 42.95C159.683 42.8167 158.933 42.4 158.349 41.7C157.766 41 157.474 40.1167 157.474 39.05C157.474 37.8333 157.833 36.8667 158.549 36.15C159.283 35.4333 160.274 35.075 161.524 35.075H168.074V48H165.949V43.025H163.124L159.174 48H156.349L160.599 42.95ZM165.949 41.2V36.95H162.199C161.299 36.95 160.649 37.1417 160.249 37.525C159.849 37.9083 159.649 38.425 159.649 39.075C159.649 39.7417 159.849 40.2667 160.249 40.65C160.649 41.0167 161.299 41.2 162.199 41.2H165.949Z" fill="url(#paint0_radial_105_732)" fill-opacity="0.4"/>
<defs>
<radialGradient id="paint0_radial_105_732" cx="0" cy="0" r="1" gradientUnits="userSpaceOnUse" gradientTransform="translate(107.381 13.5211) rotate(40.6251) scale(74.759 99.4325)">
<stop stop-color="white"/>
<stop offset="1" stop-color="white" stop-opacity="0"/>
</radialGradient>
</defs>
</svg>
