<svg width="170" height="54" viewBox="0 0 170 54" fill="none" xmlns="http://www.w3.org/2000/svg">
<path d="M0.95 1.15H14.85V19H12.475V3.15H3.325V19H0.95V1.15ZM20.6479 3.75H18.5229V1.15H20.6479V3.75ZM18.5229 6.075H20.6479V19H18.5229V6.075ZM22.4148 17.125H23.9398C24.1232 16.775 24.3065 16.3 24.4898 15.7C24.6898 15.0833 24.8648 14.4083 25.0148 13.675C25.1815 12.925 25.3148 12.1333 25.4148 11.3C25.5148 10.4667 25.5648 9.65 25.5648 8.85V6.075H34.9148V17.125H36.6648V22.925H34.6398V19H24.4398V22.925H22.4148V17.125ZM32.7898 17.125V7.95H27.6398V9.05C27.6398 9.86667 27.5898 10.6833 27.4898 11.5C27.4065 12.3 27.2898 13.0583 27.1398 13.775C26.9898 14.4917 26.8232 15.1417 26.6398 15.725C26.4732 16.3083 26.3065 16.775 26.1398 17.125H32.7898ZM38.7115 6.075H47.5615V7.95H40.8365V19H38.7115V6.075ZM54.8322 19.275C53.7989 19.275 52.8906 19.1083 52.1072 18.775C51.3406 18.425 50.6906 17.95 50.1572 17.35C49.6239 16.7333 49.2239 16.0167 48.9572 15.2C48.6906 14.3833 48.5572 13.5 48.5572 12.55C48.5572 11.6 48.6906 10.7167 48.9572 9.9C49.2239 9.06667 49.6239 8.35 50.1572 7.75C50.6906 7.13333 51.3406 6.65 52.1072 6.3C52.8906 5.95 53.7989 5.775 54.8322 5.775C55.8489 5.775 56.7489 5.95 57.5322 6.3C58.3156 6.65 58.9739 7.13333 59.5072 7.75C60.0406 8.35 60.4406 9.06667 60.7072 9.9C60.9739 10.7167 61.1072 11.6 61.1072 12.55C61.1072 13.5 60.9739 14.3833 60.7072 15.2C60.4406 16.0167 60.0406 16.7333 59.5072 17.35C58.9739 17.95 58.3156 18.425 57.5322 18.775C56.7489 19.1083 55.8489 19.275 54.8322 19.275ZM54.8322 17.425C55.3822 17.425 55.8989 17.3167 56.3822 17.1C56.8822 16.8833 57.3156 16.575 57.6822 16.175C58.0489 15.7583 58.3322 15.25 58.5322 14.65C58.7489 14.0333 58.8572 13.3333 58.8572 12.55C58.8572 11.7667 58.7489 11.075 58.5322 10.475C58.3322 9.85833 58.0489 9.34167 57.6822 8.925C57.3156 8.50833 56.8822 8.19167 56.3822 7.975C55.8989 7.75833 55.3822 7.65 54.8322 7.65C54.2822 7.65 53.7572 7.75833 53.2572 7.975C52.7739 8.19167 52.3489 8.50833 51.9822 8.925C51.6156 9.34167 51.3239 9.85833 51.1072 10.475C50.9072 11.075 50.8072 11.7667 50.8072 12.55C50.8072 13.3333 50.9072 14.0333 51.1072 14.65C51.3239 15.25 51.6156 15.7583 51.9822 16.175C52.3489 16.575 52.7739 16.8833 53.2572 17.1C53.7572 17.3167 54.2822 17.425 54.8322 17.425ZM66.7377 7.95H62.1127V6.075H73.4877V7.95H68.8627V19H66.7377V7.95ZM80.76 19.275C79.7266 19.275 78.8183 19.1083 78.035 18.775C77.2683 18.425 76.6183 17.95 76.085 17.35C75.5516 16.7333 75.1516 16.0167 74.885 15.2C74.6183 14.3833 74.485 13.5 74.485 12.55C74.485 11.6 74.6183 10.7167 74.885 9.9C75.1516 9.06667 75.5516 8.35 76.085 7.75C76.6183 7.13333 77.2683 6.65 78.035 6.3C78.8183 5.95 79.7266 5.775 80.76 5.775C81.7766 5.775 82.6766 5.95 83.46 6.3C84.2433 6.65 84.9016 7.13333 85.435 7.75C85.9683 8.35 86.3683 9.06667 86.635 9.9C86.9016 10.7167 87.035 11.6 87.035 12.55C87.035 13.5 86.9016 14.3833 86.635 15.2C86.3683 16.0167 85.9683 16.7333 85.435 17.35C84.9016 17.95 84.2433 18.425 83.46 18.775C82.6766 19.1083 81.7766 19.275 80.76 19.275ZM80.76 17.425C81.31 17.425 81.8266 17.3167 82.31 17.1C82.81 16.8833 83.2433 16.575 83.61 16.175C83.9766 15.7583 84.26 15.25 84.46 14.65C84.6766 14.0333 84.785 13.3333 84.785 12.55C84.785 11.7667 84.6766 11.075 84.46 10.475C84.26 9.85833 83.9766 9.34167 83.61 8.925C83.2433 8.50833 82.81 8.19167 82.31 7.975C81.8266 7.75833 81.31 7.65 80.76 7.65C80.21 7.65 79.685 7.75833 79.185 7.975C78.7016 8.19167 78.2766 8.50833 77.91 8.925C77.5433 9.34167 77.2516 9.85833 77.035 10.475C76.835 11.075 76.735 11.7667 76.735 12.55C76.735 13.3333 76.835 14.0333 77.035 14.65C77.2516 15.25 77.5433 15.7583 77.91 16.175C78.2766 16.575 78.7016 16.8833 79.185 17.1C79.685 17.3167 80.21 17.425 80.76 17.425ZM89.5404 6.075H95.5154C96.0821 6.075 96.6238 6.11667 97.1404 6.2C97.6738 6.28333 98.1488 6.44167 98.5654 6.675C98.9821 6.89167 99.3154 7.20833 99.5654 7.625C99.8154 8.04167 99.9404 8.575 99.9404 9.225C99.9404 9.925 99.7738 10.4917 99.4404 10.925C99.1071 11.3583 98.6404 11.7167 98.0404 12V12.025C98.7904 12.175 99.3821 12.525 99.8154 13.075C100.265 13.625 100.49 14.3333 100.49 15.2C100.49 15.75 100.39 16.2583 100.19 16.725C100.007 17.1917 99.7404 17.5917 99.3904 17.925C99.0404 18.2583 98.6238 18.525 98.1404 18.725C97.6571 18.9083 97.1321 19 96.5654 19H89.5404V6.075ZM96.1654 17.2C96.8654 17.2 97.3904 17 97.7404 16.6C98.1071 16.1833 98.2904 15.6667 98.2904 15.05C98.2904 14.4667 98.0988 14 97.7154 13.65C97.3321 13.3 96.6904 13.125 95.7904 13.125H91.6404V17.2H96.1654ZM95.2904 11.375C96.2071 11.375 96.8404 11.2083 97.1904 10.875C97.5571 10.5417 97.7404 10.1 97.7404 9.55C97.7404 9.01667 97.5654 8.60833 97.2154 8.325C96.8654 8.025 96.2238 7.875 95.2904 7.875H91.6404V11.375H95.2904ZM102.941 19.15C102.725 19.15 102.5 19.125 102.266 19.075C102.033 19.0417 101.841 19.0083 101.691 18.975V17.1C101.858 17.15 102.008 17.1833 102.141 17.2C102.291 17.2167 102.433 17.225 102.566 17.225C103.116 17.225 103.533 17.0083 103.816 16.575C104.116 16.1417 104.333 15.475 104.466 14.575C104.616 13.675 104.708 12.525 104.741 11.125C104.775 9.70833 104.808 8.025 104.841 6.075H113.916V19H111.791V7.95H106.891C106.841 9.46667 106.783 10.9083 106.716 12.275C106.666 13.625 106.525 14.8083 106.291 15.825C106.058 16.8417 105.683 17.65 105.166 18.25C104.65 18.85 103.908 19.15 102.941 19.15ZM122.628 19.275C121.595 19.275 120.687 19.1083 119.903 18.775C119.137 18.4417 118.495 17.975 117.978 17.375C117.462 16.775 117.07 16.0583 116.803 15.225C116.553 14.3917 116.428 13.4833 116.428 12.5C116.428 11.5333 116.578 10.6417 116.878 9.825C117.178 8.99167 117.595 8.275 118.128 7.675C118.678 7.075 119.32 6.60833 120.053 6.275C120.803 5.94167 121.62 5.775 122.503 5.775C123.653 5.775 124.603 6.01667 125.353 6.5C126.12 6.96667 126.728 7.56667 127.178 8.3C127.645 9.03333 127.962 9.83333 128.128 10.7C128.312 11.5667 128.387 12.3917 128.353 13.175H118.678C118.662 13.7417 118.728 14.2833 118.878 14.8C119.028 15.3 119.27 15.75 119.603 16.15C119.937 16.5333 120.362 16.8417 120.878 17.075C121.395 17.3083 122.003 17.425 122.703 17.425C123.603 17.425 124.337 17.2167 124.903 16.8C125.487 16.3833 125.87 15.75 126.053 14.9H128.153C127.87 16.3667 127.245 17.4667 126.278 18.2C125.312 18.9167 124.095 19.275 122.628 19.275ZM126.103 11.3C126.07 10.8 125.953 10.325 125.753 9.875C125.57 9.425 125.312 9.04167 124.978 8.725C124.662 8.39167 124.278 8.13333 123.828 7.95C123.395 7.75 122.912 7.65 122.378 7.65C121.828 7.65 121.328 7.75 120.878 7.95C120.445 8.13333 120.07 8.39167 119.753 8.725C119.437 9.05833 119.187 9.45 119.003 9.9C118.82 10.3333 118.712 10.8 118.678 11.3H126.103ZM130.556 6.075H132.681V11.225H139.231V6.075H141.356V19H139.231V13.05H132.681V19H130.556V6.075ZM144.545 6.075H146.67V16.625L152.77 6.075H155.495V19H153.37V8.45L147.27 19H144.545V6.075ZM158.705 6.075H160.83V16.625L166.93 6.075H169.655V19H167.53V8.45L161.43 19H158.705V6.075ZM164.18 4.175C163.68 4.175 163.214 4.1 162.78 3.95C162.347 3.8 161.964 3.58333 161.63 3.3C161.314 3.01667 161.055 2.675 160.855 2.275C160.672 1.85833 160.58 1.38333 160.58 0.85H162.355C162.389 2.08333 162.989 2.7 164.155 2.7C164.739 2.7 165.18 2.54167 165.48 2.225C165.797 1.89167 165.955 1.43333 165.955 0.85H167.73C167.73 1.35 167.639 1.80833 167.455 2.225C167.272 2.64167 167.022 2.99167 166.705 3.275C166.389 3.55833 166.014 3.78333 165.58 3.95C165.147 4.1 164.68 4.175 164.18 4.175ZM0.6 36.075H11.15V49H9.025V37.95H2.725V49H0.6V36.075ZM19.8451 49.275C18.8118 49.275 17.9035 49.1083 17.1201 48.775C16.3535 48.4417 15.7118 47.975 15.1951 47.375C14.6785 46.775 14.2868 46.0583 14.0201 45.225C13.7701 44.3917 13.6451 43.4833 13.6451 42.5C13.6451 41.5333 13.7951 40.6417 14.0951 39.825C14.3951 38.9917 14.8118 38.275 15.3451 37.675C15.8951 37.075 16.5368 36.6083 17.2701 36.275C18.0201 35.9417 18.8368 35.775 19.7201 35.775C20.8701 35.775 21.8201 36.0167 22.5701 36.5C23.3368 36.9667 23.9451 37.5667 24.3951 38.3C24.8618 39.0333 25.1785 39.8333 25.3451 40.7C25.5285 41.5667 25.6035 42.3917 25.5701 43.175H15.8951C15.8785 43.7417 15.9451 44.2833 16.0951 44.8C16.2451 45.3 16.4868 45.75 16.8201 46.15C17.1535 46.5333 17.5785 46.8417 18.0951 47.075C18.6118 47.3083 19.2201 47.425 19.9201 47.425C20.8201 47.425 21.5535 47.2167 22.1201 46.8C22.7035 46.3833 23.0868 45.75 23.2701 44.9H25.3701C25.0868 46.3667 24.4618 47.4667 23.4951 48.2C22.5285 48.9167 21.3118 49.275 19.8451 49.275ZM23.3201 41.3C23.2868 40.8 23.1701 40.325 22.9701 39.875C22.7868 39.425 22.5285 39.0417 22.1951 38.725C21.8785 38.3917 21.4951 38.1333 21.0451 37.95C20.6118 37.75 20.1285 37.65 19.5951 37.65C19.0451 37.65 18.5451 37.75 18.0951 37.95C17.6618 38.1333 17.2868 38.3917 16.9701 38.725C16.6535 39.0583 16.4035 39.45 16.2201 39.9C16.0368 40.3333 15.9285 40.8 15.8951 41.3H23.3201ZM27.8479 36.075H29.9729V37.825H30.0229C30.3729 37.1083 30.9229 36.5917 31.6729 36.275C32.4229 35.9417 33.2479 35.775 34.1479 35.775C35.1479 35.775 36.0145 35.9583 36.7479 36.325C37.4979 36.6917 38.1145 37.1917 38.5979 37.825C39.0979 38.4417 39.4729 39.1583 39.7229 39.975C39.9729 40.7917 40.0979 41.6583 40.0979 42.575C40.0979 43.5083 39.9729 44.3833 39.7229 45.2C39.4895 46 39.1229 46.7083 38.6229 47.325C38.1395 47.925 37.5229 48.4 36.7729 48.75C36.0395 49.1 35.1812 49.275 34.1979 49.275C33.8645 49.275 33.5062 49.2417 33.1229 49.175C32.7395 49.1083 32.3562 49 31.9729 48.85C31.5895 48.7 31.2229 48.5 30.8729 48.25C30.5395 47.9833 30.2562 47.6583 30.0229 47.275H29.9729V53.925H27.8479V36.075ZM33.9729 47.425C34.6895 47.425 35.2979 47.2833 35.7979 47C36.2979 46.7167 36.6979 46.3417 36.9979 45.875C37.2979 45.4083 37.5145 44.875 37.6479 44.275C37.7812 43.675 37.8479 43.0583 37.8479 42.425C37.8479 41.825 37.7645 41.2417 37.5979 40.675C37.4479 40.0917 37.2062 39.575 36.8729 39.125C36.5562 38.675 36.1395 38.3167 35.6229 38.05C35.1229 37.7833 34.5312 37.65 33.8479 37.65C33.1312 37.65 32.5229 37.7917 32.0229 38.075C31.5229 38.3583 31.1145 38.7333 30.7979 39.2C30.4812 39.65 30.2479 40.1667 30.0979 40.75C29.9645 41.3333 29.8979 41.925 29.8979 42.525C29.8979 43.1583 29.9729 43.775 30.1229 44.375C30.2729 44.9583 30.5062 45.475 30.8229 45.925C31.1562 46.375 31.5812 46.7417 32.0979 47.025C32.6145 47.2917 33.2395 47.425 33.9729 47.425ZM47.9422 49.275C46.9589 49.275 46.0839 49.1167 45.3172 48.8C44.5672 48.4833 43.9339 48.0333 43.4172 47.45C42.9172 46.8667 42.5339 46.175 42.2672 45.375C42.0172 44.575 41.8922 43.6833 41.8922 42.7C41.8922 41.7333 42.0172 40.8333 42.2672 40C42.5172 39.15 42.8922 38.4167 43.3922 37.8C43.9089 37.1667 44.5422 36.675 45.2922 36.325C46.0589 35.9583 46.9589 35.775 47.9922 35.775C48.7255 35.775 49.4089 35.8667 50.0422 36.05C50.6922 36.2167 51.2589 36.4833 51.7422 36.85C52.2422 37.2167 52.6505 37.6833 52.9672 38.25C53.2839 38.8 53.4839 39.4583 53.5672 40.225H51.3672C51.2005 39.4083 50.8505 38.775 50.3172 38.325C49.7839 37.875 49.0672 37.65 48.1672 37.65C47.4005 37.65 46.7589 37.7917 46.2422 38.075C45.7255 38.3583 45.3089 38.7333 44.9922 39.2C44.6922 39.6667 44.4755 40.2083 44.3422 40.825C44.2089 41.425 44.1422 42.05 44.1422 42.7C44.1422 43.3 44.2089 43.8833 44.3422 44.45C44.4922 45.0167 44.7172 45.525 45.0172 45.975C45.3172 46.4083 45.7005 46.7583 46.1672 47.025C46.6505 47.2917 47.2339 47.425 47.9172 47.425C48.9672 47.425 49.7839 47.15 50.3672 46.6C50.9672 46.05 51.3339 45.275 51.4672 44.275H53.6422C53.4089 45.8917 52.8172 47.1333 51.8672 48C50.9172 48.85 49.6089 49.275 47.9422 49.275ZM61.5949 49.275C60.5616 49.275 59.6533 49.1083 58.8699 48.775C58.1033 48.425 57.4533 47.95 56.9199 47.35C56.3866 46.7333 55.9866 46.0167 55.7199 45.2C55.4533 44.3833 55.3199 43.5 55.3199 42.55C55.3199 41.6 55.4533 40.7167 55.7199 39.9C55.9866 39.0667 56.3866 38.35 56.9199 37.75C57.4533 37.1333 58.1033 36.65 58.8699 36.3C59.6533 35.95 60.5616 35.775 61.5949 35.775C62.6116 35.775 63.5116 35.95 64.2949 36.3C65.0783 36.65 65.7366 37.1333 66.2699 37.75C66.8033 38.35 67.2033 39.0667 67.4699 39.9C67.7366 40.7167 67.8699 41.6 67.8699 42.55C67.8699 43.5 67.7366 44.3833 67.4699 45.2C67.2033 46.0167 66.8033 46.7333 66.2699 47.35C65.7366 47.95 65.0783 48.425 64.2949 48.775C63.5116 49.1083 62.6116 49.275 61.5949 49.275ZM61.5949 47.425C62.1449 47.425 62.6616 47.3167 63.1449 47.1C63.6449 46.8833 64.0783 46.575 64.4449 46.175C64.8116 45.7583 65.0949 45.25 65.2949 44.65C65.5116 44.0333 65.6199 43.3333 65.6199 42.55C65.6199 41.7667 65.5116 41.075 65.2949 40.475C65.0949 39.8583 64.8116 39.3417 64.4449 38.925C64.0783 38.5083 63.6449 38.1917 63.1449 37.975C62.6616 37.7583 62.1449 37.65 61.5949 37.65C61.0449 37.65 60.5199 37.7583 60.0199 37.975C59.5366 38.1917 59.1116 38.5083 58.7449 38.925C58.3783 39.3417 58.0866 39.8583 57.8699 40.475C57.6699 41.075 57.5699 41.7667 57.5699 42.55C57.5699 43.3333 57.6699 44.0333 57.8699 44.65C58.0866 45.25 58.3783 45.7583 58.7449 46.175C59.1116 46.575 59.5366 46.8833 60.0199 47.1C60.5199 47.3167 61.0449 47.425 61.5949 47.425ZM70.3754 36.075H72.5004V41.225H79.0504V36.075H81.1754V49H79.0504V43.05H72.5004V49H70.3754V36.075ZM87.9396 49.275C87.3563 49.275 86.8063 49.2083 86.2896 49.075C85.773 48.9583 85.3146 48.7583 84.9146 48.475C84.5313 48.175 84.223 47.8 83.9896 47.35C83.773 46.8833 83.6646 46.325 83.6646 45.675C83.6646 44.9417 83.7896 44.3417 84.0396 43.875C84.2896 43.4083 84.6146 43.0333 85.0146 42.75C85.4313 42.45 85.898 42.225 86.4146 42.075C86.948 41.925 87.4896 41.8 88.0396 41.7C88.623 41.5833 89.173 41.5 89.6896 41.45C90.223 41.3833 90.6896 41.3 91.0896 41.2C91.4896 41.0833 91.8063 40.925 92.0396 40.725C92.273 40.5083 92.3896 40.2 92.3896 39.8C92.3896 39.3333 92.298 38.9583 92.1146 38.675C91.948 38.3917 91.723 38.175 91.4396 38.025C91.173 37.875 90.8646 37.775 90.5146 37.725C90.1813 37.675 89.848 37.65 89.5146 37.65C88.6146 37.65 87.8646 37.825 87.2646 38.175C86.6646 38.5083 86.3396 39.15 86.2896 40.1H84.1646C84.198 39.3 84.3646 38.625 84.6646 38.075C84.9646 37.525 85.3646 37.0833 85.8646 36.75C86.3646 36.4 86.9313 36.15 87.5646 36C88.2146 35.85 88.9063 35.775 89.6396 35.775C90.223 35.775 90.798 35.8167 91.3646 35.9C91.948 35.9833 92.473 36.1583 92.9396 36.425C93.4063 36.675 93.7813 37.0333 94.0646 37.5C94.348 37.9667 94.4896 38.575 94.4896 39.325V45.975C94.4896 46.475 94.5146 46.8417 94.5646 47.075C94.6313 47.3083 94.8313 47.425 95.1646 47.425C95.3146 47.425 95.5313 47.3833 95.8146 47.3V48.95C95.448 49.1667 94.9396 49.275 94.2896 49.275C93.7396 49.275 93.298 49.125 92.9646 48.825C92.648 48.5083 92.4896 48 92.4896 47.3C91.9063 48 91.223 48.5083 90.4396 48.825C89.673 49.125 88.8396 49.275 87.9396 49.275ZM88.4146 47.425C89.1146 47.425 89.7146 47.3333 90.2146 47.15C90.7146 46.95 91.123 46.7083 91.4396 46.425C91.7563 46.125 91.9896 45.8083 92.1396 45.475C92.2896 45.125 92.3646 44.8 92.3646 44.5V42.325C92.098 42.5417 91.748 42.6917 91.3146 42.775C90.8813 42.8583 90.423 42.9333 89.9396 43C89.473 43.0667 88.998 43.1333 88.5146 43.2C88.0313 43.2667 87.598 43.3833 87.2146 43.55C86.8313 43.7167 86.5146 43.9583 86.2646 44.275C86.0313 44.575 85.9146 44.9917 85.9146 45.525C85.9146 45.875 85.9813 46.175 86.1146 46.425C86.2646 46.6583 86.448 46.85 86.6646 47C86.898 47.15 87.1646 47.2583 87.4646 47.325C87.7646 47.3917 88.0813 47.425 88.4146 47.425ZM97.6924 49.15C97.4757 49.15 97.2507 49.125 97.0174 49.075C96.784 49.0417 96.5924 49.0083 96.4424 48.975V47.1C96.609 47.15 96.759 47.1833 96.8924 47.2C97.0424 47.2167 97.184 47.225 97.3174 47.225C97.8674 47.225 98.284 47.0083 98.5674 46.575C98.8674 46.1417 99.084 45.475 99.2174 44.575C99.3674 43.675 99.459 42.525 99.4924 41.125C99.5257 39.7083 99.559 38.025 99.5924 36.075H108.667V49H106.542V37.95H101.642C101.592 39.4667 101.534 40.9083 101.467 42.275C101.417 43.625 101.276 44.8083 101.042 45.825C100.809 46.8417 100.434 47.65 99.9174 48.25C99.4007 48.85 98.659 49.15 97.6924 49.15Z" fill="black"/>
<path d="M0.95 1.15H14.85V19H12.475V3.15H3.325V19H0.95V1.15ZM20.6479 3.75H18.5229V1.15H20.6479V3.75ZM18.5229 6.075H20.6479V19H18.5229V6.075ZM22.4148 17.125H23.9398C24.1232 16.775 24.3065 16.3 24.4898 15.7C24.6898 15.0833 24.8648 14.4083 25.0148 13.675C25.1815 12.925 25.3148 12.1333 25.4148 11.3C25.5148 10.4667 25.5648 9.65 25.5648 8.85V6.075H34.9148V17.125H36.6648V22.925H34.6398V19H24.4398V22.925H22.4148V17.125ZM32.7898 17.125V7.95H27.6398V9.05C27.6398 9.86667 27.5898 10.6833 27.4898 11.5C27.4065 12.3 27.2898 13.0583 27.1398 13.775C26.9898 14.4917 26.8232 15.1417 26.6398 15.725C26.4732 16.3083 26.3065 16.775 26.1398 17.125H32.7898ZM38.7115 6.075H47.5615V7.95H40.8365V19H38.7115V6.075ZM54.8322 19.275C53.7989 19.275 52.8906 19.1083 52.1072 18.775C51.3406 18.425 50.6906 17.95 50.1572 17.35C49.6239 16.7333 49.2239 16.0167 48.9572 15.2C48.6906 14.3833 48.5572 13.5 48.5572 12.55C48.5572 11.6 48.6906 10.7167 48.9572 9.9C49.2239 9.06667 49.6239 8.35 50.1572 7.75C50.6906 7.13333 51.3406 6.65 52.1072 6.3C52.8906 5.95 53.7989 5.775 54.8322 5.775C55.8489 5.775 56.7489 5.95 57.5322 6.3C58.3156 6.65 58.9739 7.13333 59.5072 7.75C60.0406 8.35 60.4406 9.06667 60.7072 9.9C60.9739 10.7167 61.1072 11.6 61.1072 12.55C61.1072 13.5 60.9739 14.3833 60.7072 15.2C60.4406 16.0167 60.0406 16.7333 59.5072 17.35C58.9739 17.95 58.3156 18.425 57.5322 18.775C56.7489 19.1083 55.8489 19.275 54.8322 19.275ZM54.8322 17.425C55.3822 17.425 55.8989 17.3167 56.3822 17.1C56.8822 16.8833 57.3156 16.575 57.6822 16.175C58.0489 15.7583 58.3322 15.25 58.5322 14.65C58.7489 14.0333 58.8572 13.3333 58.8572 12.55C58.8572 11.7667 58.7489 11.075 58.5322 10.475C58.3322 9.85833 58.0489 9.34167 57.6822 8.925C57.3156 8.50833 56.8822 8.19167 56.3822 7.975C55.8989 7.75833 55.3822 7.65 54.8322 7.65C54.2822 7.65 53.7572 7.75833 53.2572 7.975C52.7739 8.19167 52.3489 8.50833 51.9822 8.925C51.6156 9.34167 51.3239 9.85833 51.1072 10.475C50.9072 11.075 50.8072 11.7667 50.8072 12.55C50.8072 13.3333 50.9072 14.0333 51.1072 14.65C51.3239 15.25 51.6156 15.7583 51.9822 16.175C52.3489 16.575 52.7739 16.8833 53.2572 17.1C53.7572 17.3167 54.2822 17.425 54.8322 17.425ZM66.7377 7.95H62.1127V6.075H73.4877V7.95H68.8627V19H66.7377V7.95ZM80.76 19.275C79.7266 19.275 78.8183 19.1083 78.035 18.775C77.2683 18.425 76.6183 17.95 76.085 17.35C75.5516 16.7333 75.1516 16.0167 74.885 15.2C74.6183 14.3833 74.485 13.5 74.485 12.55C74.485 11.6 74.6183 10.7167 74.885 9.9C75.1516 9.06667 75.5516 8.35 76.085 7.75C76.6183 7.13333 77.2683 6.65 78.035 6.3C78.8183 5.95 79.7266 5.775 80.76 5.775C81.7766 5.775 82.6766 5.95 83.46 6.3C84.2433 6.65 84.9016 7.13333 85.435 7.75C85.9683 8.35 86.3683 9.06667 86.635 9.9C86.9016 10.7167 87.035 11.6 87.035 12.55C87.035 13.5 86.9016 14.3833 86.635 15.2C86.3683 16.0167 85.9683 16.7333 85.435 17.35C84.9016 17.95 84.2433 18.425 83.46 18.775C82.6766 19.1083 81.7766 19.275 80.76 19.275ZM80.76 17.425C81.31 17.425 81.8266 17.3167 82.31 17.1C82.81 16.8833 83.2433 16.575 83.61 16.175C83.9766 15.7583 84.26 15.25 84.46 14.65C84.6766 14.0333 84.785 13.3333 84.785 12.55C84.785 11.7667 84.6766 11.075 84.46 10.475C84.26 9.85833 83.9766 9.34167 83.61 8.925C83.2433 8.50833 82.81 8.19167 82.31 7.975C81.8266 7.75833 81.31 7.65 80.76 7.65C80.21 7.65 79.685 7.75833 79.185 7.975C78.7016 8.19167 78.2766 8.50833 77.91 8.925C77.5433 9.34167 77.2516 9.85833 77.035 10.475C76.835 11.075 76.735 11.7667 76.735 12.55C76.735 13.3333 76.835 14.0333 77.035 14.65C77.2516 15.25 77.5433 15.7583 77.91 16.175C78.2766 16.575 78.7016 16.8833 79.185 17.1C79.685 17.3167 80.21 17.425 80.76 17.425ZM89.5404 6.075H95.5154C96.0821 6.075 96.6238 6.11667 97.1404 6.2C97.6738 6.28333 98.1488 6.44167 98.5654 6.675C98.9821 6.89167 99.3154 7.20833 99.5654 7.625C99.8154 8.04167 99.9404 8.575 99.9404 9.225C99.9404 9.925 99.7738 10.4917 99.4404 10.925C99.1071 11.3583 98.6404 11.7167 98.0404 12V12.025C98.7904 12.175 99.3821 12.525 99.8154 13.075C100.265 13.625 100.49 14.3333 100.49 15.2C100.49 15.75 100.39 16.2583 100.19 16.725C100.007 17.1917 99.7404 17.5917 99.3904 17.925C99.0404 18.2583 98.6238 18.525 98.1404 18.725C97.6571 18.9083 97.1321 19 96.5654 19H89.5404V6.075ZM96.1654 17.2C96.8654 17.2 97.3904 17 97.7404 16.6C98.1071 16.1833 98.2904 15.6667 98.2904 15.05C98.2904 14.4667 98.0988 14 97.7154 13.65C97.3321 13.3 96.6904 13.125 95.7904 13.125H91.6404V17.2H96.1654ZM95.2904 11.375C96.2071 11.375 96.8404 11.2083 97.1904 10.875C97.5571 10.5417 97.7404 10.1 97.7404 9.55C97.7404 9.01667 97.5654 8.60833 97.2154 8.325C96.8654 8.025 96.2238 7.875 95.2904 7.875H91.6404V11.375H95.2904ZM102.941 19.15C102.725 19.15 102.5 19.125 102.266 19.075C102.033 19.0417 101.841 19.0083 101.691 18.975V17.1C101.858 17.15 102.008 17.1833 102.141 17.2C102.291 17.2167 102.433 17.225 102.566 17.225C103.116 17.225 103.533 17.0083 103.816 16.575C104.116 16.1417 104.333 15.475 104.466 14.575C104.616 13.675 104.708 12.525 104.741 11.125C104.775 9.70833 104.808 8.025 104.841 6.075H113.916V19H111.791V7.95H106.891C106.841 9.46667 106.783 10.9083 106.716 12.275C106.666 13.625 106.525 14.8083 106.291 15.825C106.058 16.8417 105.683 17.65 105.166 18.25C104.65 18.85 103.908 19.15 102.941 19.15ZM122.628 19.275C121.595 19.275 120.687 19.1083 119.903 18.775C119.137 18.4417 118.495 17.975 117.978 17.375C117.462 16.775 117.07 16.0583 116.803 15.225C116.553 14.3917 116.428 13.4833 116.428 12.5C116.428 11.5333 116.578 10.6417 116.878 9.825C117.178 8.99167 117.595 8.275 118.128 7.675C118.678 7.075 119.32 6.60833 120.053 6.275C120.803 5.94167 121.62 5.775 122.503 5.775C123.653 5.775 124.603 6.01667 125.353 6.5C126.12 6.96667 126.728 7.56667 127.178 8.3C127.645 9.03333 127.962 9.83333 128.128 10.7C128.312 11.5667 128.387 12.3917 128.353 13.175H118.678C118.662 13.7417 118.728 14.2833 118.878 14.8C119.028 15.3 119.27 15.75 119.603 16.15C119.937 16.5333 120.362 16.8417 120.878 17.075C121.395 17.3083 122.003 17.425 122.703 17.425C123.603 17.425 124.337 17.2167 124.903 16.8C125.487 16.3833 125.87 15.75 126.053 14.9H128.153C127.87 16.3667 127.245 17.4667 126.278 18.2C125.312 18.9167 124.095 19.275 122.628 19.275ZM126.103 11.3C126.07 10.8 125.953 10.325 125.753 9.875C125.57 9.425 125.312 9.04167 124.978 8.725C124.662 8.39167 124.278 8.13333 123.828 7.95C123.395 7.75 122.912 7.65 122.378 7.65C121.828 7.65 121.328 7.75 120.878 7.95C120.445 8.13333 120.07 8.39167 119.753 8.725C119.437 9.05833 119.187 9.45 119.003 9.9C118.82 10.3333 118.712 10.8 118.678 11.3H126.103ZM130.556 6.075H132.681V11.225H139.231V6.075H141.356V19H139.231V13.05H132.681V19H130.556V6.075ZM144.545 6.075H146.67V16.625L152.77 6.075H155.495V19H153.37V8.45L147.27 19H144.545V6.075ZM158.705 6.075H160.83V16.625L166.93 6.075H169.655V19H167.53V8.45L161.43 19H158.705V6.075ZM164.18 4.175C163.68 4.175 163.214 4.1 162.78 3.95C162.347 3.8 161.964 3.58333 161.63 3.3C161.314 3.01667 161.055 2.675 160.855 2.275C160.672 1.85833 160.58 1.38333 160.58 0.85H162.355C162.389 2.08333 162.989 2.7 164.155 2.7C164.739 2.7 165.18 2.54167 165.48 2.225C165.797 1.89167 165.955 1.43333 165.955 0.85H167.73C167.73 1.35 167.639 1.80833 167.455 2.225C167.272 2.64167 167.022 2.99167 166.705 3.275C166.389 3.55833 166.014 3.78333 165.58 3.95C165.147 4.1 164.68 4.175 164.18 4.175ZM0.6 36.075H11.15V49H9.025V37.95H2.725V49H0.6V36.075ZM19.8451 49.275C18.8118 49.275 17.9035 49.1083 17.1201 48.775C16.3535 48.4417 15.7118 47.975 15.1951 47.375C14.6785 46.775 14.2868 46.0583 14.0201 45.225C13.7701 44.3917 13.6451 43.4833 13.6451 42.5C13.6451 41.5333 13.7951 40.6417 14.0951 39.825C14.3951 38.9917 14.8118 38.275 15.3451 37.675C15.8951 37.075 16.5368 36.6083 17.2701 36.275C18.0201 35.9417 18.8368 35.775 19.7201 35.775C20.8701 35.775 21.8201 36.0167 22.5701 36.5C23.3368 36.9667 23.9451 37.5667 24.3951 38.3C24.8618 39.0333 25.1785 39.8333 25.3451 40.7C25.5285 41.5667 25.6035 42.3917 25.5701 43.175H15.8951C15.8785 43.7417 15.9451 44.2833 16.0951 44.8C16.2451 45.3 16.4868 45.75 16.8201 46.15C17.1535 46.5333 17.5785 46.8417 18.0951 47.075C18.6118 47.3083 19.2201 47.425 19.9201 47.425C20.8201 47.425 21.5535 47.2167 22.1201 46.8C22.7035 46.3833 23.0868 45.75 23.2701 44.9H25.3701C25.0868 46.3667 24.4618 47.4667 23.4951 48.2C22.5285 48.9167 21.3118 49.275 19.8451 49.275ZM23.3201 41.3C23.2868 40.8 23.1701 40.325 22.9701 39.875C22.7868 39.425 22.5285 39.0417 22.1951 38.725C21.8785 38.3917 21.4951 38.1333 21.0451 37.95C20.6118 37.75 20.1285 37.65 19.5951 37.65C19.0451 37.65 18.5451 37.75 18.0951 37.95C17.6618 38.1333 17.2868 38.3917 16.9701 38.725C16.6535 39.0583 16.4035 39.45 16.2201 39.9C16.0368 40.3333 15.9285 40.8 15.8951 41.3H23.3201ZM27.8479 36.075H29.9729V37.825H30.0229C30.3729 37.1083 30.9229 36.5917 31.6729 36.275C32.4229 35.9417 33.2479 35.775 34.1479 35.775C35.1479 35.775 36.0145 35.9583 36.7479 36.325C37.4979 36.6917 38.1145 37.1917 38.5979 37.825C39.0979 38.4417 39.4729 39.1583 39.7229 39.975C39.9729 40.7917 40.0979 41.6583 40.0979 42.575C40.0979 43.5083 39.9729 44.3833 39.7229 45.2C39.4895 46 39.1229 46.7083 38.6229 47.325C38.1395 47.925 37.5229 48.4 36.7729 48.75C36.0395 49.1 35.1812 49.275 34.1979 49.275C33.8645 49.275 33.5062 49.2417 33.1229 49.175C32.7395 49.1083 32.3562 49 31.9729 48.85C31.5895 48.7 31.2229 48.5 30.8729 48.25C30.5395 47.9833 30.2562 47.6583 30.0229 47.275H29.9729V53.925H27.8479V36.075ZM33.9729 47.425C34.6895 47.425 35.2979 47.2833 35.7979 47C36.2979 46.7167 36.6979 46.3417 36.9979 45.875C37.2979 45.4083 37.5145 44.875 37.6479 44.275C37.7812 43.675 37.8479 43.0583 37.8479 42.425C37.8479 41.825 37.7645 41.2417 37.5979 40.675C37.4479 40.0917 37.2062 39.575 36.8729 39.125C36.5562 38.675 36.1395 38.3167 35.6229 38.05C35.1229 37.7833 34.5312 37.65 33.8479 37.65C33.1312 37.65 32.5229 37.7917 32.0229 38.075C31.5229 38.3583 31.1145 38.7333 30.7979 39.2C30.4812 39.65 30.2479 40.1667 30.0979 40.75C29.9645 41.3333 29.8979 41.925 29.8979 42.525C29.8979 43.1583 29.9729 43.775 30.1229 44.375C30.2729 44.9583 30.5062 45.475 30.8229 45.925C31.1562 46.375 31.5812 46.7417 32.0979 47.025C32.6145 47.2917 33.2395 47.425 33.9729 47.425ZM47.9422 49.275C46.9589 49.275 46.0839 49.1167 45.3172 48.8C44.5672 48.4833 43.9339 48.0333 43.4172 47.45C42.9172 46.8667 42.5339 46.175 42.2672 45.375C42.0172 44.575 41.8922 43.6833 41.8922 42.7C41.8922 41.7333 42.0172 40.8333 42.2672 40C42.5172 39.15 42.8922 38.4167 43.3922 37.8C43.9089 37.1667 44.5422 36.675 45.2922 36.325C46.0589 35.9583 46.9589 35.775 47.9922 35.775C48.7255 35.775 49.4089 35.8667 50.0422 36.05C50.6922 36.2167 51.2589 36.4833 51.7422 36.85C52.2422 37.2167 52.6505 37.6833 52.9672 38.25C53.2839 38.8 53.4839 39.4583 53.5672 40.225H51.3672C51.2005 39.4083 50.8505 38.775 50.3172 38.325C49.7839 37.875 49.0672 37.65 48.1672 37.65C47.4005 37.65 46.7589 37.7917 46.2422 38.075C45.7255 38.3583 45.3089 38.7333 44.9922 39.2C44.6922 39.6667 44.4755 40.2083 44.3422 40.825C44.2089 41.425 44.1422 42.05 44.1422 42.7C44.1422 43.3 44.2089 43.8833 44.3422 44.45C44.4922 45.0167 44.7172 45.525 45.0172 45.975C45.3172 46.4083 45.7005 46.7583 46.1672 47.025C46.6505 47.2917 47.2339 47.425 47.9172 47.425C48.9672 47.425 49.7839 47.15 50.3672 46.6C50.9672 46.05 51.3339 45.275 51.4672 44.275H53.6422C53.4089 45.8917 52.8172 47.1333 51.8672 48C50.9172 48.85 49.6089 49.275 47.9422 49.275ZM61.5949 49.275C60.5616 49.275 59.6533 49.1083 58.8699 48.775C58.1033 48.425 57.4533 47.95 56.9199 47.35C56.3866 46.7333 55.9866 46.0167 55.7199 45.2C55.4533 44.3833 55.3199 43.5 55.3199 42.55C55.3199 41.6 55.4533 40.7167 55.7199 39.9C55.9866 39.0667 56.3866 38.35 56.9199 37.75C57.4533 37.1333 58.1033 36.65 58.8699 36.3C59.6533 35.95 60.5616 35.775 61.5949 35.775C62.6116 35.775 63.5116 35.95 64.2949 36.3C65.0783 36.65 65.7366 37.1333 66.2699 37.75C66.8033 38.35 67.2033 39.0667 67.4699 39.9C67.7366 40.7167 67.8699 41.6 67.8699 42.55C67.8699 43.5 67.7366 44.3833 67.4699 45.2C67.2033 46.0167 66.8033 46.7333 66.2699 47.35C65.7366 47.95 65.0783 48.425 64.2949 48.775C63.5116 49.1083 62.6116 49.275 61.5949 49.275ZM61.5949 47.425C62.1449 47.425 62.6616 47.3167 63.1449 47.1C63.6449 46.8833 64.0783 46.575 64.4449 46.175C64.8116 45.7583 65.0949 45.25 65.2949 44.65C65.5116 44.0333 65.6199 43.3333 65.6199 42.55C65.6199 41.7667 65.5116 41.075 65.2949 40.475C65.0949 39.8583 64.8116 39.3417 64.4449 38.925C64.0783 38.5083 63.6449 38.1917 63.1449 37.975C62.6616 37.7583 62.1449 37.65 61.5949 37.65C61.0449 37.65 60.5199 37.7583 60.0199 37.975C59.5366 38.1917 59.1116 38.5083 58.7449 38.925C58.3783 39.3417 58.0866 39.8583 57.8699 40.475C57.6699 41.075 57.5699 41.7667 57.5699 42.55C57.5699 43.3333 57.6699 44.0333 57.8699 44.65C58.0866 45.25 58.3783 45.7583 58.7449 46.175C59.1116 46.575 59.5366 46.8833 60.0199 47.1C60.5199 47.3167 61.0449 47.425 61.5949 47.425ZM70.3754 36.075H72.5004V41.225H79.0504V36.075H81.1754V49H79.0504V43.05H72.5004V49H70.3754V36.075ZM87.9396 49.275C87.3563 49.275 86.8063 49.2083 86.2896 49.075C85.773 48.9583 85.3146 48.7583 84.9146 48.475C84.5313 48.175 84.223 47.8 83.9896 47.35C83.773 46.8833 83.6646 46.325 83.6646 45.675C83.6646 44.9417 83.7896 44.3417 84.0396 43.875C84.2896 43.4083 84.6146 43.0333 85.0146 42.75C85.4313 42.45 85.898 42.225 86.4146 42.075C86.948 41.925 87.4896 41.8 88.0396 41.7C88.623 41.5833 89.173 41.5 89.6896 41.45C90.223 41.3833 90.6896 41.3 91.0896 41.2C91.4896 41.0833 91.8063 40.925 92.0396 40.725C92.273 40.5083 92.3896 40.2 92.3896 39.8C92.3896 39.3333 92.298 38.9583 92.1146 38.675C91.948 38.3917 91.723 38.175 91.4396 38.025C91.173 37.875 90.8646 37.775 90.5146 37.725C90.1813 37.675 89.848 37.65 89.5146 37.65C88.6146 37.65 87.8646 37.825 87.2646 38.175C86.6646 38.5083 86.3396 39.15 86.2896 40.1H84.1646C84.198 39.3 84.3646 38.625 84.6646 38.075C84.9646 37.525 85.3646 37.0833 85.8646 36.75C86.3646 36.4 86.9313 36.15 87.5646 36C88.2146 35.85 88.9063 35.775 89.6396 35.775C90.223 35.775 90.798 35.8167 91.3646 35.9C91.948 35.9833 92.473 36.1583 92.9396 36.425C93.4063 36.675 93.7813 37.0333 94.0646 37.5C94.348 37.9667 94.4896 38.575 94.4896 39.325V45.975C94.4896 46.475 94.5146 46.8417 94.5646 47.075C94.6313 47.3083 94.8313 47.425 95.1646 47.425C95.3146 47.425 95.5313 47.3833 95.8146 47.3V48.95C95.448 49.1667 94.9396 49.275 94.2896 49.275C93.7396 49.275 93.298 49.125 92.9646 48.825C92.648 48.5083 92.4896 48 92.4896 47.3C91.9063 48 91.223 48.5083 90.4396 48.825C89.673 49.125 88.8396 49.275 87.9396 49.275ZM88.4146 47.425C89.1146 47.425 89.7146 47.3333 90.2146 47.15C90.7146 46.95 91.123 46.7083 91.4396 46.425C91.7563 46.125 91.9896 45.8083 92.1396 45.475C92.2896 45.125 92.3646 44.8 92.3646 44.5V42.325C92.098 42.5417 91.748 42.6917 91.3146 42.775C90.8813 42.8583 90.423 42.9333 89.9396 43C89.473 43.0667 88.998 43.1333 88.5146 43.2C88.0313 43.2667 87.598 43.3833 87.2146 43.55C86.8313 43.7167 86.5146 43.9583 86.2646 44.275C86.0313 44.575 85.9146 44.9917 85.9146 45.525C85.9146 45.875 85.9813 46.175 86.1146 46.425C86.2646 46.6583 86.448 46.85 86.6646 47C86.898 47.15 87.1646 47.2583 87.4646 47.325C87.7646 47.3917 88.0813 47.425 88.4146 47.425ZM97.6924 49.15C97.4757 49.15 97.2507 49.125 97.0174 49.075C96.784 49.0417 96.5924 49.0083 96.4424 48.975V47.1C96.609 47.15 96.759 47.1833 96.8924 47.2C97.0424 47.2167 97.184 47.225 97.3174 47.225C97.8674 47.225 98.284 47.0083 98.5674 46.575C98.8674 46.1417 99.084 45.475 99.2174 44.575C99.3674 43.675 99.459 42.525 99.4924 41.125C99.5257 39.7083 99.559 38.025 99.5924 36.075H108.667V49H106.542V37.95H101.642C101.592 39.4667 101.534 40.9083 101.467 42.275C101.417 43.625 101.276 44.8083 101.042 45.825C100.809 46.8417 100.434 47.65 99.9174 48.25C99.4007 48.85 98.659 49.15 97.6924 49.15Z" fill="url(#paint0_radial_105_723)" fill-opacity="0.4"/>
<defs>
<radialGradient id="paint0_radial_105_723" cx="0" cy="0" r="1" gradientUnits="userSpaceOnUse" gradientTransform="translate(106.381 14.5211) rotate(40.6251) scale(74.759 99.4325)">
<stop stop-color="white"/>
<stop offset="1" stop-color="white" stop-opacity="0"/>
</radialGradient>
</defs>
</svg>
