<svg width="191" height="84" viewBox="0 0 191 84" fill="none" xmlns="http://www.w3.org/2000/svg">
<path d="M9.5 19.4C8.08333 19.4 6.84167 19.15 5.775 18.65C4.70833 18.1333 3.81667 17.4417 3.1 16.575C2.38333 15.7083 1.84167 14.7167 1.475 13.6C1.125 12.4833 0.95 11.3083 0.95 10.075C0.95 8.85833 1.125 7.69167 1.475 6.575C1.84167 5.44167 2.38333 4.44167 3.1 3.575C3.81667 2.70833 4.70833 2.01667 5.775 1.5C6.84167 0.983333 8.08333 0.725 9.5 0.725C10.9167 0.725 12.1583 0.983333 13.225 1.5C14.2917 2.01667 15.1833 2.70833 15.9 3.575C16.6167 4.44167 17.15 5.44167 17.5 6.575C17.8667 7.69167 18.05 8.85833 18.05 10.075C18.05 11.3083 17.8667 12.4833 17.5 13.6C17.15 14.7167 16.6167 15.7083 15.9 16.575C15.1833 17.4417 14.2917 18.1333 13.225 18.65C12.1583 19.15 10.9167 19.4 9.5 19.4ZM9.5 17.425C10.5833 17.425 11.5167 17.2167 12.3 16.8C13.0833 16.3667 13.725 15.8 14.225 15.1C14.725 14.4 15.0917 13.6167 15.325 12.75C15.5583 11.8667 15.675 10.975 15.675 10.075C15.675 9.175 15.5583 8.29167 15.325 7.425C15.0917 6.54167 14.725 5.75 14.225 5.05C13.725 4.35 13.0833 3.79167 12.3 3.375C11.5167 2.94167 10.5833 2.725 9.5 2.725C8.41667 2.725 7.48333 2.94167 6.7 3.375C5.91667 3.79167 5.275 4.35 4.775 5.05C4.275 5.75 3.90833 6.54167 3.675 7.425C3.44167 8.29167 3.325 9.175 3.325 10.075C3.325 10.975 3.44167 11.8667 3.675 12.75C3.90833 13.6167 4.275 14.4 4.775 15.1C5.275 15.8 5.91667 16.3667 6.7 16.8C7.48333 17.2167 8.41667 17.425 9.5 17.425ZM26.3691 19.275C24.7025 19.275 23.3525 18.85 22.3191 18C21.3025 17.15 20.6608 15.8333 20.3941 14.05C20.2941 13.35 20.2441 12.5667 20.2441 11.7C20.2441 11.0833 20.2608 10.4417 20.2941 9.775C20.3441 9.10833 20.4191 8.45 20.5191 7.8C20.6358 7.15 20.7858 6.525 20.9691 5.925C21.1691 5.325 21.4275 4.78333 21.7441 4.3C22.3108 3.41667 23.0025 2.76667 23.8191 2.35C24.6358 1.91667 25.6608 1.65833 26.8941 1.575C27.7108 1.50833 28.3941 1.43333 28.9441 1.35C29.4941 1.26667 29.8025 1.05833 29.8691 0.725H31.9941C31.9608 1.375 31.8191 1.875 31.5691 2.225C31.3191 2.575 30.9691 2.84167 30.5191 3.025C30.0691 3.19167 29.5191 3.30833 28.8691 3.375C28.2191 3.425 27.4608 3.48333 26.5941 3.55C25.8775 3.6 25.2525 3.76667 24.7191 4.05C24.1858 4.33333 23.7275 4.71667 23.3441 5.2C22.9775 5.66667 22.6775 6.225 22.4441 6.875C22.2108 7.50833 22.0441 8.20833 21.9441 8.975H22.0191C22.3858 8.125 22.9525 7.425 23.7191 6.875C24.5025 6.325 25.4441 6.05 26.5441 6.05C28.3608 6.05 29.7941 6.61667 30.8441 7.75C31.8941 8.88333 32.4191 10.5167 32.4191 12.65C32.4191 13.7333 32.2691 14.6917 31.9691 15.525C31.6858 16.3417 31.2775 17.0333 30.7441 17.6C30.2108 18.15 29.5691 18.5667 28.8191 18.85C28.0858 19.1333 27.2691 19.275 26.3691 19.275ZM26.3941 17.475C26.8941 17.475 27.3775 17.375 27.8441 17.175C28.3108 16.9583 28.7191 16.65 29.0691 16.25C29.4191 15.85 29.7025 15.3583 29.9191 14.775C30.1358 14.175 30.2441 13.4833 30.2441 12.7C30.2441 11.1833 29.8941 9.99167 29.1941 9.125C28.4941 8.25833 27.5441 7.825 26.3441 7.825C25.1441 7.825 24.1858 8.26667 23.4691 9.15C22.7691 10.0167 22.4191 11.2083 22.4191 12.725C22.4191 14.1917 22.7691 15.35 23.4691 16.2C24.1691 17.05 25.1441 17.475 26.3941 17.475ZM35.0002 6.075H37.1252V7.825H37.1752C37.5252 7.10833 38.0752 6.59167 38.8252 6.275C39.5752 5.94167 40.4002 5.775 41.3002 5.775C42.3002 5.775 43.1669 5.95833 43.9002 6.325C44.6502 6.69167 45.2669 7.19167 45.7502 7.825C46.2502 8.44167 46.6252 9.15833 46.8752 9.975C47.1252 10.7917 47.2502 11.6583 47.2502 12.575C47.2502 13.5083 47.1252 14.3833 46.8752 15.2C46.6419 16 46.2752 16.7083 45.7752 17.325C45.2919 17.925 44.6752 18.4 43.9252 18.75C43.1919 19.1 42.3335 19.275 41.3502 19.275C41.0169 19.275 40.6585 19.2417 40.2752 19.175C39.8919 19.1083 39.5085 19 39.1252 18.85C38.7419 18.7 38.3752 18.5 38.0252 18.25C37.6919 17.9833 37.4085 17.6583 37.1752 17.275H37.1252V23.925H35.0002V6.075ZM41.1252 17.425C41.8419 17.425 42.4502 17.2833 42.9502 17C43.4502 16.7167 43.8502 16.3417 44.1502 15.875C44.4502 15.4083 44.6669 14.875 44.8002 14.275C44.9335 13.675 45.0002 13.0583 45.0002 12.425C45.0002 11.825 44.9169 11.2417 44.7502 10.675C44.6002 10.0917 44.3585 9.575 44.0252 9.125C43.7085 8.675 43.2919 8.31667 42.7752 8.05C42.2752 7.78333 41.6835 7.65 41.0002 7.65C40.2835 7.65 39.6752 7.79167 39.1752 8.075C38.6752 8.35833 38.2669 8.73333 37.9502 9.2C37.6335 9.65 37.4002 10.1667 37.2502 10.75C37.1169 11.3333 37.0502 11.925 37.0502 12.525C37.0502 13.1583 37.1252 13.775 37.2752 14.375C37.4252 14.9583 37.6585 15.475 37.9752 15.925C38.3085 16.375 38.7335 16.7417 39.2502 17.025C39.7669 17.2917 40.3919 17.425 41.1252 17.425ZM55.3195 19.275C54.2862 19.275 53.3779 19.1083 52.5945 18.775C51.8279 18.425 51.1779 17.95 50.6445 17.35C50.1112 16.7333 49.7112 16.0167 49.4445 15.2C49.1779 14.3833 49.0445 13.5 49.0445 12.55C49.0445 11.6 49.1779 10.7167 49.4445 9.9C49.7112 9.06667 50.1112 8.35 50.6445 7.75C51.1779 7.13333 51.8279 6.65 52.5945 6.3C53.3779 5.95 54.2862 5.775 55.3195 5.775C56.3362 5.775 57.2362 5.95 58.0195 6.3C58.8029 6.65 59.4612 7.13333 59.9945 7.75C60.5279 8.35 60.9279 9.06667 61.1945 9.9C61.4612 10.7167 61.5945 11.6 61.5945 12.55C61.5945 13.5 61.4612 14.3833 61.1945 15.2C60.9279 16.0167 60.5279 16.7333 59.9945 17.35C59.4612 17.95 58.8029 18.425 58.0195 18.775C57.2362 19.1083 56.3362 19.275 55.3195 19.275ZM55.3195 17.425C55.8695 17.425 56.3862 17.3167 56.8695 17.1C57.3695 16.8833 57.8029 16.575 58.1695 16.175C58.5362 15.7583 58.8195 15.25 59.0195 14.65C59.2362 14.0333 59.3445 13.3333 59.3445 12.55C59.3445 11.7667 59.2362 11.075 59.0195 10.475C58.8195 9.85833 58.5362 9.34167 58.1695 8.925C57.8029 8.50833 57.3695 8.19167 56.8695 7.975C56.3862 7.75833 55.8695 7.65 55.3195 7.65C54.7695 7.65 54.2445 7.75833 53.7445 7.975C53.2612 8.19167 52.8362 8.50833 52.4695 8.925C52.1029 9.34167 51.8112 9.85833 51.5945 10.475C51.3945 11.075 51.2945 11.7667 51.2945 12.55C51.2945 13.3333 51.3945 14.0333 51.5945 14.65C51.8112 15.25 52.1029 15.7583 52.4695 16.175C52.8362 16.575 53.2612 16.8833 53.7445 17.1C54.2445 17.3167 54.7695 17.425 55.3195 17.425ZM69.875 19.275C68.2083 19.275 66.8583 18.85 65.825 18C64.8083 17.15 64.1667 15.8333 63.9 14.05C63.8 13.35 63.75 12.5667 63.75 11.7C63.75 11.0833 63.7667 10.4417 63.8 9.775C63.85 9.10833 63.925 8.45 64.025 7.8C64.1417 7.15 64.2917 6.525 64.475 5.925C64.675 5.325 64.9333 4.78333 65.25 4.3C65.8167 3.41667 66.5083 2.76667 67.325 2.35C68.1417 1.91667 69.1667 1.65833 70.4 1.575C71.2167 1.50833 71.9 1.43333 72.45 1.35C73 1.26667 73.3083 1.05833 73.375 0.725H75.5C75.4667 1.375 75.325 1.875 75.075 2.225C74.825 2.575 74.475 2.84167 74.025 3.025C73.575 3.19167 73.025 3.30833 72.375 3.375C71.725 3.425 70.9667 3.48333 70.1 3.55C69.3833 3.6 68.7583 3.76667 68.225 4.05C67.6917 4.33333 67.2333 4.71667 66.85 5.2C66.4833 5.66667 66.1833 6.225 65.95 6.875C65.7167 7.50833 65.55 8.20833 65.45 8.975H65.525C65.8917 8.125 66.4583 7.425 67.225 6.875C68.0083 6.325 68.95 6.05 70.05 6.05C71.8667 6.05 73.3 6.61667 74.35 7.75C75.4 8.88333 75.925 10.5167 75.925 12.65C75.925 13.7333 75.775 14.6917 75.475 15.525C75.1917 16.3417 74.7833 17.0333 74.25 17.6C73.7167 18.15 73.075 18.5667 72.325 18.85C71.5917 19.1333 70.775 19.275 69.875 19.275ZM69.9 17.475C70.4 17.475 70.8833 17.375 71.35 17.175C71.8167 16.9583 72.225 16.65 72.575 16.25C72.925 15.85 73.2083 15.3583 73.425 14.775C73.6417 14.175 73.75 13.4833 73.75 12.7C73.75 11.1833 73.4 9.99167 72.7 9.125C72 8.25833 71.05 7.825 69.85 7.825C68.65 7.825 67.6917 8.26667 66.975 9.15C66.275 10.0167 65.925 11.2083 65.925 12.725C65.925 14.1917 66.275 15.35 66.975 16.2C67.675 17.05 68.65 17.475 69.9 17.475ZM78.4311 6.075H80.5561V12.25L86.4811 6.075H89.3061L83.5811 11.675L89.9811 19H87.2561L81.8561 12.85L80.5561 14.125V19H78.4311V6.075ZM95.1652 19.275C94.5819 19.275 94.0319 19.2083 93.5152 19.075C92.9986 18.9583 92.5402 18.7583 92.1402 18.475C91.7569 18.175 91.4486 17.8 91.2152 17.35C90.9986 16.8833 90.8902 16.325 90.8902 15.675C90.8902 14.9417 91.0152 14.3417 91.2652 13.875C91.5152 13.4083 91.8402 13.0333 92.2402 12.75C92.6569 12.45 93.1236 12.225 93.6402 12.075C94.1736 11.925 94.7152 11.8 95.2652 11.7C95.8486 11.5833 96.3986 11.5 96.9152 11.45C97.4486 11.3833 97.9152 11.3 98.3152 11.2C98.7152 11.0833 99.0319 10.925 99.2652 10.725C99.4986 10.5083 99.6152 10.2 99.6152 9.8C99.6152 9.33333 99.5236 8.95833 99.3402 8.675C99.1736 8.39167 98.9486 8.175 98.6652 8.025C98.3986 7.875 98.0902 7.775 97.7402 7.725C97.4069 7.675 97.0736 7.65 96.7402 7.65C95.8402 7.65 95.0902 7.825 94.4902 8.175C93.8902 8.50833 93.5652 9.15 93.5152 10.1H91.3902C91.4236 9.3 91.5902 8.625 91.8902 8.075C92.1902 7.525 92.5902 7.08333 93.0902 6.75C93.5902 6.4 94.1569 6.15 94.7902 6C95.4402 5.85 96.1319 5.775 96.8652 5.775C97.4486 5.775 98.0236 5.81667 98.5902 5.9C99.1736 5.98333 99.6986 6.15833 100.165 6.425C100.632 6.675 101.007 7.03333 101.29 7.5C101.574 7.96667 101.715 8.575 101.715 9.325V15.975C101.715 16.475 101.74 16.8417 101.79 17.075C101.857 17.3083 102.057 17.425 102.39 17.425C102.54 17.425 102.757 17.3833 103.04 17.3V18.95C102.674 19.1667 102.165 19.275 101.515 19.275C100.965 19.275 100.524 19.125 100.19 18.825C99.8736 18.5083 99.7152 18 99.7152 17.3C99.1319 18 98.4486 18.5083 97.6652 18.825C96.8986 19.125 96.0652 19.275 95.1652 19.275ZM95.6402 17.425C96.3402 17.425 96.9402 17.3333 97.4402 17.15C97.9402 16.95 98.3486 16.7083 98.6652 16.425C98.9819 16.125 99.2152 15.8083 99.3652 15.475C99.5152 15.125 99.5902 14.8 99.5902 14.5V12.325C99.3236 12.5417 98.9736 12.6917 98.5402 12.775C98.1069 12.8583 97.6486 12.9333 97.1652 13C96.6986 13.0667 96.2236 13.1333 95.7402 13.2C95.2569 13.2667 94.8236 13.3833 94.4402 13.55C94.0569 13.7167 93.7402 13.9583 93.4902 14.275C93.2569 14.575 93.1402 14.9917 93.1402 15.525C93.1402 15.875 93.2069 16.175 93.3402 16.425C93.4902 16.6583 93.6736 16.85 93.8902 17C94.1236 17.15 94.3902 17.2583 94.6902 17.325C94.9902 17.3917 95.3069 17.425 95.6402 17.425ZM116.726 19.275C115.009 19.275 113.668 18.8917 112.701 18.125C111.734 17.3583 111.209 16.2667 111.126 14.85H113.276C113.343 15.8 113.693 16.4833 114.326 16.9C114.959 17.3167 115.751 17.525 116.701 17.525C117.718 17.525 118.501 17.3083 119.051 16.875C119.601 16.4417 119.876 15.8917 119.876 15.225C119.876 14.575 119.668 14.0667 119.251 13.7C118.834 13.3333 118.126 13.15 117.126 13.15H115.401V11.425H116.776C117.526 11.425 118.168 11.275 118.701 10.975C119.234 10.6583 119.501 10.1167 119.501 9.35C119.501 8.86667 119.268 8.44167 118.801 8.075C118.351 7.70833 117.676 7.525 116.776 7.525C116.393 7.525 116.009 7.56667 115.626 7.65C115.259 7.73333 114.926 7.86667 114.626 8.05C114.326 8.23333 114.076 8.475 113.876 8.775C113.676 9.075 113.551 9.44167 113.501 9.875H111.351C111.401 9.075 111.593 8.41667 111.926 7.9C112.259 7.36667 112.676 6.95 113.176 6.65C113.676 6.33333 114.243 6.10833 114.876 5.975C115.509 5.84167 116.151 5.775 116.801 5.775C117.468 5.775 118.093 5.84167 118.676 5.975C119.259 6.10833 119.768 6.325 120.201 6.625C120.651 6.90833 121.001 7.26667 121.251 7.7C121.518 8.13333 121.651 8.65 121.651 9.25C121.651 10 121.434 10.6083 121.001 11.075C120.584 11.5417 120.109 11.8333 119.576 11.95V12C119.876 12.05 120.176 12.15 120.476 12.3C120.776 12.45 121.043 12.6583 121.276 12.925C121.509 13.175 121.701 13.4917 121.851 13.875C122.001 14.2417 122.076 14.675 122.076 15.175C122.076 15.875 121.926 16.4833 121.626 17C121.326 17.5167 120.926 17.9417 120.426 18.275C119.926 18.6083 119.351 18.8583 118.701 19.025C118.068 19.1917 117.409 19.275 116.726 19.275ZM128.197 19.275C127.614 19.275 127.064 19.2083 126.547 19.075C126.031 18.9583 125.572 18.7583 125.172 18.475C124.789 18.175 124.481 17.8 124.247 17.35C124.031 16.8833 123.922 16.325 123.922 15.675C123.922 14.9417 124.047 14.3417 124.297 13.875C124.547 13.4083 124.872 13.0333 125.272 12.75C125.689 12.45 126.156 12.225 126.672 12.075C127.206 11.925 127.747 11.8 128.297 11.7C128.881 11.5833 129.431 11.5 129.947 11.45C130.481 11.3833 130.947 11.3 131.347 11.2C131.747 11.0833 132.064 10.925 132.297 10.725C132.531 10.5083 132.647 10.2 132.647 9.8C132.647 9.33333 132.556 8.95833 132.372 8.675C132.206 8.39167 131.981 8.175 131.697 8.025C131.431 7.875 131.122 7.775 130.772 7.725C130.439 7.675 130.106 7.65 129.772 7.65C128.872 7.65 128.122 7.825 127.522 8.175C126.922 8.50833 126.597 9.15 126.547 10.1H124.422C124.456 9.3 124.622 8.625 124.922 8.075C125.222 7.525 125.622 7.08333 126.122 6.75C126.622 6.4 127.189 6.15 127.822 6C128.472 5.85 129.164 5.775 129.897 5.775C130.481 5.775 131.056 5.81667 131.622 5.9C132.206 5.98333 132.731 6.15833 133.197 6.425C133.664 6.675 134.039 7.03333 134.322 7.5C134.606 7.96667 134.747 8.575 134.747 9.325V15.975C134.747 16.475 134.772 16.8417 134.822 17.075C134.889 17.3083 135.089 17.425 135.422 17.425C135.572 17.425 135.789 17.3833 136.072 17.3V18.95C135.706 19.1667 135.197 19.275 134.547 19.275C133.997 19.275 133.556 19.125 133.222 18.825C132.906 18.5083 132.747 18 132.747 17.3C132.164 18 131.481 18.5083 130.697 18.825C129.931 19.125 129.097 19.275 128.197 19.275ZM128.672 17.425C129.372 17.425 129.972 17.3333 130.472 17.15C130.972 16.95 131.381 16.7083 131.697 16.425C132.014 16.125 132.247 15.8083 132.397 15.475C132.547 15.125 132.622 14.8 132.622 14.5V12.325C132.356 12.5417 132.006 12.6917 131.572 12.775C131.139 12.8583 130.681 12.9333 130.197 13C129.731 13.0667 129.256 13.1333 128.772 13.2C128.289 13.2667 127.856 13.3833 127.472 13.55C127.089 13.7167 126.772 13.9583 126.522 14.275C126.289 14.575 126.172 14.9917 126.172 15.525C126.172 15.875 126.239 16.175 126.372 16.425C126.522 16.6583 126.706 16.85 126.922 17C127.156 17.15 127.422 17.2583 127.722 17.325C128.022 17.3917 128.339 17.425 128.672 17.425ZM140.775 13.95C139.859 13.8167 139.109 13.4 138.525 12.7C137.942 12 137.65 11.1167 137.65 10.05C137.65 8.83333 138.009 7.86667 138.725 7.15C139.459 6.43333 140.45 6.075 141.7 6.075H148.25V19H146.125V14.025H143.3L139.35 19H136.525L140.775 13.95ZM146.125 12.2V7.95H142.375C141.475 7.95 140.825 8.14167 140.425 8.525C140.025 8.90833 139.825 9.425 139.825 10.075C139.825 10.7417 140.025 11.2667 140.425 11.65C140.825 12.0167 141.475 12.2 142.375 12.2H146.125ZM151.454 6.075H157.429C157.995 6.075 158.537 6.11667 159.054 6.2C159.587 6.28333 160.062 6.44167 160.479 6.675C160.895 6.89167 161.229 7.20833 161.479 7.625C161.729 8.04167 161.854 8.575 161.854 9.225C161.854 9.925 161.687 10.4917 161.354 10.925C161.02 11.3583 160.554 11.7167 159.954 12V12.025C160.704 12.175 161.295 12.525 161.729 13.075C162.179 13.625 162.404 14.3333 162.404 15.2C162.404 15.75 162.304 16.2583 162.104 16.725C161.92 17.1917 161.654 17.5917 161.304 17.925C160.954 18.2583 160.537 18.525 160.054 18.725C159.57 18.9083 159.045 19 158.479 19H151.454V6.075ZM158.079 17.2C158.779 17.2 159.304 17 159.654 16.6C160.02 16.1833 160.204 15.6667 160.204 15.05C160.204 14.4667 160.012 14 159.629 13.65C159.245 13.3 158.604 13.125 157.704 13.125H153.554V17.2H158.079ZM157.204 11.375C158.12 11.375 158.754 11.2083 159.104 10.875C159.47 10.5417 159.654 10.1 159.654 9.55C159.654 9.01667 159.479 8.60833 159.129 8.325C158.779 8.025 158.137 7.875 157.204 7.875H153.554V11.375H157.204ZM170.529 19.275C169.496 19.275 168.588 19.1083 167.804 18.775C167.038 18.425 166.388 17.95 165.854 17.35C165.321 16.7333 164.921 16.0167 164.654 15.2C164.388 14.3833 164.254 13.5 164.254 12.55C164.254 11.6 164.388 10.7167 164.654 9.9C164.921 9.06667 165.321 8.35 165.854 7.75C166.388 7.13333 167.038 6.65 167.804 6.3C168.588 5.95 169.496 5.775 170.529 5.775C171.546 5.775 172.446 5.95 173.229 6.3C174.013 6.65 174.671 7.13333 175.204 7.75C175.738 8.35 176.138 9.06667 176.404 9.9C176.671 10.7167 176.804 11.6 176.804 12.55C176.804 13.5 176.671 14.3833 176.404 15.2C176.138 16.0167 175.738 16.7333 175.204 17.35C174.671 17.95 174.013 18.425 173.229 18.775C172.446 19.1083 171.546 19.275 170.529 19.275ZM170.529 17.425C171.079 17.425 171.596 17.3167 172.079 17.1C172.579 16.8833 173.013 16.575 173.379 16.175C173.746 15.7583 174.029 15.25 174.229 14.65C174.446 14.0333 174.554 13.3333 174.554 12.55C174.554 11.7667 174.446 11.075 174.229 10.475C174.029 9.85833 173.746 9.34167 173.379 8.925C173.013 8.50833 172.579 8.19167 172.079 7.975C171.596 7.75833 171.079 7.65 170.529 7.65C169.979 7.65 169.454 7.75833 168.954 7.975C168.471 8.19167 168.046 8.50833 167.679 8.925C167.313 9.34167 167.021 9.85833 166.804 10.475C166.604 11.075 166.504 11.7667 166.504 12.55C166.504 13.3333 166.604 14.0333 166.804 14.65C167.021 15.25 167.313 15.7583 167.679 16.175C168.046 16.575 168.471 16.8833 168.954 17.1C169.454 17.3167 169.979 17.425 170.529 17.425ZM179.31 6.075H181.435V12.25L187.36 6.075H190.185L184.46 11.675L190.86 19H188.135L182.735 12.85L181.435 14.125V19H179.31V6.075ZM1.6 36.075H3.725V41.225H10.275V36.075H12.4V49H10.275V43.05H3.725V49H1.6V36.075ZM19.1643 49.275C18.5809 49.275 18.0309 49.2083 17.5143 49.075C16.9976 48.9583 16.5393 48.7583 16.1393 48.475C15.7559 48.175 15.4476 47.8 15.2143 47.35C14.9976 46.8833 14.8893 46.325 14.8893 45.675C14.8893 44.9417 15.0143 44.3417 15.2643 43.875C15.5143 43.4083 15.8393 43.0333 16.2393 42.75C16.6559 42.45 17.1226 42.225 17.6393 42.075C18.1726 41.925 18.7143 41.8 19.2643 41.7C19.8476 41.5833 20.3976 41.5 20.9143 41.45C21.4476 41.3833 21.9143 41.3 22.3143 41.2C22.7143 41.0833 23.0309 40.925 23.2643 40.725C23.4976 40.5083 23.6143 40.2 23.6143 39.8C23.6143 39.3333 23.5226 38.9583 23.3393 38.675C23.1726 38.3917 22.9476 38.175 22.6643 38.025C22.3976 37.875 22.0893 37.775 21.7393 37.725C21.4059 37.675 21.0726 37.65 20.7393 37.65C19.8393 37.65 19.0893 37.825 18.4893 38.175C17.8893 38.5083 17.5643 39.15 17.5143 40.1H15.3893C15.4226 39.3 15.5893 38.625 15.8893 38.075C16.1893 37.525 16.5893 37.0833 17.0893 36.75C17.5893 36.4 18.1559 36.15 18.7893 36C19.4393 35.85 20.1309 35.775 20.8643 35.775C21.4476 35.775 22.0226 35.8167 22.5893 35.9C23.1726 35.9833 23.6976 36.1583 24.1643 36.425C24.6309 36.675 25.0059 37.0333 25.2893 37.5C25.5726 37.9667 25.7143 38.575 25.7143 39.325V45.975C25.7143 46.475 25.7393 46.8417 25.7893 47.075C25.8559 47.3083 26.0559 47.425 26.3893 47.425C26.5393 47.425 26.7559 47.3833 27.0393 47.3V48.95C26.6726 49.1667 26.1643 49.275 25.5143 49.275C24.9643 49.275 24.5226 49.125 24.1893 48.825C23.8726 48.5083 23.7143 48 23.7143 47.3C23.1309 48 22.4476 48.5083 21.6643 48.825C20.8976 49.125 20.0643 49.275 19.1643 49.275ZM19.6393 47.425C20.3393 47.425 20.9393 47.3333 21.4393 47.15C21.9393 46.95 22.3476 46.7083 22.6643 46.425C22.9809 46.125 23.2143 45.8083 23.3643 45.475C23.5143 45.125 23.5893 44.8 23.5893 44.5V42.325C23.3226 42.5417 22.9726 42.6917 22.5393 42.775C22.1059 42.8583 21.6476 42.9333 21.1643 43C20.6976 43.0667 20.2226 43.1333 19.7393 43.2C19.2559 43.2667 18.8226 43.3833 18.4393 43.55C18.0559 43.7167 17.7393 43.9583 17.4893 44.275C17.2559 44.575 17.1393 44.9917 17.1393 45.525C17.1393 45.875 17.2059 46.175 17.3393 46.425C17.4893 46.6583 17.6726 46.85 17.8893 47C18.1226 47.15 18.3893 47.2583 18.6893 47.325C18.9893 47.3917 19.3059 47.425 19.6393 47.425ZM35.975 36.075H46.525V49H44.4V37.95H38.1V49H35.975V36.075ZM49.7951 36.075H51.9201V37.825H51.9701C52.3201 37.1083 52.8701 36.5917 53.6201 36.275C54.3701 35.9417 55.1951 35.775 56.0951 35.775C57.0951 35.775 57.9618 35.9583 58.6951 36.325C59.4451 36.6917 60.0618 37.1917 60.5451 37.825C61.0451 38.4417 61.4201 39.1583 61.6701 39.975C61.9201 40.7917 62.0451 41.6583 62.0451 42.575C62.0451 43.5083 61.9201 44.3833 61.6701 45.2C61.4368 46 61.0701 46.7083 60.5701 47.325C60.0868 47.925 59.4701 48.4 58.7201 48.75C57.9868 49.1 57.1285 49.275 56.1451 49.275C55.8118 49.275 55.4535 49.2417 55.0701 49.175C54.6868 49.1083 54.3035 49 53.9201 48.85C53.5368 48.7 53.1701 48.5 52.8201 48.25C52.4868 47.9833 52.2035 47.6583 51.9701 47.275H51.9201V53.925H49.7951V36.075ZM55.9201 47.425C56.6368 47.425 57.2451 47.2833 57.7451 47C58.2451 46.7167 58.6451 46.3417 58.9451 45.875C59.2451 45.4083 59.4618 44.875 59.5951 44.275C59.7285 43.675 59.7951 43.0583 59.7951 42.425C59.7951 41.825 59.7118 41.2417 59.5451 40.675C59.3951 40.0917 59.1535 39.575 58.8201 39.125C58.5035 38.675 58.0868 38.3167 57.5701 38.05C57.0701 37.7833 56.4785 37.65 55.7951 37.65C55.0785 37.65 54.4701 37.7917 53.9701 38.075C53.4701 38.3583 53.0618 38.7333 52.7451 39.2C52.4285 39.65 52.1951 40.1667 52.0451 40.75C51.9118 41.3333 51.8451 41.925 51.8451 42.525C51.8451 43.1583 51.9201 43.775 52.0701 44.375C52.2201 44.9583 52.4535 45.475 52.7701 45.925C53.1035 46.375 53.5285 46.7417 54.0451 47.025C54.5618 47.2917 55.1868 47.425 55.9201 47.425ZM64.5395 36.075H66.6645V46.625L72.7645 36.075H75.4895V49H73.3645V38.45L67.2645 49H64.5395V36.075ZM84.4746 49.275C82.8079 49.275 81.4579 48.85 80.4246 48C79.4079 47.15 78.7663 45.8333 78.4996 44.05C78.3996 43.35 78.3496 42.5667 78.3496 41.7C78.3496 41.0833 78.3663 40.4417 78.3996 39.775C78.4496 39.1083 78.5246 38.45 78.6246 37.8C78.7413 37.15 78.8913 36.525 79.0746 35.925C79.2746 35.325 79.5329 34.7833 79.8496 34.3C80.4163 33.4167 81.1079 32.7667 81.9246 32.35C82.7413 31.9167 83.7663 31.6583 84.9996 31.575C85.8163 31.5083 86.4996 31.4333 87.0496 31.35C87.5996 31.2667 87.9079 31.0583 87.9746 30.725H90.0996C90.0663 31.375 89.9246 31.875 89.6746 32.225C89.4246 32.575 89.0746 32.8417 88.6246 33.025C88.1746 33.1917 87.6246 33.3083 86.9746 33.375C86.3246 33.425 85.5663 33.4833 84.6996 33.55C83.9829 33.6 83.3579 33.7667 82.8246 34.05C82.2913 34.3333 81.8329 34.7167 81.4496 35.2C81.0829 35.6667 80.7829 36.225 80.5496 36.875C80.3163 37.5083 80.1496 38.2083 80.0496 38.975H80.1246C80.4913 38.125 81.0579 37.425 81.8246 36.875C82.6079 36.325 83.5496 36.05 84.6496 36.05C86.4663 36.05 87.8996 36.6167 88.9496 37.75C89.9996 38.8833 90.5246 40.5167 90.5246 42.65C90.5246 43.7333 90.3746 44.6917 90.0746 45.525C89.7913 46.3417 89.3829 47.0333 88.8496 47.6C88.3163 48.15 87.6746 48.5667 86.9246 48.85C86.1913 49.1333 85.3746 49.275 84.4746 49.275ZM84.4996 47.475C84.9996 47.475 85.4829 47.375 85.9496 47.175C86.4163 46.9583 86.8246 46.65 87.1746 46.25C87.5246 45.85 87.8079 45.3583 88.0246 44.775C88.2413 44.175 88.3496 43.4833 88.3496 42.7C88.3496 41.1833 87.9996 39.9917 87.2996 39.125C86.5996 38.2583 85.6496 37.825 84.4496 37.825C83.2496 37.825 82.2913 38.2667 81.5746 39.15C80.8746 40.0167 80.5246 41.2083 80.5246 42.725C80.5246 44.1917 80.8746 45.35 81.5746 46.2C82.2746 47.05 83.2496 47.475 84.4996 47.475ZM93.0307 36.075H95.1557V46.625L101.256 36.075H103.981V49H101.856V38.45L95.7557 49H93.0307V36.075ZM107.266 36.075H109.391V37.825H109.441C109.791 37.1083 110.341 36.5917 111.091 36.275C111.841 35.9417 112.666 35.775 113.566 35.775C114.566 35.775 115.432 35.9583 116.166 36.325C116.916 36.6917 117.532 37.1917 118.016 37.825C118.516 38.4417 118.891 39.1583 119.141 39.975C119.391 40.7917 119.516 41.6583 119.516 42.575C119.516 43.5083 119.391 44.3833 119.141 45.2C118.907 46 118.541 46.7083 118.041 47.325C117.557 47.925 116.941 48.4 116.191 48.75C115.457 49.1 114.599 49.275 113.616 49.275C113.282 49.275 112.924 49.2417 112.541 49.175C112.157 49.1083 111.774 49 111.391 48.85C111.007 48.7 110.641 48.5 110.291 48.25C109.957 47.9833 109.674 47.6583 109.441 47.275H109.391V53.925H107.266V36.075ZM113.391 47.425C114.107 47.425 114.716 47.2833 115.216 47C115.716 46.7167 116.116 46.3417 116.416 45.875C116.716 45.4083 116.932 44.875 117.066 44.275C117.199 43.675 117.266 43.0583 117.266 42.425C117.266 41.825 117.182 41.2417 117.016 40.675C116.866 40.0917 116.624 39.575 116.291 39.125C115.974 38.675 115.557 38.3167 115.041 38.05C114.541 37.7833 113.949 37.65 113.266 37.65C112.549 37.65 111.941 37.7917 111.441 38.075C110.941 38.3583 110.532 38.7333 110.216 39.2C109.899 39.65 109.666 40.1667 109.516 40.75C109.382 41.3333 109.316 41.925 109.316 42.525C109.316 43.1583 109.391 43.775 109.541 44.375C109.691 44.9583 109.924 45.475 110.241 45.925C110.574 46.375 110.999 46.7417 111.516 47.025C112.032 47.2917 112.657 47.425 113.391 47.425ZM125.585 49.275C125.002 49.275 124.452 49.2083 123.935 49.075C123.418 48.9583 122.96 48.7583 122.56 48.475C122.177 48.175 121.868 47.8 121.635 47.35C121.418 46.8833 121.31 46.325 121.31 45.675C121.31 44.9417 121.435 44.3417 121.685 43.875C121.935 43.4083 122.26 43.0333 122.66 42.75C123.077 42.45 123.543 42.225 124.06 42.075C124.593 41.925 125.135 41.8 125.685 41.7C126.268 41.5833 126.818 41.5 127.335 41.45C127.868 41.3833 128.335 41.3 128.735 41.2C129.135 41.0833 129.452 40.925 129.685 40.725C129.918 40.5083 130.035 40.2 130.035 39.8C130.035 39.3333 129.943 38.9583 129.76 38.675C129.593 38.3917 129.368 38.175 129.085 38.025C128.818 37.875 128.51 37.775 128.16 37.725C127.827 37.675 127.493 37.65 127.16 37.65C126.26 37.65 125.51 37.825 124.91 38.175C124.31 38.5083 123.985 39.15 123.935 40.1H121.81C121.843 39.3 122.01 38.625 122.31 38.075C122.61 37.525 123.01 37.0833 123.51 36.75C124.01 36.4 124.577 36.15 125.21 36C125.86 35.85 126.552 35.775 127.285 35.775C127.868 35.775 128.443 35.8167 129.01 35.9C129.593 35.9833 130.118 36.1583 130.585 36.425C131.052 36.675 131.427 37.0333 131.71 37.5C131.993 37.9667 132.135 38.575 132.135 39.325V45.975C132.135 46.475 132.16 46.8417 132.21 47.075C132.277 47.3083 132.477 47.425 132.81 47.425C132.96 47.425 133.177 47.3833 133.46 47.3V48.95C133.093 49.1667 132.585 49.275 131.935 49.275C131.385 49.275 130.943 49.125 130.61 48.825C130.293 48.5083 130.135 48 130.135 47.3C129.552 48 128.868 48.5083 128.085 48.825C127.318 49.125 126.485 49.275 125.585 49.275ZM126.06 47.425C126.76 47.425 127.36 47.3333 127.86 47.15C128.36 46.95 128.768 46.7083 129.085 46.425C129.402 46.125 129.635 45.8083 129.785 45.475C129.935 45.125 130.01 44.8 130.01 44.5V42.325C129.743 42.5417 129.393 42.6917 128.96 42.775C128.527 42.8583 128.068 42.9333 127.585 43C127.118 43.0667 126.643 43.1333 126.16 43.2C125.677 43.2667 125.243 43.3833 124.86 43.55C124.477 43.7167 124.16 43.9583 123.91 44.275C123.677 44.575 123.56 44.9917 123.56 45.525C123.56 45.875 123.627 46.175 123.76 46.425C123.91 46.6583 124.093 46.85 124.31 47C124.543 47.15 124.81 47.2583 125.11 47.325C125.41 47.3917 125.727 47.425 126.06 47.425ZM135.438 36.075H137.563V41.225H144.113V36.075H146.238V49H144.113V43.05H137.563V49H135.438V36.075ZM149.427 36.075H151.552V41.225H158.102V36.075H160.227V49H158.102V43.05H151.552V49H149.427V36.075ZM166.141 43.95C165.225 43.8167 164.475 43.4 163.891 42.7C163.308 42 163.016 41.1167 163.016 40.05C163.016 38.8333 163.375 37.8667 164.091 37.15C164.825 36.4333 165.816 36.075 167.066 36.075H173.616V49H171.491V44.025H168.666L164.716 49H161.891L166.141 43.95ZM171.491 42.2V37.95H167.741C166.841 37.95 166.191 38.1417 165.791 38.525C165.391 38.9083 165.191 39.425 165.191 40.075C165.191 40.7417 165.391 41.2667 165.791 41.65C166.191 42.0167 166.841 42.2 167.741 42.2H171.491ZM1.6 66.075H7.575C8.14167 66.075 8.68333 66.1167 9.2 66.2C9.73333 66.2833 10.2083 66.4417 10.625 66.675C11.0417 66.8917 11.375 67.2083 11.625 67.625C11.875 68.0417 12 68.575 12 69.225C12 69.925 11.8333 70.4917 11.5 70.925C11.1667 71.3583 10.7 71.7167 10.1 72V72.025C10.85 72.175 11.4417 72.525 11.875 73.075C12.325 73.625 12.55 74.3333 12.55 75.2C12.55 75.75 12.45 76.2583 12.25 76.725C12.0667 77.1917 11.8 77.5917 11.45 77.925C11.1 78.2583 10.6833 78.525 10.2 78.725C9.71667 78.9083 9.19167 79 8.625 79H1.6V66.075ZM8.225 77.2C8.925 77.2 9.45 77 9.8 76.6C10.1667 76.1833 10.35 75.6667 10.35 75.05C10.35 74.4667 10.1583 74 9.775 73.65C9.39167 73.3 8.75 73.125 7.85 73.125H3.7V77.2H8.225ZM7.35 71.375C8.26667 71.375 8.9 71.2083 9.25 70.875C9.61667 70.5417 9.8 70.1 9.8 69.55C9.8 69.0167 9.625 68.6083 9.275 68.325C8.925 68.025 8.28333 67.875 7.35 67.875H3.7V71.375H7.35ZM22.134 66.075H24.259V67.825H24.309C24.659 67.1083 25.209 66.5917 25.959 66.275C26.709 65.9417 27.534 65.775 28.434 65.775C29.434 65.775 30.3007 65.9583 31.034 66.325C31.784 66.6917 32.4007 67.1917 32.884 67.825C33.384 68.4417 33.759 69.1583 34.009 69.975C34.259 70.7917 34.384 71.6583 34.384 72.575C34.384 73.5083 34.259 74.3833 34.009 75.2C33.7757 76 33.409 76.7083 32.909 77.325C32.4257 77.925 31.809 78.4 31.059 78.75C30.3257 79.1 29.4673 79.275 28.484 79.275C28.1507 79.275 27.7923 79.2417 27.409 79.175C27.0257 79.1083 26.6423 79 26.259 78.85C25.8757 78.7 25.509 78.5 25.159 78.25C24.8257 77.9833 24.5423 77.6583 24.309 77.275H24.259V83.925H22.134V66.075ZM28.259 77.425C28.9757 77.425 29.584 77.2833 30.084 77C30.584 76.7167 30.984 76.3417 31.284 75.875C31.584 75.4083 31.8007 74.875 31.934 74.275C32.0673 73.675 32.134 73.0583 32.134 72.425C32.134 71.825 32.0507 71.2417 31.884 70.675C31.734 70.0917 31.4923 69.575 31.159 69.125C30.8423 68.675 30.4257 68.3167 29.909 68.05C29.409 67.7833 28.8173 67.65 28.134 67.65C27.4173 67.65 26.809 67.7917 26.309 68.075C25.809 68.3583 25.4007 68.7333 25.084 69.2C24.7673 69.65 24.534 70.1667 24.384 70.75C24.2507 71.3333 24.184 71.925 24.184 72.525C24.184 73.1583 24.259 73.775 24.409 74.375C24.559 74.9583 24.7923 75.475 25.109 75.925C25.4423 76.375 25.8673 76.7417 26.384 77.025C26.9007 77.2917 27.5257 77.425 28.259 77.425ZM42.3783 79.275C41.345 79.275 40.4367 79.1083 39.6533 78.775C38.8867 78.4417 38.245 77.975 37.7283 77.375C37.2117 76.775 36.82 76.0583 36.5533 75.225C36.3033 74.3917 36.1783 73.4833 36.1783 72.5C36.1783 71.5333 36.3283 70.6417 36.6283 69.825C36.9283 68.9917 37.345 68.275 37.8783 67.675C38.4283 67.075 39.07 66.6083 39.8033 66.275C40.5533 65.9417 41.37 65.775 42.2533 65.775C43.4033 65.775 44.3533 66.0167 45.1033 66.5C45.87 66.9667 46.4783 67.5667 46.9283 68.3C47.395 69.0333 47.7117 69.8333 47.8783 70.7C48.0617 71.5667 48.1367 72.3917 48.1033 73.175H38.4283C38.4117 73.7417 38.4783 74.2833 38.6283 74.8C38.7783 75.3 39.02 75.75 39.3533 76.15C39.6867 76.5333 40.1117 76.8417 40.6283 77.075C41.145 77.3083 41.7533 77.425 42.4533 77.425C43.3533 77.425 44.0867 77.2167 44.6533 76.8C45.2367 76.3833 45.62 75.75 45.8033 74.9H47.9033C47.62 76.3667 46.995 77.4667 46.0283 78.2C45.0617 78.9167 43.845 79.275 42.3783 79.275ZM45.8533 71.3C45.82 70.8 45.7033 70.325 45.5033 69.875C45.32 69.425 45.0617 69.0417 44.7283 68.725C44.4117 68.3917 44.0283 68.1333 43.5783 67.95C43.145 67.75 42.6617 67.65 42.1283 67.65C41.5783 67.65 41.0783 67.75 40.6283 67.95C40.195 68.1333 39.82 68.3917 39.5033 68.725C39.1867 69.0583 38.9367 69.45 38.7533 69.9C38.57 70.3333 38.4617 70.8 38.4283 71.3H45.8533ZM54.9561 72.075L49.4311 66.075H52.0561L57.4311 72.075V66.075H59.5561V72.075L64.9311 66.075H67.5561L62.0061 72.075L68.2811 79H65.6561L60.2811 73.225L59.5561 73.875V79H57.4311V73.875L56.6061 73.125L51.3311 79H48.7061L54.9561 72.075ZM69.8861 66.075H72.0111V76.625L78.1111 66.075H80.8361V79H78.7111V68.45L72.6111 79H69.8861V66.075ZM84.0463 66.075H87.0963L91.0213 76.55H91.0713L94.9963 66.075H98.0463V79H95.9213V68.75L92.0213 79H90.0713L86.1713 68.75V79H84.0463V66.075ZM103.508 63.75H101.383V61.15H103.508V63.75ZM101.383 66.075H103.508V79H101.383V66.075ZM113.258 67.55C113.208 66.65 113.3 65.8167 113.533 65.05C113.767 64.2833 114.125 63.625 114.608 63.075C115.108 62.5083 115.725 62.0667 116.458 61.75C117.192 61.4333 118.025 61.275 118.958 61.275C119.725 61.275 120.442 61.3917 121.108 61.625C121.792 61.8417 122.383 62.1667 122.883 62.6C123.383 63.0167 123.775 63.5417 124.058 64.175C124.358 64.8083 124.508 65.5417 124.508 66.375C124.508 67.1583 124.383 67.85 124.133 68.45C123.9 69.05 123.583 69.5917 123.183 70.075C122.783 70.5417 122.325 70.9667 121.808 71.35C121.292 71.7333 120.758 72.1 120.208 72.45C119.658 72.7833 119.108 73.1167 118.558 73.45C118.008 73.7667 117.5 74.1083 117.033 74.475C116.583 74.8417 116.192 75.2417 115.858 75.675C115.542 76.0917 115.333 76.575 115.233 77.125H124.333V79H112.758C112.842 77.95 113.025 77.0583 113.308 76.325C113.608 75.575 113.983 74.925 114.433 74.375C114.883 73.825 115.392 73.3417 115.958 72.925C116.525 72.5083 117.117 72.1167 117.733 71.75C118.483 71.2833 119.142 70.8583 119.708 70.475C120.275 70.075 120.742 69.675 121.108 69.275C121.492 68.875 121.775 68.4417 121.958 67.975C122.158 67.5083 122.258 66.9667 122.258 66.35C122.258 65.8667 122.167 65.4333 121.983 65.05C121.8 64.65 121.55 64.3083 121.233 64.025C120.933 63.7417 120.575 63.525 120.158 63.375C119.742 63.225 119.3 63.15 118.833 63.15C118.217 63.15 117.683 63.2833 117.233 63.55C116.8 63.8 116.442 64.1333 116.158 64.55C115.875 64.9667 115.667 65.4417 115.533 65.975C115.417 66.4917 115.367 67.0167 115.383 67.55H113.258ZM134.525 72.975V64.3H134.475L128.575 72.975H134.525ZM136.525 72.975H138.925V74.85H136.525V79H134.525V74.85H126.75V72.8L134.825 61.275H136.525V72.975ZM146.891 60.725H148.716L141.316 79.4H139.516L146.891 60.725ZM160.992 63.4C160.092 64.2833 159.25 65.3333 158.467 66.55C157.683 67.7667 156.983 69.0667 156.367 70.45C155.767 71.8333 155.275 73.2583 154.892 74.725C154.508 76.1917 154.275 77.6167 154.192 79H151.817C151.917 77.5 152.158 76.0417 152.542 74.625C152.942 73.1917 153.45 71.825 154.067 70.525C154.683 69.2083 155.392 67.9667 156.192 66.8C157.008 65.6333 157.883 64.5583 158.817 63.575H149.517V61.575H160.992V63.4Z" fill="black"/>
<path d="M9.5 19.4C8.08333 19.4 6.84167 19.15 5.775 18.65C4.70833 18.1333 3.81667 17.4417 3.1 16.575C2.38333 15.7083 1.84167 14.7167 1.475 13.6C1.125 12.4833 0.95 11.3083 0.95 10.075C0.95 8.85833 1.125 7.69167 1.475 6.575C1.84167 5.44167 2.38333 4.44167 3.1 3.575C3.81667 2.70833 4.70833 2.01667 5.775 1.5C6.84167 0.983333 8.08333 0.725 9.5 0.725C10.9167 0.725 12.1583 0.983333 13.225 1.5C14.2917 2.01667 15.1833 2.70833 15.9 3.575C16.6167 4.44167 17.15 5.44167 17.5 6.575C17.8667 7.69167 18.05 8.85833 18.05 10.075C18.05 11.3083 17.8667 12.4833 17.5 13.6C17.15 14.7167 16.6167 15.7083 15.9 16.575C15.1833 17.4417 14.2917 18.1333 13.225 18.65C12.1583 19.15 10.9167 19.4 9.5 19.4ZM9.5 17.425C10.5833 17.425 11.5167 17.2167 12.3 16.8C13.0833 16.3667 13.725 15.8 14.225 15.1C14.725 14.4 15.0917 13.6167 15.325 12.75C15.5583 11.8667 15.675 10.975 15.675 10.075C15.675 9.175 15.5583 8.29167 15.325 7.425C15.0917 6.54167 14.725 5.75 14.225 5.05C13.725 4.35 13.0833 3.79167 12.3 3.375C11.5167 2.94167 10.5833 2.725 9.5 2.725C8.41667 2.725 7.48333 2.94167 6.7 3.375C5.91667 3.79167 5.275 4.35 4.775 5.05C4.275 5.75 3.90833 6.54167 3.675 7.425C3.44167 8.29167 3.325 9.175 3.325 10.075C3.325 10.975 3.44167 11.8667 3.675 12.75C3.90833 13.6167 4.275 14.4 4.775 15.1C5.275 15.8 5.91667 16.3667 6.7 16.8C7.48333 17.2167 8.41667 17.425 9.5 17.425ZM26.3691 19.275C24.7025 19.275 23.3525 18.85 22.3191 18C21.3025 17.15 20.6608 15.8333 20.3941 14.05C20.2941 13.35 20.2441 12.5667 20.2441 11.7C20.2441 11.0833 20.2608 10.4417 20.2941 9.775C20.3441 9.10833 20.4191 8.45 20.5191 7.8C20.6358 7.15 20.7858 6.525 20.9691 5.925C21.1691 5.325 21.4275 4.78333 21.7441 4.3C22.3108 3.41667 23.0025 2.76667 23.8191 2.35C24.6358 1.91667 25.6608 1.65833 26.8941 1.575C27.7108 1.50833 28.3941 1.43333 28.9441 1.35C29.4941 1.26667 29.8025 1.05833 29.8691 0.725H31.9941C31.9608 1.375 31.8191 1.875 31.5691 2.225C31.3191 2.575 30.9691 2.84167 30.5191 3.025C30.0691 3.19167 29.5191 3.30833 28.8691 3.375C28.2191 3.425 27.4608 3.48333 26.5941 3.55C25.8775 3.6 25.2525 3.76667 24.7191 4.05C24.1858 4.33333 23.7275 4.71667 23.3441 5.2C22.9775 5.66667 22.6775 6.225 22.4441 6.875C22.2108 7.50833 22.0441 8.20833 21.9441 8.975H22.0191C22.3858 8.125 22.9525 7.425 23.7191 6.875C24.5025 6.325 25.4441 6.05 26.5441 6.05C28.3608 6.05 29.7941 6.61667 30.8441 7.75C31.8941 8.88333 32.4191 10.5167 32.4191 12.65C32.4191 13.7333 32.2691 14.6917 31.9691 15.525C31.6858 16.3417 31.2775 17.0333 30.7441 17.6C30.2108 18.15 29.5691 18.5667 28.8191 18.85C28.0858 19.1333 27.2691 19.275 26.3691 19.275ZM26.3941 17.475C26.8941 17.475 27.3775 17.375 27.8441 17.175C28.3108 16.9583 28.7191 16.65 29.0691 16.25C29.4191 15.85 29.7025 15.3583 29.9191 14.775C30.1358 14.175 30.2441 13.4833 30.2441 12.7C30.2441 11.1833 29.8941 9.99167 29.1941 9.125C28.4941 8.25833 27.5441 7.825 26.3441 7.825C25.1441 7.825 24.1858 8.26667 23.4691 9.15C22.7691 10.0167 22.4191 11.2083 22.4191 12.725C22.4191 14.1917 22.7691 15.35 23.4691 16.2C24.1691 17.05 25.1441 17.475 26.3941 17.475ZM35.0002 6.075H37.1252V7.825H37.1752C37.5252 7.10833 38.0752 6.59167 38.8252 6.275C39.5752 5.94167 40.4002 5.775 41.3002 5.775C42.3002 5.775 43.1669 5.95833 43.9002 6.325C44.6502 6.69167 45.2669 7.19167 45.7502 7.825C46.2502 8.44167 46.6252 9.15833 46.8752 9.975C47.1252 10.7917 47.2502 11.6583 47.2502 12.575C47.2502 13.5083 47.1252 14.3833 46.8752 15.2C46.6419 16 46.2752 16.7083 45.7752 17.325C45.2919 17.925 44.6752 18.4 43.9252 18.75C43.1919 19.1 42.3335 19.275 41.3502 19.275C41.0169 19.275 40.6585 19.2417 40.2752 19.175C39.8919 19.1083 39.5085 19 39.1252 18.85C38.7419 18.7 38.3752 18.5 38.0252 18.25C37.6919 17.9833 37.4085 17.6583 37.1752 17.275H37.1252V23.925H35.0002V6.075ZM41.1252 17.425C41.8419 17.425 42.4502 17.2833 42.9502 17C43.4502 16.7167 43.8502 16.3417 44.1502 15.875C44.4502 15.4083 44.6669 14.875 44.8002 14.275C44.9335 13.675 45.0002 13.0583 45.0002 12.425C45.0002 11.825 44.9169 11.2417 44.7502 10.675C44.6002 10.0917 44.3585 9.575 44.0252 9.125C43.7085 8.675 43.2919 8.31667 42.7752 8.05C42.2752 7.78333 41.6835 7.65 41.0002 7.65C40.2835 7.65 39.6752 7.79167 39.1752 8.075C38.6752 8.35833 38.2669 8.73333 37.9502 9.2C37.6335 9.65 37.4002 10.1667 37.2502 10.75C37.1169 11.3333 37.0502 11.925 37.0502 12.525C37.0502 13.1583 37.1252 13.775 37.2752 14.375C37.4252 14.9583 37.6585 15.475 37.9752 15.925C38.3085 16.375 38.7335 16.7417 39.2502 17.025C39.7669 17.2917 40.3919 17.425 41.1252 17.425ZM55.3195 19.275C54.2862 19.275 53.3779 19.1083 52.5945 18.775C51.8279 18.425 51.1779 17.95 50.6445 17.35C50.1112 16.7333 49.7112 16.0167 49.4445 15.2C49.1779 14.3833 49.0445 13.5 49.0445 12.55C49.0445 11.6 49.1779 10.7167 49.4445 9.9C49.7112 9.06667 50.1112 8.35 50.6445 7.75C51.1779 7.13333 51.8279 6.65 52.5945 6.3C53.3779 5.95 54.2862 5.775 55.3195 5.775C56.3362 5.775 57.2362 5.95 58.0195 6.3C58.8029 6.65 59.4612 7.13333 59.9945 7.75C60.5279 8.35 60.9279 9.06667 61.1945 9.9C61.4612 10.7167 61.5945 11.6 61.5945 12.55C61.5945 13.5 61.4612 14.3833 61.1945 15.2C60.9279 16.0167 60.5279 16.7333 59.9945 17.35C59.4612 17.95 58.8029 18.425 58.0195 18.775C57.2362 19.1083 56.3362 19.275 55.3195 19.275ZM55.3195 17.425C55.8695 17.425 56.3862 17.3167 56.8695 17.1C57.3695 16.8833 57.8029 16.575 58.1695 16.175C58.5362 15.7583 58.8195 15.25 59.0195 14.65C59.2362 14.0333 59.3445 13.3333 59.3445 12.55C59.3445 11.7667 59.2362 11.075 59.0195 10.475C58.8195 9.85833 58.5362 9.34167 58.1695 8.925C57.8029 8.50833 57.3695 8.19167 56.8695 7.975C56.3862 7.75833 55.8695 7.65 55.3195 7.65C54.7695 7.65 54.2445 7.75833 53.7445 7.975C53.2612 8.19167 52.8362 8.50833 52.4695 8.925C52.1029 9.34167 51.8112 9.85833 51.5945 10.475C51.3945 11.075 51.2945 11.7667 51.2945 12.55C51.2945 13.3333 51.3945 14.0333 51.5945 14.65C51.8112 15.25 52.1029 15.7583 52.4695 16.175C52.8362 16.575 53.2612 16.8833 53.7445 17.1C54.2445 17.3167 54.7695 17.425 55.3195 17.425ZM69.875 19.275C68.2083 19.275 66.8583 18.85 65.825 18C64.8083 17.15 64.1667 15.8333 63.9 14.05C63.8 13.35 63.75 12.5667 63.75 11.7C63.75 11.0833 63.7667 10.4417 63.8 9.775C63.85 9.10833 63.925 8.45 64.025 7.8C64.1417 7.15 64.2917 6.525 64.475 5.925C64.675 5.325 64.9333 4.78333 65.25 4.3C65.8167 3.41667 66.5083 2.76667 67.325 2.35C68.1417 1.91667 69.1667 1.65833 70.4 1.575C71.2167 1.50833 71.9 1.43333 72.45 1.35C73 1.26667 73.3083 1.05833 73.375 0.725H75.5C75.4667 1.375 75.325 1.875 75.075 2.225C74.825 2.575 74.475 2.84167 74.025 3.025C73.575 3.19167 73.025 3.30833 72.375 3.375C71.725 3.425 70.9667 3.48333 70.1 3.55C69.3833 3.6 68.7583 3.76667 68.225 4.05C67.6917 4.33333 67.2333 4.71667 66.85 5.2C66.4833 5.66667 66.1833 6.225 65.95 6.875C65.7167 7.50833 65.55 8.20833 65.45 8.975H65.525C65.8917 8.125 66.4583 7.425 67.225 6.875C68.0083 6.325 68.95 6.05 70.05 6.05C71.8667 6.05 73.3 6.61667 74.35 7.75C75.4 8.88333 75.925 10.5167 75.925 12.65C75.925 13.7333 75.775 14.6917 75.475 15.525C75.1917 16.3417 74.7833 17.0333 74.25 17.6C73.7167 18.15 73.075 18.5667 72.325 18.85C71.5917 19.1333 70.775 19.275 69.875 19.275ZM69.9 17.475C70.4 17.475 70.8833 17.375 71.35 17.175C71.8167 16.9583 72.225 16.65 72.575 16.25C72.925 15.85 73.2083 15.3583 73.425 14.775C73.6417 14.175 73.75 13.4833 73.75 12.7C73.75 11.1833 73.4 9.99167 72.7 9.125C72 8.25833 71.05 7.825 69.85 7.825C68.65 7.825 67.6917 8.26667 66.975 9.15C66.275 10.0167 65.925 11.2083 65.925 12.725C65.925 14.1917 66.275 15.35 66.975 16.2C67.675 17.05 68.65 17.475 69.9 17.475ZM78.4311 6.075H80.5561V12.25L86.4811 6.075H89.3061L83.5811 11.675L89.9811 19H87.2561L81.8561 12.85L80.5561 14.125V19H78.4311V6.075ZM95.1652 19.275C94.5819 19.275 94.0319 19.2083 93.5152 19.075C92.9986 18.9583 92.5402 18.7583 92.1402 18.475C91.7569 18.175 91.4486 17.8 91.2152 17.35C90.9986 16.8833 90.8902 16.325 90.8902 15.675C90.8902 14.9417 91.0152 14.3417 91.2652 13.875C91.5152 13.4083 91.8402 13.0333 92.2402 12.75C92.6569 12.45 93.1236 12.225 93.6402 12.075C94.1736 11.925 94.7152 11.8 95.2652 11.7C95.8486 11.5833 96.3986 11.5 96.9152 11.45C97.4486 11.3833 97.9152 11.3 98.3152 11.2C98.7152 11.0833 99.0319 10.925 99.2652 10.725C99.4986 10.5083 99.6152 10.2 99.6152 9.8C99.6152 9.33333 99.5236 8.95833 99.3402 8.675C99.1736 8.39167 98.9486 8.175 98.6652 8.025C98.3986 7.875 98.0902 7.775 97.7402 7.725C97.4069 7.675 97.0736 7.65 96.7402 7.65C95.8402 7.65 95.0902 7.825 94.4902 8.175C93.8902 8.50833 93.5652 9.15 93.5152 10.1H91.3902C91.4236 9.3 91.5902 8.625 91.8902 8.075C92.1902 7.525 92.5902 7.08333 93.0902 6.75C93.5902 6.4 94.1569 6.15 94.7902 6C95.4402 5.85 96.1319 5.775 96.8652 5.775C97.4486 5.775 98.0236 5.81667 98.5902 5.9C99.1736 5.98333 99.6986 6.15833 100.165 6.425C100.632 6.675 101.007 7.03333 101.29 7.5C101.574 7.96667 101.715 8.575 101.715 9.325V15.975C101.715 16.475 101.74 16.8417 101.79 17.075C101.857 17.3083 102.057 17.425 102.39 17.425C102.54 17.425 102.757 17.3833 103.04 17.3V18.95C102.674 19.1667 102.165 19.275 101.515 19.275C100.965 19.275 100.524 19.125 100.19 18.825C99.8736 18.5083 99.7152 18 99.7152 17.3C99.1319 18 98.4486 18.5083 97.6652 18.825C96.8986 19.125 96.0652 19.275 95.1652 19.275ZM95.6402 17.425C96.3402 17.425 96.9402 17.3333 97.4402 17.15C97.9402 16.95 98.3486 16.7083 98.6652 16.425C98.9819 16.125 99.2152 15.8083 99.3652 15.475C99.5152 15.125 99.5902 14.8 99.5902 14.5V12.325C99.3236 12.5417 98.9736 12.6917 98.5402 12.775C98.1069 12.8583 97.6486 12.9333 97.1652 13C96.6986 13.0667 96.2236 13.1333 95.7402 13.2C95.2569 13.2667 94.8236 13.3833 94.4402 13.55C94.0569 13.7167 93.7402 13.9583 93.4902 14.275C93.2569 14.575 93.1402 14.9917 93.1402 15.525C93.1402 15.875 93.2069 16.175 93.3402 16.425C93.4902 16.6583 93.6736 16.85 93.8902 17C94.1236 17.15 94.3902 17.2583 94.6902 17.325C94.9902 17.3917 95.3069 17.425 95.6402 17.425ZM116.726 19.275C115.009 19.275 113.668 18.8917 112.701 18.125C111.734 17.3583 111.209 16.2667 111.126 14.85H113.276C113.343 15.8 113.693 16.4833 114.326 16.9C114.959 17.3167 115.751 17.525 116.701 17.525C117.718 17.525 118.501 17.3083 119.051 16.875C119.601 16.4417 119.876 15.8917 119.876 15.225C119.876 14.575 119.668 14.0667 119.251 13.7C118.834 13.3333 118.126 13.15 117.126 13.15H115.401V11.425H116.776C117.526 11.425 118.168 11.275 118.701 10.975C119.234 10.6583 119.501 10.1167 119.501 9.35C119.501 8.86667 119.268 8.44167 118.801 8.075C118.351 7.70833 117.676 7.525 116.776 7.525C116.393 7.525 116.009 7.56667 115.626 7.65C115.259 7.73333 114.926 7.86667 114.626 8.05C114.326 8.23333 114.076 8.475 113.876 8.775C113.676 9.075 113.551 9.44167 113.501 9.875H111.351C111.401 9.075 111.593 8.41667 111.926 7.9C112.259 7.36667 112.676 6.95 113.176 6.65C113.676 6.33333 114.243 6.10833 114.876 5.975C115.509 5.84167 116.151 5.775 116.801 5.775C117.468 5.775 118.093 5.84167 118.676 5.975C119.259 6.10833 119.768 6.325 120.201 6.625C120.651 6.90833 121.001 7.26667 121.251 7.7C121.518 8.13333 121.651 8.65 121.651 9.25C121.651 10 121.434 10.6083 121.001 11.075C120.584 11.5417 120.109 11.8333 119.576 11.95V12C119.876 12.05 120.176 12.15 120.476 12.3C120.776 12.45 121.043 12.6583 121.276 12.925C121.509 13.175 121.701 13.4917 121.851 13.875C122.001 14.2417 122.076 14.675 122.076 15.175C122.076 15.875 121.926 16.4833 121.626 17C121.326 17.5167 120.926 17.9417 120.426 18.275C119.926 18.6083 119.351 18.8583 118.701 19.025C118.068 19.1917 117.409 19.275 116.726 19.275ZM128.197 19.275C127.614 19.275 127.064 19.2083 126.547 19.075C126.031 18.9583 125.572 18.7583 125.172 18.475C124.789 18.175 124.481 17.8 124.247 17.35C124.031 16.8833 123.922 16.325 123.922 15.675C123.922 14.9417 124.047 14.3417 124.297 13.875C124.547 13.4083 124.872 13.0333 125.272 12.75C125.689 12.45 126.156 12.225 126.672 12.075C127.206 11.925 127.747 11.8 128.297 11.7C128.881 11.5833 129.431 11.5 129.947 11.45C130.481 11.3833 130.947 11.3 131.347 11.2C131.747 11.0833 132.064 10.925 132.297 10.725C132.531 10.5083 132.647 10.2 132.647 9.8C132.647 9.33333 132.556 8.95833 132.372 8.675C132.206 8.39167 131.981 8.175 131.697 8.025C131.431 7.875 131.122 7.775 130.772 7.725C130.439 7.675 130.106 7.65 129.772 7.65C128.872 7.65 128.122 7.825 127.522 8.175C126.922 8.50833 126.597 9.15 126.547 10.1H124.422C124.456 9.3 124.622 8.625 124.922 8.075C125.222 7.525 125.622 7.08333 126.122 6.75C126.622 6.4 127.189 6.15 127.822 6C128.472 5.85 129.164 5.775 129.897 5.775C130.481 5.775 131.056 5.81667 131.622 5.9C132.206 5.98333 132.731 6.15833 133.197 6.425C133.664 6.675 134.039 7.03333 134.322 7.5C134.606 7.96667 134.747 8.575 134.747 9.325V15.975C134.747 16.475 134.772 16.8417 134.822 17.075C134.889 17.3083 135.089 17.425 135.422 17.425C135.572 17.425 135.789 17.3833 136.072 17.3V18.95C135.706 19.1667 135.197 19.275 134.547 19.275C133.997 19.275 133.556 19.125 133.222 18.825C132.906 18.5083 132.747 18 132.747 17.3C132.164 18 131.481 18.5083 130.697 18.825C129.931 19.125 129.097 19.275 128.197 19.275ZM128.672 17.425C129.372 17.425 129.972 17.3333 130.472 17.15C130.972 16.95 131.381 16.7083 131.697 16.425C132.014 16.125 132.247 15.8083 132.397 15.475C132.547 15.125 132.622 14.8 132.622 14.5V12.325C132.356 12.5417 132.006 12.6917 131.572 12.775C131.139 12.8583 130.681 12.9333 130.197 13C129.731 13.0667 129.256 13.1333 128.772 13.2C128.289 13.2667 127.856 13.3833 127.472 13.55C127.089 13.7167 126.772 13.9583 126.522 14.275C126.289 14.575 126.172 14.9917 126.172 15.525C126.172 15.875 126.239 16.175 126.372 16.425C126.522 16.6583 126.706 16.85 126.922 17C127.156 17.15 127.422 17.2583 127.722 17.325C128.022 17.3917 128.339 17.425 128.672 17.425ZM140.775 13.95C139.859 13.8167 139.109 13.4 138.525 12.7C137.942 12 137.65 11.1167 137.65 10.05C137.65 8.83333 138.009 7.86667 138.725 7.15C139.459 6.43333 140.45 6.075 141.7 6.075H148.25V19H146.125V14.025H143.3L139.35 19H136.525L140.775 13.95ZM146.125 12.2V7.95H142.375C141.475 7.95 140.825 8.14167 140.425 8.525C140.025 8.90833 139.825 9.425 139.825 10.075C139.825 10.7417 140.025 11.2667 140.425 11.65C140.825 12.0167 141.475 12.2 142.375 12.2H146.125ZM151.454 6.075H157.429C157.995 6.075 158.537 6.11667 159.054 6.2C159.587 6.28333 160.062 6.44167 160.479 6.675C160.895 6.89167 161.229 7.20833 161.479 7.625C161.729 8.04167 161.854 8.575 161.854 9.225C161.854 9.925 161.687 10.4917 161.354 10.925C161.02 11.3583 160.554 11.7167 159.954 12V12.025C160.704 12.175 161.295 12.525 161.729 13.075C162.179 13.625 162.404 14.3333 162.404 15.2C162.404 15.75 162.304 16.2583 162.104 16.725C161.92 17.1917 161.654 17.5917 161.304 17.925C160.954 18.2583 160.537 18.525 160.054 18.725C159.57 18.9083 159.045 19 158.479 19H151.454V6.075ZM158.079 17.2C158.779 17.2 159.304 17 159.654 16.6C160.02 16.1833 160.204 15.6667 160.204 15.05C160.204 14.4667 160.012 14 159.629 13.65C159.245 13.3 158.604 13.125 157.704 13.125H153.554V17.2H158.079ZM157.204 11.375C158.12 11.375 158.754 11.2083 159.104 10.875C159.47 10.5417 159.654 10.1 159.654 9.55C159.654 9.01667 159.479 8.60833 159.129 8.325C158.779 8.025 158.137 7.875 157.204 7.875H153.554V11.375H157.204ZM170.529 19.275C169.496 19.275 168.588 19.1083 167.804 18.775C167.038 18.425 166.388 17.95 165.854 17.35C165.321 16.7333 164.921 16.0167 164.654 15.2C164.388 14.3833 164.254 13.5 164.254 12.55C164.254 11.6 164.388 10.7167 164.654 9.9C164.921 9.06667 165.321 8.35 165.854 7.75C166.388 7.13333 167.038 6.65 167.804 6.3C168.588 5.95 169.496 5.775 170.529 5.775C171.546 5.775 172.446 5.95 173.229 6.3C174.013 6.65 174.671 7.13333 175.204 7.75C175.738 8.35 176.138 9.06667 176.404 9.9C176.671 10.7167 176.804 11.6 176.804 12.55C176.804 13.5 176.671 14.3833 176.404 15.2C176.138 16.0167 175.738 16.7333 175.204 17.35C174.671 17.95 174.013 18.425 173.229 18.775C172.446 19.1083 171.546 19.275 170.529 19.275ZM170.529 17.425C171.079 17.425 171.596 17.3167 172.079 17.1C172.579 16.8833 173.013 16.575 173.379 16.175C173.746 15.7583 174.029 15.25 174.229 14.65C174.446 14.0333 174.554 13.3333 174.554 12.55C174.554 11.7667 174.446 11.075 174.229 10.475C174.029 9.85833 173.746 9.34167 173.379 8.925C173.013 8.50833 172.579 8.19167 172.079 7.975C171.596 7.75833 171.079 7.65 170.529 7.65C169.979 7.65 169.454 7.75833 168.954 7.975C168.471 8.19167 168.046 8.50833 167.679 8.925C167.313 9.34167 167.021 9.85833 166.804 10.475C166.604 11.075 166.504 11.7667 166.504 12.55C166.504 13.3333 166.604 14.0333 166.804 14.65C167.021 15.25 167.313 15.7583 167.679 16.175C168.046 16.575 168.471 16.8833 168.954 17.1C169.454 17.3167 169.979 17.425 170.529 17.425ZM179.31 6.075H181.435V12.25L187.36 6.075H190.185L184.46 11.675L190.86 19H188.135L182.735 12.85L181.435 14.125V19H179.31V6.075ZM1.6 36.075H3.725V41.225H10.275V36.075H12.4V49H10.275V43.05H3.725V49H1.6V36.075ZM19.1643 49.275C18.5809 49.275 18.0309 49.2083 17.5143 49.075C16.9976 48.9583 16.5393 48.7583 16.1393 48.475C15.7559 48.175 15.4476 47.8 15.2143 47.35C14.9976 46.8833 14.8893 46.325 14.8893 45.675C14.8893 44.9417 15.0143 44.3417 15.2643 43.875C15.5143 43.4083 15.8393 43.0333 16.2393 42.75C16.6559 42.45 17.1226 42.225 17.6393 42.075C18.1726 41.925 18.7143 41.8 19.2643 41.7C19.8476 41.5833 20.3976 41.5 20.9143 41.45C21.4476 41.3833 21.9143 41.3 22.3143 41.2C22.7143 41.0833 23.0309 40.925 23.2643 40.725C23.4976 40.5083 23.6143 40.2 23.6143 39.8C23.6143 39.3333 23.5226 38.9583 23.3393 38.675C23.1726 38.3917 22.9476 38.175 22.6643 38.025C22.3976 37.875 22.0893 37.775 21.7393 37.725C21.4059 37.675 21.0726 37.65 20.7393 37.65C19.8393 37.65 19.0893 37.825 18.4893 38.175C17.8893 38.5083 17.5643 39.15 17.5143 40.1H15.3893C15.4226 39.3 15.5893 38.625 15.8893 38.075C16.1893 37.525 16.5893 37.0833 17.0893 36.75C17.5893 36.4 18.1559 36.15 18.7893 36C19.4393 35.85 20.1309 35.775 20.8643 35.775C21.4476 35.775 22.0226 35.8167 22.5893 35.9C23.1726 35.9833 23.6976 36.1583 24.1643 36.425C24.6309 36.675 25.0059 37.0333 25.2893 37.5C25.5726 37.9667 25.7143 38.575 25.7143 39.325V45.975C25.7143 46.475 25.7393 46.8417 25.7893 47.075C25.8559 47.3083 26.0559 47.425 26.3893 47.425C26.5393 47.425 26.7559 47.3833 27.0393 47.3V48.95C26.6726 49.1667 26.1643 49.275 25.5143 49.275C24.9643 49.275 24.5226 49.125 24.1893 48.825C23.8726 48.5083 23.7143 48 23.7143 47.3C23.1309 48 22.4476 48.5083 21.6643 48.825C20.8976 49.125 20.0643 49.275 19.1643 49.275ZM19.6393 47.425C20.3393 47.425 20.9393 47.3333 21.4393 47.15C21.9393 46.95 22.3476 46.7083 22.6643 46.425C22.9809 46.125 23.2143 45.8083 23.3643 45.475C23.5143 45.125 23.5893 44.8 23.5893 44.5V42.325C23.3226 42.5417 22.9726 42.6917 22.5393 42.775C22.1059 42.8583 21.6476 42.9333 21.1643 43C20.6976 43.0667 20.2226 43.1333 19.7393 43.2C19.2559 43.2667 18.8226 43.3833 18.4393 43.55C18.0559 43.7167 17.7393 43.9583 17.4893 44.275C17.2559 44.575 17.1393 44.9917 17.1393 45.525C17.1393 45.875 17.2059 46.175 17.3393 46.425C17.4893 46.6583 17.6726 46.85 17.8893 47C18.1226 47.15 18.3893 47.2583 18.6893 47.325C18.9893 47.3917 19.3059 47.425 19.6393 47.425ZM35.975 36.075H46.525V49H44.4V37.95H38.1V49H35.975V36.075ZM49.7951 36.075H51.9201V37.825H51.9701C52.3201 37.1083 52.8701 36.5917 53.6201 36.275C54.3701 35.9417 55.1951 35.775 56.0951 35.775C57.0951 35.775 57.9618 35.9583 58.6951 36.325C59.4451 36.6917 60.0618 37.1917 60.5451 37.825C61.0451 38.4417 61.4201 39.1583 61.6701 39.975C61.9201 40.7917 62.0451 41.6583 62.0451 42.575C62.0451 43.5083 61.9201 44.3833 61.6701 45.2C61.4368 46 61.0701 46.7083 60.5701 47.325C60.0868 47.925 59.4701 48.4 58.7201 48.75C57.9868 49.1 57.1285 49.275 56.1451 49.275C55.8118 49.275 55.4535 49.2417 55.0701 49.175C54.6868 49.1083 54.3035 49 53.9201 48.85C53.5368 48.7 53.1701 48.5 52.8201 48.25C52.4868 47.9833 52.2035 47.6583 51.9701 47.275H51.9201V53.925H49.7951V36.075ZM55.9201 47.425C56.6368 47.425 57.2451 47.2833 57.7451 47C58.2451 46.7167 58.6451 46.3417 58.9451 45.875C59.2451 45.4083 59.4618 44.875 59.5951 44.275C59.7285 43.675 59.7951 43.0583 59.7951 42.425C59.7951 41.825 59.7118 41.2417 59.5451 40.675C59.3951 40.0917 59.1535 39.575 58.8201 39.125C58.5035 38.675 58.0868 38.3167 57.5701 38.05C57.0701 37.7833 56.4785 37.65 55.7951 37.65C55.0785 37.65 54.4701 37.7917 53.9701 38.075C53.4701 38.3583 53.0618 38.7333 52.7451 39.2C52.4285 39.65 52.1951 40.1667 52.0451 40.75C51.9118 41.3333 51.8451 41.925 51.8451 42.525C51.8451 43.1583 51.9201 43.775 52.0701 44.375C52.2201 44.9583 52.4535 45.475 52.7701 45.925C53.1035 46.375 53.5285 46.7417 54.0451 47.025C54.5618 47.2917 55.1868 47.425 55.9201 47.425ZM64.5395 36.075H66.6645V46.625L72.7645 36.075H75.4895V49H73.3645V38.45L67.2645 49H64.5395V36.075ZM84.4746 49.275C82.8079 49.275 81.4579 48.85 80.4246 48C79.4079 47.15 78.7663 45.8333 78.4996 44.05C78.3996 43.35 78.3496 42.5667 78.3496 41.7C78.3496 41.0833 78.3663 40.4417 78.3996 39.775C78.4496 39.1083 78.5246 38.45 78.6246 37.8C78.7413 37.15 78.8913 36.525 79.0746 35.925C79.2746 35.325 79.5329 34.7833 79.8496 34.3C80.4163 33.4167 81.1079 32.7667 81.9246 32.35C82.7413 31.9167 83.7663 31.6583 84.9996 31.575C85.8163 31.5083 86.4996 31.4333 87.0496 31.35C87.5996 31.2667 87.9079 31.0583 87.9746 30.725H90.0996C90.0663 31.375 89.9246 31.875 89.6746 32.225C89.4246 32.575 89.0746 32.8417 88.6246 33.025C88.1746 33.1917 87.6246 33.3083 86.9746 33.375C86.3246 33.425 85.5663 33.4833 84.6996 33.55C83.9829 33.6 83.3579 33.7667 82.8246 34.05C82.2913 34.3333 81.8329 34.7167 81.4496 35.2C81.0829 35.6667 80.7829 36.225 80.5496 36.875C80.3163 37.5083 80.1496 38.2083 80.0496 38.975H80.1246C80.4913 38.125 81.0579 37.425 81.8246 36.875C82.6079 36.325 83.5496 36.05 84.6496 36.05C86.4663 36.05 87.8996 36.6167 88.9496 37.75C89.9996 38.8833 90.5246 40.5167 90.5246 42.65C90.5246 43.7333 90.3746 44.6917 90.0746 45.525C89.7913 46.3417 89.3829 47.0333 88.8496 47.6C88.3163 48.15 87.6746 48.5667 86.9246 48.85C86.1913 49.1333 85.3746 49.275 84.4746 49.275ZM84.4996 47.475C84.9996 47.475 85.4829 47.375 85.9496 47.175C86.4163 46.9583 86.8246 46.65 87.1746 46.25C87.5246 45.85 87.8079 45.3583 88.0246 44.775C88.2413 44.175 88.3496 43.4833 88.3496 42.7C88.3496 41.1833 87.9996 39.9917 87.2996 39.125C86.5996 38.2583 85.6496 37.825 84.4496 37.825C83.2496 37.825 82.2913 38.2667 81.5746 39.15C80.8746 40.0167 80.5246 41.2083 80.5246 42.725C80.5246 44.1917 80.8746 45.35 81.5746 46.2C82.2746 47.05 83.2496 47.475 84.4996 47.475ZM93.0307 36.075H95.1557V46.625L101.256 36.075H103.981V49H101.856V38.45L95.7557 49H93.0307V36.075ZM107.266 36.075H109.391V37.825H109.441C109.791 37.1083 110.341 36.5917 111.091 36.275C111.841 35.9417 112.666 35.775 113.566 35.775C114.566 35.775 115.432 35.9583 116.166 36.325C116.916 36.6917 117.532 37.1917 118.016 37.825C118.516 38.4417 118.891 39.1583 119.141 39.975C119.391 40.7917 119.516 41.6583 119.516 42.575C119.516 43.5083 119.391 44.3833 119.141 45.2C118.907 46 118.541 46.7083 118.041 47.325C117.557 47.925 116.941 48.4 116.191 48.75C115.457 49.1 114.599 49.275 113.616 49.275C113.282 49.275 112.924 49.2417 112.541 49.175C112.157 49.1083 111.774 49 111.391 48.85C111.007 48.7 110.641 48.5 110.291 48.25C109.957 47.9833 109.674 47.6583 109.441 47.275H109.391V53.925H107.266V36.075ZM113.391 47.425C114.107 47.425 114.716 47.2833 115.216 47C115.716 46.7167 116.116 46.3417 116.416 45.875C116.716 45.4083 116.932 44.875 117.066 44.275C117.199 43.675 117.266 43.0583 117.266 42.425C117.266 41.825 117.182 41.2417 117.016 40.675C116.866 40.0917 116.624 39.575 116.291 39.125C115.974 38.675 115.557 38.3167 115.041 38.05C114.541 37.7833 113.949 37.65 113.266 37.65C112.549 37.65 111.941 37.7917 111.441 38.075C110.941 38.3583 110.532 38.7333 110.216 39.2C109.899 39.65 109.666 40.1667 109.516 40.75C109.382 41.3333 109.316 41.925 109.316 42.525C109.316 43.1583 109.391 43.775 109.541 44.375C109.691 44.9583 109.924 45.475 110.241 45.925C110.574 46.375 110.999 46.7417 111.516 47.025C112.032 47.2917 112.657 47.425 113.391 47.425ZM125.585 49.275C125.002 49.275 124.452 49.2083 123.935 49.075C123.418 48.9583 122.96 48.7583 122.56 48.475C122.177 48.175 121.868 47.8 121.635 47.35C121.418 46.8833 121.31 46.325 121.31 45.675C121.31 44.9417 121.435 44.3417 121.685 43.875C121.935 43.4083 122.26 43.0333 122.66 42.75C123.077 42.45 123.543 42.225 124.06 42.075C124.593 41.925 125.135 41.8 125.685 41.7C126.268 41.5833 126.818 41.5 127.335 41.45C127.868 41.3833 128.335 41.3 128.735 41.2C129.135 41.0833 129.452 40.925 129.685 40.725C129.918 40.5083 130.035 40.2 130.035 39.8C130.035 39.3333 129.943 38.9583 129.76 38.675C129.593 38.3917 129.368 38.175 129.085 38.025C128.818 37.875 128.51 37.775 128.16 37.725C127.827 37.675 127.493 37.65 127.16 37.65C126.26 37.65 125.51 37.825 124.91 38.175C124.31 38.5083 123.985 39.15 123.935 40.1H121.81C121.843 39.3 122.01 38.625 122.31 38.075C122.61 37.525 123.01 37.0833 123.51 36.75C124.01 36.4 124.577 36.15 125.21 36C125.86 35.85 126.552 35.775 127.285 35.775C127.868 35.775 128.443 35.8167 129.01 35.9C129.593 35.9833 130.118 36.1583 130.585 36.425C131.052 36.675 131.427 37.0333 131.71 37.5C131.993 37.9667 132.135 38.575 132.135 39.325V45.975C132.135 46.475 132.16 46.8417 132.21 47.075C132.277 47.3083 132.477 47.425 132.81 47.425C132.96 47.425 133.177 47.3833 133.46 47.3V48.95C133.093 49.1667 132.585 49.275 131.935 49.275C131.385 49.275 130.943 49.125 130.61 48.825C130.293 48.5083 130.135 48 130.135 47.3C129.552 48 128.868 48.5083 128.085 48.825C127.318 49.125 126.485 49.275 125.585 49.275ZM126.06 47.425C126.76 47.425 127.36 47.3333 127.86 47.15C128.36 46.95 128.768 46.7083 129.085 46.425C129.402 46.125 129.635 45.8083 129.785 45.475C129.935 45.125 130.01 44.8 130.01 44.5V42.325C129.743 42.5417 129.393 42.6917 128.96 42.775C128.527 42.8583 128.068 42.9333 127.585 43C127.118 43.0667 126.643 43.1333 126.16 43.2C125.677 43.2667 125.243 43.3833 124.86 43.55C124.477 43.7167 124.16 43.9583 123.91 44.275C123.677 44.575 123.56 44.9917 123.56 45.525C123.56 45.875 123.627 46.175 123.76 46.425C123.91 46.6583 124.093 46.85 124.31 47C124.543 47.15 124.81 47.2583 125.11 47.325C125.41 47.3917 125.727 47.425 126.06 47.425ZM135.438 36.075H137.563V41.225H144.113V36.075H146.238V49H144.113V43.05H137.563V49H135.438V36.075ZM149.427 36.075H151.552V41.225H158.102V36.075H160.227V49H158.102V43.05H151.552V49H149.427V36.075ZM166.141 43.95C165.225 43.8167 164.475 43.4 163.891 42.7C163.308 42 163.016 41.1167 163.016 40.05C163.016 38.8333 163.375 37.8667 164.091 37.15C164.825 36.4333 165.816 36.075 167.066 36.075H173.616V49H171.491V44.025H168.666L164.716 49H161.891L166.141 43.95ZM171.491 42.2V37.95H167.741C166.841 37.95 166.191 38.1417 165.791 38.525C165.391 38.9083 165.191 39.425 165.191 40.075C165.191 40.7417 165.391 41.2667 165.791 41.65C166.191 42.0167 166.841 42.2 167.741 42.2H171.491ZM1.6 66.075H7.575C8.14167 66.075 8.68333 66.1167 9.2 66.2C9.73333 66.2833 10.2083 66.4417 10.625 66.675C11.0417 66.8917 11.375 67.2083 11.625 67.625C11.875 68.0417 12 68.575 12 69.225C12 69.925 11.8333 70.4917 11.5 70.925C11.1667 71.3583 10.7 71.7167 10.1 72V72.025C10.85 72.175 11.4417 72.525 11.875 73.075C12.325 73.625 12.55 74.3333 12.55 75.2C12.55 75.75 12.45 76.2583 12.25 76.725C12.0667 77.1917 11.8 77.5917 11.45 77.925C11.1 78.2583 10.6833 78.525 10.2 78.725C9.71667 78.9083 9.19167 79 8.625 79H1.6V66.075ZM8.225 77.2C8.925 77.2 9.45 77 9.8 76.6C10.1667 76.1833 10.35 75.6667 10.35 75.05C10.35 74.4667 10.1583 74 9.775 73.65C9.39167 73.3 8.75 73.125 7.85 73.125H3.7V77.2H8.225ZM7.35 71.375C8.26667 71.375 8.9 71.2083 9.25 70.875C9.61667 70.5417 9.8 70.1 9.8 69.55C9.8 69.0167 9.625 68.6083 9.275 68.325C8.925 68.025 8.28333 67.875 7.35 67.875H3.7V71.375H7.35ZM22.134 66.075H24.259V67.825H24.309C24.659 67.1083 25.209 66.5917 25.959 66.275C26.709 65.9417 27.534 65.775 28.434 65.775C29.434 65.775 30.3007 65.9583 31.034 66.325C31.784 66.6917 32.4007 67.1917 32.884 67.825C33.384 68.4417 33.759 69.1583 34.009 69.975C34.259 70.7917 34.384 71.6583 34.384 72.575C34.384 73.5083 34.259 74.3833 34.009 75.2C33.7757 76 33.409 76.7083 32.909 77.325C32.4257 77.925 31.809 78.4 31.059 78.75C30.3257 79.1 29.4673 79.275 28.484 79.275C28.1507 79.275 27.7923 79.2417 27.409 79.175C27.0257 79.1083 26.6423 79 26.259 78.85C25.8757 78.7 25.509 78.5 25.159 78.25C24.8257 77.9833 24.5423 77.6583 24.309 77.275H24.259V83.925H22.134V66.075ZM28.259 77.425C28.9757 77.425 29.584 77.2833 30.084 77C30.584 76.7167 30.984 76.3417 31.284 75.875C31.584 75.4083 31.8007 74.875 31.934 74.275C32.0673 73.675 32.134 73.0583 32.134 72.425C32.134 71.825 32.0507 71.2417 31.884 70.675C31.734 70.0917 31.4923 69.575 31.159 69.125C30.8423 68.675 30.4257 68.3167 29.909 68.05C29.409 67.7833 28.8173 67.65 28.134 67.65C27.4173 67.65 26.809 67.7917 26.309 68.075C25.809 68.3583 25.4007 68.7333 25.084 69.2C24.7673 69.65 24.534 70.1667 24.384 70.75C24.2507 71.3333 24.184 71.925 24.184 72.525C24.184 73.1583 24.259 73.775 24.409 74.375C24.559 74.9583 24.7923 75.475 25.109 75.925C25.4423 76.375 25.8673 76.7417 26.384 77.025C26.9007 77.2917 27.5257 77.425 28.259 77.425ZM42.3783 79.275C41.345 79.275 40.4367 79.1083 39.6533 78.775C38.8867 78.4417 38.245 77.975 37.7283 77.375C37.2117 76.775 36.82 76.0583 36.5533 75.225C36.3033 74.3917 36.1783 73.4833 36.1783 72.5C36.1783 71.5333 36.3283 70.6417 36.6283 69.825C36.9283 68.9917 37.345 68.275 37.8783 67.675C38.4283 67.075 39.07 66.6083 39.8033 66.275C40.5533 65.9417 41.37 65.775 42.2533 65.775C43.4033 65.775 44.3533 66.0167 45.1033 66.5C45.87 66.9667 46.4783 67.5667 46.9283 68.3C47.395 69.0333 47.7117 69.8333 47.8783 70.7C48.0617 71.5667 48.1367 72.3917 48.1033 73.175H38.4283C38.4117 73.7417 38.4783 74.2833 38.6283 74.8C38.7783 75.3 39.02 75.75 39.3533 76.15C39.6867 76.5333 40.1117 76.8417 40.6283 77.075C41.145 77.3083 41.7533 77.425 42.4533 77.425C43.3533 77.425 44.0867 77.2167 44.6533 76.8C45.2367 76.3833 45.62 75.75 45.8033 74.9H47.9033C47.62 76.3667 46.995 77.4667 46.0283 78.2C45.0617 78.9167 43.845 79.275 42.3783 79.275ZM45.8533 71.3C45.82 70.8 45.7033 70.325 45.5033 69.875C45.32 69.425 45.0617 69.0417 44.7283 68.725C44.4117 68.3917 44.0283 68.1333 43.5783 67.95C43.145 67.75 42.6617 67.65 42.1283 67.65C41.5783 67.65 41.0783 67.75 40.6283 67.95C40.195 68.1333 39.82 68.3917 39.5033 68.725C39.1867 69.0583 38.9367 69.45 38.7533 69.9C38.57 70.3333 38.4617 70.8 38.4283 71.3H45.8533ZM54.9561 72.075L49.4311 66.075H52.0561L57.4311 72.075V66.075H59.5561V72.075L64.9311 66.075H67.5561L62.0061 72.075L68.2811 79H65.6561L60.2811 73.225L59.5561 73.875V79H57.4311V73.875L56.6061 73.125L51.3311 79H48.7061L54.9561 72.075ZM69.8861 66.075H72.0111V76.625L78.1111 66.075H80.8361V79H78.7111V68.45L72.6111 79H69.8861V66.075ZM84.0463 66.075H87.0963L91.0213 76.55H91.0713L94.9963 66.075H98.0463V79H95.9213V68.75L92.0213 79H90.0713L86.1713 68.75V79H84.0463V66.075ZM103.508 63.75H101.383V61.15H103.508V63.75ZM101.383 66.075H103.508V79H101.383V66.075ZM113.258 67.55C113.208 66.65 113.3 65.8167 113.533 65.05C113.767 64.2833 114.125 63.625 114.608 63.075C115.108 62.5083 115.725 62.0667 116.458 61.75C117.192 61.4333 118.025 61.275 118.958 61.275C119.725 61.275 120.442 61.3917 121.108 61.625C121.792 61.8417 122.383 62.1667 122.883 62.6C123.383 63.0167 123.775 63.5417 124.058 64.175C124.358 64.8083 124.508 65.5417 124.508 66.375C124.508 67.1583 124.383 67.85 124.133 68.45C123.9 69.05 123.583 69.5917 123.183 70.075C122.783 70.5417 122.325 70.9667 121.808 71.35C121.292 71.7333 120.758 72.1 120.208 72.45C119.658 72.7833 119.108 73.1167 118.558 73.45C118.008 73.7667 117.5 74.1083 117.033 74.475C116.583 74.8417 116.192 75.2417 115.858 75.675C115.542 76.0917 115.333 76.575 115.233 77.125H124.333V79H112.758C112.842 77.95 113.025 77.0583 113.308 76.325C113.608 75.575 113.983 74.925 114.433 74.375C114.883 73.825 115.392 73.3417 115.958 72.925C116.525 72.5083 117.117 72.1167 117.733 71.75C118.483 71.2833 119.142 70.8583 119.708 70.475C120.275 70.075 120.742 69.675 121.108 69.275C121.492 68.875 121.775 68.4417 121.958 67.975C122.158 67.5083 122.258 66.9667 122.258 66.35C122.258 65.8667 122.167 65.4333 121.983 65.05C121.8 64.65 121.55 64.3083 121.233 64.025C120.933 63.7417 120.575 63.525 120.158 63.375C119.742 63.225 119.3 63.15 118.833 63.15C118.217 63.15 117.683 63.2833 117.233 63.55C116.8 63.8 116.442 64.1333 116.158 64.55C115.875 64.9667 115.667 65.4417 115.533 65.975C115.417 66.4917 115.367 67.0167 115.383 67.55H113.258ZM134.525 72.975V64.3H134.475L128.575 72.975H134.525ZM136.525 72.975H138.925V74.85H136.525V79H134.525V74.85H126.75V72.8L134.825 61.275H136.525V72.975ZM146.891 60.725H148.716L141.316 79.4H139.516L146.891 60.725ZM160.992 63.4C160.092 64.2833 159.25 65.3333 158.467 66.55C157.683 67.7667 156.983 69.0667 156.367 70.45C155.767 71.8333 155.275 73.2583 154.892 74.725C154.508 76.1917 154.275 77.6167 154.192 79H151.817C151.917 77.5 152.158 76.0417 152.542 74.625C152.942 73.1917 153.45 71.825 154.067 70.525C154.683 69.2083 155.392 67.9667 156.192 66.8C157.008 65.6333 157.883 64.5583 158.817 63.575H149.517V61.575H160.992V63.4Z" fill="url(#paint0_radial_105_752)" fill-opacity="0.4"/>
<defs>
<radialGradient id="paint0_radial_105_752" cx="0" cy="0" r="1" gradientUnits="userSpaceOnUse" gradientTransform="translate(119.952 22.9718) rotate(51.2938) scale(101.361 133.123)">
<stop stop-color="white"/>
<stop offset="1" stop-color="white" stop-opacity="0"/>
</radialGradient>
</defs>
</svg>
