<svg width="189" height="84" viewBox="0 0 189 84" fill="none" xmlns="http://www.w3.org/2000/svg">
<path d="M0.95 0.149999H3.325V8.8L12.375 0.149999H15.45L6.95 8.1L15.75 18H12.75L5.15 9.55L3.325 11.25V18H0.95V0.149999ZM22.8498 18.275C21.8165 18.275 20.9081 18.1083 20.1248 17.775C19.3581 17.425 18.7081 16.95 18.1748 16.35C17.6415 15.7333 17.2415 15.0167 16.9748 14.2C16.7081 13.3833 16.5748 12.5 16.5748 11.55C16.5748 10.6 16.7081 9.71667 16.9748 8.9C17.2415 8.06667 17.6415 7.35 18.1748 6.75C18.7081 6.13333 19.3581 5.65 20.1248 5.3C20.9081 4.95 21.8165 4.775 22.8498 4.775C23.8665 4.775 24.7665 4.95 25.5498 5.3C26.3331 5.65 26.9915 6.13333 27.5248 6.75C28.0581 7.35 28.4581 8.06667 28.7248 8.9C28.9915 9.71667 29.1248 10.6 29.1248 11.55C29.1248 12.5 28.9915 13.3833 28.7248 14.2C28.4581 15.0167 28.0581 15.7333 27.5248 16.35C26.9915 16.95 26.3331 17.425 25.5498 17.775C24.7665 18.1083 23.8665 18.275 22.8498 18.275ZM22.8498 16.425C23.3998 16.425 23.9165 16.3167 24.3998 16.1C24.8998 15.8833 25.3331 15.575 25.6998 15.175C26.0665 14.7583 26.3498 14.25 26.5498 13.65C26.7665 13.0333 26.8748 12.3333 26.8748 11.55C26.8748 10.7667 26.7665 10.075 26.5498 9.475C26.3498 8.85833 26.0665 8.34167 25.6998 7.925C25.3331 7.50833 24.8998 7.19167 24.3998 6.975C23.9165 6.75833 23.3998 6.65 22.8498 6.65C22.2998 6.65 21.7748 6.75833 21.2748 6.975C20.7915 7.19167 20.3665 7.50833 19.9998 7.925C19.6331 8.34167 19.3415 8.85833 19.1248 9.475C18.9248 10.075 18.8248 10.7667 18.8248 11.55C18.8248 12.3333 18.9248 13.0333 19.1248 13.65C19.3415 14.25 19.6331 14.7583 19.9998 15.175C20.3665 15.575 20.7915 15.8833 21.2748 16.1C21.7748 16.3167 22.2998 16.425 22.8498 16.425ZM31.6303 5.075H33.7553V10.225H40.3053V5.075H42.4303V18H40.3053V12.05H33.7553V18H31.6303V5.075ZM48.7445 6.95H44.1195V5.075H55.4945V6.95H50.8695V18H48.7445V6.95ZM57.2668 5.075H59.3918V6.825H59.4418C59.7918 6.10833 60.3418 5.59167 61.0918 5.275C61.8418 4.94167 62.6668 4.775 63.5668 4.775C64.5668 4.775 65.4335 4.95833 66.1668 5.325C66.9168 5.69167 67.5335 6.19167 68.0168 6.825C68.5168 7.44167 68.8918 8.15833 69.1418 8.975C69.3918 9.79167 69.5168 10.6583 69.5168 11.575C69.5168 12.5083 69.3918 13.3833 69.1418 14.2C68.9085 15 68.5418 15.7083 68.0418 16.325C67.5585 16.925 66.9418 17.4 66.1918 17.75C65.4585 18.1 64.6001 18.275 63.6168 18.275C63.2835 18.275 62.9251 18.2417 62.5418 18.175C62.1585 18.1083 61.7751 18 61.3918 17.85C61.0085 17.7 60.6418 17.5 60.2918 17.25C59.9585 16.9833 59.6751 16.6583 59.4418 16.275H59.3918V22.925H57.2668V5.075ZM63.3918 16.425C64.1085 16.425 64.7168 16.2833 65.2168 16C65.7168 15.7167 66.1168 15.3417 66.4168 14.875C66.7168 14.4083 66.9335 13.875 67.0668 13.275C67.2001 12.675 67.2668 12.0583 67.2668 11.425C67.2668 10.825 67.1835 10.2417 67.0168 9.675C66.8668 9.09167 66.6251 8.575 66.2918 8.125C65.9751 7.675 65.5585 7.31667 65.0418 7.05C64.5418 6.78333 63.9501 6.65 63.2668 6.65C62.5501 6.65 61.9418 6.79167 61.4418 7.075C60.9418 7.35833 60.5335 7.73333 60.2168 8.2C59.9001 8.65 59.6668 9.16667 59.5168 9.75C59.3835 10.3333 59.3168 10.925 59.3168 11.525C59.3168 12.1583 59.3918 12.775 59.5418 13.375C59.6918 13.9583 59.9251 14.475 60.2418 14.925C60.5751 15.375 61.0001 15.7417 61.5168 16.025C62.0335 16.2917 62.6585 16.425 63.3918 16.425ZM77.5861 18.275C76.5528 18.275 75.6445 18.1083 74.8611 17.775C74.0945 17.425 73.4445 16.95 72.9111 16.35C72.3778 15.7333 71.9778 15.0167 71.7111 14.2C71.4445 13.3833 71.3111 12.5 71.3111 11.55C71.3111 10.6 71.4445 9.71667 71.7111 8.9C71.9778 8.06667 72.3778 7.35 72.9111 6.75C73.4445 6.13333 74.0945 5.65 74.8611 5.3C75.6445 4.95 76.5528 4.775 77.5861 4.775C78.6028 4.775 79.5028 4.95 80.2861 5.3C81.0695 5.65 81.7278 6.13333 82.2611 6.75C82.7945 7.35 83.1945 8.06667 83.4611 8.9C83.7278 9.71667 83.8611 10.6 83.8611 11.55C83.8611 12.5 83.7278 13.3833 83.4611 14.2C83.1945 15.0167 82.7945 15.7333 82.2611 16.35C81.7278 16.95 81.0695 17.425 80.2861 17.775C79.5028 18.1083 78.6028 18.275 77.5861 18.275ZM77.5861 16.425C78.1361 16.425 78.6528 16.3167 79.1361 16.1C79.6361 15.8833 80.0695 15.575 80.4361 15.175C80.8028 14.7583 81.0861 14.25 81.2861 13.65C81.5028 13.0333 81.6111 12.3333 81.6111 11.55C81.6111 10.7667 81.5028 10.075 81.2861 9.475C81.0861 8.85833 80.8028 8.34167 80.4361 7.925C80.0695 7.50833 79.6361 7.19167 79.1361 6.975C78.6528 6.75833 78.1361 6.65 77.5861 6.65C77.0361 6.65 76.5111 6.75833 76.0111 6.975C75.5278 7.19167 75.1028 7.50833 74.7361 7.925C74.3695 8.34167 74.0778 8.85833 73.8611 9.475C73.6611 10.075 73.5611 10.7667 73.5611 11.55C73.5611 12.3333 73.6611 13.0333 73.8611 13.65C74.0778 14.25 74.3695 14.7583 74.7361 15.175C75.1028 15.575 75.5278 15.8833 76.0111 16.1C76.5111 16.3167 77.0361 16.425 77.5861 16.425ZM86.2666 18.15C86.0499 18.15 85.8249 18.125 85.5916 18.075C85.3583 18.0417 85.1666 18.0083 85.0166 17.975V16.1C85.1833 16.15 85.3333 16.1833 85.4666 16.2C85.6166 16.2167 85.7583 16.225 85.8916 16.225C86.4416 16.225 86.8583 16.0083 87.1416 15.575C87.4416 15.1417 87.6583 14.475 87.7916 13.575C87.9416 12.675 88.0333 11.525 88.0666 10.125C88.0999 8.70833 88.1333 7.025 88.1666 5.075H97.2416V18H95.1166V6.95H90.2166C90.1666 8.46667 90.1083 9.90833 90.0416 11.275C89.9916 12.625 89.8499 13.8083 89.6166 14.825C89.3833 15.8417 89.0083 16.65 88.4916 17.25C87.9749 17.85 87.2333 18.15 86.2666 18.15ZM100.579 5.075H102.704V10.025H107.304C108.57 10.025 109.587 10.375 110.354 11.075C111.12 11.7583 111.504 12.725 111.504 13.975C111.504 15.1917 111.137 16.1667 110.404 16.9C109.67 17.6333 108.67 18 107.404 18H100.579V5.075ZM106.629 16.125C108.412 16.125 109.304 15.4083 109.304 13.975C109.304 12.5583 108.412 11.85 106.629 11.85H102.704V16.125H106.629ZM123.491 12.95C122.574 12.8167 121.824 12.4 121.241 11.7C120.658 11 120.366 10.1167 120.366 9.05C120.366 7.83333 120.724 6.86667 121.441 6.15C122.174 5.43333 123.166 5.075 124.416 5.075H130.966V18H128.841V13.025H126.016L122.066 18H119.241L123.491 12.95ZM128.841 11.2V6.95H125.091C124.191 6.95 123.541 7.14167 123.141 7.525C122.741 7.90833 122.541 8.425 122.541 9.075C122.541 9.74167 122.741 10.2667 123.141 10.65C123.541 11.0167 124.191 11.2 125.091 11.2H128.841ZM134.169 5.075H136.294V11.25L142.219 5.075H145.044L139.319 10.675L145.719 18H142.994L137.594 11.85L136.294 13.125V18H134.169V5.075ZM152.904 18.275C151.87 18.275 150.962 18.1083 150.179 17.775C149.412 17.425 148.762 16.95 148.229 16.35C147.695 15.7333 147.295 15.0167 147.029 14.2C146.762 13.3833 146.629 12.5 146.629 11.55C146.629 10.6 146.762 9.71667 147.029 8.9C147.295 8.06667 147.695 7.35 148.229 6.75C148.762 6.13333 149.412 5.65 150.179 5.3C150.962 4.95 151.87 4.775 152.904 4.775C153.92 4.775 154.82 4.95 155.604 5.3C156.387 5.65 157.045 6.13333 157.579 6.75C158.112 7.35 158.512 8.06667 158.779 8.9C159.045 9.71667 159.179 10.6 159.179 11.55C159.179 12.5 159.045 13.3833 158.779 14.2C158.512 15.0167 158.112 15.7333 157.579 16.35C157.045 16.95 156.387 17.425 155.604 17.775C154.82 18.1083 153.92 18.275 152.904 18.275ZM152.904 16.425C153.454 16.425 153.97 16.3167 154.454 16.1C154.954 15.8833 155.387 15.575 155.754 15.175C156.12 14.7583 156.404 14.25 156.604 13.65C156.82 13.0333 156.929 12.3333 156.929 11.55C156.929 10.7667 156.82 10.075 156.604 9.475C156.404 8.85833 156.12 8.34167 155.754 7.925C155.387 7.50833 154.954 7.19167 154.454 6.975C153.97 6.75833 153.454 6.65 152.904 6.65C152.354 6.65 151.829 6.75833 151.329 6.975C150.845 7.19167 150.42 7.50833 150.054 7.925C149.687 8.34167 149.395 8.85833 149.179 9.475C148.979 10.075 148.879 10.7667 148.879 11.55C148.879 12.3333 148.979 13.0333 149.179 13.65C149.395 14.25 149.687 14.7583 150.054 15.175C150.42 15.575 150.845 15.8833 151.329 16.1C151.829 16.3167 152.354 16.425 152.904 16.425ZM167.034 18.275C166.051 18.275 165.176 18.1167 164.409 17.8C163.659 17.4833 163.026 17.0333 162.509 16.45C162.009 15.8667 161.626 15.175 161.359 14.375C161.109 13.575 160.984 12.6833 160.984 11.7C160.984 10.7333 161.109 9.83333 161.359 9C161.609 8.15 161.984 7.41667 162.484 6.8C163.001 6.16667 163.634 5.675 164.384 5.325C165.151 4.95833 166.051 4.775 167.084 4.775C167.817 4.775 168.501 4.86667 169.134 5.05C169.784 5.21667 170.351 5.48333 170.834 5.85C171.334 6.21667 171.742 6.68333 172.059 7.25C172.376 7.8 172.576 8.45833 172.659 9.225H170.459C170.292 8.40833 169.942 7.775 169.409 7.325C168.876 6.875 168.159 6.65 167.259 6.65C166.492 6.65 165.851 6.79167 165.334 7.075C164.817 7.35833 164.401 7.73333 164.084 8.2C163.784 8.66667 163.567 9.20833 163.434 9.825C163.301 10.425 163.234 11.05 163.234 11.7C163.234 12.3 163.301 12.8833 163.434 13.45C163.584 14.0167 163.809 14.525 164.109 14.975C164.409 15.4083 164.792 15.7583 165.259 16.025C165.742 16.2917 166.326 16.425 167.009 16.425C168.059 16.425 168.876 16.15 169.459 15.6C170.059 15.05 170.426 14.275 170.559 13.275H172.734C172.501 14.8917 171.909 16.1333 170.959 17C170.009 17.85 168.701 18.275 167.034 18.275ZM178.237 6.95H173.612V5.075H184.987V6.95H180.362V18H178.237V6.95ZM188.934 2.75H186.809V0.149999H188.934V2.75ZM186.809 5.075H188.934V18H186.809V5.075ZM0.6 35.075H2.725V41.25L8.65 35.075H11.475L5.75 40.675L12.15 48H9.425L4.025 41.85L2.725 43.125V48H0.6V35.075ZM19.3342 48.275C18.3008 48.275 17.3925 48.1083 16.6092 47.775C15.8425 47.425 15.1925 46.95 14.6592 46.35C14.1258 45.7333 13.7258 45.0167 13.4592 44.2C13.1925 43.3833 13.0592 42.5 13.0592 41.55C13.0592 40.6 13.1925 39.7167 13.4592 38.9C13.7258 38.0667 14.1258 37.35 14.6592 36.75C15.1925 36.1333 15.8425 35.65 16.6092 35.3C17.3925 34.95 18.3008 34.775 19.3342 34.775C20.3508 34.775 21.2508 34.95 22.0342 35.3C22.8175 35.65 23.4758 36.1333 24.0092 36.75C24.5425 37.35 24.9425 38.0667 25.2092 38.9C25.4758 39.7167 25.6092 40.6 25.6092 41.55C25.6092 42.5 25.4758 43.3833 25.2092 44.2C24.9425 45.0167 24.5425 45.7333 24.0092 46.35C23.4758 46.95 22.8175 47.425 22.0342 47.775C21.2508 48.1083 20.3508 48.275 19.3342 48.275ZM19.3342 46.425C19.8842 46.425 20.4008 46.3167 20.8842 46.1C21.3842 45.8833 21.8175 45.575 22.1842 45.175C22.5508 44.7583 22.8342 44.25 23.0342 43.65C23.2508 43.0333 23.3592 42.3333 23.3592 41.55C23.3592 40.7667 23.2508 40.075 23.0342 39.475C22.8342 38.8583 22.5508 38.3417 22.1842 37.925C21.8175 37.5083 21.3842 37.1917 20.8842 36.975C20.4008 36.7583 19.8842 36.65 19.3342 36.65C18.7842 36.65 18.2592 36.7583 17.7592 36.975C17.2758 37.1917 16.8508 37.5083 16.4842 37.925C16.1175 38.3417 15.8258 38.8583 15.6092 39.475C15.4092 40.075 15.3092 40.7667 15.3092 41.55C15.3092 42.3333 15.4092 43.0333 15.6092 43.65C15.8258 44.25 16.1175 44.7583 16.4842 45.175C16.8508 45.575 17.2758 45.8833 17.7592 46.1C18.2592 46.3167 18.7842 46.425 19.3342 46.425ZM32.7646 41.075L27.2396 35.075H29.8646L35.2396 41.075V35.075H37.3646V41.075L42.7396 35.075H45.3646L39.8146 41.075L46.0896 48H43.4646L38.0896 42.225L37.3646 42.875V48H35.2396V42.875L34.4146 42.125L29.1396 48H26.5146L32.7646 41.075ZM47.6947 35.075H49.8197V40.225H56.3697V35.075H58.4947V48H56.3697V42.05H49.8197V48H47.6947V35.075ZM67.259 48.275C66.2257 48.275 65.3173 48.1083 64.534 47.775C63.7673 47.425 63.1173 46.95 62.584 46.35C62.0507 45.7333 61.6507 45.0167 61.384 44.2C61.1173 43.3833 60.984 42.5 60.984 41.55C60.984 40.6 61.1173 39.7167 61.384 38.9C61.6507 38.0667 62.0507 37.35 62.584 36.75C63.1173 36.1333 63.7673 35.65 64.534 35.3C65.3173 34.95 66.2257 34.775 67.259 34.775C68.2757 34.775 69.1757 34.95 69.959 35.3C70.7423 35.65 71.4007 36.1333 71.934 36.75C72.4673 37.35 72.8673 38.0667 73.134 38.9C73.4007 39.7167 73.534 40.6 73.534 41.55C73.534 42.5 73.4007 43.3833 73.134 44.2C72.8673 45.0167 72.4673 45.7333 71.934 46.35C71.4007 46.95 70.7423 47.425 69.959 47.775C69.1757 48.1083 68.2757 48.275 67.259 48.275ZM67.259 46.425C67.809 46.425 68.3257 46.3167 68.809 46.1C69.309 45.8833 69.7423 45.575 70.109 45.175C70.4757 44.7583 70.759 44.25 70.959 43.65C71.1757 43.0333 71.284 42.3333 71.284 41.55C71.284 40.7667 71.1757 40.075 70.959 39.475C70.759 38.8583 70.4757 38.3417 70.109 37.925C69.7423 37.5083 69.309 37.1917 68.809 36.975C68.3257 36.7583 67.809 36.65 67.259 36.65C66.709 36.65 66.184 36.7583 65.684 36.975C65.2007 37.1917 64.7757 37.5083 64.409 37.925C64.0423 38.3417 63.7507 38.8583 63.534 39.475C63.334 40.075 63.234 40.7667 63.234 41.55C63.234 42.3333 63.334 43.0333 63.534 43.65C63.7507 44.25 64.0423 44.7583 64.409 45.175C64.7757 45.575 65.2007 45.8833 65.684 46.1C66.184 46.3167 66.709 46.425 67.259 46.425ZM76.9895 30.1V32.7H75.0145V30.1H76.9895ZM79.9395 30.1V32.7H77.9395V30.1H79.9395ZM76.4145 35.075H78.5395V48H76.4145V35.075ZM89.0521 35.075H91.1771V40.225H97.7271V35.075H99.8521V48H97.7271V42.05H91.1771V48H89.0521V35.075ZM106.616 48.275C106.033 48.275 105.483 48.2083 104.966 48.075C104.45 47.9583 103.991 47.7583 103.591 47.475C103.208 47.175 102.9 46.8 102.666 46.35C102.45 45.8833 102.341 45.325 102.341 44.675C102.341 43.9417 102.466 43.3417 102.716 42.875C102.966 42.4083 103.291 42.0333 103.691 41.75C104.108 41.45 104.575 41.225 105.091 41.075C105.625 40.925 106.166 40.8 106.716 40.7C107.3 40.5833 107.85 40.5 108.366 40.45C108.9 40.3833 109.366 40.3 109.766 40.2C110.166 40.0833 110.483 39.925 110.716 39.725C110.95 39.5083 111.066 39.2 111.066 38.8C111.066 38.3333 110.975 37.9583 110.791 37.675C110.625 37.3917 110.4 37.175 110.116 37.025C109.85 36.875 109.541 36.775 109.191 36.725C108.858 36.675 108.525 36.65 108.191 36.65C107.291 36.65 106.541 36.825 105.941 37.175C105.341 37.5083 105.016 38.15 104.966 39.1H102.841C102.875 38.3 103.041 37.625 103.341 37.075C103.641 36.525 104.041 36.0833 104.541 35.75C105.041 35.4 105.608 35.15 106.241 35C106.891 34.85 107.583 34.775 108.316 34.775C108.9 34.775 109.475 34.8167 110.041 34.9C110.625 34.9833 111.15 35.1583 111.616 35.425C112.083 35.675 112.458 36.0333 112.741 36.5C113.025 36.9667 113.166 37.575 113.166 38.325V44.975C113.166 45.475 113.191 45.8417 113.241 46.075C113.308 46.3083 113.508 46.425 113.841 46.425C113.991 46.425 114.208 46.3833 114.491 46.3V47.95C114.125 48.1667 113.616 48.275 112.966 48.275C112.416 48.275 111.975 48.125 111.641 47.825C111.325 47.5083 111.166 47 111.166 46.3C110.583 47 109.9 47.5083 109.116 47.825C108.35 48.125 107.516 48.275 106.616 48.275ZM107.091 46.425C107.791 46.425 108.391 46.3333 108.891 46.15C109.391 45.95 109.8 45.7083 110.116 45.425C110.433 45.125 110.666 44.8083 110.816 44.475C110.966 44.125 111.041 43.8 111.041 43.5V41.325C110.775 41.5417 110.425 41.6917 109.991 41.775C109.558 41.8583 109.1 41.9333 108.616 42C108.15 42.0667 107.675 42.1333 107.191 42.2C106.708 42.2667 106.275 42.3833 105.891 42.55C105.508 42.7167 105.191 42.9583 104.941 43.275C104.708 43.575 104.591 43.9917 104.591 44.525C104.591 44.875 104.658 45.175 104.791 45.425C104.941 45.6583 105.125 45.85 105.341 46C105.575 46.15 105.841 46.2583 106.141 46.325C106.441 46.3917 106.758 46.425 107.091 46.425ZM114.944 46.125H116.469C116.652 45.775 116.836 45.3 117.019 44.7C117.219 44.0833 117.394 43.4083 117.544 42.675C117.711 41.925 117.844 41.1333 117.944 40.3C118.044 39.4667 118.094 38.65 118.094 37.85V35.075H127.444V46.125H129.194V51.925H127.169V48H116.969V51.925H114.944V46.125ZM125.319 46.125V36.95H120.169V38.05C120.169 38.8667 120.119 39.6833 120.019 40.5C119.936 41.3 119.819 42.0583 119.669 42.775C119.519 43.4917 119.352 44.1417 119.169 44.725C119.002 45.3083 118.836 45.775 118.669 46.125H125.319ZM134.766 48.275C134.182 48.275 133.632 48.2083 133.116 48.075C132.599 47.9583 132.141 47.7583 131.741 47.475C131.357 47.175 131.049 46.8 130.816 46.35C130.599 45.8833 130.491 45.325 130.491 44.675C130.491 43.9417 130.616 43.3417 130.866 42.875C131.116 42.4083 131.441 42.0333 131.841 41.75C132.257 41.45 132.724 41.225 133.241 41.075C133.774 40.925 134.316 40.8 134.866 40.7C135.449 40.5833 135.999 40.5 136.516 40.45C137.049 40.3833 137.516 40.3 137.916 40.2C138.316 40.0833 138.632 39.925 138.866 39.725C139.099 39.5083 139.216 39.2 139.216 38.8C139.216 38.3333 139.124 37.9583 138.941 37.675C138.774 37.3917 138.549 37.175 138.266 37.025C137.999 36.875 137.691 36.775 137.341 36.725C137.007 36.675 136.674 36.65 136.341 36.65C135.441 36.65 134.691 36.825 134.091 37.175C133.491 37.5083 133.166 38.15 133.116 39.1H130.991C131.024 38.3 131.191 37.625 131.491 37.075C131.791 36.525 132.191 36.0833 132.691 35.75C133.191 35.4 133.757 35.15 134.391 35C135.041 34.85 135.732 34.775 136.466 34.775C137.049 34.775 137.624 34.8167 138.191 34.9C138.774 34.9833 139.299 35.1583 139.766 35.425C140.232 35.675 140.607 36.0333 140.891 36.5C141.174 36.9667 141.316 37.575 141.316 38.325V44.975C141.316 45.475 141.341 45.8417 141.391 46.075C141.457 46.3083 141.657 46.425 141.991 46.425C142.141 46.425 142.357 46.3833 142.641 46.3V47.95C142.274 48.1667 141.766 48.275 141.116 48.275C140.566 48.275 140.124 48.125 139.791 47.825C139.474 47.5083 139.316 47 139.316 46.3C138.732 47 138.049 47.5083 137.266 47.825C136.499 48.125 135.666 48.275 134.766 48.275ZM135.241 46.425C135.941 46.425 136.541 46.3333 137.041 46.15C137.541 45.95 137.949 45.7083 138.266 45.425C138.582 45.125 138.816 44.8083 138.966 44.475C139.116 44.125 139.191 43.8 139.191 43.5V41.325C138.924 41.5417 138.574 41.6917 138.141 41.775C137.707 41.8583 137.249 41.9333 136.766 42C136.299 42.0667 135.824 42.1333 135.341 42.2C134.857 42.2667 134.424 42.3833 134.041 42.55C133.657 42.7167 133.341 42.9583 133.091 43.275C132.857 43.575 132.741 43.9917 132.741 44.525C132.741 44.875 132.807 45.175 132.941 45.425C133.091 45.6583 133.274 45.85 133.491 46C133.724 46.15 133.991 46.2583 134.291 46.325C134.591 46.3917 134.907 46.425 135.241 46.425ZM144.619 35.075H146.744V40.225H153.294V35.075H155.419V48H153.294V42.05H146.744V48H144.619V35.075ZM164.183 48.275C163.149 48.275 162.241 48.1083 161.458 47.775C160.691 47.425 160.041 46.95 159.508 46.35C158.974 45.7333 158.574 45.0167 158.308 44.2C158.041 43.3833 157.908 42.5 157.908 41.55C157.908 40.6 158.041 39.7167 158.308 38.9C158.574 38.0667 158.974 37.35 159.508 36.75C160.041 36.1333 160.691 35.65 161.458 35.3C162.241 34.95 163.149 34.775 164.183 34.775C165.199 34.775 166.099 34.95 166.883 35.3C167.666 35.65 168.324 36.1333 168.858 36.75C169.391 37.35 169.791 38.0667 170.058 38.9C170.324 39.7167 170.458 40.6 170.458 41.55C170.458 42.5 170.324 43.3833 170.058 44.2C169.791 45.0167 169.391 45.7333 168.858 46.35C168.324 46.95 167.666 47.425 166.883 47.775C166.099 48.1083 165.199 48.275 164.183 48.275ZM164.183 46.425C164.733 46.425 165.249 46.3167 165.733 46.1C166.233 45.8833 166.666 45.575 167.033 45.175C167.399 44.7583 167.683 44.25 167.883 43.65C168.099 43.0333 168.208 42.3333 168.208 41.55C168.208 40.7667 168.099 40.075 167.883 39.475C167.683 38.8583 167.399 38.3417 167.033 37.925C166.666 37.5083 166.233 37.1917 165.733 36.975C165.249 36.7583 164.733 36.65 164.183 36.65C163.633 36.65 163.108 36.7583 162.608 36.975C162.124 37.1917 161.699 37.5083 161.333 37.925C160.966 38.3417 160.674 38.8583 160.458 39.475C160.258 40.075 160.158 40.7667 160.158 41.55C160.158 42.3333 160.258 43.0333 160.458 43.65C160.674 44.25 160.966 44.7583 161.333 45.175C161.699 45.575 162.124 45.8833 162.608 46.1C163.108 46.3167 163.633 46.425 164.183 46.425ZM173.913 30.1V32.7H171.938V30.1H173.913ZM176.863 30.1V32.7H174.863V30.1H176.863ZM173.338 35.075H175.463V48H173.338V35.075ZM0.6 65.075H11.15V78H9.025V66.95H2.725V78H0.6V65.075ZM19.9201 78.275C18.8868 78.275 17.9785 78.1083 17.1951 77.775C16.4285 77.425 15.7785 76.95 15.2451 76.35C14.7118 75.7333 14.3118 75.0167 14.0451 74.2C13.7785 73.3833 13.6451 72.5 13.6451 71.55C13.6451 70.6 13.7785 69.7167 14.0451 68.9C14.3118 68.0667 14.7118 67.35 15.2451 66.75C15.7785 66.1333 16.4285 65.65 17.1951 65.3C17.9785 64.95 18.8868 64.775 19.9201 64.775C20.9368 64.775 21.8368 64.95 22.6201 65.3C23.4035 65.65 24.0618 66.1333 24.5951 66.75C25.1285 67.35 25.5285 68.0667 25.7951 68.9C26.0618 69.7167 26.1951 70.6 26.1951 71.55C26.1951 72.5 26.0618 73.3833 25.7951 74.2C25.5285 75.0167 25.1285 75.7333 24.5951 76.35C24.0618 76.95 23.4035 77.425 22.6201 77.775C21.8368 78.1083 20.9368 78.275 19.9201 78.275ZM19.9201 76.425C20.4701 76.425 20.9868 76.3167 21.4701 76.1C21.9701 75.8833 22.4035 75.575 22.7701 75.175C23.1368 74.7583 23.4201 74.25 23.6201 73.65C23.8368 73.0333 23.9451 72.3333 23.9451 71.55C23.9451 70.7667 23.8368 70.075 23.6201 69.475C23.4201 68.8583 23.1368 68.3417 22.7701 67.925C22.4035 67.5083 21.9701 67.1917 21.4701 66.975C20.9868 66.7583 20.4701 66.65 19.9201 66.65C19.3701 66.65 18.8451 66.7583 18.3451 66.975C17.8618 67.1917 17.4368 67.5083 17.0701 67.925C16.7035 68.3417 16.4118 68.8583 16.1951 69.475C15.9951 70.075 15.8951 70.7667 15.8951 71.55C15.8951 72.3333 15.9951 73.0333 16.1951 73.65C16.4118 74.25 16.7035 74.7583 17.0701 75.175C17.4368 75.575 17.8618 75.8833 18.3451 76.1C18.8451 76.3167 19.3701 76.425 19.9201 76.425ZM34.0506 78.275C33.0673 78.275 32.1923 78.1167 31.4256 77.8C30.6756 77.4833 30.0423 77.0333 29.5256 76.45C29.0256 75.8667 28.6423 75.175 28.3756 74.375C28.1256 73.575 28.0006 72.6833 28.0006 71.7C28.0006 70.7333 28.1256 69.8333 28.3756 69C28.6256 68.15 29.0006 67.4167 29.5006 66.8C30.0173 66.1667 30.6506 65.675 31.4006 65.325C32.1673 64.9583 33.0673 64.775 34.1006 64.775C34.8339 64.775 35.5173 64.8667 36.1506 65.05C36.8006 65.2167 37.3673 65.4833 37.8506 65.85C38.3506 66.2167 38.7589 66.6833 39.0756 67.25C39.3923 67.8 39.5923 68.4583 39.6756 69.225H37.4756C37.3089 68.4083 36.9589 67.775 36.4256 67.325C35.8923 66.875 35.1756 66.65 34.2756 66.65C33.5089 66.65 32.8673 66.7917 32.3506 67.075C31.8339 67.3583 31.4173 67.7333 31.1006 68.2C30.8006 68.6667 30.5839 69.2083 30.4506 69.825C30.3173 70.425 30.2506 71.05 30.2506 71.7C30.2506 72.3 30.3173 72.8833 30.4506 73.45C30.6006 74.0167 30.8256 74.525 31.1256 74.975C31.4256 75.4083 31.8089 75.7583 32.2756 76.025C32.7589 76.2917 33.3423 76.425 34.0256 76.425C35.0756 76.425 35.8923 76.15 36.4756 75.6C37.0756 75.05 37.4423 74.275 37.5756 73.275H39.7506C39.5173 74.8917 38.9256 76.1333 37.9756 77C37.0256 77.85 35.7173 78.275 34.0506 78.275ZM42.0283 78.15C41.8117 78.15 41.5867 78.125 41.3533 78.075C41.12 78.0417 40.9283 78.0083 40.7783 77.975V76.1C40.945 76.15 41.095 76.1833 41.2283 76.2C41.3783 76.2167 41.52 76.225 41.6533 76.225C42.2033 76.225 42.62 76.0083 42.9033 75.575C43.2033 75.1417 43.42 74.475 43.5533 73.575C43.7033 72.675 43.795 71.525 43.8283 70.125C43.8617 68.7083 43.895 67.025 43.9283 65.075H53.0033V78H50.8783V66.95H45.9783C45.9283 68.4667 45.87 69.9083 45.8033 71.275C45.7533 72.625 45.6117 73.8083 45.3783 74.825C45.145 75.8417 44.77 76.65 44.2533 77.25C43.7367 77.85 42.995 78.15 42.0283 78.15ZM57.5402 83.15C57.2902 83.15 57.0402 83.1333 56.7902 83.1C56.5402 83.0667 56.2986 83.0083 56.0652 82.925V80.975C56.2652 81.0417 56.4652 81.1083 56.6652 81.175C56.8819 81.2417 57.0986 81.275 57.3152 81.275C57.7486 81.275 58.0986 81.175 58.3652 80.975C58.6319 80.775 58.8652 80.4833 59.0652 80.1L59.9402 77.925L54.8152 65.075H57.2152L60.9902 75.65H61.0402L64.6652 65.075H66.9152L61.2902 79.7C61.0402 80.3333 60.7902 80.8667 60.5402 81.3C60.3069 81.7333 60.0402 82.0833 59.7402 82.35C59.4569 82.6333 59.1319 82.8333 58.7652 82.95C58.4152 83.0833 58.0069 83.15 57.5402 83.15ZM68.7652 65.075H77.6152V66.95H70.8902V78H68.7652V65.075ZM79.3109 65.075H81.4359V75.625L87.5359 65.075H90.2609V78H88.1359V67.45L82.0359 78H79.3109V65.075Z" fill="black"/>
<path d="M0.95 0.149999H3.325V8.8L12.375 0.149999H15.45L6.95 8.1L15.75 18H12.75L5.15 9.55L3.325 11.25V18H0.95V0.149999ZM22.8498 18.275C21.8165 18.275 20.9081 18.1083 20.1248 17.775C19.3581 17.425 18.7081 16.95 18.1748 16.35C17.6415 15.7333 17.2415 15.0167 16.9748 14.2C16.7081 13.3833 16.5748 12.5 16.5748 11.55C16.5748 10.6 16.7081 9.71667 16.9748 8.9C17.2415 8.06667 17.6415 7.35 18.1748 6.75C18.7081 6.13333 19.3581 5.65 20.1248 5.3C20.9081 4.95 21.8165 4.775 22.8498 4.775C23.8665 4.775 24.7665 4.95 25.5498 5.3C26.3331 5.65 26.9915 6.13333 27.5248 6.75C28.0581 7.35 28.4581 8.06667 28.7248 8.9C28.9915 9.71667 29.1248 10.6 29.1248 11.55C29.1248 12.5 28.9915 13.3833 28.7248 14.2C28.4581 15.0167 28.0581 15.7333 27.5248 16.35C26.9915 16.95 26.3331 17.425 25.5498 17.775C24.7665 18.1083 23.8665 18.275 22.8498 18.275ZM22.8498 16.425C23.3998 16.425 23.9165 16.3167 24.3998 16.1C24.8998 15.8833 25.3331 15.575 25.6998 15.175C26.0665 14.7583 26.3498 14.25 26.5498 13.65C26.7665 13.0333 26.8748 12.3333 26.8748 11.55C26.8748 10.7667 26.7665 10.075 26.5498 9.475C26.3498 8.85833 26.0665 8.34167 25.6998 7.925C25.3331 7.50833 24.8998 7.19167 24.3998 6.975C23.9165 6.75833 23.3998 6.65 22.8498 6.65C22.2998 6.65 21.7748 6.75833 21.2748 6.975C20.7915 7.19167 20.3665 7.50833 19.9998 7.925C19.6331 8.34167 19.3415 8.85833 19.1248 9.475C18.9248 10.075 18.8248 10.7667 18.8248 11.55C18.8248 12.3333 18.9248 13.0333 19.1248 13.65C19.3415 14.25 19.6331 14.7583 19.9998 15.175C20.3665 15.575 20.7915 15.8833 21.2748 16.1C21.7748 16.3167 22.2998 16.425 22.8498 16.425ZM31.6303 5.075H33.7553V10.225H40.3053V5.075H42.4303V18H40.3053V12.05H33.7553V18H31.6303V5.075ZM48.7445 6.95H44.1195V5.075H55.4945V6.95H50.8695V18H48.7445V6.95ZM57.2668 5.075H59.3918V6.825H59.4418C59.7918 6.10833 60.3418 5.59167 61.0918 5.275C61.8418 4.94167 62.6668 4.775 63.5668 4.775C64.5668 4.775 65.4335 4.95833 66.1668 5.325C66.9168 5.69167 67.5335 6.19167 68.0168 6.825C68.5168 7.44167 68.8918 8.15833 69.1418 8.975C69.3918 9.79167 69.5168 10.6583 69.5168 11.575C69.5168 12.5083 69.3918 13.3833 69.1418 14.2C68.9085 15 68.5418 15.7083 68.0418 16.325C67.5585 16.925 66.9418 17.4 66.1918 17.75C65.4585 18.1 64.6001 18.275 63.6168 18.275C63.2835 18.275 62.9251 18.2417 62.5418 18.175C62.1585 18.1083 61.7751 18 61.3918 17.85C61.0085 17.7 60.6418 17.5 60.2918 17.25C59.9585 16.9833 59.6751 16.6583 59.4418 16.275H59.3918V22.925H57.2668V5.075ZM63.3918 16.425C64.1085 16.425 64.7168 16.2833 65.2168 16C65.7168 15.7167 66.1168 15.3417 66.4168 14.875C66.7168 14.4083 66.9335 13.875 67.0668 13.275C67.2001 12.675 67.2668 12.0583 67.2668 11.425C67.2668 10.825 67.1835 10.2417 67.0168 9.675C66.8668 9.09167 66.6251 8.575 66.2918 8.125C65.9751 7.675 65.5585 7.31667 65.0418 7.05C64.5418 6.78333 63.9501 6.65 63.2668 6.65C62.5501 6.65 61.9418 6.79167 61.4418 7.075C60.9418 7.35833 60.5335 7.73333 60.2168 8.2C59.9001 8.65 59.6668 9.16667 59.5168 9.75C59.3835 10.3333 59.3168 10.925 59.3168 11.525C59.3168 12.1583 59.3918 12.775 59.5418 13.375C59.6918 13.9583 59.9251 14.475 60.2418 14.925C60.5751 15.375 61.0001 15.7417 61.5168 16.025C62.0335 16.2917 62.6585 16.425 63.3918 16.425ZM77.5861 18.275C76.5528 18.275 75.6445 18.1083 74.8611 17.775C74.0945 17.425 73.4445 16.95 72.9111 16.35C72.3778 15.7333 71.9778 15.0167 71.7111 14.2C71.4445 13.3833 71.3111 12.5 71.3111 11.55C71.3111 10.6 71.4445 9.71667 71.7111 8.9C71.9778 8.06667 72.3778 7.35 72.9111 6.75C73.4445 6.13333 74.0945 5.65 74.8611 5.3C75.6445 4.95 76.5528 4.775 77.5861 4.775C78.6028 4.775 79.5028 4.95 80.2861 5.3C81.0695 5.65 81.7278 6.13333 82.2611 6.75C82.7945 7.35 83.1945 8.06667 83.4611 8.9C83.7278 9.71667 83.8611 10.6 83.8611 11.55C83.8611 12.5 83.7278 13.3833 83.4611 14.2C83.1945 15.0167 82.7945 15.7333 82.2611 16.35C81.7278 16.95 81.0695 17.425 80.2861 17.775C79.5028 18.1083 78.6028 18.275 77.5861 18.275ZM77.5861 16.425C78.1361 16.425 78.6528 16.3167 79.1361 16.1C79.6361 15.8833 80.0695 15.575 80.4361 15.175C80.8028 14.7583 81.0861 14.25 81.2861 13.65C81.5028 13.0333 81.6111 12.3333 81.6111 11.55C81.6111 10.7667 81.5028 10.075 81.2861 9.475C81.0861 8.85833 80.8028 8.34167 80.4361 7.925C80.0695 7.50833 79.6361 7.19167 79.1361 6.975C78.6528 6.75833 78.1361 6.65 77.5861 6.65C77.0361 6.65 76.5111 6.75833 76.0111 6.975C75.5278 7.19167 75.1028 7.50833 74.7361 7.925C74.3695 8.34167 74.0778 8.85833 73.8611 9.475C73.6611 10.075 73.5611 10.7667 73.5611 11.55C73.5611 12.3333 73.6611 13.0333 73.8611 13.65C74.0778 14.25 74.3695 14.7583 74.7361 15.175C75.1028 15.575 75.5278 15.8833 76.0111 16.1C76.5111 16.3167 77.0361 16.425 77.5861 16.425ZM86.2666 18.15C86.0499 18.15 85.8249 18.125 85.5916 18.075C85.3583 18.0417 85.1666 18.0083 85.0166 17.975V16.1C85.1833 16.15 85.3333 16.1833 85.4666 16.2C85.6166 16.2167 85.7583 16.225 85.8916 16.225C86.4416 16.225 86.8583 16.0083 87.1416 15.575C87.4416 15.1417 87.6583 14.475 87.7916 13.575C87.9416 12.675 88.0333 11.525 88.0666 10.125C88.0999 8.70833 88.1333 7.025 88.1666 5.075H97.2416V18H95.1166V6.95H90.2166C90.1666 8.46667 90.1083 9.90833 90.0416 11.275C89.9916 12.625 89.8499 13.8083 89.6166 14.825C89.3833 15.8417 89.0083 16.65 88.4916 17.25C87.9749 17.85 87.2333 18.15 86.2666 18.15ZM100.579 5.075H102.704V10.025H107.304C108.57 10.025 109.587 10.375 110.354 11.075C111.12 11.7583 111.504 12.725 111.504 13.975C111.504 15.1917 111.137 16.1667 110.404 16.9C109.67 17.6333 108.67 18 107.404 18H100.579V5.075ZM106.629 16.125C108.412 16.125 109.304 15.4083 109.304 13.975C109.304 12.5583 108.412 11.85 106.629 11.85H102.704V16.125H106.629ZM123.491 12.95C122.574 12.8167 121.824 12.4 121.241 11.7C120.658 11 120.366 10.1167 120.366 9.05C120.366 7.83333 120.724 6.86667 121.441 6.15C122.174 5.43333 123.166 5.075 124.416 5.075H130.966V18H128.841V13.025H126.016L122.066 18H119.241L123.491 12.95ZM128.841 11.2V6.95H125.091C124.191 6.95 123.541 7.14167 123.141 7.525C122.741 7.90833 122.541 8.425 122.541 9.075C122.541 9.74167 122.741 10.2667 123.141 10.65C123.541 11.0167 124.191 11.2 125.091 11.2H128.841ZM134.169 5.075H136.294V11.25L142.219 5.075H145.044L139.319 10.675L145.719 18H142.994L137.594 11.85L136.294 13.125V18H134.169V5.075ZM152.904 18.275C151.87 18.275 150.962 18.1083 150.179 17.775C149.412 17.425 148.762 16.95 148.229 16.35C147.695 15.7333 147.295 15.0167 147.029 14.2C146.762 13.3833 146.629 12.5 146.629 11.55C146.629 10.6 146.762 9.71667 147.029 8.9C147.295 8.06667 147.695 7.35 148.229 6.75C148.762 6.13333 149.412 5.65 150.179 5.3C150.962 4.95 151.87 4.775 152.904 4.775C153.92 4.775 154.82 4.95 155.604 5.3C156.387 5.65 157.045 6.13333 157.579 6.75C158.112 7.35 158.512 8.06667 158.779 8.9C159.045 9.71667 159.179 10.6 159.179 11.55C159.179 12.5 159.045 13.3833 158.779 14.2C158.512 15.0167 158.112 15.7333 157.579 16.35C157.045 16.95 156.387 17.425 155.604 17.775C154.82 18.1083 153.92 18.275 152.904 18.275ZM152.904 16.425C153.454 16.425 153.97 16.3167 154.454 16.1C154.954 15.8833 155.387 15.575 155.754 15.175C156.12 14.7583 156.404 14.25 156.604 13.65C156.82 13.0333 156.929 12.3333 156.929 11.55C156.929 10.7667 156.82 10.075 156.604 9.475C156.404 8.85833 156.12 8.34167 155.754 7.925C155.387 7.50833 154.954 7.19167 154.454 6.975C153.97 6.75833 153.454 6.65 152.904 6.65C152.354 6.65 151.829 6.75833 151.329 6.975C150.845 7.19167 150.42 7.50833 150.054 7.925C149.687 8.34167 149.395 8.85833 149.179 9.475C148.979 10.075 148.879 10.7667 148.879 11.55C148.879 12.3333 148.979 13.0333 149.179 13.65C149.395 14.25 149.687 14.7583 150.054 15.175C150.42 15.575 150.845 15.8833 151.329 16.1C151.829 16.3167 152.354 16.425 152.904 16.425ZM167.034 18.275C166.051 18.275 165.176 18.1167 164.409 17.8C163.659 17.4833 163.026 17.0333 162.509 16.45C162.009 15.8667 161.626 15.175 161.359 14.375C161.109 13.575 160.984 12.6833 160.984 11.7C160.984 10.7333 161.109 9.83333 161.359 9C161.609 8.15 161.984 7.41667 162.484 6.8C163.001 6.16667 163.634 5.675 164.384 5.325C165.151 4.95833 166.051 4.775 167.084 4.775C167.817 4.775 168.501 4.86667 169.134 5.05C169.784 5.21667 170.351 5.48333 170.834 5.85C171.334 6.21667 171.742 6.68333 172.059 7.25C172.376 7.8 172.576 8.45833 172.659 9.225H170.459C170.292 8.40833 169.942 7.775 169.409 7.325C168.876 6.875 168.159 6.65 167.259 6.65C166.492 6.65 165.851 6.79167 165.334 7.075C164.817 7.35833 164.401 7.73333 164.084 8.2C163.784 8.66667 163.567 9.20833 163.434 9.825C163.301 10.425 163.234 11.05 163.234 11.7C163.234 12.3 163.301 12.8833 163.434 13.45C163.584 14.0167 163.809 14.525 164.109 14.975C164.409 15.4083 164.792 15.7583 165.259 16.025C165.742 16.2917 166.326 16.425 167.009 16.425C168.059 16.425 168.876 16.15 169.459 15.6C170.059 15.05 170.426 14.275 170.559 13.275H172.734C172.501 14.8917 171.909 16.1333 170.959 17C170.009 17.85 168.701 18.275 167.034 18.275ZM178.237 6.95H173.612V5.075H184.987V6.95H180.362V18H178.237V6.95ZM188.934 2.75H186.809V0.149999H188.934V2.75ZM186.809 5.075H188.934V18H186.809V5.075ZM0.6 35.075H2.725V41.25L8.65 35.075H11.475L5.75 40.675L12.15 48H9.425L4.025 41.85L2.725 43.125V48H0.6V35.075ZM19.3342 48.275C18.3008 48.275 17.3925 48.1083 16.6092 47.775C15.8425 47.425 15.1925 46.95 14.6592 46.35C14.1258 45.7333 13.7258 45.0167 13.4592 44.2C13.1925 43.3833 13.0592 42.5 13.0592 41.55C13.0592 40.6 13.1925 39.7167 13.4592 38.9C13.7258 38.0667 14.1258 37.35 14.6592 36.75C15.1925 36.1333 15.8425 35.65 16.6092 35.3C17.3925 34.95 18.3008 34.775 19.3342 34.775C20.3508 34.775 21.2508 34.95 22.0342 35.3C22.8175 35.65 23.4758 36.1333 24.0092 36.75C24.5425 37.35 24.9425 38.0667 25.2092 38.9C25.4758 39.7167 25.6092 40.6 25.6092 41.55C25.6092 42.5 25.4758 43.3833 25.2092 44.2C24.9425 45.0167 24.5425 45.7333 24.0092 46.35C23.4758 46.95 22.8175 47.425 22.0342 47.775C21.2508 48.1083 20.3508 48.275 19.3342 48.275ZM19.3342 46.425C19.8842 46.425 20.4008 46.3167 20.8842 46.1C21.3842 45.8833 21.8175 45.575 22.1842 45.175C22.5508 44.7583 22.8342 44.25 23.0342 43.65C23.2508 43.0333 23.3592 42.3333 23.3592 41.55C23.3592 40.7667 23.2508 40.075 23.0342 39.475C22.8342 38.8583 22.5508 38.3417 22.1842 37.925C21.8175 37.5083 21.3842 37.1917 20.8842 36.975C20.4008 36.7583 19.8842 36.65 19.3342 36.65C18.7842 36.65 18.2592 36.7583 17.7592 36.975C17.2758 37.1917 16.8508 37.5083 16.4842 37.925C16.1175 38.3417 15.8258 38.8583 15.6092 39.475C15.4092 40.075 15.3092 40.7667 15.3092 41.55C15.3092 42.3333 15.4092 43.0333 15.6092 43.65C15.8258 44.25 16.1175 44.7583 16.4842 45.175C16.8508 45.575 17.2758 45.8833 17.7592 46.1C18.2592 46.3167 18.7842 46.425 19.3342 46.425ZM32.7646 41.075L27.2396 35.075H29.8646L35.2396 41.075V35.075H37.3646V41.075L42.7396 35.075H45.3646L39.8146 41.075L46.0896 48H43.4646L38.0896 42.225L37.3646 42.875V48H35.2396V42.875L34.4146 42.125L29.1396 48H26.5146L32.7646 41.075ZM47.6947 35.075H49.8197V40.225H56.3697V35.075H58.4947V48H56.3697V42.05H49.8197V48H47.6947V35.075ZM67.259 48.275C66.2257 48.275 65.3173 48.1083 64.534 47.775C63.7673 47.425 63.1173 46.95 62.584 46.35C62.0507 45.7333 61.6507 45.0167 61.384 44.2C61.1173 43.3833 60.984 42.5 60.984 41.55C60.984 40.6 61.1173 39.7167 61.384 38.9C61.6507 38.0667 62.0507 37.35 62.584 36.75C63.1173 36.1333 63.7673 35.65 64.534 35.3C65.3173 34.95 66.2257 34.775 67.259 34.775C68.2757 34.775 69.1757 34.95 69.959 35.3C70.7423 35.65 71.4007 36.1333 71.934 36.75C72.4673 37.35 72.8673 38.0667 73.134 38.9C73.4007 39.7167 73.534 40.6 73.534 41.55C73.534 42.5 73.4007 43.3833 73.134 44.2C72.8673 45.0167 72.4673 45.7333 71.934 46.35C71.4007 46.95 70.7423 47.425 69.959 47.775C69.1757 48.1083 68.2757 48.275 67.259 48.275ZM67.259 46.425C67.809 46.425 68.3257 46.3167 68.809 46.1C69.309 45.8833 69.7423 45.575 70.109 45.175C70.4757 44.7583 70.759 44.25 70.959 43.65C71.1757 43.0333 71.284 42.3333 71.284 41.55C71.284 40.7667 71.1757 40.075 70.959 39.475C70.759 38.8583 70.4757 38.3417 70.109 37.925C69.7423 37.5083 69.309 37.1917 68.809 36.975C68.3257 36.7583 67.809 36.65 67.259 36.65C66.709 36.65 66.184 36.7583 65.684 36.975C65.2007 37.1917 64.7757 37.5083 64.409 37.925C64.0423 38.3417 63.7507 38.8583 63.534 39.475C63.334 40.075 63.234 40.7667 63.234 41.55C63.234 42.3333 63.334 43.0333 63.534 43.65C63.7507 44.25 64.0423 44.7583 64.409 45.175C64.7757 45.575 65.2007 45.8833 65.684 46.1C66.184 46.3167 66.709 46.425 67.259 46.425ZM76.9895 30.1V32.7H75.0145V30.1H76.9895ZM79.9395 30.1V32.7H77.9395V30.1H79.9395ZM76.4145 35.075H78.5395V48H76.4145V35.075ZM89.0521 35.075H91.1771V40.225H97.7271V35.075H99.8521V48H97.7271V42.05H91.1771V48H89.0521V35.075ZM106.616 48.275C106.033 48.275 105.483 48.2083 104.966 48.075C104.45 47.9583 103.991 47.7583 103.591 47.475C103.208 47.175 102.9 46.8 102.666 46.35C102.45 45.8833 102.341 45.325 102.341 44.675C102.341 43.9417 102.466 43.3417 102.716 42.875C102.966 42.4083 103.291 42.0333 103.691 41.75C104.108 41.45 104.575 41.225 105.091 41.075C105.625 40.925 106.166 40.8 106.716 40.7C107.3 40.5833 107.85 40.5 108.366 40.45C108.9 40.3833 109.366 40.3 109.766 40.2C110.166 40.0833 110.483 39.925 110.716 39.725C110.95 39.5083 111.066 39.2 111.066 38.8C111.066 38.3333 110.975 37.9583 110.791 37.675C110.625 37.3917 110.4 37.175 110.116 37.025C109.85 36.875 109.541 36.775 109.191 36.725C108.858 36.675 108.525 36.65 108.191 36.65C107.291 36.65 106.541 36.825 105.941 37.175C105.341 37.5083 105.016 38.15 104.966 39.1H102.841C102.875 38.3 103.041 37.625 103.341 37.075C103.641 36.525 104.041 36.0833 104.541 35.75C105.041 35.4 105.608 35.15 106.241 35C106.891 34.85 107.583 34.775 108.316 34.775C108.9 34.775 109.475 34.8167 110.041 34.9C110.625 34.9833 111.15 35.1583 111.616 35.425C112.083 35.675 112.458 36.0333 112.741 36.5C113.025 36.9667 113.166 37.575 113.166 38.325V44.975C113.166 45.475 113.191 45.8417 113.241 46.075C113.308 46.3083 113.508 46.425 113.841 46.425C113.991 46.425 114.208 46.3833 114.491 46.3V47.95C114.125 48.1667 113.616 48.275 112.966 48.275C112.416 48.275 111.975 48.125 111.641 47.825C111.325 47.5083 111.166 47 111.166 46.3C110.583 47 109.9 47.5083 109.116 47.825C108.35 48.125 107.516 48.275 106.616 48.275ZM107.091 46.425C107.791 46.425 108.391 46.3333 108.891 46.15C109.391 45.95 109.8 45.7083 110.116 45.425C110.433 45.125 110.666 44.8083 110.816 44.475C110.966 44.125 111.041 43.8 111.041 43.5V41.325C110.775 41.5417 110.425 41.6917 109.991 41.775C109.558 41.8583 109.1 41.9333 108.616 42C108.15 42.0667 107.675 42.1333 107.191 42.2C106.708 42.2667 106.275 42.3833 105.891 42.55C105.508 42.7167 105.191 42.9583 104.941 43.275C104.708 43.575 104.591 43.9917 104.591 44.525C104.591 44.875 104.658 45.175 104.791 45.425C104.941 45.6583 105.125 45.85 105.341 46C105.575 46.15 105.841 46.2583 106.141 46.325C106.441 46.3917 106.758 46.425 107.091 46.425ZM114.944 46.125H116.469C116.652 45.775 116.836 45.3 117.019 44.7C117.219 44.0833 117.394 43.4083 117.544 42.675C117.711 41.925 117.844 41.1333 117.944 40.3C118.044 39.4667 118.094 38.65 118.094 37.85V35.075H127.444V46.125H129.194V51.925H127.169V48H116.969V51.925H114.944V46.125ZM125.319 46.125V36.95H120.169V38.05C120.169 38.8667 120.119 39.6833 120.019 40.5C119.936 41.3 119.819 42.0583 119.669 42.775C119.519 43.4917 119.352 44.1417 119.169 44.725C119.002 45.3083 118.836 45.775 118.669 46.125H125.319ZM134.766 48.275C134.182 48.275 133.632 48.2083 133.116 48.075C132.599 47.9583 132.141 47.7583 131.741 47.475C131.357 47.175 131.049 46.8 130.816 46.35C130.599 45.8833 130.491 45.325 130.491 44.675C130.491 43.9417 130.616 43.3417 130.866 42.875C131.116 42.4083 131.441 42.0333 131.841 41.75C132.257 41.45 132.724 41.225 133.241 41.075C133.774 40.925 134.316 40.8 134.866 40.7C135.449 40.5833 135.999 40.5 136.516 40.45C137.049 40.3833 137.516 40.3 137.916 40.2C138.316 40.0833 138.632 39.925 138.866 39.725C139.099 39.5083 139.216 39.2 139.216 38.8C139.216 38.3333 139.124 37.9583 138.941 37.675C138.774 37.3917 138.549 37.175 138.266 37.025C137.999 36.875 137.691 36.775 137.341 36.725C137.007 36.675 136.674 36.65 136.341 36.65C135.441 36.65 134.691 36.825 134.091 37.175C133.491 37.5083 133.166 38.15 133.116 39.1H130.991C131.024 38.3 131.191 37.625 131.491 37.075C131.791 36.525 132.191 36.0833 132.691 35.75C133.191 35.4 133.757 35.15 134.391 35C135.041 34.85 135.732 34.775 136.466 34.775C137.049 34.775 137.624 34.8167 138.191 34.9C138.774 34.9833 139.299 35.1583 139.766 35.425C140.232 35.675 140.607 36.0333 140.891 36.5C141.174 36.9667 141.316 37.575 141.316 38.325V44.975C141.316 45.475 141.341 45.8417 141.391 46.075C141.457 46.3083 141.657 46.425 141.991 46.425C142.141 46.425 142.357 46.3833 142.641 46.3V47.95C142.274 48.1667 141.766 48.275 141.116 48.275C140.566 48.275 140.124 48.125 139.791 47.825C139.474 47.5083 139.316 47 139.316 46.3C138.732 47 138.049 47.5083 137.266 47.825C136.499 48.125 135.666 48.275 134.766 48.275ZM135.241 46.425C135.941 46.425 136.541 46.3333 137.041 46.15C137.541 45.95 137.949 45.7083 138.266 45.425C138.582 45.125 138.816 44.8083 138.966 44.475C139.116 44.125 139.191 43.8 139.191 43.5V41.325C138.924 41.5417 138.574 41.6917 138.141 41.775C137.707 41.8583 137.249 41.9333 136.766 42C136.299 42.0667 135.824 42.1333 135.341 42.2C134.857 42.2667 134.424 42.3833 134.041 42.55C133.657 42.7167 133.341 42.9583 133.091 43.275C132.857 43.575 132.741 43.9917 132.741 44.525C132.741 44.875 132.807 45.175 132.941 45.425C133.091 45.6583 133.274 45.85 133.491 46C133.724 46.15 133.991 46.2583 134.291 46.325C134.591 46.3917 134.907 46.425 135.241 46.425ZM144.619 35.075H146.744V40.225H153.294V35.075H155.419V48H153.294V42.05H146.744V48H144.619V35.075ZM164.183 48.275C163.149 48.275 162.241 48.1083 161.458 47.775C160.691 47.425 160.041 46.95 159.508 46.35C158.974 45.7333 158.574 45.0167 158.308 44.2C158.041 43.3833 157.908 42.5 157.908 41.55C157.908 40.6 158.041 39.7167 158.308 38.9C158.574 38.0667 158.974 37.35 159.508 36.75C160.041 36.1333 160.691 35.65 161.458 35.3C162.241 34.95 163.149 34.775 164.183 34.775C165.199 34.775 166.099 34.95 166.883 35.3C167.666 35.65 168.324 36.1333 168.858 36.75C169.391 37.35 169.791 38.0667 170.058 38.9C170.324 39.7167 170.458 40.6 170.458 41.55C170.458 42.5 170.324 43.3833 170.058 44.2C169.791 45.0167 169.391 45.7333 168.858 46.35C168.324 46.95 167.666 47.425 166.883 47.775C166.099 48.1083 165.199 48.275 164.183 48.275ZM164.183 46.425C164.733 46.425 165.249 46.3167 165.733 46.1C166.233 45.8833 166.666 45.575 167.033 45.175C167.399 44.7583 167.683 44.25 167.883 43.65C168.099 43.0333 168.208 42.3333 168.208 41.55C168.208 40.7667 168.099 40.075 167.883 39.475C167.683 38.8583 167.399 38.3417 167.033 37.925C166.666 37.5083 166.233 37.1917 165.733 36.975C165.249 36.7583 164.733 36.65 164.183 36.65C163.633 36.65 163.108 36.7583 162.608 36.975C162.124 37.1917 161.699 37.5083 161.333 37.925C160.966 38.3417 160.674 38.8583 160.458 39.475C160.258 40.075 160.158 40.7667 160.158 41.55C160.158 42.3333 160.258 43.0333 160.458 43.65C160.674 44.25 160.966 44.7583 161.333 45.175C161.699 45.575 162.124 45.8833 162.608 46.1C163.108 46.3167 163.633 46.425 164.183 46.425ZM173.913 30.1V32.7H171.938V30.1H173.913ZM176.863 30.1V32.7H174.863V30.1H176.863ZM173.338 35.075H175.463V48H173.338V35.075ZM0.6 65.075H11.15V78H9.025V66.95H2.725V78H0.6V65.075ZM19.9201 78.275C18.8868 78.275 17.9785 78.1083 17.1951 77.775C16.4285 77.425 15.7785 76.95 15.2451 76.35C14.7118 75.7333 14.3118 75.0167 14.0451 74.2C13.7785 73.3833 13.6451 72.5 13.6451 71.55C13.6451 70.6 13.7785 69.7167 14.0451 68.9C14.3118 68.0667 14.7118 67.35 15.2451 66.75C15.7785 66.1333 16.4285 65.65 17.1951 65.3C17.9785 64.95 18.8868 64.775 19.9201 64.775C20.9368 64.775 21.8368 64.95 22.6201 65.3C23.4035 65.65 24.0618 66.1333 24.5951 66.75C25.1285 67.35 25.5285 68.0667 25.7951 68.9C26.0618 69.7167 26.1951 70.6 26.1951 71.55C26.1951 72.5 26.0618 73.3833 25.7951 74.2C25.5285 75.0167 25.1285 75.7333 24.5951 76.35C24.0618 76.95 23.4035 77.425 22.6201 77.775C21.8368 78.1083 20.9368 78.275 19.9201 78.275ZM19.9201 76.425C20.4701 76.425 20.9868 76.3167 21.4701 76.1C21.9701 75.8833 22.4035 75.575 22.7701 75.175C23.1368 74.7583 23.4201 74.25 23.6201 73.65C23.8368 73.0333 23.9451 72.3333 23.9451 71.55C23.9451 70.7667 23.8368 70.075 23.6201 69.475C23.4201 68.8583 23.1368 68.3417 22.7701 67.925C22.4035 67.5083 21.9701 67.1917 21.4701 66.975C20.9868 66.7583 20.4701 66.65 19.9201 66.65C19.3701 66.65 18.8451 66.7583 18.3451 66.975C17.8618 67.1917 17.4368 67.5083 17.0701 67.925C16.7035 68.3417 16.4118 68.8583 16.1951 69.475C15.9951 70.075 15.8951 70.7667 15.8951 71.55C15.8951 72.3333 15.9951 73.0333 16.1951 73.65C16.4118 74.25 16.7035 74.7583 17.0701 75.175C17.4368 75.575 17.8618 75.8833 18.3451 76.1C18.8451 76.3167 19.3701 76.425 19.9201 76.425ZM34.0506 78.275C33.0673 78.275 32.1923 78.1167 31.4256 77.8C30.6756 77.4833 30.0423 77.0333 29.5256 76.45C29.0256 75.8667 28.6423 75.175 28.3756 74.375C28.1256 73.575 28.0006 72.6833 28.0006 71.7C28.0006 70.7333 28.1256 69.8333 28.3756 69C28.6256 68.15 29.0006 67.4167 29.5006 66.8C30.0173 66.1667 30.6506 65.675 31.4006 65.325C32.1673 64.9583 33.0673 64.775 34.1006 64.775C34.8339 64.775 35.5173 64.8667 36.1506 65.05C36.8006 65.2167 37.3673 65.4833 37.8506 65.85C38.3506 66.2167 38.7589 66.6833 39.0756 67.25C39.3923 67.8 39.5923 68.4583 39.6756 69.225H37.4756C37.3089 68.4083 36.9589 67.775 36.4256 67.325C35.8923 66.875 35.1756 66.65 34.2756 66.65C33.5089 66.65 32.8673 66.7917 32.3506 67.075C31.8339 67.3583 31.4173 67.7333 31.1006 68.2C30.8006 68.6667 30.5839 69.2083 30.4506 69.825C30.3173 70.425 30.2506 71.05 30.2506 71.7C30.2506 72.3 30.3173 72.8833 30.4506 73.45C30.6006 74.0167 30.8256 74.525 31.1256 74.975C31.4256 75.4083 31.8089 75.7583 32.2756 76.025C32.7589 76.2917 33.3423 76.425 34.0256 76.425C35.0756 76.425 35.8923 76.15 36.4756 75.6C37.0756 75.05 37.4423 74.275 37.5756 73.275H39.7506C39.5173 74.8917 38.9256 76.1333 37.9756 77C37.0256 77.85 35.7173 78.275 34.0506 78.275ZM42.0283 78.15C41.8117 78.15 41.5867 78.125 41.3533 78.075C41.12 78.0417 40.9283 78.0083 40.7783 77.975V76.1C40.945 76.15 41.095 76.1833 41.2283 76.2C41.3783 76.2167 41.52 76.225 41.6533 76.225C42.2033 76.225 42.62 76.0083 42.9033 75.575C43.2033 75.1417 43.42 74.475 43.5533 73.575C43.7033 72.675 43.795 71.525 43.8283 70.125C43.8617 68.7083 43.895 67.025 43.9283 65.075H53.0033V78H50.8783V66.95H45.9783C45.9283 68.4667 45.87 69.9083 45.8033 71.275C45.7533 72.625 45.6117 73.8083 45.3783 74.825C45.145 75.8417 44.77 76.65 44.2533 77.25C43.7367 77.85 42.995 78.15 42.0283 78.15ZM57.5402 83.15C57.2902 83.15 57.0402 83.1333 56.7902 83.1C56.5402 83.0667 56.2986 83.0083 56.0652 82.925V80.975C56.2652 81.0417 56.4652 81.1083 56.6652 81.175C56.8819 81.2417 57.0986 81.275 57.3152 81.275C57.7486 81.275 58.0986 81.175 58.3652 80.975C58.6319 80.775 58.8652 80.4833 59.0652 80.1L59.9402 77.925L54.8152 65.075H57.2152L60.9902 75.65H61.0402L64.6652 65.075H66.9152L61.2902 79.7C61.0402 80.3333 60.7902 80.8667 60.5402 81.3C60.3069 81.7333 60.0402 82.0833 59.7402 82.35C59.4569 82.6333 59.1319 82.8333 58.7652 82.95C58.4152 83.0833 58.0069 83.15 57.5402 83.15ZM68.7652 65.075H77.6152V66.95H70.8902V78H68.7652V65.075ZM79.3109 65.075H81.4359V75.625L87.5359 65.075H90.2609V78H88.1359V67.45L82.0359 78H79.3109V65.075Z" fill="url(#paint0_radial_105_741)" fill-opacity="0.4"/>
<defs>
<radialGradient id="paint0_radial_105_741" cx="0" cy="0" r="1" gradientUnits="userSpaceOnUse" gradientTransform="translate(118.952 21.9718) rotate(51.2938) scale(101.361 133.123)">
<stop stop-color="white"/>
<stop offset="1" stop-color="white" stop-opacity="0"/>
</radialGradient>
</defs>
</svg>
