<svg width="292" height="34" viewBox="0 0 292 34" fill="none" xmlns="http://www.w3.org/2000/svg">
<path d="M0.202696 1.01H16.4427V3.81H3.5277V26H0.202696V1.01ZM18.7459 7.905H21.7209V15.115H30.8909V7.905H33.8659V26H30.8909V17.67H21.7209V26H18.7459V7.905ZM40.1858 33.21C39.8358 33.21 39.4858 33.1867 39.1358 33.14C38.7858 33.0933 38.4475 33.0117 38.1208 32.895V30.165C38.4008 30.2583 38.6808 30.3517 38.9608 30.445C39.2642 30.5383 39.5675 30.585 39.8708 30.585C40.4775 30.585 40.9675 30.445 41.3408 30.165C41.7142 29.885 42.0408 29.4767 42.3208 28.94L43.5458 25.895L36.3708 7.905H39.7308L45.0158 22.71H45.0858L50.1608 7.905H53.3108L45.4358 28.38C45.0858 29.2667 44.7358 30.0133 44.3858 30.62C44.0592 31.2267 43.6858 31.7167 43.2658 32.09C42.8692 32.4867 42.4142 32.7667 41.9008 32.93C41.4108 33.1167 40.8392 33.21 40.1858 33.21ZM66.6808 18.65C66.1442 18.8833 65.3975 19.105 64.4408 19.315C63.4842 19.525 62.4808 19.63 61.4308 19.63C59.1908 19.63 57.5925 19.1517 56.6358 18.195C55.6792 17.215 55.2008 15.85 55.2008 14.1V7.905H58.1758V13.61C58.1758 14.8 58.4442 15.6867 58.9808 16.27C59.5408 16.83 60.5442 17.11 61.9908 17.11C62.8775 17.11 63.7525 17.0167 64.6158 16.83C65.4792 16.6433 66.1675 16.4333 66.6808 16.2V7.905H69.6558V26H66.6808V18.65ZM74.1511 7.905H77.1261V16.55L85.4211 7.905H89.3761L81.3611 15.745L90.3211 26H86.5061L78.9461 17.39L77.1261 19.175V26H74.1511V7.905ZM95.724 4.65H92.749V1.01H95.724V4.65ZM92.749 7.905H95.724V26H92.749V7.905ZM107.823 26.385C106.446 26.385 105.221 26.1633 104.148 25.72C103.098 25.2767 102.211 24.6467 101.488 23.83C100.788 23.0133 100.251 22.045 99.8778 20.925C99.5278 19.805 99.3528 18.5567 99.3528 17.18C99.3528 15.8267 99.5278 14.5667 99.8778 13.4C100.228 12.21 100.753 11.1833 101.453 10.32C102.176 9.43333 103.063 8.745 104.113 8.255C105.186 7.74167 106.446 7.485 107.893 7.485C108.919 7.485 109.876 7.61333 110.763 7.87C111.673 8.10333 112.466 8.47667 113.143 8.99C113.843 9.50333 114.414 10.1567 114.858 10.95C115.301 11.72 115.581 12.6417 115.698 13.715H112.618C112.384 12.5717 111.894 11.685 111.148 11.055C110.401 10.425 109.398 10.11 108.138 10.11C107.064 10.11 106.166 10.3083 105.443 10.705C104.719 11.1017 104.136 11.6267 103.693 12.28C103.273 12.9333 102.969 13.6917 102.783 14.555C102.596 15.395 102.503 16.27 102.503 17.18C102.503 18.02 102.596 18.8367 102.783 19.63C102.993 20.4233 103.308 21.135 103.728 21.765C104.148 22.3717 104.684 22.8617 105.338 23.235C106.014 23.6083 106.831 23.795 107.788 23.795C109.258 23.795 110.401 23.41 111.218 22.64C112.058 21.87 112.571 20.785 112.758 19.385H115.803C115.476 21.6483 114.648 23.3867 113.318 24.6C111.988 25.79 110.156 26.385 107.823 26.385ZM123.507 10.53H117.032V7.905H132.957V10.53H126.482V26H123.507V10.53ZM135.508 7.905H138.483V14.835H144.923C146.696 14.835 148.119 15.325 149.193 16.305C150.266 17.2617 150.803 18.615 150.803 20.365C150.803 22.0683 150.289 23.4333 149.263 24.46C148.236 25.4867 146.836 26 145.063 26H135.508V7.905ZM143.978 23.375C146.474 23.375 147.723 22.3717 147.723 20.365C147.723 18.3817 146.474 17.39 143.978 17.39H138.483V23.375H143.978ZM165.625 33.21C165.275 33.21 164.925 33.1867 164.575 33.14C164.225 33.0933 163.887 33.0117 163.56 32.895V30.165C163.84 30.2583 164.12 30.3517 164.4 30.445C164.704 30.5383 165.007 30.585 165.31 30.585C165.917 30.585 166.407 30.445 166.78 30.165C167.154 29.885 167.48 29.4767 167.76 28.94L168.985 25.895L161.81 7.905H165.17L170.455 22.71H170.525L175.6 7.905H178.75L170.875 28.38C170.525 29.2667 170.175 30.0133 169.825 30.62C169.499 31.2267 169.125 31.7167 168.705 32.09C168.309 32.4867 167.854 32.7667 167.34 32.93C166.85 33.1167 166.279 33.21 165.625 33.21ZM191.116 7.905H194.091V10.355H194.161C194.651 9.35167 195.421 8.62833 196.471 8.185C197.521 7.71833 198.676 7.485 199.936 7.485C201.336 7.485 202.55 7.74167 203.576 8.255C204.626 8.76833 205.49 9.46833 206.166 10.355C206.866 11.2183 207.391 12.2217 207.741 13.365C208.091 14.5083 208.266 15.7217 208.266 17.005C208.266 18.3117 208.091 19.5367 207.741 20.68C207.415 21.8 206.901 22.7917 206.201 23.655C205.525 24.495 204.661 25.16 203.611 25.65C202.585 26.14 201.383 26.385 200.006 26.385C199.54 26.385 199.038 26.3383 198.501 26.245C197.965 26.1517 197.428 26 196.891 25.79C196.355 25.58 195.841 25.3 195.351 24.95C194.885 24.5767 194.488 24.1217 194.161 23.585H194.091V32.895H191.116V7.905ZM199.691 23.795C200.695 23.795 201.546 23.5967 202.246 23.2C202.946 22.8033 203.506 22.2783 203.926 21.625C204.346 20.9717 204.65 20.225 204.836 19.385C205.023 18.545 205.116 17.6817 205.116 16.795C205.116 15.955 205 15.1383 204.766 14.345C204.556 13.5283 204.218 12.805 203.751 12.175C203.308 11.545 202.725 11.0433 202.001 10.67C201.301 10.2967 200.473 10.11 199.516 10.11C198.513 10.11 197.661 10.3083 196.961 10.705C196.261 11.1017 195.69 11.6267 195.246 12.28C194.803 12.91 194.476 13.6333 194.266 14.45C194.08 15.2667 193.986 16.095 193.986 16.935C193.986 17.8217 194.091 18.685 194.301 19.525C194.511 20.3417 194.838 21.065 195.281 21.695C195.748 22.325 196.343 22.8383 197.066 23.235C197.79 23.6083 198.665 23.795 199.691 23.795ZM219.564 26.385C218.117 26.385 216.845 26.1517 215.749 25.685C214.675 25.195 213.765 24.53 213.019 23.69C212.272 22.8267 211.712 21.8233 211.339 20.68C210.965 19.5367 210.779 18.3 210.779 16.97C210.779 15.64 210.965 14.4033 211.339 13.26C211.712 12.0933 212.272 11.09 213.019 10.25C213.765 9.38667 214.675 8.71 215.749 8.22C216.845 7.73 218.117 7.485 219.564 7.485C220.987 7.485 222.247 7.73 223.344 8.22C224.44 8.71 225.362 9.38667 226.109 10.25C226.855 11.09 227.415 12.0933 227.789 13.26C228.162 14.4033 228.349 15.64 228.349 16.97C228.349 18.3 228.162 19.5367 227.789 20.68C227.415 21.8233 226.855 22.8267 226.109 23.69C225.362 24.53 224.44 25.195 223.344 25.685C222.247 26.1517 220.987 26.385 219.564 26.385ZM219.564 23.795C220.334 23.795 221.057 23.6433 221.734 23.34C222.434 23.0367 223.04 22.605 223.554 22.045C224.067 21.4617 224.464 20.75 224.744 19.91C225.047 19.0467 225.199 18.0667 225.199 16.97C225.199 15.8733 225.047 14.905 224.744 14.065C224.464 13.2017 224.067 12.4783 223.554 11.895C223.04 11.3117 222.434 10.8683 221.734 10.565C221.057 10.2617 220.334 10.11 219.564 10.11C218.794 10.11 218.059 10.2617 217.359 10.565C216.682 10.8683 216.087 11.3117 215.574 11.895C215.06 12.4783 214.652 13.2017 214.349 14.065C214.069 14.905 213.929 15.8733 213.929 16.97C213.929 18.0667 214.069 19.0467 214.349 19.91C214.652 20.75 215.06 21.4617 215.574 22.045C216.087 22.605 216.682 23.0367 217.359 23.34C218.059 23.6433 218.794 23.795 219.564 23.795ZM239.941 26.385C237.608 26.385 235.718 25.79 234.271 24.6C232.848 23.41 231.95 21.5667 231.576 19.07C231.436 18.09 231.366 16.9933 231.366 15.78C231.366 14.9167 231.39 14.0183 231.436 13.085C231.506 12.1517 231.611 11.23 231.751 10.32C231.915 9.41 232.125 8.535 232.381 7.695C232.661 6.855 233.023 6.09667 233.466 5.42C234.26 4.18333 235.228 3.27333 236.371 2.69C237.515 2.08333 238.95 1.72167 240.676 1.605C241.82 1.51167 242.776 1.40667 243.546 1.29C244.316 1.17333 244.748 0.881666 244.841 0.415H247.816C247.77 1.325 247.571 2.025 247.221 2.515C246.871 3.005 246.381 3.37833 245.751 3.635C245.121 3.86833 244.351 4.03167 243.441 4.125C242.531 4.195 241.47 4.27667 240.256 4.37C239.253 4.44 238.378 4.67333 237.631 5.07C236.885 5.46667 236.243 6.00333 235.706 6.68C235.193 7.33333 234.773 8.115 234.446 9.025C234.12 9.91167 233.886 10.8917 233.746 11.965H233.851C234.365 10.775 235.158 9.795 236.231 9.025C237.328 8.255 238.646 7.87 240.186 7.87C242.73 7.87 244.736 8.66333 246.206 10.25C247.676 11.8367 248.411 14.1233 248.411 17.11C248.411 18.6267 248.201 19.9683 247.781 21.135C247.385 22.2783 246.813 23.2467 246.066 24.04C245.32 24.81 244.421 25.3933 243.371 25.79C242.345 26.1867 241.201 26.385 239.941 26.385ZM239.976 23.865C240.676 23.865 241.353 23.725 242.006 23.445C242.66 23.1417 243.231 22.71 243.721 22.15C244.211 21.59 244.608 20.9017 244.911 20.085C245.215 19.245 245.366 18.2767 245.366 17.18C245.366 15.0567 244.876 13.3883 243.896 12.175C242.916 10.9617 241.586 10.355 239.906 10.355C238.226 10.355 236.885 10.9733 235.881 12.21C234.901 13.4233 234.411 15.0917 234.411 17.215C234.411 19.2683 234.901 20.89 235.881 22.08C236.861 23.27 238.226 23.865 239.976 23.865ZM259.725 26.385C258.278 26.385 257.006 26.1517 255.91 25.685C254.836 25.195 253.926 24.53 253.18 23.69C252.433 22.8267 251.873 21.8233 251.5 20.68C251.126 19.5367 250.94 18.3 250.94 16.97C250.94 15.64 251.126 14.4033 251.5 13.26C251.873 12.0933 252.433 11.09 253.18 10.25C253.926 9.38667 254.836 8.71 255.91 8.22C257.006 7.73 258.278 7.485 259.725 7.485C261.148 7.485 262.408 7.73 263.505 8.22C264.601 8.71 265.523 9.38667 266.27 10.25C267.016 11.09 267.576 12.0933 267.95 13.26C268.323 14.4033 268.51 15.64 268.51 16.97C268.51 18.3 268.323 19.5367 267.95 20.68C267.576 21.8233 267.016 22.8267 266.27 23.69C265.523 24.53 264.601 25.195 263.505 25.685C262.408 26.1517 261.148 26.385 259.725 26.385ZM259.725 23.795C260.495 23.795 261.218 23.6433 261.895 23.34C262.595 23.0367 263.201 22.605 263.715 22.045C264.228 21.4617 264.625 20.75 264.905 19.91C265.208 19.0467 265.36 18.0667 265.36 16.97C265.36 15.8733 265.208 14.905 264.905 14.065C264.625 13.2017 264.228 12.4783 263.715 11.895C263.201 11.3117 262.595 10.8683 261.895 10.565C261.218 10.2617 260.495 10.11 259.725 10.11C258.955 10.11 258.22 10.2617 257.52 10.565C256.843 10.8683 256.248 11.3117 255.735 11.895C255.221 12.4783 254.813 13.2017 254.51 14.065C254.23 14.905 254.09 15.8733 254.09 16.97C254.09 18.0667 254.23 19.0467 254.51 19.91C254.813 20.75 255.221 21.4617 255.735 22.045C256.248 22.605 256.843 23.0367 257.52 23.34C258.22 23.6433 258.955 23.795 259.725 23.795ZM276.392 10.53H269.917V7.905H285.842V10.53H279.367V26H276.392V10.53ZM291.369 4.65H288.394V1.01H291.369V4.65ZM288.394 7.905H291.369V26H288.394V7.905Z" fill="black"/>
<path d="M0.202696 1.01H16.4427V3.81H3.5277V26H0.202696V1.01ZM18.7459 7.905H21.7209V15.115H30.8909V7.905H33.8659V26H30.8909V17.67H21.7209V26H18.7459V7.905ZM40.1858 33.21C39.8358 33.21 39.4858 33.1867 39.1358 33.14C38.7858 33.0933 38.4475 33.0117 38.1208 32.895V30.165C38.4008 30.2583 38.6808 30.3517 38.9608 30.445C39.2642 30.5383 39.5675 30.585 39.8708 30.585C40.4775 30.585 40.9675 30.445 41.3408 30.165C41.7142 29.885 42.0408 29.4767 42.3208 28.94L43.5458 25.895L36.3708 7.905H39.7308L45.0158 22.71H45.0858L50.1608 7.905H53.3108L45.4358 28.38C45.0858 29.2667 44.7358 30.0133 44.3858 30.62C44.0592 31.2267 43.6858 31.7167 43.2658 32.09C42.8692 32.4867 42.4142 32.7667 41.9008 32.93C41.4108 33.1167 40.8392 33.21 40.1858 33.21ZM66.6808 18.65C66.1442 18.8833 65.3975 19.105 64.4408 19.315C63.4842 19.525 62.4808 19.63 61.4308 19.63C59.1908 19.63 57.5925 19.1517 56.6358 18.195C55.6792 17.215 55.2008 15.85 55.2008 14.1V7.905H58.1758V13.61C58.1758 14.8 58.4442 15.6867 58.9808 16.27C59.5408 16.83 60.5442 17.11 61.9908 17.11C62.8775 17.11 63.7525 17.0167 64.6158 16.83C65.4792 16.6433 66.1675 16.4333 66.6808 16.2V7.905H69.6558V26H66.6808V18.65ZM74.1511 7.905H77.1261V16.55L85.4211 7.905H89.3761L81.3611 15.745L90.3211 26H86.5061L78.9461 17.39L77.1261 19.175V26H74.1511V7.905ZM95.724 4.65H92.749V1.01H95.724V4.65ZM92.749 7.905H95.724V26H92.749V7.905ZM107.823 26.385C106.446 26.385 105.221 26.1633 104.148 25.72C103.098 25.2767 102.211 24.6467 101.488 23.83C100.788 23.0133 100.251 22.045 99.8778 20.925C99.5278 19.805 99.3528 18.5567 99.3528 17.18C99.3528 15.8267 99.5278 14.5667 99.8778 13.4C100.228 12.21 100.753 11.1833 101.453 10.32C102.176 9.43333 103.063 8.745 104.113 8.255C105.186 7.74167 106.446 7.485 107.893 7.485C108.919 7.485 109.876 7.61333 110.763 7.87C111.673 8.10333 112.466 8.47667 113.143 8.99C113.843 9.50333 114.414 10.1567 114.858 10.95C115.301 11.72 115.581 12.6417 115.698 13.715H112.618C112.384 12.5717 111.894 11.685 111.148 11.055C110.401 10.425 109.398 10.11 108.138 10.11C107.064 10.11 106.166 10.3083 105.443 10.705C104.719 11.1017 104.136 11.6267 103.693 12.28C103.273 12.9333 102.969 13.6917 102.783 14.555C102.596 15.395 102.503 16.27 102.503 17.18C102.503 18.02 102.596 18.8367 102.783 19.63C102.993 20.4233 103.308 21.135 103.728 21.765C104.148 22.3717 104.684 22.8617 105.338 23.235C106.014 23.6083 106.831 23.795 107.788 23.795C109.258 23.795 110.401 23.41 111.218 22.64C112.058 21.87 112.571 20.785 112.758 19.385H115.803C115.476 21.6483 114.648 23.3867 113.318 24.6C111.988 25.79 110.156 26.385 107.823 26.385ZM123.507 10.53H117.032V7.905H132.957V10.53H126.482V26H123.507V10.53ZM135.508 7.905H138.483V14.835H144.923C146.696 14.835 148.119 15.325 149.193 16.305C150.266 17.2617 150.803 18.615 150.803 20.365C150.803 22.0683 150.289 23.4333 149.263 24.46C148.236 25.4867 146.836 26 145.063 26H135.508V7.905ZM143.978 23.375C146.474 23.375 147.723 22.3717 147.723 20.365C147.723 18.3817 146.474 17.39 143.978 17.39H138.483V23.375H143.978ZM165.625 33.21C165.275 33.21 164.925 33.1867 164.575 33.14C164.225 33.0933 163.887 33.0117 163.56 32.895V30.165C163.84 30.2583 164.12 30.3517 164.4 30.445C164.704 30.5383 165.007 30.585 165.31 30.585C165.917 30.585 166.407 30.445 166.78 30.165C167.154 29.885 167.48 29.4767 167.76 28.94L168.985 25.895L161.81 7.905H165.17L170.455 22.71H170.525L175.6 7.905H178.75L170.875 28.38C170.525 29.2667 170.175 30.0133 169.825 30.62C169.499 31.2267 169.125 31.7167 168.705 32.09C168.309 32.4867 167.854 32.7667 167.34 32.93C166.85 33.1167 166.279 33.21 165.625 33.21ZM191.116 7.905H194.091V10.355H194.161C194.651 9.35167 195.421 8.62833 196.471 8.185C197.521 7.71833 198.676 7.485 199.936 7.485C201.336 7.485 202.55 7.74167 203.576 8.255C204.626 8.76833 205.49 9.46833 206.166 10.355C206.866 11.2183 207.391 12.2217 207.741 13.365C208.091 14.5083 208.266 15.7217 208.266 17.005C208.266 18.3117 208.091 19.5367 207.741 20.68C207.415 21.8 206.901 22.7917 206.201 23.655C205.525 24.495 204.661 25.16 203.611 25.65C202.585 26.14 201.383 26.385 200.006 26.385C199.54 26.385 199.038 26.3383 198.501 26.245C197.965 26.1517 197.428 26 196.891 25.79C196.355 25.58 195.841 25.3 195.351 24.95C194.885 24.5767 194.488 24.1217 194.161 23.585H194.091V32.895H191.116V7.905ZM199.691 23.795C200.695 23.795 201.546 23.5967 202.246 23.2C202.946 22.8033 203.506 22.2783 203.926 21.625C204.346 20.9717 204.65 20.225 204.836 19.385C205.023 18.545 205.116 17.6817 205.116 16.795C205.116 15.955 205 15.1383 204.766 14.345C204.556 13.5283 204.218 12.805 203.751 12.175C203.308 11.545 202.725 11.0433 202.001 10.67C201.301 10.2967 200.473 10.11 199.516 10.11C198.513 10.11 197.661 10.3083 196.961 10.705C196.261 11.1017 195.69 11.6267 195.246 12.28C194.803 12.91 194.476 13.6333 194.266 14.45C194.08 15.2667 193.986 16.095 193.986 16.935C193.986 17.8217 194.091 18.685 194.301 19.525C194.511 20.3417 194.838 21.065 195.281 21.695C195.748 22.325 196.343 22.8383 197.066 23.235C197.79 23.6083 198.665 23.795 199.691 23.795ZM219.564 26.385C218.117 26.385 216.845 26.1517 215.749 25.685C214.675 25.195 213.765 24.53 213.019 23.69C212.272 22.8267 211.712 21.8233 211.339 20.68C210.965 19.5367 210.779 18.3 210.779 16.97C210.779 15.64 210.965 14.4033 211.339 13.26C211.712 12.0933 212.272 11.09 213.019 10.25C213.765 9.38667 214.675 8.71 215.749 8.22C216.845 7.73 218.117 7.485 219.564 7.485C220.987 7.485 222.247 7.73 223.344 8.22C224.44 8.71 225.362 9.38667 226.109 10.25C226.855 11.09 227.415 12.0933 227.789 13.26C228.162 14.4033 228.349 15.64 228.349 16.97C228.349 18.3 228.162 19.5367 227.789 20.68C227.415 21.8233 226.855 22.8267 226.109 23.69C225.362 24.53 224.44 25.195 223.344 25.685C222.247 26.1517 220.987 26.385 219.564 26.385ZM219.564 23.795C220.334 23.795 221.057 23.6433 221.734 23.34C222.434 23.0367 223.04 22.605 223.554 22.045C224.067 21.4617 224.464 20.75 224.744 19.91C225.047 19.0467 225.199 18.0667 225.199 16.97C225.199 15.8733 225.047 14.905 224.744 14.065C224.464 13.2017 224.067 12.4783 223.554 11.895C223.04 11.3117 222.434 10.8683 221.734 10.565C221.057 10.2617 220.334 10.11 219.564 10.11C218.794 10.11 218.059 10.2617 217.359 10.565C216.682 10.8683 216.087 11.3117 215.574 11.895C215.06 12.4783 214.652 13.2017 214.349 14.065C214.069 14.905 213.929 15.8733 213.929 16.97C213.929 18.0667 214.069 19.0467 214.349 19.91C214.652 20.75 215.06 21.4617 215.574 22.045C216.087 22.605 216.682 23.0367 217.359 23.34C218.059 23.6433 218.794 23.795 219.564 23.795ZM239.941 26.385C237.608 26.385 235.718 25.79 234.271 24.6C232.848 23.41 231.95 21.5667 231.576 19.07C231.436 18.09 231.366 16.9933 231.366 15.78C231.366 14.9167 231.39 14.0183 231.436 13.085C231.506 12.1517 231.611 11.23 231.751 10.32C231.915 9.41 232.125 8.535 232.381 7.695C232.661 6.855 233.023 6.09667 233.466 5.42C234.26 4.18333 235.228 3.27333 236.371 2.69C237.515 2.08333 238.95 1.72167 240.676 1.605C241.82 1.51167 242.776 1.40667 243.546 1.29C244.316 1.17333 244.748 0.881666 244.841 0.415H247.816C247.77 1.325 247.571 2.025 247.221 2.515C246.871 3.005 246.381 3.37833 245.751 3.635C245.121 3.86833 244.351 4.03167 243.441 4.125C242.531 4.195 241.47 4.27667 240.256 4.37C239.253 4.44 238.378 4.67333 237.631 5.07C236.885 5.46667 236.243 6.00333 235.706 6.68C235.193 7.33333 234.773 8.115 234.446 9.025C234.12 9.91167 233.886 10.8917 233.746 11.965H233.851C234.365 10.775 235.158 9.795 236.231 9.025C237.328 8.255 238.646 7.87 240.186 7.87C242.73 7.87 244.736 8.66333 246.206 10.25C247.676 11.8367 248.411 14.1233 248.411 17.11C248.411 18.6267 248.201 19.9683 247.781 21.135C247.385 22.2783 246.813 23.2467 246.066 24.04C245.32 24.81 244.421 25.3933 243.371 25.79C242.345 26.1867 241.201 26.385 239.941 26.385ZM239.976 23.865C240.676 23.865 241.353 23.725 242.006 23.445C242.66 23.1417 243.231 22.71 243.721 22.15C244.211 21.59 244.608 20.9017 244.911 20.085C245.215 19.245 245.366 18.2767 245.366 17.18C245.366 15.0567 244.876 13.3883 243.896 12.175C242.916 10.9617 241.586 10.355 239.906 10.355C238.226 10.355 236.885 10.9733 235.881 12.21C234.901 13.4233 234.411 15.0917 234.411 17.215C234.411 19.2683 234.901 20.89 235.881 22.08C236.861 23.27 238.226 23.865 239.976 23.865ZM259.725 26.385C258.278 26.385 257.006 26.1517 255.91 25.685C254.836 25.195 253.926 24.53 253.18 23.69C252.433 22.8267 251.873 21.8233 251.5 20.68C251.126 19.5367 250.94 18.3 250.94 16.97C250.94 15.64 251.126 14.4033 251.5 13.26C251.873 12.0933 252.433 11.09 253.18 10.25C253.926 9.38667 254.836 8.71 255.91 8.22C257.006 7.73 258.278 7.485 259.725 7.485C261.148 7.485 262.408 7.73 263.505 8.22C264.601 8.71 265.523 9.38667 266.27 10.25C267.016 11.09 267.576 12.0933 267.95 13.26C268.323 14.4033 268.51 15.64 268.51 16.97C268.51 18.3 268.323 19.5367 267.95 20.68C267.576 21.8233 267.016 22.8267 266.27 23.69C265.523 24.53 264.601 25.195 263.505 25.685C262.408 26.1517 261.148 26.385 259.725 26.385ZM259.725 23.795C260.495 23.795 261.218 23.6433 261.895 23.34C262.595 23.0367 263.201 22.605 263.715 22.045C264.228 21.4617 264.625 20.75 264.905 19.91C265.208 19.0467 265.36 18.0667 265.36 16.97C265.36 15.8733 265.208 14.905 264.905 14.065C264.625 13.2017 264.228 12.4783 263.715 11.895C263.201 11.3117 262.595 10.8683 261.895 10.565C261.218 10.2617 260.495 10.11 259.725 10.11C258.955 10.11 258.22 10.2617 257.52 10.565C256.843 10.8683 256.248 11.3117 255.735 11.895C255.221 12.4783 254.813 13.2017 254.51 14.065C254.23 14.905 254.09 15.8733 254.09 16.97C254.09 18.0667 254.23 19.0467 254.51 19.91C254.813 20.75 255.221 21.4617 255.735 22.045C256.248 22.605 256.843 23.0367 257.52 23.34C258.22 23.6433 258.955 23.795 259.725 23.795ZM276.392 10.53H269.917V7.905H285.842V10.53H279.367V26H276.392V10.53ZM291.369 4.65H288.394V1.01H291.369V4.65ZM288.394 7.905H291.369V26H288.394V7.905Z" fill="url(#paint0_radial_105_819)" fill-opacity="0.4"/>
<defs>
<radialGradient id="paint0_radial_105_819" cx="0" cy="0" r="1" gradientUnits="userSpaceOnUse" gradientTransform="translate(153.714 8.04226) rotate(14.8686) scale(98.7992 65.9481)">
<stop stop-color="white"/>
<stop offset="1" stop-color="white" stop-opacity="0"/>
</radialGradient>
</defs>
</svg>
