<svg width="246" height="67" viewBox="0 0 246 67" fill="none" xmlns="http://www.w3.org/2000/svg">
<path d="M0.221074 1.01H3.54607V26H0.221074V1.01ZM8.64869 7.905H11.6237V15.115H20.7937V7.905H23.7687V26H20.7937V17.67H11.6237V26H8.64869V7.905ZM26.0987 23.375H28.2337C28.4903 22.885 28.747 22.22 29.0037 21.38C29.2837 20.5167 29.5287 19.5717 29.7387 18.545C29.972 17.495 30.1587 16.3867 30.2987 15.22C30.4387 14.0533 30.5087 12.91 30.5087 11.79V7.905H43.5987V23.375H46.0487V31.495H43.2137V26H28.9337V31.495H26.0987V23.375ZM40.6237 23.375V10.53H33.4137V12.07C33.4137 13.2133 33.3437 14.3567 33.2037 15.5C33.087 16.62 32.9237 17.6817 32.7137 18.685C32.5037 19.6883 32.2703 20.5983 32.0137 21.415C31.7803 22.2317 31.547 22.885 31.3137 23.375H40.6237ZM48.844 7.905H51.819V22.675L60.359 7.905H64.174V26H61.199V11.23L52.659 26H48.844V7.905ZM68.6682 7.905H77.0332C77.8266 7.905 78.5849 7.96333 79.3082 8.08C80.0549 8.19667 80.7199 8.41833 81.3032 8.745C81.8866 9.04833 82.3532 9.49167 82.7032 10.075C83.0532 10.6583 83.2282 11.405 83.2282 12.315C83.2282 13.295 82.9949 14.0883 82.5282 14.695C82.0616 15.3017 81.4082 15.8033 80.5682 16.2V16.235C81.6182 16.445 82.4466 16.935 83.0532 17.705C83.6832 18.475 83.9982 19.4667 83.9982 20.68C83.9982 21.45 83.8582 22.1617 83.5782 22.815C83.3216 23.4683 82.9482 24.0283 82.4582 24.495C81.9682 24.9617 81.3849 25.335 80.7082 25.615C80.0316 25.8717 79.2966 26 78.5032 26H68.6682V7.905ZM77.9432 23.48C78.9232 23.48 79.6582 23.2 80.1482 22.64C80.6616 22.0567 80.9182 21.3333 80.9182 20.47C80.9182 19.6533 80.6499 19 80.1132 18.51C79.5766 18.02 78.6782 17.775 77.4182 17.775H71.6082V23.48H77.9432ZM76.7182 15.325C78.0016 15.325 78.8882 15.0917 79.3782 14.625C79.8916 14.1583 80.1482 13.54 80.1482 12.77C80.1482 12.0233 79.9032 11.4517 79.4132 11.055C78.9232 10.635 78.0249 10.425 76.7182 10.425H71.6082V15.325H76.7182ZM90.7196 4.65H87.7446V1.01H90.7196V4.65ZM87.7446 7.905H90.7196V26H87.7446V7.905ZM93.1934 23.375H95.3284C95.585 22.885 95.8417 22.22 96.0984 21.38C96.3784 20.5167 96.6234 19.5717 96.8334 18.545C97.0667 17.495 97.2534 16.3867 97.3934 15.22C97.5334 14.0533 97.6034 12.91 97.6034 11.79V7.905H110.693V23.375H113.143V31.495H110.308V26H96.0284V31.495H93.1934V23.375ZM107.718 23.375V10.53H100.508V12.07C100.508 13.2133 100.438 14.3567 100.298 15.5C100.182 16.62 100.018 17.6817 99.8084 18.685C99.5984 19.6883 99.365 20.5983 99.1084 21.415C98.875 22.2317 98.6417 22.885 98.4084 23.375H107.718ZM117.794 33.21C117.444 33.21 117.094 33.1867 116.744 33.14C116.394 33.0933 116.055 33.0117 115.729 32.895V30.165C116.009 30.2583 116.289 30.3517 116.569 30.445C116.872 30.5383 117.175 30.585 117.479 30.585C118.085 30.585 118.575 30.445 118.949 30.165C119.322 29.885 119.649 29.4767 119.929 28.94L121.154 25.895L113.979 7.905H117.339L122.624 22.71H122.694L127.769 7.905H130.919L123.044 28.38C122.694 29.2667 122.344 30.0133 121.994 30.62C121.667 31.2267 121.294 31.7167 120.874 32.09C120.477 32.4867 120.022 32.7667 119.509 32.93C119.019 33.1167 118.447 33.21 117.794 33.21ZM138.444 26.385C137.627 26.385 136.857 26.2917 136.134 26.105C135.41 25.9417 134.769 25.6617 134.209 25.265C133.672 24.845 133.24 24.32 132.914 23.69C132.61 23.0367 132.459 22.255 132.459 21.345C132.459 20.3183 132.634 19.4783 132.984 18.825C133.334 18.1717 133.789 17.6467 134.349 17.25C134.932 16.83 135.585 16.515 136.309 16.305C137.055 16.095 137.814 15.92 138.584 15.78C139.4 15.6167 140.17 15.5 140.894 15.43C141.64 15.3367 142.294 15.22 142.854 15.08C143.414 14.9167 143.857 14.695 144.184 14.415C144.51 14.1117 144.674 13.68 144.674 13.12C144.674 12.4667 144.545 11.9417 144.289 11.545C144.055 11.1483 143.74 10.845 143.344 10.635C142.97 10.425 142.539 10.285 142.049 10.215C141.582 10.145 141.115 10.11 140.649 10.11C139.389 10.11 138.339 10.355 137.499 10.845C136.659 11.3117 136.204 12.21 136.134 13.54H133.159C133.205 12.42 133.439 11.475 133.859 10.705C134.279 9.935 134.839 9.31667 135.539 8.85C136.239 8.36 137.032 8.01 137.919 7.8C138.829 7.59 139.797 7.485 140.824 7.485C141.64 7.485 142.445 7.54333 143.239 7.66C144.055 7.77666 144.79 8.02167 145.444 8.395C146.097 8.745 146.622 9.24667 147.019 9.9C147.415 10.5533 147.614 11.405 147.614 12.455V21.765C147.614 22.465 147.649 22.9783 147.719 23.305C147.812 23.6317 148.092 23.795 148.559 23.795C148.769 23.795 149.072 23.7367 149.469 23.62V25.93C148.955 26.2333 148.244 26.385 147.334 26.385C146.564 26.385 145.945 26.175 145.479 25.755C145.035 25.3117 144.814 24.6 144.814 23.62C143.997 24.6 143.04 25.3117 141.944 25.755C140.87 26.175 139.704 26.385 138.444 26.385ZM139.109 23.795C140.089 23.795 140.929 23.6667 141.629 23.41C142.329 23.13 142.9 22.7917 143.344 22.395C143.787 21.975 144.114 21.5317 144.324 21.065C144.534 20.575 144.639 20.12 144.639 19.7V16.655C144.265 16.9583 143.775 17.1683 143.169 17.285C142.562 17.4017 141.92 17.5067 141.244 17.6C140.59 17.6933 139.925 17.7867 139.249 17.88C138.572 17.9733 137.965 18.1367 137.429 18.37C136.892 18.6033 136.449 18.9417 136.099 19.385C135.772 19.805 135.609 20.3883 135.609 21.135C135.609 21.625 135.702 22.045 135.889 22.395C136.099 22.7217 136.355 22.99 136.659 23.2C136.985 23.41 137.359 23.5617 137.779 23.655C138.199 23.7483 138.642 23.795 139.109 23.795ZM152.098 26.21C151.794 26.21 151.479 26.175 151.153 26.105C150.826 26.0583 150.558 26.0117 150.348 25.965V23.34C150.581 23.41 150.791 23.4567 150.978 23.48C151.188 23.5033 151.386 23.515 151.573 23.515C152.343 23.515 152.926 23.2117 153.323 22.605C153.743 21.9983 154.046 21.065 154.233 19.805C154.443 18.545 154.571 16.935 154.618 14.975C154.664 12.9917 154.711 10.635 154.758 7.905H167.463V26H164.488V10.53H157.628C157.558 12.6533 157.476 14.6717 157.383 16.585C157.313 18.475 157.114 20.1317 156.788 21.555C156.461 22.9783 155.936 24.11 155.213 24.95C154.489 25.79 153.451 26.21 152.098 26.21ZM172.134 7.905H175.109V14.835H181.549C183.323 14.835 184.746 15.325 185.819 16.305C186.893 17.2617 187.429 18.615 187.429 20.365C187.429 22.0683 186.916 23.4333 185.889 24.46C184.863 25.4867 183.463 26 181.689 26H172.134V7.905ZM180.604 23.375C183.101 23.375 184.349 22.3717 184.349 20.365C184.349 18.3817 183.101 17.39 180.604 17.39H175.109V23.375H180.604ZM190.656 7.905H193.631V15.115H202.801V7.905H205.776V26H202.801V17.67H193.631V26H190.656V7.905ZM210.24 7.905H213.215V22.675L221.755 7.905H225.57V26H222.595V11.23L214.055 26H210.24V7.905ZM230.065 7.905H233.04V22.675L241.58 7.905H245.395V26H242.42V11.23L233.88 26H230.065V7.905ZM237.73 5.245C237.03 5.245 236.376 5.14 235.77 4.93C235.163 4.72 234.626 4.41667 234.16 4.02C233.716 3.62333 233.355 3.145 233.075 2.585C232.818 2.00167 232.69 1.33667 232.69 0.59H235.175C235.221 2.31667 236.061 3.18 237.695 3.18C238.511 3.18 239.13 2.95833 239.55 2.515C239.993 2.04833 240.215 1.40667 240.215 0.59H242.7C242.7 1.29 242.571 1.93167 242.315 2.515C242.058 3.09833 241.708 3.58833 241.265 3.985C240.821 4.38167 240.296 4.69666 239.69 4.93C239.083 5.14 238.43 5.245 237.73 5.245ZM77.6917 42.905H92.4617V61H89.4867V45.53H80.6667V61H77.6917V42.905ZM100.085 39.65H97.1098V36.01H100.085V39.65ZM97.1098 42.905H100.085V61H97.1098V42.905ZM102.559 58.375H104.694C104.95 57.885 105.207 57.22 105.464 56.38C105.744 55.5167 105.989 54.5717 106.199 53.545C106.432 52.495 106.619 51.3867 106.759 50.22C106.899 49.0533 106.969 47.91 106.969 46.79V42.905H120.059V58.375H122.509V66.495H119.674V61H105.394V66.495H102.559V58.375ZM117.084 58.375V45.53H109.874V47.07C109.874 48.2133 109.804 49.3567 109.664 50.5C109.547 51.62 109.384 52.6817 109.174 53.685C108.964 54.6883 108.73 55.5983 108.474 56.415C108.24 57.2317 108.007 57.885 107.774 58.375H117.084ZM130.169 51.48L123.869 42.905H127.684L132.024 49.24L136.539 42.905H140.109L133.879 51.235L140.879 61H137.064L132.024 53.51L126.984 61H123.379L130.169 51.48ZM146.569 39.65H143.594V36.01H146.569V39.65ZM143.594 42.905H146.569V61H143.594V42.905ZM149.043 58.375H151.178C151.435 57.885 151.691 57.22 151.948 56.38C152.228 55.5167 152.473 54.5717 152.683 53.545C152.916 52.495 153.103 51.3867 153.243 50.22C153.383 49.0533 153.453 47.91 153.453 46.79V42.905H166.543V58.375H168.993V66.495H166.158V61H151.878V66.495H149.043V58.375ZM163.568 58.375V45.53H156.358V47.07C156.358 48.2133 156.288 49.3567 156.148 50.5C156.031 51.62 155.868 52.6817 155.658 53.685C155.448 54.6883 155.215 55.5983 154.958 56.415C154.725 57.2317 154.491 57.885 154.258 58.375H163.568Z" fill="black"/>
<path d="M0.221074 1.01H3.54607V26H0.221074V1.01ZM8.64869 7.905H11.6237V15.115H20.7937V7.905H23.7687V26H20.7937V17.67H11.6237V26H8.64869V7.905ZM26.0987 23.375H28.2337C28.4903 22.885 28.747 22.22 29.0037 21.38C29.2837 20.5167 29.5287 19.5717 29.7387 18.545C29.972 17.495 30.1587 16.3867 30.2987 15.22C30.4387 14.0533 30.5087 12.91 30.5087 11.79V7.905H43.5987V23.375H46.0487V31.495H43.2137V26H28.9337V31.495H26.0987V23.375ZM40.6237 23.375V10.53H33.4137V12.07C33.4137 13.2133 33.3437 14.3567 33.2037 15.5C33.087 16.62 32.9237 17.6817 32.7137 18.685C32.5037 19.6883 32.2703 20.5983 32.0137 21.415C31.7803 22.2317 31.547 22.885 31.3137 23.375H40.6237ZM48.844 7.905H51.819V22.675L60.359 7.905H64.174V26H61.199V11.23L52.659 26H48.844V7.905ZM68.6682 7.905H77.0332C77.8266 7.905 78.5849 7.96333 79.3082 8.08C80.0549 8.19667 80.7199 8.41833 81.3032 8.745C81.8866 9.04833 82.3532 9.49167 82.7032 10.075C83.0532 10.6583 83.2282 11.405 83.2282 12.315C83.2282 13.295 82.9949 14.0883 82.5282 14.695C82.0616 15.3017 81.4082 15.8033 80.5682 16.2V16.235C81.6182 16.445 82.4466 16.935 83.0532 17.705C83.6832 18.475 83.9982 19.4667 83.9982 20.68C83.9982 21.45 83.8582 22.1617 83.5782 22.815C83.3216 23.4683 82.9482 24.0283 82.4582 24.495C81.9682 24.9617 81.3849 25.335 80.7082 25.615C80.0316 25.8717 79.2966 26 78.5032 26H68.6682V7.905ZM77.9432 23.48C78.9232 23.48 79.6582 23.2 80.1482 22.64C80.6616 22.0567 80.9182 21.3333 80.9182 20.47C80.9182 19.6533 80.6499 19 80.1132 18.51C79.5766 18.02 78.6782 17.775 77.4182 17.775H71.6082V23.48H77.9432ZM76.7182 15.325C78.0016 15.325 78.8882 15.0917 79.3782 14.625C79.8916 14.1583 80.1482 13.54 80.1482 12.77C80.1482 12.0233 79.9032 11.4517 79.4132 11.055C78.9232 10.635 78.0249 10.425 76.7182 10.425H71.6082V15.325H76.7182ZM90.7196 4.65H87.7446V1.01H90.7196V4.65ZM87.7446 7.905H90.7196V26H87.7446V7.905ZM93.1934 23.375H95.3284C95.585 22.885 95.8417 22.22 96.0984 21.38C96.3784 20.5167 96.6234 19.5717 96.8334 18.545C97.0667 17.495 97.2534 16.3867 97.3934 15.22C97.5334 14.0533 97.6034 12.91 97.6034 11.79V7.905H110.693V23.375H113.143V31.495H110.308V26H96.0284V31.495H93.1934V23.375ZM107.718 23.375V10.53H100.508V12.07C100.508 13.2133 100.438 14.3567 100.298 15.5C100.182 16.62 100.018 17.6817 99.8084 18.685C99.5984 19.6883 99.365 20.5983 99.1084 21.415C98.875 22.2317 98.6417 22.885 98.4084 23.375H107.718ZM117.794 33.21C117.444 33.21 117.094 33.1867 116.744 33.14C116.394 33.0933 116.055 33.0117 115.729 32.895V30.165C116.009 30.2583 116.289 30.3517 116.569 30.445C116.872 30.5383 117.175 30.585 117.479 30.585C118.085 30.585 118.575 30.445 118.949 30.165C119.322 29.885 119.649 29.4767 119.929 28.94L121.154 25.895L113.979 7.905H117.339L122.624 22.71H122.694L127.769 7.905H130.919L123.044 28.38C122.694 29.2667 122.344 30.0133 121.994 30.62C121.667 31.2267 121.294 31.7167 120.874 32.09C120.477 32.4867 120.022 32.7667 119.509 32.93C119.019 33.1167 118.447 33.21 117.794 33.21ZM138.444 26.385C137.627 26.385 136.857 26.2917 136.134 26.105C135.41 25.9417 134.769 25.6617 134.209 25.265C133.672 24.845 133.24 24.32 132.914 23.69C132.61 23.0367 132.459 22.255 132.459 21.345C132.459 20.3183 132.634 19.4783 132.984 18.825C133.334 18.1717 133.789 17.6467 134.349 17.25C134.932 16.83 135.585 16.515 136.309 16.305C137.055 16.095 137.814 15.92 138.584 15.78C139.4 15.6167 140.17 15.5 140.894 15.43C141.64 15.3367 142.294 15.22 142.854 15.08C143.414 14.9167 143.857 14.695 144.184 14.415C144.51 14.1117 144.674 13.68 144.674 13.12C144.674 12.4667 144.545 11.9417 144.289 11.545C144.055 11.1483 143.74 10.845 143.344 10.635C142.97 10.425 142.539 10.285 142.049 10.215C141.582 10.145 141.115 10.11 140.649 10.11C139.389 10.11 138.339 10.355 137.499 10.845C136.659 11.3117 136.204 12.21 136.134 13.54H133.159C133.205 12.42 133.439 11.475 133.859 10.705C134.279 9.935 134.839 9.31667 135.539 8.85C136.239 8.36 137.032 8.01 137.919 7.8C138.829 7.59 139.797 7.485 140.824 7.485C141.64 7.485 142.445 7.54333 143.239 7.66C144.055 7.77666 144.79 8.02167 145.444 8.395C146.097 8.745 146.622 9.24667 147.019 9.9C147.415 10.5533 147.614 11.405 147.614 12.455V21.765C147.614 22.465 147.649 22.9783 147.719 23.305C147.812 23.6317 148.092 23.795 148.559 23.795C148.769 23.795 149.072 23.7367 149.469 23.62V25.93C148.955 26.2333 148.244 26.385 147.334 26.385C146.564 26.385 145.945 26.175 145.479 25.755C145.035 25.3117 144.814 24.6 144.814 23.62C143.997 24.6 143.04 25.3117 141.944 25.755C140.87 26.175 139.704 26.385 138.444 26.385ZM139.109 23.795C140.089 23.795 140.929 23.6667 141.629 23.41C142.329 23.13 142.9 22.7917 143.344 22.395C143.787 21.975 144.114 21.5317 144.324 21.065C144.534 20.575 144.639 20.12 144.639 19.7V16.655C144.265 16.9583 143.775 17.1683 143.169 17.285C142.562 17.4017 141.92 17.5067 141.244 17.6C140.59 17.6933 139.925 17.7867 139.249 17.88C138.572 17.9733 137.965 18.1367 137.429 18.37C136.892 18.6033 136.449 18.9417 136.099 19.385C135.772 19.805 135.609 20.3883 135.609 21.135C135.609 21.625 135.702 22.045 135.889 22.395C136.099 22.7217 136.355 22.99 136.659 23.2C136.985 23.41 137.359 23.5617 137.779 23.655C138.199 23.7483 138.642 23.795 139.109 23.795ZM152.098 26.21C151.794 26.21 151.479 26.175 151.153 26.105C150.826 26.0583 150.558 26.0117 150.348 25.965V23.34C150.581 23.41 150.791 23.4567 150.978 23.48C151.188 23.5033 151.386 23.515 151.573 23.515C152.343 23.515 152.926 23.2117 153.323 22.605C153.743 21.9983 154.046 21.065 154.233 19.805C154.443 18.545 154.571 16.935 154.618 14.975C154.664 12.9917 154.711 10.635 154.758 7.905H167.463V26H164.488V10.53H157.628C157.558 12.6533 157.476 14.6717 157.383 16.585C157.313 18.475 157.114 20.1317 156.788 21.555C156.461 22.9783 155.936 24.11 155.213 24.95C154.489 25.79 153.451 26.21 152.098 26.21ZM172.134 7.905H175.109V14.835H181.549C183.323 14.835 184.746 15.325 185.819 16.305C186.893 17.2617 187.429 18.615 187.429 20.365C187.429 22.0683 186.916 23.4333 185.889 24.46C184.863 25.4867 183.463 26 181.689 26H172.134V7.905ZM180.604 23.375C183.101 23.375 184.349 22.3717 184.349 20.365C184.349 18.3817 183.101 17.39 180.604 17.39H175.109V23.375H180.604ZM190.656 7.905H193.631V15.115H202.801V7.905H205.776V26H202.801V17.67H193.631V26H190.656V7.905ZM210.24 7.905H213.215V22.675L221.755 7.905H225.57V26H222.595V11.23L214.055 26H210.24V7.905ZM230.065 7.905H233.04V22.675L241.58 7.905H245.395V26H242.42V11.23L233.88 26H230.065V7.905ZM237.73 5.245C237.03 5.245 236.376 5.14 235.77 4.93C235.163 4.72 234.626 4.41667 234.16 4.02C233.716 3.62333 233.355 3.145 233.075 2.585C232.818 2.00167 232.69 1.33667 232.69 0.59H235.175C235.221 2.31667 236.061 3.18 237.695 3.18C238.511 3.18 239.13 2.95833 239.55 2.515C239.993 2.04833 240.215 1.40667 240.215 0.59H242.7C242.7 1.29 242.571 1.93167 242.315 2.515C242.058 3.09833 241.708 3.58833 241.265 3.985C240.821 4.38167 240.296 4.69666 239.69 4.93C239.083 5.14 238.43 5.245 237.73 5.245ZM77.6917 42.905H92.4617V61H89.4867V45.53H80.6667V61H77.6917V42.905ZM100.085 39.65H97.1098V36.01H100.085V39.65ZM97.1098 42.905H100.085V61H97.1098V42.905ZM102.559 58.375H104.694C104.95 57.885 105.207 57.22 105.464 56.38C105.744 55.5167 105.989 54.5717 106.199 53.545C106.432 52.495 106.619 51.3867 106.759 50.22C106.899 49.0533 106.969 47.91 106.969 46.79V42.905H120.059V58.375H122.509V66.495H119.674V61H105.394V66.495H102.559V58.375ZM117.084 58.375V45.53H109.874V47.07C109.874 48.2133 109.804 49.3567 109.664 50.5C109.547 51.62 109.384 52.6817 109.174 53.685C108.964 54.6883 108.73 55.5983 108.474 56.415C108.24 57.2317 108.007 57.885 107.774 58.375H117.084ZM130.169 51.48L123.869 42.905H127.684L132.024 49.24L136.539 42.905H140.109L133.879 51.235L140.879 61H137.064L132.024 53.51L126.984 61H123.379L130.169 51.48ZM146.569 39.65H143.594V36.01H146.569V39.65ZM143.594 42.905H146.569V61H143.594V42.905ZM149.043 58.375H151.178C151.435 57.885 151.691 57.22 151.948 56.38C152.228 55.5167 152.473 54.5717 152.683 53.545C152.916 52.495 153.103 51.3867 153.243 50.22C153.383 49.0533 153.453 47.91 153.453 46.79V42.905H166.543V58.375H168.993V66.495H166.158V61H151.878V66.495H149.043V58.375ZM163.568 58.375V45.53H156.358V47.07C156.358 48.2133 156.288 49.3567 156.148 50.5C156.031 51.62 155.868 52.6817 155.658 53.685C155.448 54.6883 155.215 55.5983 154.958 56.415C154.725 57.2317 154.491 57.885 154.258 58.375H163.568Z" fill="url(#paint0_radial_105_806)" fill-opacity="0.4"/>
<defs>
<radialGradient id="paint0_radial_105_806" cx="0" cy="0" r="1" gradientUnits="userSpaceOnUse" gradientTransform="translate(129.571 17.9014) rotate(36.5073) scale(102.273 131.626)">
<stop stop-color="white"/>
<stop offset="1" stop-color="white" stop-opacity="0"/>
</radialGradient>
</defs>
</svg>
