<svg width="263" height="68" viewBox="0 0 263 68" fill="none" xmlns="http://www.w3.org/2000/svg">
<path d="M0.7925 0.00999838H20.2525V25H16.9275V2.81H4.1175V25H0.7925V0.00999838ZM25.3245 6.905H28.2995V9.355H28.3695C28.8595 8.35167 29.6295 7.62833 30.6795 7.185C31.7295 6.71833 32.8845 6.485 34.1445 6.485C35.5445 6.485 36.7578 6.74167 37.7845 7.255C38.8345 7.76833 39.6978 8.46833 40.3745 9.355C41.0745 10.2183 41.5995 11.2217 41.9495 12.365C42.2995 13.5083 42.4745 14.7217 42.4745 16.005C42.4745 17.3117 42.2995 18.5367 41.9495 19.68C41.6228 20.8 41.1095 21.7917 40.4095 22.655C39.7328 23.495 38.8695 24.16 37.8195 24.65C36.7928 25.14 35.5912 25.385 34.2145 25.385C33.7478 25.385 33.2462 25.3383 32.7095 25.245C32.1728 25.1517 31.6362 25 31.0995 24.79C30.5628 24.58 30.0495 24.3 29.5595 23.95C29.0928 23.5767 28.6962 23.1217 28.3695 22.585H28.2995V31.895H25.3245V6.905ZM33.8995 22.795C34.9028 22.795 35.7545 22.5967 36.4545 22.2C37.1545 21.8033 37.7145 21.2783 38.1345 20.625C38.5545 19.9717 38.8578 19.225 39.0445 18.385C39.2312 17.545 39.3245 16.6817 39.3245 15.795C39.3245 14.955 39.2078 14.1383 38.9745 13.345C38.7645 12.5283 38.4262 11.805 37.9595 11.175C37.5162 10.545 36.9328 10.0433 36.2095 9.67C35.5095 9.29667 34.6812 9.11 33.7245 9.11C32.7212 9.11 31.8695 9.30833 31.1695 9.705C30.4695 10.1017 29.8978 10.6267 29.4545 11.28C29.0112 11.91 28.6845 12.6333 28.4745 13.45C28.2878 14.2667 28.1945 15.095 28.1945 15.935C28.1945 16.8217 28.2995 17.685 28.5095 18.525C28.7195 19.3417 29.0462 20.065 29.4895 20.695C29.9562 21.325 30.5512 21.8383 31.2745 22.235C31.9978 22.6083 32.8728 22.795 33.8995 22.795ZM53.7716 25.385C52.3249 25.385 51.0532 25.1517 49.9566 24.685C48.8832 24.195 47.9732 23.53 47.2266 22.69C46.4799 21.8267 45.9199 20.8233 45.5466 19.68C45.1732 18.5367 44.9866 17.3 44.9866 15.97C44.9866 14.64 45.1732 13.4033 45.5466 12.26C45.9199 11.0933 46.4799 10.09 47.2266 9.25C47.9732 8.38667 48.8832 7.71 49.9566 7.22C51.0532 6.73 52.3249 6.485 53.7716 6.485C55.1949 6.485 56.4549 6.73 57.5516 7.22C58.6482 7.71 59.5699 8.38667 60.3166 9.25C61.0632 10.09 61.6232 11.0933 61.9966 12.26C62.3699 13.4033 62.5566 14.64 62.5566 15.97C62.5566 17.3 62.3699 18.5367 61.9966 19.68C61.6232 20.8233 61.0632 21.8267 60.3166 22.69C59.5699 23.53 58.6482 24.195 57.5516 24.685C56.4549 25.1517 55.1949 25.385 53.7716 25.385ZM53.7716 22.795C54.5416 22.795 55.2649 22.6433 55.9416 22.34C56.6416 22.0367 57.2482 21.605 57.7616 21.045C58.2749 20.4617 58.6716 19.75 58.9516 18.91C59.2549 18.0467 59.4066 17.0667 59.4066 15.97C59.4066 14.8733 59.2549 13.905 58.9516 13.065C58.6716 12.2017 58.2749 11.4783 57.7616 10.895C57.2482 10.3117 56.6416 9.86833 55.9416 9.565C55.2649 9.26167 54.5416 9.11 53.7716 9.11C53.0016 9.11 52.2666 9.26167 51.5666 9.565C50.8899 9.86833 50.2949 10.3117 49.7816 10.895C49.2682 11.4783 48.8599 12.2017 48.5566 13.065C48.2766 13.905 48.1366 14.8733 48.1366 15.97C48.1366 17.0667 48.2766 18.0467 48.5566 18.91C48.8599 19.75 49.2682 20.4617 49.7816 21.045C50.2949 21.605 50.8899 22.0367 51.5666 22.34C52.2666 22.6433 53.0016 22.795 53.7716 22.795ZM76.3542 23.635C76.1442 23.845 75.8876 24.055 75.5842 24.265C75.2809 24.475 74.9542 24.6617 74.6042 24.825C74.2776 24.9883 73.9276 25.1167 73.5542 25.21C73.2042 25.3267 72.8542 25.385 72.5042 25.385C71.1509 25.385 70.0076 25.1167 69.0742 24.58C68.1642 24.0433 67.4176 23.3317 66.8342 22.445C66.2742 21.535 65.8659 20.4967 65.6092 19.33C65.3526 18.1633 65.2242 16.95 65.2242 15.69C65.2242 12.7967 65.8542 10.545 67.1142 8.935C68.3742 7.30167 70.0892 6.485 72.2592 6.485C72.6326 6.485 73.0176 6.54333 73.4142 6.66C73.8342 6.77666 74.2192 6.92833 74.5692 7.115C74.9426 7.30167 75.2809 7.51167 75.5842 7.745C75.9109 7.97833 76.1676 8.21167 76.3542 8.445V0.00999838H79.2942V8.445C79.4809 8.21167 79.7259 7.97833 80.0292 7.745C80.3326 7.51167 80.6709 7.30167 81.0442 7.115C81.4176 6.92833 81.8026 6.77666 82.1992 6.66C82.5959 6.54333 82.9926 6.485 83.3892 6.485C85.5592 6.485 87.2742 7.30167 88.5342 8.935C89.7942 10.545 90.4242 12.7967 90.4242 15.69C90.4242 16.95 90.2959 18.1633 90.0392 19.33C89.7826 20.4967 89.3626 21.535 88.7792 22.445C88.2192 23.3317 87.4726 24.0433 86.5392 24.58C85.6292 25.1167 84.4976 25.385 83.1442 25.385C82.4676 25.385 81.7442 25.21 80.9742 24.86C80.2276 24.4867 79.6676 24.0783 79.2942 23.635V31.895H76.3542V23.635ZM72.8542 22.935C73.7642 22.935 74.5459 22.7133 75.1992 22.27C75.8526 21.8033 76.2376 21.2433 76.3542 20.59V11.49C76.2142 11 76.0042 10.6033 75.7242 10.3C75.4442 9.97333 75.1292 9.71667 74.7792 9.53C74.4526 9.32 74.1026 9.18 73.7292 9.11C73.3559 9.01667 73.0059 8.97 72.6792 8.97C71.9092 8.97 71.2442 9.145 70.6842 9.495C70.1476 9.82167 69.6926 10.2883 69.3192 10.895C68.9692 11.4783 68.7126 12.19 68.5492 13.03C68.3859 13.87 68.3042 14.78 68.3042 15.76C68.3042 16.6 68.3742 17.4517 68.5142 18.315C68.6542 19.155 68.8876 19.925 69.2142 20.625C69.5642 21.3017 70.0309 21.8617 70.6142 22.305C71.1976 22.725 71.9442 22.935 72.8542 22.935ZM82.7942 22.935C83.7042 22.935 84.4509 22.725 85.0342 22.305C85.6176 21.8617 86.0726 21.3017 86.3992 20.625C86.7492 19.925 86.9942 19.155 87.1342 18.315C87.2742 17.4517 87.3442 16.6 87.3442 15.76C87.3442 14.78 87.2626 13.87 87.0992 13.03C86.9359 12.19 86.6676 11.4783 86.2942 10.895C85.9442 10.2883 85.4892 9.82167 84.9292 9.495C84.3926 9.145 83.7392 8.97 82.9692 8.97C82.6426 8.97 82.2926 9.01667 81.9192 9.11C81.5459 9.18 81.1842 9.32 80.8342 9.53C80.5076 9.71667 80.2042 9.97333 79.9242 10.3C79.6442 10.6033 79.4342 11 79.2942 11.49V20.59C79.4109 21.2433 79.7959 21.8033 80.4492 22.27C81.1026 22.7133 81.8842 22.935 82.7942 22.935ZM101.757 25.385C100.311 25.385 99.0391 25.1517 97.9424 24.685C96.869 24.2183 95.9707 23.565 95.2474 22.725C94.524 21.885 93.9757 20.8817 93.6024 19.715C93.2524 18.5483 93.0774 17.2767 93.0774 15.9C93.0774 14.5467 93.2874 13.2983 93.7074 12.155C94.1274 10.9883 94.7107 9.985 95.4574 9.145C96.2274 8.305 97.1257 7.65167 98.1524 7.185C99.2024 6.71833 100.346 6.485 101.582 6.485C103.192 6.485 104.522 6.82333 105.572 7.5C106.646 8.15333 107.497 8.99333 108.127 10.02C108.781 11.0467 109.224 12.1667 109.457 13.38C109.714 14.5933 109.819 15.7483 109.772 16.845H96.2274C96.204 17.6383 96.2974 18.3967 96.5074 19.12C96.7174 19.82 97.0557 20.45 97.5224 21.01C97.989 21.5467 98.584 21.9783 99.3074 22.305C100.031 22.6317 100.882 22.795 101.862 22.795C103.122 22.795 104.149 22.5033 104.942 21.92C105.759 21.3367 106.296 20.45 106.552 19.26H109.492C109.096 21.3133 108.221 22.8533 106.867 23.88C105.514 24.8833 103.811 25.385 101.757 25.385ZM106.622 14.22C106.576 13.52 106.412 12.855 106.132 12.225C105.876 11.595 105.514 11.0583 105.047 10.615C104.604 10.1483 104.067 9.78667 103.437 9.53C102.831 9.25 102.154 9.11 101.407 9.11C100.637 9.11 99.9374 9.25 99.3074 9.53C98.7007 9.78667 98.1757 10.1483 97.7324 10.615C97.289 11.0817 96.939 11.63 96.6824 12.26C96.4257 12.8667 96.274 13.52 96.2274 14.22H106.622ZM120.346 25.385C118.97 25.385 117.745 25.1633 116.671 24.72C115.621 24.2767 114.735 23.6467 114.011 22.83C113.311 22.0133 112.775 21.045 112.401 19.925C112.051 18.805 111.876 17.5567 111.876 16.18C111.876 14.8267 112.051 13.5667 112.401 12.4C112.751 11.21 113.276 10.1833 113.976 9.32C114.7 8.43333 115.586 7.745 116.636 7.255C117.71 6.74167 118.97 6.485 120.416 6.485C121.443 6.485 122.4 6.61333 123.286 6.87C124.196 7.10333 124.99 7.47667 125.666 7.99C126.366 8.50333 126.938 9.15667 127.381 9.95C127.825 10.72 128.105 11.6417 128.221 12.715H125.141C124.908 11.5717 124.418 10.685 123.671 10.055C122.925 9.425 121.921 9.11 120.661 9.11C119.588 9.11 118.69 9.30833 117.966 9.705C117.243 10.1017 116.66 10.6267 116.216 11.28C115.796 11.9333 115.493 12.6917 115.306 13.555C115.12 14.395 115.026 15.27 115.026 16.18C115.026 17.02 115.12 17.8367 115.306 18.63C115.516 19.4233 115.831 20.135 116.251 20.765C116.671 21.3717 117.208 21.8617 117.861 22.235C118.538 22.6083 119.355 22.795 120.311 22.795C121.781 22.795 122.925 22.41 123.741 21.64C124.581 20.87 125.095 19.785 125.281 18.385H128.326C128 20.6483 127.171 22.3867 125.841 23.6C124.511 24.79 122.68 25.385 120.346 25.385ZM134.805 3.65H131.83V0.00999838H134.805V3.65ZM131.83 6.905H134.805V25H131.83V6.905ZM147.219 25.385C145.772 25.385 144.5 25.1517 143.404 24.685C142.33 24.195 141.42 23.53 140.674 22.69C139.927 21.8267 139.367 20.8233 138.994 19.68C138.62 18.5367 138.434 17.3 138.434 15.97C138.434 14.64 138.62 13.4033 138.994 12.26C139.367 11.0933 139.927 10.09 140.674 9.25C141.42 8.38667 142.33 7.71 143.404 7.22C144.5 6.73 145.772 6.485 147.219 6.485C148.642 6.485 149.902 6.73 150.999 7.22C152.095 7.71 153.017 8.38667 153.764 9.25C154.51 10.09 155.07 11.0933 155.444 12.26C155.817 13.4033 156.004 14.64 156.004 15.97C156.004 17.3 155.817 18.5367 155.444 19.68C155.07 20.8233 154.51 21.8267 153.764 22.69C153.017 23.53 152.095 24.195 150.999 24.685C149.902 25.1517 148.642 25.385 147.219 25.385ZM147.219 22.795C147.989 22.795 148.712 22.6433 149.389 22.34C150.089 22.0367 150.695 21.605 151.209 21.045C151.722 20.4617 152.119 19.75 152.399 18.91C152.702 18.0467 152.854 17.0667 152.854 15.97C152.854 14.8733 152.702 13.905 152.399 13.065C152.119 12.2017 151.722 11.4783 151.209 10.895C150.695 10.3117 150.089 9.86833 149.389 9.565C148.712 9.26167 147.989 9.11 147.219 9.11C146.449 9.11 145.714 9.26167 145.014 9.565C144.337 9.86833 143.742 10.3117 143.229 10.895C142.715 11.4783 142.307 12.2017 142.004 13.065C141.724 13.905 141.584 14.8733 141.584 15.97C141.584 17.0667 141.724 18.0467 142.004 18.91C142.307 19.75 142.715 20.4617 143.229 21.045C143.742 21.605 144.337 22.0367 145.014 22.34C145.714 22.6433 146.449 22.795 147.219 22.795ZM159.511 6.905H162.486V14.115H171.656V6.905H174.631V25H171.656V16.67H162.486V25H159.511V6.905ZM184.101 25.385C183.285 25.385 182.515 25.2917 181.791 25.105C181.068 24.9417 180.426 24.6617 179.866 24.265C179.33 23.845 178.898 23.32 178.571 22.69C178.268 22.0367 178.116 21.255 178.116 20.345C178.116 19.3183 178.291 18.4783 178.641 17.825C178.991 17.1717 179.446 16.6467 180.006 16.25C180.59 15.83 181.243 15.515 181.966 15.305C182.713 15.095 183.471 14.92 184.241 14.78C185.058 14.6167 185.828 14.5 186.551 14.43C187.298 14.3367 187.951 14.22 188.511 14.08C189.071 13.9167 189.515 13.695 189.841 13.415C190.168 13.1117 190.331 12.68 190.331 12.12C190.331 11.4667 190.203 10.9417 189.946 10.545C189.713 10.1483 189.398 9.845 189.001 9.635C188.628 9.425 188.196 9.285 187.706 9.215C187.24 9.145 186.773 9.11 186.306 9.11C185.046 9.11 183.996 9.355 183.156 9.845C182.316 10.3117 181.861 11.21 181.791 12.54H178.816C178.863 11.42 179.096 10.475 179.516 9.705C179.936 8.935 180.496 8.31667 181.196 7.85C181.896 7.36 182.69 7.01 183.576 6.8C184.486 6.59 185.455 6.485 186.481 6.485C187.298 6.485 188.103 6.54333 188.896 6.66C189.713 6.77666 190.448 7.02167 191.101 7.395C191.755 7.745 192.28 8.24667 192.676 8.9C193.073 9.55333 193.271 10.405 193.271 11.455V20.765C193.271 21.465 193.306 21.9783 193.376 22.305C193.47 22.6317 193.75 22.795 194.216 22.795C194.426 22.795 194.73 22.7367 195.126 22.62V24.93C194.613 25.2333 193.901 25.385 192.991 25.385C192.221 25.385 191.603 25.175 191.136 24.755C190.693 24.3117 190.471 23.6 190.471 22.62C189.655 23.6 188.698 24.3117 187.601 24.755C186.528 25.175 185.361 25.385 184.101 25.385ZM184.766 22.795C185.746 22.795 186.586 22.6667 187.286 22.41C187.986 22.13 188.558 21.7917 189.001 21.395C189.445 20.975 189.771 20.5317 189.981 20.065C190.191 19.575 190.296 19.12 190.296 18.7V15.655C189.923 15.9583 189.433 16.1683 188.826 16.285C188.22 16.4017 187.578 16.5067 186.901 16.6C186.248 16.6933 185.583 16.7867 184.906 16.88C184.23 16.9733 183.623 17.1367 183.086 17.37C182.55 17.6033 182.106 17.9417 181.756 18.385C181.43 18.805 181.266 19.3883 181.266 20.135C181.266 20.625 181.36 21.045 181.546 21.395C181.756 21.7217 182.013 21.99 182.316 22.2C182.643 22.41 183.016 22.5617 183.436 22.655C183.856 22.7483 184.3 22.795 184.766 22.795ZM197.755 25.21C197.452 25.21 197.137 25.175 196.81 25.105C196.484 25.0583 196.215 25.0117 196.005 24.965V22.34C196.239 22.41 196.449 22.4567 196.635 22.48C196.845 22.5033 197.044 22.515 197.23 22.515C198 22.515 198.584 22.2117 198.98 21.605C199.4 20.9983 199.704 20.065 199.89 18.805C200.1 17.545 200.229 15.935 200.275 13.975C200.322 11.9917 200.369 9.635 200.415 6.905H213.12V25H210.145V9.53H203.285C203.215 11.6533 203.134 13.6717 203.04 15.585C202.97 17.475 202.772 19.1317 202.445 20.555C202.119 21.9783 201.594 23.11 200.87 23.95C200.147 24.79 199.109 25.21 197.755 25.21ZM220.767 3.65H217.792V0.00999838H220.767V3.65ZM217.792 6.905H220.767V25H217.792V6.905ZM232.026 25.385C229.622 25.385 227.744 24.8483 226.391 23.775C225.037 22.7017 224.302 21.1733 224.186 19.19H227.196C227.289 20.52 227.779 21.4767 228.666 22.06C229.552 22.6433 230.661 22.935 231.991 22.935C233.414 22.935 234.511 22.6317 235.281 22.025C236.051 21.4183 236.436 20.6483 236.436 19.715C236.436 18.805 236.144 18.0933 235.561 17.58C234.977 17.0667 233.986 16.81 232.586 16.81H230.171V14.395H232.096C233.146 14.395 234.044 14.185 234.791 13.765C235.537 13.3217 235.911 12.5633 235.911 11.49C235.911 10.8133 235.584 10.2183 234.931 9.705C234.301 9.19167 233.356 8.935 232.096 8.935C231.559 8.935 231.022 8.99333 230.486 9.11C229.972 9.22667 229.506 9.41333 229.086 9.67C228.666 9.92667 228.316 10.265 228.036 10.685C227.756 11.105 227.581 11.6183 227.511 12.225H224.501C224.571 11.105 224.839 10.1833 225.306 9.46C225.772 8.71333 226.356 8.13 227.056 7.71C227.756 7.26667 228.549 6.95167 229.436 6.765C230.322 6.57833 231.221 6.485 232.131 6.485C233.064 6.485 233.939 6.57833 234.756 6.765C235.572 6.95167 236.284 7.255 236.891 7.675C237.521 8.07167 238.011 8.57333 238.361 9.18C238.734 9.78667 238.921 10.51 238.921 11.35C238.921 12.4 238.617 13.2517 238.011 13.905C237.427 14.5583 236.762 14.9667 236.016 15.13V15.2C236.436 15.27 236.856 15.41 237.276 15.62C237.696 15.83 238.069 16.1217 238.396 16.495C238.722 16.845 238.991 17.2883 239.201 17.825C239.411 18.3383 239.516 18.945 239.516 19.645C239.516 20.625 239.306 21.4767 238.886 22.2C238.466 22.9233 237.906 23.5183 237.206 23.985C236.506 24.4517 235.701 24.8017 234.791 25.035C233.904 25.2683 232.982 25.385 232.026 25.385ZM243.081 6.905H247.351L252.846 21.57H252.916L258.411 6.905H262.681V25H259.706V10.65L254.246 25H251.516L246.056 10.65V25H243.081V6.905ZM4.78551 38.65H1.81051V35.01H4.78551V38.65ZM1.81051 41.905H4.78551V60H1.81051V41.905ZM19.1355 41.905H33.9055V60H30.9305V44.53H22.1105V60H19.1355V41.905ZM40.2337 67.21C39.8837 67.21 39.5337 67.1867 39.1837 67.14C38.8337 67.0933 38.4953 67.0117 38.1687 66.895V64.165C38.4487 64.2583 38.7287 64.3517 39.0087 64.445C39.312 64.5383 39.6153 64.585 39.9187 64.585C40.5253 64.585 41.0153 64.445 41.3887 64.165C41.762 63.885 42.0887 63.4767 42.3687 62.94L43.5937 59.895L36.4187 41.905H39.7787L45.0637 56.71H45.1337L50.2087 41.905H53.3587L45.4837 62.38C45.1337 63.2667 44.7837 64.0133 44.4337 64.62C44.107 65.2267 43.7337 65.7167 43.3137 66.09C42.917 66.4867 42.462 66.7667 41.9487 66.93C41.4587 67.1167 40.887 67.21 40.2337 67.21ZM55.8787 41.905H58.8537V49.115H68.0237V41.905H70.9987V60H68.0237V51.67H58.8537V60H55.8787V41.905ZM75.4636 41.905H78.4386V50.55L86.7336 41.905H90.6886L82.6736 49.745L91.6336 60H87.8186L80.2586 51.39L78.4386 53.175V60H75.4636V41.905ZM98.2615 44.53H91.7865V41.905H107.711V44.53H101.236V60H98.2615V44.53ZM111.943 67.21C111.593 67.21 111.243 67.1867 110.893 67.14C110.543 67.0933 110.204 67.0117 109.878 66.895V64.165C110.158 64.2583 110.438 64.3517 110.718 64.445C111.021 64.5383 111.324 64.585 111.628 64.585C112.234 64.585 112.724 64.445 113.098 64.165C113.471 63.885 113.798 63.4767 114.078 62.94L115.303 59.895L108.128 41.905H111.488L116.773 56.71H116.843L121.918 41.905H125.068L117.193 62.38C116.843 63.2667 116.493 64.0133 116.143 64.62C115.816 65.2267 115.443 65.7167 115.023 66.09C114.626 66.4867 114.171 66.7667 113.658 66.93C113.168 67.1167 112.596 67.21 111.943 67.21ZM132.593 60.385C131.776 60.385 131.006 60.2917 130.283 60.105C129.559 59.9417 128.918 59.6617 128.358 59.265C127.821 58.845 127.389 58.32 127.063 57.69C126.759 57.0367 126.608 56.255 126.608 55.345C126.608 54.3183 126.783 53.4783 127.133 52.825C127.483 52.1717 127.938 51.6467 128.498 51.25C129.081 50.83 129.734 50.515 130.458 50.305C131.204 50.095 131.963 49.92 132.733 49.78C133.549 49.6167 134.319 49.5 135.043 49.43C135.789 49.3367 136.443 49.22 137.003 49.08C137.563 48.9167 138.006 48.695 138.333 48.415C138.659 48.1117 138.823 47.68 138.823 47.12C138.823 46.4667 138.694 45.9417 138.438 45.545C138.204 45.1483 137.889 44.845 137.493 44.635C137.119 44.425 136.688 44.285 136.198 44.215C135.731 44.145 135.264 44.11 134.798 44.11C133.538 44.11 132.488 44.355 131.648 44.845C130.808 45.3117 130.353 46.21 130.283 47.54H127.308C127.354 46.42 127.588 45.475 128.008 44.705C128.428 43.935 128.988 43.3167 129.688 42.85C130.388 42.36 131.181 42.01 132.068 41.8C132.978 41.59 133.946 41.485 134.973 41.485C135.789 41.485 136.594 41.5433 137.388 41.66C138.204 41.7767 138.939 42.0217 139.593 42.395C140.246 42.745 140.771 43.2467 141.168 43.9C141.564 44.5533 141.763 45.405 141.763 46.455V55.765C141.763 56.465 141.798 56.9783 141.868 57.305C141.961 57.6317 142.241 57.795 142.708 57.795C142.918 57.795 143.221 57.7367 143.618 57.62V59.93C143.104 60.2333 142.393 60.385 141.483 60.385C140.713 60.385 140.094 60.175 139.628 59.755C139.184 59.3117 138.963 58.6 138.963 57.62C138.146 58.6 137.189 59.3117 136.093 59.755C135.019 60.175 133.853 60.385 132.593 60.385ZM133.258 57.795C134.238 57.795 135.078 57.6667 135.778 57.41C136.478 57.13 137.049 56.7917 137.493 56.395C137.936 55.975 138.263 55.5317 138.473 55.065C138.683 54.575 138.788 54.12 138.788 53.7V50.655C138.414 50.9583 137.924 51.1683 137.318 51.285C136.711 51.4017 136.069 51.5067 135.393 51.6C134.739 51.6933 134.074 51.7867 133.398 51.88C132.721 51.9733 132.114 52.1367 131.578 52.37C131.041 52.6033 130.598 52.9417 130.248 53.385C129.921 53.805 129.758 54.3883 129.758 55.135C129.758 55.625 129.851 56.045 130.038 56.395C130.248 56.7217 130.504 56.99 130.808 57.2C131.134 57.41 131.508 57.5617 131.928 57.655C132.348 57.7483 132.791 57.795 133.258 57.795ZM146.246 60.21C145.943 60.21 145.628 60.175 145.301 60.105C144.975 60.0583 144.706 60.0117 144.496 59.965V57.34C144.73 57.41 144.94 57.4567 145.126 57.48C145.336 57.5033 145.535 57.515 145.721 57.515C146.491 57.515 147.075 57.2117 147.471 56.605C147.891 55.9983 148.195 55.065 148.381 53.805C148.591 52.545 148.72 50.935 148.766 48.975C148.813 46.9917 148.86 44.635 148.906 41.905H161.611V60H158.636V44.53H151.776C151.706 46.6533 151.625 48.6717 151.531 50.585C151.461 52.475 151.263 54.1317 150.936 55.555C150.61 56.9783 150.085 58.11 149.361 58.95C148.638 59.79 147.6 60.21 146.246 60.21ZM166.283 41.905H169.258V48.835H175.698C177.471 48.835 178.895 49.325 179.968 50.305C181.041 51.2617 181.578 52.615 181.578 54.365C181.578 56.0683 181.065 57.4333 180.038 58.46C179.011 59.4867 177.611 60 175.838 60H166.283V41.905ZM174.753 57.375C177.25 57.375 178.498 56.3717 178.498 54.365C178.498 52.3817 177.25 51.39 174.753 51.39H169.258V57.375H174.753ZM184.804 41.905H187.779V49.115H196.949V41.905H199.924V60H196.949V51.67H187.779V60H184.804V41.905ZM207.539 38.65H204.564V35.01H207.539V38.65ZM204.564 41.905H207.539V60H204.564V41.905ZM219.638 60.385C218.262 60.385 217.037 60.1633 215.963 59.72C214.913 59.2767 214.027 58.6467 213.303 57.83C212.603 57.0133 212.067 56.045 211.693 54.925C211.343 53.805 211.168 52.5567 211.168 51.18C211.168 49.8267 211.343 48.5667 211.693 47.4C212.043 46.21 212.568 45.1833 213.268 44.32C213.992 43.4333 214.878 42.745 215.928 42.255C217.002 41.7417 218.262 41.485 219.708 41.485C220.735 41.485 221.692 41.6133 222.578 41.87C223.488 42.1033 224.282 42.4767 224.958 42.99C225.658 43.5033 226.23 44.1567 226.673 44.95C227.117 45.72 227.397 46.6417 227.513 47.715H224.433C224.2 46.5717 223.71 45.685 222.963 45.055C222.217 44.425 221.213 44.11 219.953 44.11C218.88 44.11 217.982 44.3083 217.258 44.705C216.535 45.1017 215.952 45.6267 215.508 46.28C215.088 46.9333 214.785 47.6917 214.598 48.555C214.412 49.395 214.318 50.27 214.318 51.18C214.318 52.02 214.412 52.8367 214.598 53.63C214.808 54.4233 215.123 55.135 215.543 55.765C215.963 56.3717 216.5 56.8617 217.153 57.235C217.83 57.6083 218.647 57.795 219.603 57.795C221.073 57.795 222.217 57.41 223.033 56.64C223.873 55.87 224.387 54.785 224.573 53.385H227.618C227.292 55.6483 226.463 57.3867 225.133 58.6C223.803 59.79 221.972 60.385 219.638 60.385ZM235.322 44.53H228.847V41.905H244.772V44.53H238.297V60H235.322V44.53ZM247.323 41.905H250.298V48.835H256.738C258.512 48.835 259.935 49.325 261.008 50.305C262.082 51.2617 262.618 52.615 262.618 54.365C262.618 56.0683 262.105 57.4333 261.078 58.46C260.052 59.4867 258.652 60 256.878 60H247.323V41.905ZM255.793 57.375C258.29 57.375 259.538 56.3717 259.538 54.365C259.538 52.3817 258.29 51.39 255.793 51.39H250.298V57.375H255.793Z" fill="black"/>
<path d="M0.7925 0.00999838H20.2525V25H16.9275V2.81H4.1175V25H0.7925V0.00999838ZM25.3245 6.905H28.2995V9.355H28.3695C28.8595 8.35167 29.6295 7.62833 30.6795 7.185C31.7295 6.71833 32.8845 6.485 34.1445 6.485C35.5445 6.485 36.7578 6.74167 37.7845 7.255C38.8345 7.76833 39.6978 8.46833 40.3745 9.355C41.0745 10.2183 41.5995 11.2217 41.9495 12.365C42.2995 13.5083 42.4745 14.7217 42.4745 16.005C42.4745 17.3117 42.2995 18.5367 41.9495 19.68C41.6228 20.8 41.1095 21.7917 40.4095 22.655C39.7328 23.495 38.8695 24.16 37.8195 24.65C36.7928 25.14 35.5912 25.385 34.2145 25.385C33.7478 25.385 33.2462 25.3383 32.7095 25.245C32.1728 25.1517 31.6362 25 31.0995 24.79C30.5628 24.58 30.0495 24.3 29.5595 23.95C29.0928 23.5767 28.6962 23.1217 28.3695 22.585H28.2995V31.895H25.3245V6.905ZM33.8995 22.795C34.9028 22.795 35.7545 22.5967 36.4545 22.2C37.1545 21.8033 37.7145 21.2783 38.1345 20.625C38.5545 19.9717 38.8578 19.225 39.0445 18.385C39.2312 17.545 39.3245 16.6817 39.3245 15.795C39.3245 14.955 39.2078 14.1383 38.9745 13.345C38.7645 12.5283 38.4262 11.805 37.9595 11.175C37.5162 10.545 36.9328 10.0433 36.2095 9.67C35.5095 9.29667 34.6812 9.11 33.7245 9.11C32.7212 9.11 31.8695 9.30833 31.1695 9.705C30.4695 10.1017 29.8978 10.6267 29.4545 11.28C29.0112 11.91 28.6845 12.6333 28.4745 13.45C28.2878 14.2667 28.1945 15.095 28.1945 15.935C28.1945 16.8217 28.2995 17.685 28.5095 18.525C28.7195 19.3417 29.0462 20.065 29.4895 20.695C29.9562 21.325 30.5512 21.8383 31.2745 22.235C31.9978 22.6083 32.8728 22.795 33.8995 22.795ZM53.7716 25.385C52.3249 25.385 51.0532 25.1517 49.9566 24.685C48.8832 24.195 47.9732 23.53 47.2266 22.69C46.4799 21.8267 45.9199 20.8233 45.5466 19.68C45.1732 18.5367 44.9866 17.3 44.9866 15.97C44.9866 14.64 45.1732 13.4033 45.5466 12.26C45.9199 11.0933 46.4799 10.09 47.2266 9.25C47.9732 8.38667 48.8832 7.71 49.9566 7.22C51.0532 6.73 52.3249 6.485 53.7716 6.485C55.1949 6.485 56.4549 6.73 57.5516 7.22C58.6482 7.71 59.5699 8.38667 60.3166 9.25C61.0632 10.09 61.6232 11.0933 61.9966 12.26C62.3699 13.4033 62.5566 14.64 62.5566 15.97C62.5566 17.3 62.3699 18.5367 61.9966 19.68C61.6232 20.8233 61.0632 21.8267 60.3166 22.69C59.5699 23.53 58.6482 24.195 57.5516 24.685C56.4549 25.1517 55.1949 25.385 53.7716 25.385ZM53.7716 22.795C54.5416 22.795 55.2649 22.6433 55.9416 22.34C56.6416 22.0367 57.2482 21.605 57.7616 21.045C58.2749 20.4617 58.6716 19.75 58.9516 18.91C59.2549 18.0467 59.4066 17.0667 59.4066 15.97C59.4066 14.8733 59.2549 13.905 58.9516 13.065C58.6716 12.2017 58.2749 11.4783 57.7616 10.895C57.2482 10.3117 56.6416 9.86833 55.9416 9.565C55.2649 9.26167 54.5416 9.11 53.7716 9.11C53.0016 9.11 52.2666 9.26167 51.5666 9.565C50.8899 9.86833 50.2949 10.3117 49.7816 10.895C49.2682 11.4783 48.8599 12.2017 48.5566 13.065C48.2766 13.905 48.1366 14.8733 48.1366 15.97C48.1366 17.0667 48.2766 18.0467 48.5566 18.91C48.8599 19.75 49.2682 20.4617 49.7816 21.045C50.2949 21.605 50.8899 22.0367 51.5666 22.34C52.2666 22.6433 53.0016 22.795 53.7716 22.795ZM76.3542 23.635C76.1442 23.845 75.8876 24.055 75.5842 24.265C75.2809 24.475 74.9542 24.6617 74.6042 24.825C74.2776 24.9883 73.9276 25.1167 73.5542 25.21C73.2042 25.3267 72.8542 25.385 72.5042 25.385C71.1509 25.385 70.0076 25.1167 69.0742 24.58C68.1642 24.0433 67.4176 23.3317 66.8342 22.445C66.2742 21.535 65.8659 20.4967 65.6092 19.33C65.3526 18.1633 65.2242 16.95 65.2242 15.69C65.2242 12.7967 65.8542 10.545 67.1142 8.935C68.3742 7.30167 70.0892 6.485 72.2592 6.485C72.6326 6.485 73.0176 6.54333 73.4142 6.66C73.8342 6.77666 74.2192 6.92833 74.5692 7.115C74.9426 7.30167 75.2809 7.51167 75.5842 7.745C75.9109 7.97833 76.1676 8.21167 76.3542 8.445V0.00999838H79.2942V8.445C79.4809 8.21167 79.7259 7.97833 80.0292 7.745C80.3326 7.51167 80.6709 7.30167 81.0442 7.115C81.4176 6.92833 81.8026 6.77666 82.1992 6.66C82.5959 6.54333 82.9926 6.485 83.3892 6.485C85.5592 6.485 87.2742 7.30167 88.5342 8.935C89.7942 10.545 90.4242 12.7967 90.4242 15.69C90.4242 16.95 90.2959 18.1633 90.0392 19.33C89.7826 20.4967 89.3626 21.535 88.7792 22.445C88.2192 23.3317 87.4726 24.0433 86.5392 24.58C85.6292 25.1167 84.4976 25.385 83.1442 25.385C82.4676 25.385 81.7442 25.21 80.9742 24.86C80.2276 24.4867 79.6676 24.0783 79.2942 23.635V31.895H76.3542V23.635ZM72.8542 22.935C73.7642 22.935 74.5459 22.7133 75.1992 22.27C75.8526 21.8033 76.2376 21.2433 76.3542 20.59V11.49C76.2142 11 76.0042 10.6033 75.7242 10.3C75.4442 9.97333 75.1292 9.71667 74.7792 9.53C74.4526 9.32 74.1026 9.18 73.7292 9.11C73.3559 9.01667 73.0059 8.97 72.6792 8.97C71.9092 8.97 71.2442 9.145 70.6842 9.495C70.1476 9.82167 69.6926 10.2883 69.3192 10.895C68.9692 11.4783 68.7126 12.19 68.5492 13.03C68.3859 13.87 68.3042 14.78 68.3042 15.76C68.3042 16.6 68.3742 17.4517 68.5142 18.315C68.6542 19.155 68.8876 19.925 69.2142 20.625C69.5642 21.3017 70.0309 21.8617 70.6142 22.305C71.1976 22.725 71.9442 22.935 72.8542 22.935ZM82.7942 22.935C83.7042 22.935 84.4509 22.725 85.0342 22.305C85.6176 21.8617 86.0726 21.3017 86.3992 20.625C86.7492 19.925 86.9942 19.155 87.1342 18.315C87.2742 17.4517 87.3442 16.6 87.3442 15.76C87.3442 14.78 87.2626 13.87 87.0992 13.03C86.9359 12.19 86.6676 11.4783 86.2942 10.895C85.9442 10.2883 85.4892 9.82167 84.9292 9.495C84.3926 9.145 83.7392 8.97 82.9692 8.97C82.6426 8.97 82.2926 9.01667 81.9192 9.11C81.5459 9.18 81.1842 9.32 80.8342 9.53C80.5076 9.71667 80.2042 9.97333 79.9242 10.3C79.6442 10.6033 79.4342 11 79.2942 11.49V20.59C79.4109 21.2433 79.7959 21.8033 80.4492 22.27C81.1026 22.7133 81.8842 22.935 82.7942 22.935ZM101.757 25.385C100.311 25.385 99.0391 25.1517 97.9424 24.685C96.869 24.2183 95.9707 23.565 95.2474 22.725C94.524 21.885 93.9757 20.8817 93.6024 19.715C93.2524 18.5483 93.0774 17.2767 93.0774 15.9C93.0774 14.5467 93.2874 13.2983 93.7074 12.155C94.1274 10.9883 94.7107 9.985 95.4574 9.145C96.2274 8.305 97.1257 7.65167 98.1524 7.185C99.2024 6.71833 100.346 6.485 101.582 6.485C103.192 6.485 104.522 6.82333 105.572 7.5C106.646 8.15333 107.497 8.99333 108.127 10.02C108.781 11.0467 109.224 12.1667 109.457 13.38C109.714 14.5933 109.819 15.7483 109.772 16.845H96.2274C96.204 17.6383 96.2974 18.3967 96.5074 19.12C96.7174 19.82 97.0557 20.45 97.5224 21.01C97.989 21.5467 98.584 21.9783 99.3074 22.305C100.031 22.6317 100.882 22.795 101.862 22.795C103.122 22.795 104.149 22.5033 104.942 21.92C105.759 21.3367 106.296 20.45 106.552 19.26H109.492C109.096 21.3133 108.221 22.8533 106.867 23.88C105.514 24.8833 103.811 25.385 101.757 25.385ZM106.622 14.22C106.576 13.52 106.412 12.855 106.132 12.225C105.876 11.595 105.514 11.0583 105.047 10.615C104.604 10.1483 104.067 9.78667 103.437 9.53C102.831 9.25 102.154 9.11 101.407 9.11C100.637 9.11 99.9374 9.25 99.3074 9.53C98.7007 9.78667 98.1757 10.1483 97.7324 10.615C97.289 11.0817 96.939 11.63 96.6824 12.26C96.4257 12.8667 96.274 13.52 96.2274 14.22H106.622ZM120.346 25.385C118.97 25.385 117.745 25.1633 116.671 24.72C115.621 24.2767 114.735 23.6467 114.011 22.83C113.311 22.0133 112.775 21.045 112.401 19.925C112.051 18.805 111.876 17.5567 111.876 16.18C111.876 14.8267 112.051 13.5667 112.401 12.4C112.751 11.21 113.276 10.1833 113.976 9.32C114.7 8.43333 115.586 7.745 116.636 7.255C117.71 6.74167 118.97 6.485 120.416 6.485C121.443 6.485 122.4 6.61333 123.286 6.87C124.196 7.10333 124.99 7.47667 125.666 7.99C126.366 8.50333 126.938 9.15667 127.381 9.95C127.825 10.72 128.105 11.6417 128.221 12.715H125.141C124.908 11.5717 124.418 10.685 123.671 10.055C122.925 9.425 121.921 9.11 120.661 9.11C119.588 9.11 118.69 9.30833 117.966 9.705C117.243 10.1017 116.66 10.6267 116.216 11.28C115.796 11.9333 115.493 12.6917 115.306 13.555C115.12 14.395 115.026 15.27 115.026 16.18C115.026 17.02 115.12 17.8367 115.306 18.63C115.516 19.4233 115.831 20.135 116.251 20.765C116.671 21.3717 117.208 21.8617 117.861 22.235C118.538 22.6083 119.355 22.795 120.311 22.795C121.781 22.795 122.925 22.41 123.741 21.64C124.581 20.87 125.095 19.785 125.281 18.385H128.326C128 20.6483 127.171 22.3867 125.841 23.6C124.511 24.79 122.68 25.385 120.346 25.385ZM134.805 3.65H131.83V0.00999838H134.805V3.65ZM131.83 6.905H134.805V25H131.83V6.905ZM147.219 25.385C145.772 25.385 144.5 25.1517 143.404 24.685C142.33 24.195 141.42 23.53 140.674 22.69C139.927 21.8267 139.367 20.8233 138.994 19.68C138.62 18.5367 138.434 17.3 138.434 15.97C138.434 14.64 138.62 13.4033 138.994 12.26C139.367 11.0933 139.927 10.09 140.674 9.25C141.42 8.38667 142.33 7.71 143.404 7.22C144.5 6.73 145.772 6.485 147.219 6.485C148.642 6.485 149.902 6.73 150.999 7.22C152.095 7.71 153.017 8.38667 153.764 9.25C154.51 10.09 155.07 11.0933 155.444 12.26C155.817 13.4033 156.004 14.64 156.004 15.97C156.004 17.3 155.817 18.5367 155.444 19.68C155.07 20.8233 154.51 21.8267 153.764 22.69C153.017 23.53 152.095 24.195 150.999 24.685C149.902 25.1517 148.642 25.385 147.219 25.385ZM147.219 22.795C147.989 22.795 148.712 22.6433 149.389 22.34C150.089 22.0367 150.695 21.605 151.209 21.045C151.722 20.4617 152.119 19.75 152.399 18.91C152.702 18.0467 152.854 17.0667 152.854 15.97C152.854 14.8733 152.702 13.905 152.399 13.065C152.119 12.2017 151.722 11.4783 151.209 10.895C150.695 10.3117 150.089 9.86833 149.389 9.565C148.712 9.26167 147.989 9.11 147.219 9.11C146.449 9.11 145.714 9.26167 145.014 9.565C144.337 9.86833 143.742 10.3117 143.229 10.895C142.715 11.4783 142.307 12.2017 142.004 13.065C141.724 13.905 141.584 14.8733 141.584 15.97C141.584 17.0667 141.724 18.0467 142.004 18.91C142.307 19.75 142.715 20.4617 143.229 21.045C143.742 21.605 144.337 22.0367 145.014 22.34C145.714 22.6433 146.449 22.795 147.219 22.795ZM159.511 6.905H162.486V14.115H171.656V6.905H174.631V25H171.656V16.67H162.486V25H159.511V6.905ZM184.101 25.385C183.285 25.385 182.515 25.2917 181.791 25.105C181.068 24.9417 180.426 24.6617 179.866 24.265C179.33 23.845 178.898 23.32 178.571 22.69C178.268 22.0367 178.116 21.255 178.116 20.345C178.116 19.3183 178.291 18.4783 178.641 17.825C178.991 17.1717 179.446 16.6467 180.006 16.25C180.59 15.83 181.243 15.515 181.966 15.305C182.713 15.095 183.471 14.92 184.241 14.78C185.058 14.6167 185.828 14.5 186.551 14.43C187.298 14.3367 187.951 14.22 188.511 14.08C189.071 13.9167 189.515 13.695 189.841 13.415C190.168 13.1117 190.331 12.68 190.331 12.12C190.331 11.4667 190.203 10.9417 189.946 10.545C189.713 10.1483 189.398 9.845 189.001 9.635C188.628 9.425 188.196 9.285 187.706 9.215C187.24 9.145 186.773 9.11 186.306 9.11C185.046 9.11 183.996 9.355 183.156 9.845C182.316 10.3117 181.861 11.21 181.791 12.54H178.816C178.863 11.42 179.096 10.475 179.516 9.705C179.936 8.935 180.496 8.31667 181.196 7.85C181.896 7.36 182.69 7.01 183.576 6.8C184.486 6.59 185.455 6.485 186.481 6.485C187.298 6.485 188.103 6.54333 188.896 6.66C189.713 6.77666 190.448 7.02167 191.101 7.395C191.755 7.745 192.28 8.24667 192.676 8.9C193.073 9.55333 193.271 10.405 193.271 11.455V20.765C193.271 21.465 193.306 21.9783 193.376 22.305C193.47 22.6317 193.75 22.795 194.216 22.795C194.426 22.795 194.73 22.7367 195.126 22.62V24.93C194.613 25.2333 193.901 25.385 192.991 25.385C192.221 25.385 191.603 25.175 191.136 24.755C190.693 24.3117 190.471 23.6 190.471 22.62C189.655 23.6 188.698 24.3117 187.601 24.755C186.528 25.175 185.361 25.385 184.101 25.385ZM184.766 22.795C185.746 22.795 186.586 22.6667 187.286 22.41C187.986 22.13 188.558 21.7917 189.001 21.395C189.445 20.975 189.771 20.5317 189.981 20.065C190.191 19.575 190.296 19.12 190.296 18.7V15.655C189.923 15.9583 189.433 16.1683 188.826 16.285C188.22 16.4017 187.578 16.5067 186.901 16.6C186.248 16.6933 185.583 16.7867 184.906 16.88C184.23 16.9733 183.623 17.1367 183.086 17.37C182.55 17.6033 182.106 17.9417 181.756 18.385C181.43 18.805 181.266 19.3883 181.266 20.135C181.266 20.625 181.36 21.045 181.546 21.395C181.756 21.7217 182.013 21.99 182.316 22.2C182.643 22.41 183.016 22.5617 183.436 22.655C183.856 22.7483 184.3 22.795 184.766 22.795ZM197.755 25.21C197.452 25.21 197.137 25.175 196.81 25.105C196.484 25.0583 196.215 25.0117 196.005 24.965V22.34C196.239 22.41 196.449 22.4567 196.635 22.48C196.845 22.5033 197.044 22.515 197.23 22.515C198 22.515 198.584 22.2117 198.98 21.605C199.4 20.9983 199.704 20.065 199.89 18.805C200.1 17.545 200.229 15.935 200.275 13.975C200.322 11.9917 200.369 9.635 200.415 6.905H213.12V25H210.145V9.53H203.285C203.215 11.6533 203.134 13.6717 203.04 15.585C202.97 17.475 202.772 19.1317 202.445 20.555C202.119 21.9783 201.594 23.11 200.87 23.95C200.147 24.79 199.109 25.21 197.755 25.21ZM220.767 3.65H217.792V0.00999838H220.767V3.65ZM217.792 6.905H220.767V25H217.792V6.905ZM232.026 25.385C229.622 25.385 227.744 24.8483 226.391 23.775C225.037 22.7017 224.302 21.1733 224.186 19.19H227.196C227.289 20.52 227.779 21.4767 228.666 22.06C229.552 22.6433 230.661 22.935 231.991 22.935C233.414 22.935 234.511 22.6317 235.281 22.025C236.051 21.4183 236.436 20.6483 236.436 19.715C236.436 18.805 236.144 18.0933 235.561 17.58C234.977 17.0667 233.986 16.81 232.586 16.81H230.171V14.395H232.096C233.146 14.395 234.044 14.185 234.791 13.765C235.537 13.3217 235.911 12.5633 235.911 11.49C235.911 10.8133 235.584 10.2183 234.931 9.705C234.301 9.19167 233.356 8.935 232.096 8.935C231.559 8.935 231.022 8.99333 230.486 9.11C229.972 9.22667 229.506 9.41333 229.086 9.67C228.666 9.92667 228.316 10.265 228.036 10.685C227.756 11.105 227.581 11.6183 227.511 12.225H224.501C224.571 11.105 224.839 10.1833 225.306 9.46C225.772 8.71333 226.356 8.13 227.056 7.71C227.756 7.26667 228.549 6.95167 229.436 6.765C230.322 6.57833 231.221 6.485 232.131 6.485C233.064 6.485 233.939 6.57833 234.756 6.765C235.572 6.95167 236.284 7.255 236.891 7.675C237.521 8.07167 238.011 8.57333 238.361 9.18C238.734 9.78667 238.921 10.51 238.921 11.35C238.921 12.4 238.617 13.2517 238.011 13.905C237.427 14.5583 236.762 14.9667 236.016 15.13V15.2C236.436 15.27 236.856 15.41 237.276 15.62C237.696 15.83 238.069 16.1217 238.396 16.495C238.722 16.845 238.991 17.2883 239.201 17.825C239.411 18.3383 239.516 18.945 239.516 19.645C239.516 20.625 239.306 21.4767 238.886 22.2C238.466 22.9233 237.906 23.5183 237.206 23.985C236.506 24.4517 235.701 24.8017 234.791 25.035C233.904 25.2683 232.982 25.385 232.026 25.385ZM243.081 6.905H247.351L252.846 21.57H252.916L258.411 6.905H262.681V25H259.706V10.65L254.246 25H251.516L246.056 10.65V25H243.081V6.905ZM4.78551 38.65H1.81051V35.01H4.78551V38.65ZM1.81051 41.905H4.78551V60H1.81051V41.905ZM19.1355 41.905H33.9055V60H30.9305V44.53H22.1105V60H19.1355V41.905ZM40.2337 67.21C39.8837 67.21 39.5337 67.1867 39.1837 67.14C38.8337 67.0933 38.4953 67.0117 38.1687 66.895V64.165C38.4487 64.2583 38.7287 64.3517 39.0087 64.445C39.312 64.5383 39.6153 64.585 39.9187 64.585C40.5253 64.585 41.0153 64.445 41.3887 64.165C41.762 63.885 42.0887 63.4767 42.3687 62.94L43.5937 59.895L36.4187 41.905H39.7787L45.0637 56.71H45.1337L50.2087 41.905H53.3587L45.4837 62.38C45.1337 63.2667 44.7837 64.0133 44.4337 64.62C44.107 65.2267 43.7337 65.7167 43.3137 66.09C42.917 66.4867 42.462 66.7667 41.9487 66.93C41.4587 67.1167 40.887 67.21 40.2337 67.21ZM55.8787 41.905H58.8537V49.115H68.0237V41.905H70.9987V60H68.0237V51.67H58.8537V60H55.8787V41.905ZM75.4636 41.905H78.4386V50.55L86.7336 41.905H90.6886L82.6736 49.745L91.6336 60H87.8186L80.2586 51.39L78.4386 53.175V60H75.4636V41.905ZM98.2615 44.53H91.7865V41.905H107.711V44.53H101.236V60H98.2615V44.53ZM111.943 67.21C111.593 67.21 111.243 67.1867 110.893 67.14C110.543 67.0933 110.204 67.0117 109.878 66.895V64.165C110.158 64.2583 110.438 64.3517 110.718 64.445C111.021 64.5383 111.324 64.585 111.628 64.585C112.234 64.585 112.724 64.445 113.098 64.165C113.471 63.885 113.798 63.4767 114.078 62.94L115.303 59.895L108.128 41.905H111.488L116.773 56.71H116.843L121.918 41.905H125.068L117.193 62.38C116.843 63.2667 116.493 64.0133 116.143 64.62C115.816 65.2267 115.443 65.7167 115.023 66.09C114.626 66.4867 114.171 66.7667 113.658 66.93C113.168 67.1167 112.596 67.21 111.943 67.21ZM132.593 60.385C131.776 60.385 131.006 60.2917 130.283 60.105C129.559 59.9417 128.918 59.6617 128.358 59.265C127.821 58.845 127.389 58.32 127.063 57.69C126.759 57.0367 126.608 56.255 126.608 55.345C126.608 54.3183 126.783 53.4783 127.133 52.825C127.483 52.1717 127.938 51.6467 128.498 51.25C129.081 50.83 129.734 50.515 130.458 50.305C131.204 50.095 131.963 49.92 132.733 49.78C133.549 49.6167 134.319 49.5 135.043 49.43C135.789 49.3367 136.443 49.22 137.003 49.08C137.563 48.9167 138.006 48.695 138.333 48.415C138.659 48.1117 138.823 47.68 138.823 47.12C138.823 46.4667 138.694 45.9417 138.438 45.545C138.204 45.1483 137.889 44.845 137.493 44.635C137.119 44.425 136.688 44.285 136.198 44.215C135.731 44.145 135.264 44.11 134.798 44.11C133.538 44.11 132.488 44.355 131.648 44.845C130.808 45.3117 130.353 46.21 130.283 47.54H127.308C127.354 46.42 127.588 45.475 128.008 44.705C128.428 43.935 128.988 43.3167 129.688 42.85C130.388 42.36 131.181 42.01 132.068 41.8C132.978 41.59 133.946 41.485 134.973 41.485C135.789 41.485 136.594 41.5433 137.388 41.66C138.204 41.7767 138.939 42.0217 139.593 42.395C140.246 42.745 140.771 43.2467 141.168 43.9C141.564 44.5533 141.763 45.405 141.763 46.455V55.765C141.763 56.465 141.798 56.9783 141.868 57.305C141.961 57.6317 142.241 57.795 142.708 57.795C142.918 57.795 143.221 57.7367 143.618 57.62V59.93C143.104 60.2333 142.393 60.385 141.483 60.385C140.713 60.385 140.094 60.175 139.628 59.755C139.184 59.3117 138.963 58.6 138.963 57.62C138.146 58.6 137.189 59.3117 136.093 59.755C135.019 60.175 133.853 60.385 132.593 60.385ZM133.258 57.795C134.238 57.795 135.078 57.6667 135.778 57.41C136.478 57.13 137.049 56.7917 137.493 56.395C137.936 55.975 138.263 55.5317 138.473 55.065C138.683 54.575 138.788 54.12 138.788 53.7V50.655C138.414 50.9583 137.924 51.1683 137.318 51.285C136.711 51.4017 136.069 51.5067 135.393 51.6C134.739 51.6933 134.074 51.7867 133.398 51.88C132.721 51.9733 132.114 52.1367 131.578 52.37C131.041 52.6033 130.598 52.9417 130.248 53.385C129.921 53.805 129.758 54.3883 129.758 55.135C129.758 55.625 129.851 56.045 130.038 56.395C130.248 56.7217 130.504 56.99 130.808 57.2C131.134 57.41 131.508 57.5617 131.928 57.655C132.348 57.7483 132.791 57.795 133.258 57.795ZM146.246 60.21C145.943 60.21 145.628 60.175 145.301 60.105C144.975 60.0583 144.706 60.0117 144.496 59.965V57.34C144.73 57.41 144.94 57.4567 145.126 57.48C145.336 57.5033 145.535 57.515 145.721 57.515C146.491 57.515 147.075 57.2117 147.471 56.605C147.891 55.9983 148.195 55.065 148.381 53.805C148.591 52.545 148.72 50.935 148.766 48.975C148.813 46.9917 148.86 44.635 148.906 41.905H161.611V60H158.636V44.53H151.776C151.706 46.6533 151.625 48.6717 151.531 50.585C151.461 52.475 151.263 54.1317 150.936 55.555C150.61 56.9783 150.085 58.11 149.361 58.95C148.638 59.79 147.6 60.21 146.246 60.21ZM166.283 41.905H169.258V48.835H175.698C177.471 48.835 178.895 49.325 179.968 50.305C181.041 51.2617 181.578 52.615 181.578 54.365C181.578 56.0683 181.065 57.4333 180.038 58.46C179.011 59.4867 177.611 60 175.838 60H166.283V41.905ZM174.753 57.375C177.25 57.375 178.498 56.3717 178.498 54.365C178.498 52.3817 177.25 51.39 174.753 51.39H169.258V57.375H174.753ZM184.804 41.905H187.779V49.115H196.949V41.905H199.924V60H196.949V51.67H187.779V60H184.804V41.905ZM207.539 38.65H204.564V35.01H207.539V38.65ZM204.564 41.905H207.539V60H204.564V41.905ZM219.638 60.385C218.262 60.385 217.037 60.1633 215.963 59.72C214.913 59.2767 214.027 58.6467 213.303 57.83C212.603 57.0133 212.067 56.045 211.693 54.925C211.343 53.805 211.168 52.5567 211.168 51.18C211.168 49.8267 211.343 48.5667 211.693 47.4C212.043 46.21 212.568 45.1833 213.268 44.32C213.992 43.4333 214.878 42.745 215.928 42.255C217.002 41.7417 218.262 41.485 219.708 41.485C220.735 41.485 221.692 41.6133 222.578 41.87C223.488 42.1033 224.282 42.4767 224.958 42.99C225.658 43.5033 226.23 44.1567 226.673 44.95C227.117 45.72 227.397 46.6417 227.513 47.715H224.433C224.2 46.5717 223.71 45.685 222.963 45.055C222.217 44.425 221.213 44.11 219.953 44.11C218.88 44.11 217.982 44.3083 217.258 44.705C216.535 45.1017 215.952 45.6267 215.508 46.28C215.088 46.9333 214.785 47.6917 214.598 48.555C214.412 49.395 214.318 50.27 214.318 51.18C214.318 52.02 214.412 52.8367 214.598 53.63C214.808 54.4233 215.123 55.135 215.543 55.765C215.963 56.3717 216.5 56.8617 217.153 57.235C217.83 57.6083 218.647 57.795 219.603 57.795C221.073 57.795 222.217 57.41 223.033 56.64C223.873 55.87 224.387 54.785 224.573 53.385H227.618C227.292 55.6483 226.463 57.3867 225.133 58.6C223.803 59.79 221.972 60.385 219.638 60.385ZM235.322 44.53H228.847V41.905H244.772V44.53H238.297V60H235.322V44.53ZM247.323 41.905H250.298V48.835H256.738C258.512 48.835 259.935 49.325 261.008 50.305C262.082 51.2617 262.618 52.615 262.618 54.365C262.618 56.0683 262.105 57.4333 261.078 58.46C260.052 59.4867 258.652 60 256.878 60H247.323V41.905ZM255.793 57.375C258.29 57.375 259.538 56.3717 259.538 54.365C259.538 52.3817 258.29 51.39 255.793 51.39H250.298V57.375H255.793Z" fill="url(#paint0_radial_105_831)" fill-opacity="0.4"/>
<defs>
<radialGradient id="paint0_radial_105_831" cx="0" cy="0" r="1" gradientUnits="userSpaceOnUse" gradientTransform="translate(138.19 16.9014) rotate(38.0362) scale(98.7489 128.98)">
<stop stop-color="white"/>
<stop offset="1" stop-color="white" stop-opacity="0"/>
</radialGradient>
</defs>
</svg>
