<svg width="65" height="65" viewBox="0 0 65 65" fill="none" xmlns="http://www.w3.org/2000/svg">
<circle cx="32.5" cy="32.5" r="31.5" fill="white" stroke="#4278F6" stroke-width="2"/>
<path d="M32 18.8628C27.74 18.8628 24.175 23.3298 23.321 29.2638L33.517 19.0688C33.022 18.9428 32.518 18.8628 32 18.8628Z" fill="#4278F6"/>
<path d="M35.489 19.9248L23.135 32.2788C23.149 33.2798 23.242 34.2508 23.401 35.1848L37.204 21.3818C36.672 20.8098 36.101 20.3128 35.489 19.9248Z" fill="#4278F6"/>
<path d="M32 16C25.926 16 21 23.163 21 32C21 40.837 25.926 48 32 48C38.074 48 43 40.837 43 32C43 23.163 38.074 16 32 16ZM32 46.137C26.555 46.137 22.125 39.795 22.125 32C22.125 24.205 26.555 17.863 32 17.863C37.445 17.863 41.875 24.205 41.875 32C41.875 39.795 37.445 46.137 32 46.137Z" fill="#4278F6"/>
<path d="M38.435 22.979L23.942 37.472C25.347 41.988 28.426 45.137 32 45.137C36.894 45.137 40.875 39.243 40.875 32C40.875 28.507 39.942 25.335 38.435 22.979Z" fill="#4278F6"/>
</svg>
