<svg width="65" height="65" viewBox="0 0 65 65" fill="none" xmlns="http://www.w3.org/2000/svg">
<circle cx="32.5" cy="32.5" r="31.5" fill="white" stroke="#4278F6" stroke-width="2"/>
<path d="M25.9167 33.0002V34.4168H33H40.0833V33.0002C40.0833 30.6561 41.981 28.7554 44.3237 28.7502C44.3117 28.2855 44.2848 27.948 44.2244 27.6447C43.7773 25.3967 42.0201 23.6395 39.7722 23.1924C39.2248 23.0835 38.5665 23.0835 37.25 23.0835H33H28.75C27.4335 23.0835 26.7752 23.0835 26.2278 23.1924C23.9799 23.6395 22.2227 25.3967 21.7756 27.6447C21.7152 27.948 21.6883 28.2855 21.6763 28.7502C24.0191 28.7554 25.9167 30.6561 25.9167 33.0002Z" fill="#4278F6"/>
<path d="M42.1295 41.4998H23.8704C23.4778 41.4998 23.0958 41.4549 22.7291 41.3701V42.9165C22.7291 43.5033 22.2534 43.979 21.6666 43.979C21.0798 43.979 20.6041 43.5033 20.6041 42.9165V40.2975C19.5205 39.3736 18.8333 37.9984 18.8333 36.4627V32.9998C18.8333 31.435 20.1018 30.1665 21.6666 30.1665C23.2315 30.1665 24.5 31.435 24.5 32.9998V34.6998C24.5 35.3257 25.0074 35.8332 25.6333 35.8332H40.3666C40.9925 35.8332 41.5 35.3257 41.5 34.6998V32.9998C41.5 31.435 42.7685 30.1665 44.3333 30.1665C45.8982 30.1665 47.1666 31.435 47.1666 32.9998V36.4627C47.1666 37.9984 46.4794 39.3736 45.3958 40.2975V42.9165C45.3958 43.5033 44.9201 43.979 44.3333 43.979C43.7465 43.979 43.2708 43.5033 43.2708 42.9165V41.3701C42.9042 41.4549 42.5221 41.4998 42.1295 41.4998Z" fill="#4278F6"/>
</svg>
