<svg width="65" height="65" viewBox="0 0 65 65" fill="none" xmlns="http://www.w3.org/2000/svg">
<circle cx="32.5" cy="32.5" r="31.5" fill="white" stroke="#4278F6" stroke-width="2"/>
<g clip-path="url(#clip0_105_978)">
<path d="M46.2222 42.3332H40.0008V24.4443H46.2222C46.6523 24.4443 47 24.792 47 25.2221V41.5554C47 41.9848 46.6523 42.3332 46.2222 42.3332ZM43.1119 39.2221H43.8897V38.4443H43.1119V39.2221ZM43.1119 37.6666H43.8897V36.8888H43.1119V37.6666ZM43.1119 36.111H43.8897V35.3332H43.1119V36.111ZM41.5563 39.2221H42.3333V38.4443H41.5563V39.2221ZM41.5563 37.6666H42.3333V36.8888H41.5563V37.6666ZM41.5563 36.111H42.3333V35.3332H41.5563V36.111ZM45.4452 27.5554H41.5563V29.8888H45.4452V27.5554ZM45.4452 35.3332H44.6674V36.111H45.4452V35.3332ZM45.4452 36.8888H44.6674V37.6666H45.4452V36.8888ZM45.4452 38.4443H44.6674V39.2221H45.4452V38.4443ZM19 41.5554V25.2221C19 24.792 19.3484 24.4443 19.7786 24.4443H39.223V42.3332H19.7786C19.3484 42.3332 19 41.9848 19 41.5554ZM37.697 34.1736C38.1271 34.1736 38.4748 33.8251 38.4748 33.3958C38.4748 32.9657 38.1271 32.618 37.697 32.618C37.2677 32.618 36.9192 32.9657 36.9192 33.3958C36.9192 33.8251 37.2677 34.1736 37.697 34.1736ZM22.1111 38.4443C22.1111 38.8737 22.4596 39.2221 22.8897 39.2221H35.3333C35.7634 39.2221 36.1111 38.8737 36.1111 38.4443V28.3332C36.1111 27.9031 35.7634 27.5554 35.3333 27.5554H22.8897C22.4596 27.5554 22.1111 27.9031 22.1111 28.3332V38.4443Z" fill="#4278F6"/>
</g>
<defs>
<clipPath id="clip0_105_978">
<rect width="28" height="28" fill="white" transform="translate(19 19)"/>
</clipPath>
</defs>
</svg>
