<svg width="65" height="65" viewBox="0 0 65 65" fill="none" xmlns="http://www.w3.org/2000/svg">
<circle cx="32.5" cy="32.5" r="31.5" fill="white" stroke="#4278F6" stroke-width="2"/>
<g clip-path="url(#clip0_105_988)">
<path d="M14.8415 44.3892C14.8192 44.689 14.9153 44.9855 15.1092 45.2152C15.303 45.4449 15.5793 45.5894 15.8785 45.6177H32.1261C32.4253 45.5894 32.7015 45.4449 32.8954 45.2152C33.0893 44.9855 33.1854 44.689 33.1631 44.3892V27.4692H14.8415V44.3892ZM16.8349 32.7413C16.8349 32.5365 16.9162 32.34 17.0611 32.1952C17.2059 32.0504 17.4023 31.969 17.6071 31.969C17.8119 31.969 18.0084 32.0504 18.1532 32.1952C18.298 32.34 18.3794 32.5365 18.3794 32.7413V36.3703C18.3794 36.5751 18.298 36.7716 18.1532 36.9164C18.0084 37.0612 17.8119 37.1426 17.6071 37.1426C17.4023 37.1426 17.2059 37.0612 17.0611 36.9164C16.9162 36.7716 16.8349 36.5751 16.8349 36.3703V32.7413Z" fill="#4278F6"/>
<path d="M33.1631 20.228C33.1854 19.9283 33.0893 19.6318 32.8954 19.4022C32.7015 19.1726 32.4253 19.0282 32.1261 19H15.8785C15.5793 19.0282 15.3031 19.1726 15.1092 19.4022C14.9153 19.6318 14.8192 19.9283 14.8415 20.228V27.1233H33.1631V20.228ZM18.3794 24.5995C18.3412 24.776 18.2438 24.9341 18.1033 25.0474C17.9628 25.1608 17.7877 25.2226 17.6071 25.2226C17.4266 25.2226 17.2515 25.1608 17.111 25.0474C16.9705 24.9341 16.873 24.776 16.8349 24.5995V21.6956C16.8735 21.5195 16.9711 21.3618 17.1115 21.2488C17.252 21.1358 17.4269 21.0742 17.6071 21.0742C17.7874 21.0742 17.9623 21.1358 18.1027 21.2488C18.2432 21.3618 18.3408 21.5195 18.3794 21.6956V24.5995Z" fill="#4278F6"/>
<path d="M20.3751 45.9634H16.9183V47.0004H20.3751V45.9634Z" fill="#4278F6"/>
<path d="M31.0863 45.9634H27.6295V47.0004H31.0863V45.9634Z" fill="#4278F6"/>
</g>
<g clip-path="url(#clip1_105_988)">
<path d="M41.4663 26.3912C41.3137 25.5418 40.1171 25.0459 38.7936 25.2836C37.7925 25.4634 36.6016 26.5857 36.081 27.1218C35.9444 27.2622 35.9863 27.496 36.1633 27.5802C36.838 27.9016 38.345 28.5393 39.3461 28.3595C40.6696 28.1218 41.6188 27.2405 41.4663 26.3912Z" fill="#4278F6"/>
<path d="M41.8123 37.7769C41.462 36.7823 41.505 35.7134 41.9334 34.7671C42.3696 33.8034 43.151 33.0821 44.1335 32.7362C44.3332 32.6658 44.5411 32.6128 44.7557 32.5771C44.6043 32.083 44.5253 31.5659 44.5253 31.0415C44.5253 29.7843 43.6935 28.7216 42.5504 28.3729C42.8266 27.8929 43.3946 27.0637 44.2304 26.6061C44.3768 26.5259 44.4426 26.3505 44.3846 26.194L44.037 25.2572C43.9631 25.0581 43.725 24.9761 43.5438 25.0882C42.9489 25.4563 41.8068 26.3957 41.6245 28.2544C40.1352 28.3127 38.9456 29.5379 38.9456 31.0415C38.9456 32.2732 38.5148 33.4585 37.7259 34.4045C36.9713 35.3094 36.5173 36.4737 36.5173 37.7441C36.5173 40.626 38.8536 42.9622 41.7354 42.9622C42.6089 42.9622 43.432 42.7473 44.1554 42.3679C43.902 42.0497 43.6533 41.6885 43.4115 41.2859C42.6857 40.0782 42.1412 38.7111 41.8123 37.7769Z" fill="#4278F6"/>
<path d="M51.3149 33.6888C50.7798 33.6888 50.224 33.8248 49.7308 34.0726C49.5417 34.1676 49.3452 34.2414 49.1444 34.2943C49.3806 33.8751 49.8941 33.1026 50.6618 32.6823C50.792 32.611 50.8505 32.4549 50.7989 32.3157L50.4897 31.4824C50.4238 31.3049 50.2118 31.2326 50.051 31.3321C49.4964 31.6753 48.4073 32.5773 48.3268 34.3937C47.8764 34.3868 47.427 34.2798 47.0134 34.0722C46.5206 33.8247 45.9649 33.689 45.4303 33.6889C43.4535 33.6889 42.2928 35.6303 42.9123 37.3898C43.3907 38.7483 45.0104 42.9625 47.1732 42.9625C47.347 42.9625 47.5239 42.9354 47.7042 42.8774C47.9859 42.7868 48.2055 42.5025 48.3726 42.0942C48.5397 42.5025 48.7592 42.7869 49.041 42.8774C49.2212 42.9353 49.3984 42.9625 49.572 42.9625C51.735 42.9625 53.3544 38.7484 53.8328 37.3898C54.4519 35.6315 53.2931 33.6888 51.3149 33.6888Z" fill="#4278F6"/>
</g>
<defs>
<clipPath id="clip0_105_988">
<rect width="28" height="28" fill="white" transform="translate(10 19)"/>
</clipPath>
<clipPath id="clip1_105_988">
<rect width="18" height="18" fill="white" transform="translate(36 25)"/>
</clipPath>
</defs>
</svg>
