<svg width="65" height="65" viewBox="0 0 65 65" fill="none" xmlns="http://www.w3.org/2000/svg">
<circle cx="32.5" cy="32.5" r="31.5" fill="white" stroke="#4278F6" stroke-width="2"/>
<g clip-path="url(#clip0_105_1014)">
<path d="M23.8415 44.3892C23.8192 44.689 23.9153 44.9855 24.1092 45.2152C24.303 45.4449 24.5793 45.5894 24.8785 45.6177H41.1261C41.4253 45.5894 41.7015 45.4449 41.8954 45.2152C42.0893 44.9855 42.1854 44.689 42.1631 44.3892V27.4692H23.8415V44.3892ZM25.8349 32.7413C25.8349 32.5365 25.9162 32.34 26.0611 32.1952C26.2059 32.0504 26.4023 31.969 26.6071 31.969C26.8119 31.969 27.0084 32.0504 27.1532 32.1952C27.298 32.34 27.3794 32.5365 27.3794 32.7413V36.3703C27.3794 36.5751 27.298 36.7716 27.1532 36.9164C27.0084 37.0612 26.8119 37.1426 26.6071 37.1426C26.4023 37.1426 26.2059 37.0612 26.0611 36.9164C25.9162 36.7716 25.8349 36.5751 25.8349 36.3703V32.7413Z" fill="#4278F6"/>
<path d="M42.1631 20.228C42.1854 19.9283 42.0893 19.6318 41.8954 19.4022C41.7015 19.1726 41.4253 19.0282 41.1261 19H24.8785C24.5793 19.0282 24.3031 19.1726 24.1092 19.4022C23.9153 19.6318 23.8192 19.9283 23.8415 20.228V27.1233H42.1631V20.228ZM27.3794 24.5995C27.3412 24.776 27.2438 24.9341 27.1033 25.0474C26.9628 25.1608 26.7877 25.2226 26.6071 25.2226C26.4266 25.2226 26.2515 25.1608 26.111 25.0474C25.9705 24.9341 25.873 24.776 25.8349 24.5995V21.6956C25.8735 21.5195 25.9711 21.3618 26.1115 21.2488C26.252 21.1358 26.4269 21.0742 26.6071 21.0742C26.7874 21.0742 26.9623 21.1358 27.1027 21.2488C27.2432 21.3618 27.3408 21.5195 27.3794 21.6956V24.5995Z" fill="#4278F6"/>
<path d="M29.3751 45.9634H25.9183V47.0004H29.3751V45.9634Z" fill="#4278F6"/>
<path d="M40.0863 45.9634H36.6295V47.0004H40.0863V45.9634Z" fill="#4278F6"/>
</g>
<defs>
<clipPath id="clip0_105_1014">
<rect width="28" height="28" fill="white" transform="translate(19 19)"/>
</clipPath>
</defs>
</svg>
