<svg width="156" height="19" viewBox="0 0 156 19" fill="none" xmlns="http://www.w3.org/2000/svg">
<path d="M5.373 14.27C4.347 14.27 3.414 14.15 2.574 13.91C1.74 13.664 0.993 13.301 0.333 12.821L1.629 10.49C2.055 10.862 2.568 11.153 3.168 11.363C3.768 11.573 4.392 11.678 5.04 11.678C5.538 11.678 5.97 11.615 6.336 11.489C6.702 11.357 6.984 11.174 7.182 10.94C7.386 10.706 7.488 10.43 7.488 10.112C7.488 9.644 7.317 9.293 6.975 9.059C6.633 8.819 6.105 8.699 5.391 8.699H2.835V6.413H5.166C5.574 6.413 5.922 6.362 6.21 6.26C6.504 6.158 6.729 6.008 6.885 5.81C7.041 5.606 7.119 5.366 7.119 5.09C7.119 4.814 7.041 4.586 6.885 4.406C6.735 4.22 6.504 4.079 6.192 3.983C5.886 3.887 5.499 3.839 5.031 3.839C4.473 3.839 3.924 3.935 3.384 4.127C2.85 4.313 2.403 4.568 2.043 4.892L0.693 2.714C1.269 2.21 1.971 1.82 2.799 1.544C3.627 1.268 4.509 1.13 5.445 1.13C6.411 1.13 7.239 1.265 7.929 1.535C8.625 1.799 9.159 2.18 9.531 2.678C9.909 3.176 10.098 3.77 10.098 4.46C10.098 4.832 10.02 5.189 9.864 5.531C9.714 5.873 9.507 6.182 9.243 6.458C8.979 6.734 8.679 6.959 8.343 7.133C9.045 7.373 9.597 7.754 9.999 8.276C10.401 8.798 10.602 9.44 10.602 10.202C10.596 10.994 10.377 11.696 9.945 12.308C9.513 12.92 8.904 13.4 8.118 13.748C7.338 14.096 6.423 14.27 5.373 14.27ZM16.9449 14.27C15.9429 14.27 15.0579 14.051 14.2899 13.613C13.5219 13.169 12.9189 12.578 12.4809 11.84C12.0489 11.102 11.8329 10.292 11.8329 9.41C11.8329 8.768 11.9559 8.156 12.2019 7.574C12.4539 6.986 12.8079 6.467 13.2639 6.017C13.7199 5.561 14.2599 5.204 14.8839 4.946C15.5079 4.682 16.1949 4.55 16.9449 4.55C17.9469 4.55 18.8319 4.772 19.5999 5.216C20.3679 5.654 20.9679 6.242 21.3999 6.98C21.8319 7.718 22.0479 8.528 22.0479 9.41C22.0479 10.052 21.9249 10.667 21.6789 11.255C21.4329 11.837 21.0819 12.353 20.6259 12.803C20.1699 13.253 19.6299 13.61 19.0059 13.874C18.3819 14.138 17.6949 14.27 16.9449 14.27ZM16.9449 11.732C17.3649 11.732 17.7429 11.639 18.0789 11.453C18.4149 11.261 18.6789 10.991 18.8709 10.643C19.0629 10.295 19.1589 9.884 19.1589 9.41C19.1589 8.93 19.0629 8.519 18.8709 8.177C18.6849 7.829 18.4239 7.562 18.0879 7.376C17.7519 7.184 17.3709 7.088 16.9449 7.088C16.5189 7.088 16.1379 7.184 15.8019 7.376C15.4659 7.562 15.2019 7.829 15.0099 8.177C14.8179 8.519 14.7219 8.93 14.7219 9.41C14.7219 9.884 14.8179 10.295 15.0099 10.643C15.2079 10.991 15.4749 11.261 15.8109 11.453C16.1469 11.639 16.5249 11.732 16.9449 11.732ZM23.7767 14.225L22.8227 11.615C23.4407 11.459 23.8877 11.231 24.1637 10.931C24.4457 10.631 24.6227 10.229 24.6947 9.725C24.7727 9.215 24.8117 8.57 24.8117 7.79V4.82H32.9027V14H29.9507V7.16H27.4937V7.79C27.4937 8.726 27.4367 9.557 27.3227 10.283C27.2147 11.003 27.0227 11.627 26.7467 12.155C26.4767 12.683 26.1017 13.118 25.6217 13.46C25.1417 13.802 24.5267 14.057 23.7767 14.225ZM39.7261 14.27C38.7241 14.27 37.8391 14.051 37.0711 13.613C36.3031 13.169 35.7001 12.578 35.2621 11.84C34.8301 11.102 34.6141 10.292 34.6141 9.41C34.6141 8.768 34.7371 8.156 34.9831 7.574C35.2351 6.986 35.5891 6.467 36.0451 6.017C36.5011 5.561 37.0411 5.204 37.6651 4.946C38.2891 4.682 38.9761 4.55 39.7261 4.55C40.7281 4.55 41.6131 4.772 42.3811 5.216C43.1491 5.654 43.7491 6.242 44.1811 6.98C44.6131 7.718 44.8291 8.528 44.8291 9.41C44.8291 10.052 44.7061 10.667 44.4601 11.255C44.2141 11.837 43.8631 12.353 43.4071 12.803C42.9511 13.253 42.4111 13.61 41.7871 13.874C41.1631 14.138 40.4761 14.27 39.7261 14.27ZM39.7261 11.732C40.1461 11.732 40.5241 11.639 40.8601 11.453C41.1961 11.261 41.4601 10.991 41.6521 10.643C41.8441 10.295 41.9401 9.884 41.9401 9.41C41.9401 8.93 41.8441 8.519 41.6521 8.177C41.4661 7.829 41.2051 7.562 40.8691 7.376C40.5331 7.184 40.1521 7.088 39.7261 7.088C39.3001 7.088 38.9191 7.184 38.5831 7.376C38.2471 7.562 37.9831 7.829 37.7911 8.177C37.5991 8.519 37.5031 8.93 37.5031 9.41C37.5031 9.884 37.5991 10.295 37.7911 10.643C37.9891 10.991 38.2561 11.261 38.5921 11.453C38.9281 11.639 39.3061 11.732 39.7261 11.732ZM48.385 14V7.16H45.739V4.82H53.974V7.16H51.337V14H48.385ZM55.6107 14V4.82H58.4277V9.86L62.3877 4.82H65.0337V14H62.2167V8.888L58.2477 14H55.6107ZM67.476 14V4.82H70.293V9.86L74.253 4.82H76.899V14H74.082V8.888L70.113 14H67.476ZM72.183 3.56C71.433 3.56 70.779 3.419 70.221 3.137C69.663 2.849 69.231 2.453 68.925 1.949C68.625 1.445 68.481 0.859999 68.493 0.194H70.887C70.863 0.631999 70.968 0.985999 71.202 1.256C71.442 1.52 71.769 1.652 72.183 1.652C72.597 1.652 72.921 1.52 73.155 1.256C73.389 0.985999 73.497 0.631999 73.479 0.194H75.873C75.885 0.847999 75.735 1.43 75.423 1.94C75.117 2.444 74.682 2.84 74.118 3.128C73.56 3.416 72.915 3.56 72.183 3.56Z" fill="#4278F6"/>
<path d="M79.4132 14.243L78.4412 11.516C78.8432 11.39 79.1852 11.249 79.4672 11.093C79.7552 10.931 79.9922 10.718 80.1782 10.454C80.3642 10.184 80.5082 9.827 80.6102 9.383C80.7182 8.939 80.7902 8.375 80.8262 7.691C80.8682 7.001 80.8892 6.152 80.8892 5.144V1.4H90.3842V14H87.3962V4.127H83.7152V5.009C83.7152 6.299 83.6732 7.421 83.5892 8.375C83.5112 9.329 83.3762 10.145 83.1842 10.823C82.9922 11.501 82.7312 12.065 82.4012 12.515C82.0712 12.965 81.6602 13.328 81.1682 13.604C80.6822 13.88 80.0972 14.093 79.4132 14.243ZM97.4703 14.27C96.4683 14.27 95.5833 14.051 94.8153 13.613C94.0473 13.169 93.4443 12.578 93.0063 11.84C92.5743 11.102 92.3583 10.292 92.3583 9.41C92.3583 8.768 92.4813 8.156 92.7273 7.574C92.9793 6.986 93.3333 6.467 93.7893 6.017C94.2453 5.561 94.7853 5.204 95.4093 4.946C96.0333 4.682 96.7203 4.55 97.4703 4.55C98.4723 4.55 99.3573 4.772 100.125 5.216C100.893 5.654 101.493 6.242 101.925 6.98C102.357 7.718 102.573 8.528 102.573 9.41C102.573 10.052 102.45 10.667 102.204 11.255C101.958 11.837 101.607 12.353 101.151 12.803C100.695 13.253 100.155 13.61 99.5313 13.874C98.9073 14.138 98.2203 14.27 97.4703 14.27ZM97.4703 11.732C97.8903 11.732 98.2683 11.639 98.6043 11.453C98.9403 11.261 99.2043 10.991 99.3963 10.643C99.5883 10.295 99.6843 9.884 99.6843 9.41C99.6843 8.93 99.5883 8.519 99.3963 8.177C99.2103 7.829 98.9493 7.562 98.6133 7.376C98.2773 7.184 97.8963 7.088 97.4703 7.088C97.0443 7.088 96.6633 7.184 96.3273 7.376C95.9913 7.562 95.7273 7.829 95.5353 8.177C95.3433 8.519 95.2473 8.93 95.2473 9.41C95.2473 9.884 95.3433 10.295 95.5353 10.643C95.7333 10.991 96.0003 11.261 96.3363 11.453C96.6723 11.639 97.0503 11.732 97.4703 11.732ZM106.129 14V7.16H103.483V4.82H111.718V7.16H109.081V14H106.129ZM117.738 14.27C116.736 14.27 115.851 14.051 115.083 13.613C114.315 13.169 113.712 12.578 113.274 11.84C112.842 11.102 112.626 10.292 112.626 9.41C112.626 8.768 112.749 8.156 112.995 7.574C113.247 6.986 113.601 6.467 114.057 6.017C114.513 5.561 115.053 5.204 115.677 4.946C116.301 4.682 116.988 4.55 117.738 4.55C118.74 4.55 119.625 4.772 120.393 5.216C121.161 5.654 121.761 6.242 122.193 6.98C122.625 7.718 122.841 8.528 122.841 9.41C122.841 10.052 122.718 10.667 122.472 11.255C122.226 11.837 121.875 12.353 121.419 12.803C120.963 13.253 120.423 13.61 119.799 13.874C119.175 14.138 118.488 14.27 117.738 14.27ZM117.738 11.732C118.158 11.732 118.536 11.639 118.872 11.453C119.208 11.261 119.472 10.991 119.664 10.643C119.856 10.295 119.952 9.884 119.952 9.41C119.952 8.93 119.856 8.519 119.664 8.177C119.478 7.829 119.217 7.562 118.881 7.376C118.545 7.184 118.164 7.088 117.738 7.088C117.312 7.088 116.931 7.184 116.595 7.376C116.259 7.562 115.995 7.829 115.803 8.177C115.611 8.519 115.515 8.93 115.515 9.41C115.515 9.884 115.611 10.295 115.803 10.643C116.001 10.991 116.268 11.261 116.604 11.453C116.94 11.639 117.318 11.732 117.738 11.732ZM129.014 14.27C128.042 14.27 127.172 14.06 126.404 13.64C125.642 13.214 125.039 12.635 124.595 11.903C124.151 11.165 123.929 10.334 123.929 9.41C123.929 8.714 124.058 8.072 124.316 7.484C124.58 6.896 124.949 6.383 125.423 5.945C125.897 5.501 126.449 5.159 127.079 4.919C127.709 4.673 128.393 4.55 129.131 4.55C129.827 4.55 130.472 4.646 131.066 4.838C131.66 5.024 132.194 5.306 132.668 5.684L131.372 7.871C131.078 7.601 130.754 7.403 130.4 7.277C130.052 7.151 129.686 7.088 129.302 7.088C128.798 7.088 128.363 7.178 127.997 7.358C127.631 7.538 127.349 7.802 127.151 8.15C126.959 8.498 126.863 8.915 126.863 9.401C126.863 10.133 127.079 10.706 127.511 11.12C127.949 11.528 128.549 11.732 129.311 11.732C129.743 11.732 130.148 11.654 130.526 11.498C130.91 11.336 131.261 11.102 131.579 10.796L132.776 13.028C132.26 13.412 131.669 13.715 131.003 13.937C130.343 14.159 129.68 14.27 129.014 14.27Z" fill="#FF6B00"/>
</svg>
