<svg width="56" height="56" viewBox="0 0 56 56" fill="none" xmlns="http://www.w3.org/2000/svg">
<path d="M56 28C56 31.677 55.2758 35.318 53.8686 38.7151C52.4615 42.1123 50.399 45.199 47.799 47.799C45.1989 50.399 42.1123 52.4615 38.7151 53.8686C35.318 55.2758 31.677 56 28 56C24.323 56 20.682 55.2758 17.2849 53.8686C13.8877 52.4615 10.801 50.399 8.20101 47.799C5.60097 45.1989 3.5385 42.1123 2.13137 38.7151C0.724241 35.318 -3.21455e-07 31.677 0 28H1.80342C1.80342 31.4402 2.48102 34.8467 3.79752 38.025C5.11402 41.2033 7.04364 44.0912 9.47622 46.5238C11.9088 48.9564 14.7967 50.886 17.975 52.2025C21.1533 53.519 24.5598 54.1966 28 54.1966C31.4402 54.1966 34.8467 53.519 38.025 52.2025C41.2033 50.886 44.0912 48.9564 46.5238 46.5238C48.9564 44.0912 50.886 41.2033 52.2025 38.025C53.519 34.8467 54.1966 31.4402 54.1966 28H56Z" fill="#FF6B00"/>
<path d="M22 30L28 36L34 30" stroke="#FF6B00" stroke-width="2" stroke-linecap="square" stroke-linejoin="round"/>
</svg>
