<svg width="50" height="50" viewBox="0 0 50 50" fill="none" xmlns="http://www.w3.org/2000/svg">
<circle cx="25" cy="25" r="25" fill="#4278F6"/>
<g clip-path="url(#clip0_105_1132)">
<path d="M31.3531 31.6036C30.5934 30.9975 28.2267 29.8312 27.6428 29.6968C27.06 29.5613 26.3546 30.1249 26.1603 30.8247C25.9649 31.5249 25.6006 31.4586 25.6006 31.4586C25.6006 31.4586 24.1968 30.9428 21.629 28.3849C19.0608 25.8261 18.5417 24.4242 18.5417 24.4242C18.5417 24.4242 18.4732 24.0598 19.173 23.8618C19.8713 23.6657 20.4326 22.958 20.2956 22.3752C20.1593 21.7924 18.9836 19.4291 18.3753 18.6728C17.7655 17.9165 16.5875 18.3065 16.3286 18.4951C16.0681 18.683 13.3305 20.4234 14.1538 23.6281C14.9782 26.8332 16.7468 29.3972 18.6904 31.3344C20.6344 33.2708 23.2048 35.0296 26.4125 35.842C29.6199 36.6548 31.3505 33.9108 31.5376 33.6503C31.725 33.3906 32.1105 32.2108 31.3531 31.6036Z" fill="white"/>
<path d="M24.6143 22.1286C25.0397 22.3372 25.7162 22.7242 26.5003 23.5079C27.2845 24.2921 27.6711 24.9686 27.8796 25.3936C28.0987 25.8404 28.2605 25.9304 28.3916 25.8999C28.6076 25.8498 28.6795 25.7918 28.6995 25.3413C28.7161 24.9573 28.5324 23.8121 27.3642 22.644C26.1961 21.4758 25.0505 21.2925 24.6673 21.3091C24.2163 21.3283 24.1591 21.4006 24.1091 21.6174C24.0785 21.7477 24.1674 21.9099 24.6143 22.1286Z" fill="white"/>
<path d="M25.2986 17.62C24.7483 17.6196 24.6093 17.9603 24.5927 18.0924C24.5589 18.3594 24.7557 18.5758 25.1646 18.6929C25.6321 18.8265 27.4843 19.4206 29.036 20.9723C30.5881 22.524 31.1825 24.3765 31.3158 24.8441C31.4325 25.2525 31.6485 25.4491 31.9158 25.4156C32.0487 25.3997 32.389 25.2604 32.3882 24.7101C32.3886 24.2745 32.1224 21.9936 30.0685 19.9389C28.0151 17.8854 25.733 17.6196 25.2986 17.62Z" fill="white"/>
<path d="M32.7904 17.2179C29.8484 14.2759 26.7446 14.0226 26.2111 14.0086C25.5599 13.9921 25.3016 14.2842 25.302 14.5838C25.3016 14.8391 25.5633 15.1014 25.9525 15.2016C26.5368 15.3514 28.8527 15.7162 31.5721 18.4357C34.2924 21.1552 34.6564 23.4715 34.807 24.0561C34.9068 24.4446 35.1695 24.7066 35.4244 24.7066C35.7244 24.7066 36.0165 24.4487 35.9992 23.7979C35.9857 23.2641 35.7323 20.1602 32.7904 17.2179Z" fill="white"/>
</g>
<defs>
<clipPath id="clip0_105_1132">
<rect width="22" height="22" fill="white" transform="translate(14 14)"/>
</clipPath>
</defs>
</svg>
