<svg width="73" height="15" viewBox="0 0 73 15" fill="none" xmlns="http://www.w3.org/2000/svg">
<path d="M5.19064 3.76196C5.90894 2.47339 6.26808 1.8291 6.80506 1.8291C7.34204 1.8291 7.70118 2.47338 8.41945 3.76196L8.60529 4.09533C8.80944 4.4615 8.91146 4.64459 9.07064 4.76539C9.22977 4.88619 9.42791 4.93103 9.82431 5.02071L10.1852 5.10236C11.58 5.41797 12.2775 5.57577 12.4434 6.10935C12.6093 6.64291 12.1339 7.19894 11.1829 8.31089L10.9369 8.59857C10.6667 8.91456 10.5316 9.07255 10.4708 9.26802C10.4101 9.4635 10.4305 9.67429 10.4713 10.0959L10.5085 10.4797C10.6523 11.9633 10.7242 12.7052 10.2898 13.0349C9.85533 13.3647 9.20232 13.064 7.89631 12.4627L7.55844 12.3071C7.18734 12.1363 7.00178 12.0508 6.80506 12.0508C6.60834 12.0508 6.42278 12.1363 6.05168 12.3071L5.71381 12.4627C4.40779 13.064 3.75478 13.3647 3.32037 13.0349C2.88597 12.7052 2.95785 11.9633 3.10162 10.4797L3.13881 10.0959C3.17967 9.67429 3.20009 9.4635 3.13931 9.26802C3.07853 9.07255 2.94342 8.91456 2.67319 8.59857L2.42718 8.31089C1.47625 7.19894 1.00079 6.64291 1.16672 6.10935C1.33265 5.57577 2.03008 5.41797 3.42494 5.10236L3.78581 5.02071C4.18218 4.93103 4.38037 4.88619 4.5395 4.76539C4.69863 4.64459 4.8007 4.4615 5.00481 4.09533L5.19064 3.76196Z" fill="white"/>
<path d="M20.0381 3.76196C20.7564 2.47339 21.1156 1.8291 21.6525 1.8291C22.1895 1.8291 22.5486 2.47338 23.2669 3.76196L23.4528 4.09533C23.6569 4.4615 23.7589 4.64459 23.9181 4.76539C24.0772 4.88619 24.2754 4.93103 24.6718 5.02071L25.0327 5.10236C26.4275 5.41797 27.125 5.57577 27.2909 6.10935C27.4568 6.64291 26.9814 7.19894 26.0304 8.31089L25.7844 8.59857C25.5142 8.91456 25.3791 9.07255 25.3183 9.26802C25.2575 9.4635 25.2779 9.67429 25.3188 10.0959L25.356 10.4797C25.4997 11.9633 25.5716 12.7052 25.1372 13.0349C24.7028 13.3647 24.0498 13.064 22.7438 12.4627L22.4059 12.3071C22.0348 12.1363 21.8493 12.0508 21.6525 12.0508C21.4558 12.0508 21.2703 12.1363 20.8992 12.3071L20.5613 12.4627C19.2553 13.064 18.6023 13.3647 18.1678 13.0349C17.7334 12.7052 17.8053 11.9633 17.9491 10.4797L17.9863 10.0959C18.0271 9.67429 18.0476 9.4635 17.9868 9.26802C17.926 9.07255 17.7909 8.91456 17.5207 8.59857L17.2747 8.31089C16.3237 7.19894 15.8483 6.64291 16.0142 6.10935C16.1801 5.57577 16.8776 5.41797 18.2724 5.10236L18.6333 5.02071C19.0297 4.93103 19.2278 4.88619 19.387 4.76539C19.5461 4.64459 19.6482 4.4615 19.8523 4.09533L20.0381 3.76196Z" fill="white"/>
<path d="M34.8856 3.76196C35.6039 2.47339 35.963 1.8291 36.5 1.8291C37.037 1.8291 37.3961 2.47338 38.1144 3.76196L38.3002 4.09533C38.5044 4.4615 38.6064 4.64459 38.7656 4.76539C38.9247 4.88619 39.1229 4.93103 39.5193 5.02071L39.8801 5.10236C41.275 5.41797 41.9724 5.57577 42.1384 6.10935C42.3043 6.64291 41.8288 7.19894 40.8779 8.31089L40.6319 8.59857C40.3617 8.91456 40.2265 9.07255 40.1657 9.26802C40.105 9.4635 40.1254 9.67429 40.1662 10.0959L40.2034 10.4797C40.3472 11.9633 40.4191 12.7052 39.9847 13.0349C39.5503 13.3647 38.8973 13.064 37.5913 12.4627L37.2534 12.3071C36.8823 12.1363 36.6967 12.0508 36.5 12.0508C36.3033 12.0508 36.1177 12.1363 35.7466 12.3071L35.4088 12.4627C34.1027 13.064 33.4497 13.3647 33.0153 13.0349C32.5809 12.7052 32.6528 11.9633 32.7966 10.4797L32.8338 10.0959C32.8746 9.67429 32.895 9.4635 32.8343 9.26802C32.7735 9.07255 32.6384 8.91456 32.3681 8.59857L32.1221 8.31089C31.1712 7.19894 30.6957 6.64291 30.8617 6.10935C31.0276 5.57577 31.725 5.41797 33.1199 5.10236L33.4808 5.02071C33.8771 4.93103 34.0753 4.88619 34.2344 4.76539C34.3936 4.64459 34.4956 4.4615 34.6998 4.09533L34.8856 3.76196Z" fill="white"/>
<path d="M49.733 3.76196C50.4513 2.47339 50.8104 1.8291 51.3474 1.8291C51.8844 1.8291 52.2435 2.47338 52.9618 3.76196L53.1476 4.09533C53.3518 4.4615 53.4538 4.64459 53.613 4.76539C53.7721 4.88619 53.9703 4.93103 54.3667 5.02071L54.7276 5.10236C56.1224 5.41797 56.8198 5.57577 56.9858 6.10935C57.1517 6.64291 56.6763 7.19894 55.7253 8.31089L55.4793 8.59857C55.2091 8.91456 55.0739 9.07255 55.0131 9.26802C54.9524 9.4635 54.9728 9.67429 55.0137 10.0959L55.0509 10.4797C55.1946 11.9633 55.2665 12.7052 54.8321 13.0349C54.3977 13.3647 53.7447 13.064 52.4387 12.4627L52.1008 12.3071C51.7297 12.1363 51.5441 12.0508 51.3474 12.0508C51.1507 12.0508 50.9651 12.1363 50.594 12.3071L50.2562 12.4627C48.9501 13.064 48.2971 13.3647 47.8627 13.0349C47.4283 12.7052 47.5002 11.9633 47.644 10.4797L47.6812 10.0959C47.722 9.67429 47.7425 9.4635 47.6817 9.26802C47.6209 9.07255 47.4858 8.91456 47.2156 8.59857L46.9695 8.31089C46.0186 7.19894 45.5431 6.64291 45.7091 6.10935C45.875 5.57577 46.5724 5.41797 47.9673 5.10236L48.3282 5.02071C48.7245 4.93103 48.9227 4.88619 49.0819 4.76539C49.241 4.64459 49.3431 4.4615 49.5472 4.09533L49.733 3.76196Z" fill="white"/>
<path d="M64.5805 3.76196C65.2988 2.47339 65.6579 1.8291 66.1949 1.8291C66.7319 1.8291 67.091 2.47338 67.8093 3.76196L67.9951 4.09533C68.1993 4.4615 68.3013 4.64459 68.4605 4.76539C68.6196 4.88619 68.8177 4.93103 69.2141 5.02071L69.575 5.10236C70.9698 5.41797 71.6673 5.57577 71.8332 6.10935C71.9992 6.64291 71.5237 7.19894 70.5728 8.31089L70.3268 8.59857C70.0566 8.91456 69.9214 9.07255 69.8606 9.26802C69.7999 9.4635 69.8203 9.67429 69.8611 10.0959L69.8983 10.4797C70.0421 11.9633 70.114 12.7052 69.6796 13.0349C69.2452 13.3647 68.5922 13.064 67.2861 12.4627L66.9483 12.3071C66.5772 12.1363 66.3916 12.0508 66.1949 12.0508C65.9982 12.0508 65.8126 12.1363 65.4415 12.3071L65.1036 12.4627C63.7976 13.064 63.1446 13.3647 62.7102 13.0349C62.2758 12.7052 62.3477 11.9633 62.4915 10.4797L62.5286 10.0959C62.5695 9.67429 62.5899 9.4635 62.5291 9.26802C62.4684 9.07255 62.3333 8.91456 62.063 8.59857L61.817 8.31089C60.8661 7.19894 60.3906 6.64291 60.5566 6.10935C60.7225 5.57577 61.4199 5.41797 62.8148 5.10236L63.1756 5.02071C63.572 4.93103 63.7702 4.88619 63.9293 4.76539C64.0885 4.64459 64.1905 4.4615 64.3946 4.09533L64.5805 3.76196Z" fill="#FD6B01" stroke="white"/>
<path d="M63.7204 5.02535L65.5763 1.93213H66.1949V11.8304L63.1017 13.0677L62.4831 12.4491V9.35586L60.6271 6.88128V5.64399L63.7204 5.02535Z" fill="white"/>
</svg>
