<svg width="25" height="25" viewBox="0 0 25 25" fill="none" xmlns="http://www.w3.org/2000/svg">
<path fill-rule="evenodd" clip-rule="evenodd" d="M12.5 22.9163C18.2529 22.9163 22.9166 18.2526 22.9166 12.4997C22.9166 6.74671 18.2529 2.08301 12.5 2.08301C6.74701 2.08301 2.08331 6.74671 2.08331 12.4997C2.08331 18.2526 6.74701 22.9163 12.5 22.9163ZM13.2812 6.24967C13.2812 5.81821 12.9314 5.46842 12.5 5.46842C12.0685 5.46842 11.7187 5.81821 11.7187 6.24967V6.5796C10.0204 6.88371 8.59373 8.15968 8.59373 9.89551C8.59373 11.8926 10.4821 13.2809 12.5 13.2809C13.9338 13.2809 14.8437 14.2244 14.8437 15.1038C14.8437 15.9833 13.9338 16.9268 12.5 16.9268C11.0661 16.9268 10.1562 15.9833 10.1562 15.1038C10.1562 14.6724 9.80645 14.3226 9.37498 14.3226C8.94351 14.3226 8.59373 14.6724 8.59373 15.1038C8.59373 16.8397 10.0204 18.1156 11.7187 18.4198V18.7497C11.7187 19.1811 12.0685 19.5309 12.5 19.5309C12.9314 19.5309 13.2812 19.1811 13.2812 18.7497V18.4198C14.9796 18.1156 16.4062 16.8397 16.4062 15.1038C16.4062 13.1068 14.5179 11.7184 12.5 11.7184C11.0661 11.7184 10.1562 10.775 10.1562 9.89551C10.1562 9.01606 11.0661 8.07259 12.5 8.07259C13.9338 8.07259 14.8437 9.01606 14.8437 9.89551C14.8437 10.327 15.1935 10.6768 15.625 10.6768C16.0564 10.6768 16.4062 10.327 16.4062 9.89551C16.4062 8.15968 14.9796 6.88371 13.2812 6.5796V6.24967Z" fill="#FF6B00"/>
</svg>
