<svg width="20" height="20" viewBox="0 0 20 20" fill="none" xmlns="http://www.w3.org/2000/svg">
<path d="M7.62766 4.50682C8.68319 2.61328 9.21094 1.6665 10 1.6665C10.7891 1.6665 11.3169 2.61327 12.3724 4.50681L12.6454 4.9967C12.9454 5.53478 13.0954 5.80383 13.3293 5.98135C13.5631 6.15886 13.8543 6.22475 14.4368 6.35655L14.9671 6.47653C17.0168 6.9403 18.0417 7.17219 18.2855 7.95628C18.5294 8.74034 17.8307 9.55742 16.4333 11.1914L16.0718 11.6142C15.6747 12.0785 15.4761 12.3107 15.3868 12.5979C15.2975 12.8852 15.3275 13.1949 15.3875 13.8145L15.4422 14.3785C15.6534 16.5587 15.7591 17.6488 15.1208 18.1333C14.4824 18.6179 13.5228 18.1761 11.6036 17.2925L11.1071 17.0638C10.5618 16.8128 10.2891 16.6872 10 16.6872C9.71094 16.6872 9.43827 16.8128 8.89294 17.0638L8.39644 17.2925C6.47725 18.1761 5.51767 18.6179 4.87931 18.1333C4.24096 17.6488 4.34659 16.5587 4.55786 14.3785L4.6125 13.8145C4.67255 13.1949 4.70256 12.8852 4.61324 12.5979C4.52392 12.3107 4.32538 12.0785 3.92829 11.6142L3.56677 11.1914C2.1694 9.55742 1.47071 8.74034 1.71454 7.95628C1.95837 7.17219 2.98324 6.9403 5.03297 6.47653L5.56326 6.35655C6.14573 6.22475 6.43696 6.15886 6.6708 5.98135C6.90465 5.80383 7.05463 5.53479 7.35458 4.9967L7.62766 4.50682Z" fill="#4278F6"/>
</svg>
