<svg width="20" height="20" viewBox="0 0 20 20" fill="none" xmlns="http://www.w3.org/2000/svg">
<path d="M16.6666 1.6665H11.6666C11.448 1.66742 11.2385 1.75422 11.0833 1.90817L2.49998 10.4582C2.34502 10.613 2.22209 10.7968 2.13821 10.9991C2.05434 11.2014 2.01117 11.4183 2.01117 11.6373C2.01117 11.8564 2.05434 12.0732 2.13821 12.2756C2.22209 12.4779 2.34502 12.6617 2.49998 12.8165L7.18331 17.4998C7.49444 17.8128 7.917 17.9896 8.35831 17.9915C8.57824 17.9917 8.79603 17.9483 8.99912 17.8639C9.20221 17.7796 9.3866 17.6558 9.54165 17.4998L18.0916 8.9165C18.2456 8.76129 18.3324 8.55179 18.3333 8.33317V3.33317C18.3333 2.89114 18.1577 2.46722 17.8452 2.15466C17.5326 1.8421 17.1087 1.6665 16.6666 1.6665ZM13.75 7.49984C13.5028 7.49984 13.2611 7.42653 13.0555 7.28917C12.85 7.15182 12.6897 6.9566 12.5951 6.72819C12.5005 6.49978 12.4758 6.24845 12.524 6.00597C12.5722 5.7635 12.6913 5.54077 12.8661 5.36595C13.0409 5.19114 13.2636 5.07209 13.5061 5.02386C13.7486 4.97562 13.9999 5.00038 14.2283 5.09499C14.4567 5.1896 14.652 5.34981 14.7893 5.55537C14.9267 5.76094 15 6.00261 15 6.24984C15 6.58136 14.8683 6.8993 14.6339 7.13372C14.3994 7.36814 14.0815 7.49984 13.75 7.49984Z" fill="#FF6B00"/>
</svg>
