<svg width="25" height="25" viewBox="0 0 25 25" fill="none" xmlns="http://www.w3.org/2000/svg">
<path d="M22.9166 12.4997C22.9166 18.2526 18.2529 22.9163 12.5 22.9163C6.74701 22.9163 2.08331 18.2526 2.08331 12.4997C2.08331 6.74671 6.74701 2.08301 12.5 2.08301C18.2529 2.08301 22.9166 6.74671 22.9166 12.4997Z" fill="#FF6B00"/>
<path fill-rule="evenodd" clip-rule="evenodd" d="M12.5 7.55176C12.9315 7.55176 13.2812 7.90154 13.2812 8.33301V12.176L15.6566 14.5514C15.9617 14.8565 15.9617 15.3511 15.6566 15.6562C15.3515 15.9613 14.8569 15.9613 14.5518 15.6562L11.9476 13.0521C11.801 12.9056 11.7188 12.7069 11.7188 12.4997V8.33301C11.7188 7.90154 12.0685 7.55176 12.5 7.55176Z" fill="white"/>
</svg>
