<svg width="50" height="50" viewBox="0 0 50 50" fill="none" xmlns="http://www.w3.org/2000/svg">
<circle cx="25" cy="25" r="25" fill="#4278F6"/>
<path d="M32.9558 17.2783C32.4184 16.7832 30.2432 15.2047 25.3936 15.1835C25.3936 15.1835 19.6765 14.8408 16.892 17.3968C15.3431 18.9456 14.7972 21.2181 14.738 24.0322C14.6787 26.8463 14.6068 32.1191 19.6892 33.5494H19.6934L19.6892 35.7331C19.6892 35.7331 19.6553 36.6175 20.2393 36.7952C20.9418 37.0153 21.3565 36.3424 22.0293 35.6188C22.3975 35.221 22.9053 34.637 23.2904 34.1927C26.7689 34.4846 29.4392 33.816 29.7438 33.7187C30.4464 33.4902 34.4199 32.9824 35.0632 27.7096C35.7318 22.2675 34.7416 18.8313 32.9558 17.2783ZM33.5439 27.3118C32.9981 31.7128 29.7777 31.9921 29.1853 32.1825C28.9313 32.2629 26.5827 32.8469 23.6332 32.6565C23.6332 32.6565 21.4327 35.3098 20.7471 35.9997C20.5228 36.2239 20.2774 36.2028 20.2816 35.7584C20.2816 35.4664 20.2985 32.1318 20.2985 32.1318C20.2943 32.1318 20.2943 32.1318 20.2985 32.1318C15.9906 30.9384 16.2445 26.4486 16.2911 24.0999C16.3376 21.7513 16.7819 19.8258 18.0938 18.5309C20.4509 16.3938 25.3048 16.7112 25.3048 16.7112C29.4053 16.7281 31.3688 17.9638 31.8259 18.3785C33.3366 19.6735 34.1068 22.7711 33.5439 27.3118ZM27.6618 23.8925C27.6788 24.2564 27.1329 24.2819 27.1159 23.9179C27.0694 22.9869 26.6335 22.5341 25.7364 22.4834C25.3725 22.4622 25.4063 21.9163 25.7659 21.9375C26.9467 22.0009 27.6026 22.678 27.6618 23.8925ZM28.5209 24.3707C28.5632 22.5764 27.4417 21.1715 25.3132 21.0149C24.9534 20.9895 24.9916 20.4436 25.3512 20.469C27.8057 20.6468 29.1133 22.3352 29.0667 24.3834C29.0625 24.7474 28.5124 24.7304 28.5209 24.3707ZM30.5097 24.9377C30.5141 25.3017 29.9639 25.306 29.9639 24.942C29.9385 21.4931 27.6406 19.6142 24.8519 19.5931C24.4923 19.5888 24.4923 19.0472 24.8519 19.0472C27.9707 19.0683 30.4802 21.2223 30.5097 24.9377ZM30.0316 29.0892V29.0976C29.5746 29.9017 28.7198 30.7903 27.8396 30.5068L27.8311 30.4941C26.9382 30.2445 24.835 29.1611 23.5062 28.1031C22.8207 27.5615 22.1944 26.9225 21.7119 26.3089C21.2761 25.7629 20.836 25.1155 20.4086 24.3368C19.5072 22.7076 19.3083 21.9798 19.3083 21.9798C19.0248 21.0996 19.9092 20.2447 20.7175 19.7877H20.7259C21.1153 19.5846 21.4877 19.6523 21.7373 19.9528C21.7373 19.9528 22.2621 20.5791 22.4864 20.888C22.698 21.1757 22.9814 21.637 23.1295 21.8951C23.3877 22.3564 23.2269 22.8261 22.973 23.0208L22.4652 23.427C22.2071 23.6344 22.2409 24.0195 22.2409 24.0195C22.2409 24.0195 22.9941 26.8675 25.8083 27.5868C25.8083 27.5868 26.1934 27.6207 26.4008 27.3626L26.807 26.8548C27.0017 26.6009 27.4714 26.44 27.9326 26.6982C28.5548 27.0494 29.346 27.5954 29.8708 28.0905C30.167 28.3316 30.2347 28.6998 30.0316 29.0892Z" fill="white"/>
</svg>
